<svg width="251" height="205" viewBox="0 0 251 205" fill="none" xmlns="http://www.w3.org/2000/svg">
<g filter="url(#filter0_d_84_2645)">
<path d="M60.0051 87.1112C57.0679 92.5586 56.7733 100.662 60.8871 105.608C69.8381 112.609 72.1544 112.283 81.0021 113.942C89.8497 115.6 99.604 115.094 108.202 112.531C116.8 109.968 123.567 105.549 127.072 100.208C130.578 94.8667 130.546 89.023 126.984 83.9126C123.423 78.8021 116.61 74.8256 107.987 72.8242C99.3649 70.8228 89.6086 70.9534 80.7819 73.1883C71.9553 75.4233 67.1485 77.288 63.0896 82.5005L79.8203 89.1587L60.0051 87.1112Z" fill="#72923D"/>
</g>
<g filter="url(#filter1_d_84_2645)">
<path d="M217.799 88.4899C221.228 93.932 222.901 102.667 220.31 108.671C214.01 117.661 212.004 117.671 204.852 120.856C197.7 124.041 189.405 125.023 181.721 123.594C174.037 122.166 167.567 118.438 163.679 113.201C159.79 107.963 158.79 101.626 160.887 95.53C162.985 89.4337 168.018 84.0563 174.92 80.5351C181.822 77.0139 190.053 75.6251 197.872 76.6624C205.691 77.6997 210.062 78.9663 214.394 83.9777L201.489 93.8167L217.799 88.4899Z" fill="#72923D"/>
</g>
<g filter="url(#filter2_d_84_2645)">
<path d="M114.37 135.256C115.703 142.393 120.903 151.102 127.467 154.407C139.227 157.62 140.837 156.19 148.934 153.801C157.031 151.412 164.392 146.309 169.462 139.572C174.532 132.835 176.911 124.992 176.098 117.702C175.285 110.412 171.342 104.246 165.104 100.509C158.866 96.7714 150.822 95.7558 142.673 97.6767C134.524 99.5976 126.909 104.304 121.439 110.801C115.969 117.298 113.424 121.522 113.714 128.935L131.386 128.143L114.37 135.256Z" fill="#72923D"/>
</g>
<g filter="url(#filter3_d_84_2645)">
<path d="M44.935 35.3783C40.9266 40.8112 38.5886 49.8077 40.9813 56.2619C47.1506 66.0996 49.2947 66.2548 56.7407 70.0949C64.1867 73.9349 72.9938 75.558 81.299 74.6209C89.6043 73.6839 96.7566 70.2601 101.243 65.0737C105.73 59.8873 107.198 53.3451 105.339 46.8307C103.48 40.3164 98.4379 34.3407 91.28 30.1677C84.1221 25.9946 75.4094 23.9514 66.9847 24.4702C58.56 24.989 53.8062 25.9958 48.8601 30.9142L62.0381 42.1145L44.935 35.3783Z" fill="#72923D"/>
</g>
<g filter="url(#filter4_d_84_2645)">
<path d="M219.633 27.9038C226.95 39.4005 229.318 60.9741 221.528 72.7436C203.844 90.0173 198.85 89.7497 180.34 95.1626C161.831 100.576 140.968 101.37 122.165 97.3774C103.362 93.3849 88.3024 89.8927 79.7962 78.7437C71.29 67.5946 71.4737 49.6008 78.0559 37.575C84.638 25.5492 96.8923 15.4606 114.855 9.33178C132.818 3.20294 153.612 1.57668 172.838 4.79695C192.064 8.01722 202.661 11.2062 212.32 21.9618L160.032 37.3531L219.633 27.9038Z" fill="#587637"/>
</g>
<g filter="url(#filter5_d_84_2645)">
<path d="M109.249 79.98C109.264 77.6983 111.718 76.267 113.71 77.3781L126.878 84.7254C127.26 84.9387 127.684 85.0657 128.121 85.0974L143.216 86.1926C145.319 86.3452 146.612 88.5643 145.708 90.4708L139.222 104.155C139.034 104.551 138.935 104.983 138.932 105.421L138.832 120.508C138.817 122.79 136.363 124.221 134.371 123.11L121.203 115.763C120.821 115.55 120.397 115.423 119.96 115.391L104.865 114.296C102.762 114.143 101.469 111.924 102.373 110.018L108.859 96.3333C109.047 95.9374 109.146 95.5052 109.149 95.0671L109.249 79.98Z" fill="#CCE66F"/>
</g>
<g filter="url(#filter6_d_84_2645)">
<path d="M99.1978 96.5785C97.5965 94.9545 98.3199 92.2071 100.513 91.5837L115.017 87.4607C115.438 87.341 115.828 87.1304 116.159 86.8438L127.606 76.9374C129.201 75.557 131.684 76.2117 132.392 78.1996L137.475 92.4646C137.622 92.8773 137.857 93.2528 138.165 93.5646L148.755 104.305C150.356 105.929 149.633 108.676 147.44 109.3L132.936 113.423C132.515 113.542 132.125 113.753 131.794 114.04L120.347 123.946C118.752 125.326 116.269 124.672 115.56 122.684L110.478 108.419C110.331 108.006 110.096 107.631 109.788 107.319L99.1978 96.5785Z" fill="#D7ECBE"/>
</g>
<path d="M107.34 89.9828C106.848 88.6176 107.927 87.1986 109.373 87.3087L115.104 87.745C115.932 87.808 116.713 87.3526 117.066 86.6008L119.511 81.3947C120.128 80.0813 121.893 79.841 122.837 80.9419L126.583 85.3074C127.123 85.9374 127.996 86.1676 128.777 85.8859L134.186 83.9344C135.55 83.4423 136.967 84.5211 136.857 85.9679L136.421 91.7052C136.358 92.5333 136.813 93.3141 137.564 93.6673L142.767 96.1149C144.079 96.732 144.319 98.4982 143.219 99.4436L138.857 103.191C138.228 103.732 137.997 104.606 138.279 105.388L140.228 110.799C140.72 112.164 139.642 113.583 138.196 113.473L132.464 113.037C131.636 112.974 130.856 113.429 130.503 114.181L128.058 119.387C127.441 120.701 125.676 120.941 124.731 119.84L120.986 115.475C120.445 114.845 119.572 114.614 118.791 114.896L113.382 116.848C112.018 117.34 110.601 116.261 110.711 114.814L111.147 109.077C111.21 108.249 110.756 107.468 110.005 107.115L104.801 104.667C103.489 104.05 103.249 102.284 104.35 101.338L108.711 97.5911C109.341 97.0499 109.571 96.1755 109.29 95.3941L107.34 89.9828Z" fill="#FBF3E6"/>
<g filter="url(#filter7_d_84_2645)">
<path d="M115.084 88.7857C115.151 87.3361 116.691 86.4381 117.985 87.0936L121.047 88.6448C121.787 89.02 122.683 88.8982 123.297 88.3387L125.834 86.026C126.906 85.0488 128.629 85.5025 129.08 86.8812L130.15 90.1469C130.408 90.9359 131.127 91.483 131.956 91.5217L135.387 91.682C136.835 91.7497 137.732 93.2889 137.077 94.5834L135.526 97.6497C135.151 98.3906 135.272 99.2861 135.831 99.8999L138.143 102.441C139.12 103.513 138.665 105.237 137.287 105.689L134.026 106.759C133.237 107.018 132.69 107.737 132.651 108.567L132.491 111.998C132.423 113.448 130.884 114.346 129.59 113.69L126.528 112.139C125.787 111.764 124.892 111.885 124.278 112.445L121.741 114.758C120.668 115.735 118.946 115.281 118.494 113.902L117.425 110.637C117.166 109.848 116.447 109.301 115.618 109.262L112.188 109.102C110.74 109.034 109.843 107.495 110.498 106.2L112.049 103.134C112.424 102.393 112.302 101.498 111.744 100.884L109.431 98.3429C108.455 97.2702 108.909 95.5468 110.287 95.0947L113.549 94.0248C114.338 93.766 114.885 93.0463 114.924 92.2166L115.084 88.7857Z" fill="#FBFFFB"/>
</g>
<g filter="url(#filter8_d_84_2645)">
<path d="M114.364 94.8876C113.872 93.5225 114.95 92.1035 116.396 92.2136L118.053 92.3397C118.881 92.4027 119.661 91.9473 120.014 91.1954L120.721 89.6906C121.338 88.3772 123.103 88.1369 124.047 89.2377L125.131 90.5004C125.671 91.1304 126.545 91.3606 127.325 91.079L128.89 90.5145C130.254 90.0224 131.671 91.1012 131.561 92.548L131.435 94.2075C131.372 95.0356 131.827 95.8164 132.578 96.1696L134.083 96.8776C135.395 97.4947 135.634 99.2609 134.534 100.206L133.273 101.289C132.644 101.831 132.413 102.705 132.695 103.486L133.258 105.051C133.75 106.416 132.671 107.835 131.225 107.725L129.569 107.599C128.741 107.536 127.96 107.991 127.607 108.743L126.901 110.248C126.284 111.561 124.519 111.801 123.574 110.701L122.491 109.438C121.95 108.808 121.077 108.578 120.296 108.859L118.732 109.424C117.368 109.916 115.951 108.837 116.061 107.39L116.187 105.731C116.25 104.903 115.795 104.122 115.044 103.769L113.539 103.061C112.227 102.444 111.988 100.677 113.088 99.732L114.348 98.6488C114.978 98.1076 115.209 97.2332 114.927 96.4518L114.364 94.8876Z" fill="#F2F38D"/>
</g>
<g filter="url(#filter9_i_84_2645)">
<ellipse cx="4.39652" cy="4.39809" rx="4.39652" ry="4.39809" transform="matrix(0.863783 -0.503863 0.503318 0.864101 117.882 98.4056)" fill="#FAB71C"/>
</g>
<path d="M127.259 98.0275C128.343 99.8879 127.714 102.275 125.855 103.359C123.996 104.443 121.611 103.815 120.527 101.954C119.444 100.094 120.072 97.7067 121.931 96.6224C123.79 95.5382 126.175 96.167 127.259 98.0275Z" stroke="#F2C03E"/>
<path d="M86.2876 65.0146C84.9126 65.0146 83.6209 64.7438 82.4126 64.2021C81.2251 63.6605 80.173 62.9209 79.2563 61.9834C78.3605 61.0459 77.6522 59.9626 77.1313 58.7334C76.6313 57.4834 76.3813 56.1605 76.3813 54.7646C76.3813 53.2855 76.6418 51.9001 77.1626 50.6084C77.6834 49.2959 78.4126 48.1501 79.3501 47.1709C80.2876 46.1709 81.3709 45.3896 82.6001 44.8271C83.8501 44.2646 85.1938 43.9834 86.6313 43.9834C87.8605 43.9834 89.1105 44.0459 90.3813 44.1709C91.6522 44.2959 92.9334 44.4938 94.2251 44.7646L94.1626 49.2646C94.1626 49.5771 93.9438 49.7334 93.5063 49.7334C93.298 49.7334 93.1626 49.6813 93.1001 49.5771C93.0376 49.3063 92.9543 49.0355 92.8501 48.7646C92.7668 48.473 92.5793 48.098 92.2876 47.6396C91.7876 46.9105 91.0688 46.3376 90.1313 45.9209C89.2147 45.5042 88.0793 45.2959 86.7251 45.2959C85.7043 45.2959 84.7459 45.5459 83.8501 46.0459C82.9543 46.5251 82.1626 47.1813 81.4751 48.0146C80.8084 48.848 80.2876 49.7959 79.9126 50.8584C79.5376 51.9001 79.3501 52.9834 79.3501 54.1084C79.3501 55.8376 79.6418 57.3896 80.2251 58.7646C80.8084 60.1813 81.7251 61.3584 82.9751 62.2959C84.2459 63.2126 85.7459 63.6709 87.4751 63.6709C89.5376 63.6709 91.1313 63.0667 92.2563 61.8584C92.5897 61.5042 92.8501 61.0876 93.0376 60.6084C93.2251 60.1292 93.3709 59.7126 93.4751 59.3584C93.5793 59.0042 93.6834 58.8271 93.7876 58.8271C93.9126 58.8271 94.0584 58.848 94.2251 58.8896C94.4126 58.9105 94.5584 58.9521 94.6626 59.0146L94.8188 59.1084C94.8188 59.2334 94.7772 59.5251 94.6938 59.9834C94.6105 60.4417 94.5063 60.9521 94.3813 61.5146C94.2563 62.0563 94.1313 62.5355 94.0063 62.9521C93.9022 63.3688 93.8188 63.598 93.7563 63.6396C92.2147 64.5563 89.7251 65.0146 86.2876 65.0146ZM103.506 65.0459C102.256 65.0459 101.111 64.7334 100.069 64.1084C99.0272 63.4834 98.1938 62.6396 97.5688 61.5771C96.9647 60.5146 96.6626 59.348 96.6626 58.0771C96.6626 56.7855 96.9543 55.6188 97.5376 54.5771C98.1418 53.5355 98.9543 52.7126 99.9751 52.1084C100.996 51.4834 102.152 51.1709 103.444 51.1709C104.694 51.1709 105.829 51.4834 106.85 52.1084C107.892 52.7334 108.715 53.5667 109.319 54.6084C109.944 55.6501 110.256 56.8063 110.256 58.0771C110.256 59.348 109.954 60.5146 109.35 61.5771C108.746 62.6396 107.933 63.4834 106.913 64.1084C105.913 64.7334 104.777 65.0459 103.506 65.0459ZM103.788 63.8271C104.538 63.8271 105.194 63.5876 105.756 63.1084C106.319 62.6292 106.756 61.9834 107.069 61.1709C107.402 60.3584 107.569 59.473 107.569 58.5146C107.569 57.3896 107.361 56.3688 106.944 55.4521C106.527 54.5146 105.975 53.7751 105.288 53.2334C104.621 52.6709 103.892 52.3896 103.1 52.3896C102.371 52.3896 101.715 52.6292 101.131 53.1084C100.569 53.5667 100.131 54.1917 99.8188 54.9834C99.5063 55.7542 99.3501 56.6292 99.3501 57.6084C99.3501 58.7334 99.548 59.7751 99.9438 60.7334C100.361 61.6709 100.902 62.4209 101.569 62.9834C102.256 63.5459 102.996 63.8271 103.788 63.8271ZM112.475 64.9209C112.392 64.8376 112.35 64.6605 112.35 64.3896C112.35 64.1396 112.392 64.0146 112.475 64.0146C112.642 64.0146 112.871 63.9834 113.163 63.9209C113.454 63.8584 113.725 63.7751 113.975 63.6709C114.225 63.5667 114.361 63.473 114.381 63.3896C114.465 63.098 114.517 62.7646 114.538 62.3896C114.579 62.0146 114.6 61.6188 114.6 61.2021V55.2959C114.6 54.5042 114.454 53.9417 114.163 53.6084C113.954 53.3584 113.704 53.1917 113.413 53.1084C113.142 53.0251 112.892 52.9834 112.663 52.9834C112.454 52.9626 112.35 52.9313 112.35 52.8896C112.35 52.3896 112.413 52.1292 112.538 52.1084C113.642 51.9417 114.538 51.7959 115.225 51.6709C115.913 51.5251 116.34 51.4313 116.506 51.3896L117.006 51.2646C117.09 51.2438 117.142 51.3271 117.163 51.5146C117.183 51.7021 117.183 51.8376 117.163 51.9209C117.121 52.2126 117.09 52.4626 117.069 52.6709C117.048 52.8792 117.038 53.0459 117.038 53.1709C117.038 53.2542 117.058 53.2959 117.1 53.2959C117.121 53.2959 117.152 53.2751 117.194 53.2334C117.673 52.7334 118.319 52.2646 119.131 51.8271C119.965 51.3688 120.756 51.1396 121.506 51.1396C122.965 51.1396 123.986 51.6605 124.569 52.7021C125.152 53.7438 125.444 55.4313 125.444 57.7646V60.6084C125.444 61.2126 125.465 61.7438 125.506 62.2021C125.548 62.6605 125.611 63.0563 125.694 63.3896C125.736 63.473 125.881 63.5667 126.131 63.6709C126.381 63.7751 126.652 63.8584 126.944 63.9209C127.236 63.9834 127.444 64.0146 127.569 64.0146C127.631 64.0146 127.673 64.1396 127.694 64.3896C127.715 64.6396 127.704 64.8167 127.663 64.9209L124.319 64.7646L121.038 64.9209C120.954 64.8376 120.913 64.6605 120.913 64.3896C120.913 64.1396 120.954 64.0146 121.038 64.0146C121.204 64.0146 121.423 63.9834 121.694 63.9209C121.965 63.8584 122.215 63.7751 122.444 63.6709C122.673 63.5667 122.798 63.473 122.819 63.3896C122.902 63.098 122.954 62.7646 122.975 62.3896C123.017 62.0146 123.038 61.6188 123.038 61.2021V58.0771C123.038 56.1396 122.788 54.8167 122.288 54.1084C121.788 53.4001 120.975 53.0459 119.85 53.0459C119.413 53.0459 118.975 53.1709 118.538 53.4209C118.1 53.6501 117.736 53.9209 117.444 54.2334C117.152 54.5459 117.006 54.8376 117.006 55.1084V60.6084C117.006 61.2126 117.027 61.7438 117.069 62.2021C117.111 62.6605 117.173 63.0563 117.256 63.3896C117.298 63.473 117.444 63.5667 117.694 63.6709C117.944 63.7751 118.215 63.8584 118.506 63.9209C118.798 63.9834 119.006 64.0146 119.131 64.0146C119.194 64.0146 119.236 64.1396 119.256 64.3896C119.277 64.6396 119.267 64.8167 119.225 64.9209L115.881 64.7646L112.475 64.9209ZM134.569 65.0459C133.527 65.0459 132.652 64.7021 131.944 64.0146C131.256 63.3271 130.913 62.348 130.913 61.0771V53.1396H129.1C128.996 53.1396 128.944 52.9209 128.944 52.4834C128.944 52.3584 128.954 52.2855 128.975 52.2646C129.6 51.973 130.256 51.4209 130.944 50.6084C131.423 50.0459 131.777 49.5563 132.006 49.1396C132.256 48.723 132.381 48.473 132.381 48.3896C133.006 48.3896 133.319 48.4417 133.319 48.5459V51.6396L135.788 51.6709H137.538C137.704 51.6709 137.788 51.7646 137.788 51.9521C137.788 52.348 137.683 52.7438 137.475 53.1396H133.319V60.7959C133.319 61.6292 133.527 62.2959 133.944 62.7959C134.381 63.2959 134.944 63.5459 135.631 63.5459C136.277 63.5459 136.923 63.348 137.569 62.9521C137.631 62.9105 137.725 63.0042 137.85 63.2334C137.975 63.4417 138.027 63.5563 138.006 63.5771C137.694 63.9105 137.215 64.2438 136.569 64.5771C135.923 64.8896 135.256 65.0459 134.569 65.0459ZM142.756 65.0459C141.798 65.0459 141.006 64.7959 140.381 64.2959C139.756 63.7751 139.444 63.0042 139.444 61.9834C139.444 60.7334 140.256 59.6917 141.881 58.8584C142.59 58.5042 143.288 58.223 143.975 58.0146C144.683 57.8063 145.392 57.5667 146.1 57.2959C146.288 57.2334 146.381 57.0771 146.381 56.8271V54.4834C146.381 53.8167 146.173 53.3063 145.756 52.9521C145.34 52.5771 144.84 52.3896 144.256 52.3896C143.631 52.3896 143.111 52.6084 142.694 53.0459C142.277 53.4626 142.069 54.0146 142.069 54.7021C142.069 55.4313 141.642 55.7959 140.788 55.7959C140.183 55.7959 139.777 55.598 139.569 55.2021C139.569 54.7646 139.746 54.3167 140.1 53.8584C140.475 53.3792 140.954 52.9417 141.538 52.5459C142.121 52.1501 142.756 51.8271 143.444 51.5771C144.152 51.3271 144.85 51.2021 145.538 51.2021C146.683 51.2021 147.506 51.4834 148.006 52.0459C148.506 52.5876 148.756 53.473 148.756 54.7021V61.9209C148.756 62.3584 148.871 62.723 149.1 63.0146C149.329 63.3063 149.642 63.4521 150.038 63.4521C150.308 63.4521 150.673 63.3063 151.131 63.0146C151.215 63.0146 151.256 63.098 151.256 63.2646C151.256 63.5355 151.204 63.7542 151.1 63.9209C150.246 64.6501 149.517 65.0146 148.913 65.0146C148.433 65.0146 147.975 64.8167 147.538 64.4209C147.1 64.0251 146.798 63.6084 146.631 63.1709C146.527 63.2542 146.392 63.3688 146.225 63.5146C146.079 63.6396 145.954 63.7438 145.85 63.8271C145.413 64.1605 144.933 64.4521 144.413 64.7021C143.913 64.9313 143.361 65.0459 142.756 65.0459ZM143.944 63.2646C144.527 63.2646 145.079 63.098 145.6 62.7646C146.121 62.4313 146.381 62.0771 146.381 61.7021V58.4834C145.84 58.6917 145.319 58.8792 144.819 59.0459C144.34 59.2126 143.954 59.348 143.663 59.4521C143.288 59.598 142.923 59.8584 142.569 60.2334C142.236 60.6084 142.069 61.0355 142.069 61.5146C142.069 62.1396 142.256 62.5876 142.631 62.8584C143.027 63.1292 143.465 63.2646 143.944 63.2646ZM158.913 65.0146C157.767 65.0146 156.715 64.7126 155.756 64.1084C154.798 63.5042 154.027 62.7021 153.444 61.7021C152.881 60.6813 152.6 59.5459 152.6 58.2959C152.6 57.0042 152.829 55.8271 153.288 54.7646C153.767 53.6813 154.454 52.8167 155.35 52.1709C156.267 51.5251 157.371 51.2021 158.663 51.2021C160.954 51.2021 162.538 51.7334 163.413 52.7959C163.413 54.1917 163.027 54.8896 162.256 54.8896C161.902 54.8896 161.631 54.8167 161.444 54.6709C161.256 54.5042 161.017 54.2126 160.725 53.7959C160.079 52.8376 159.308 52.3584 158.413 52.3584C157.558 52.3584 156.777 52.7646 156.069 53.5771C155.381 54.3896 155.038 55.598 155.038 57.2021C155.038 58.8688 155.444 60.2542 156.256 61.3584C157.09 62.4626 158.236 63.0146 159.694 63.0146C160.569 63.0146 161.298 62.8896 161.881 62.6396C162.486 62.3688 162.923 62.1292 163.194 61.9209L163.413 61.7646C163.538 61.7646 163.6 61.9001 163.6 62.1709C163.6 62.3167 163.538 62.5042 163.413 62.7334C162.996 63.3167 162.381 63.848 161.569 64.3271C160.756 64.7855 159.871 65.0146 158.913 65.0146ZM170.256 65.0459C169.215 65.0459 168.34 64.7021 167.631 64.0146C166.944 63.3271 166.6 62.348 166.6 61.0771V53.1396H164.788C164.683 53.1396 164.631 52.9209 164.631 52.4834C164.631 52.3584 164.642 52.2855 164.663 52.2646C165.288 51.973 165.944 51.4209 166.631 50.6084C167.111 50.0459 167.465 49.5563 167.694 49.1396C167.944 48.723 168.069 48.473 168.069 48.3896C168.694 48.3896 169.006 48.4417 169.006 48.5459V51.6396L171.475 51.6709H173.225C173.392 51.6709 173.475 51.7646 173.475 51.9521C173.475 52.348 173.371 52.7438 173.163 53.1396H169.006V60.7959C169.006 61.6292 169.215 62.2959 169.631 62.7959C170.069 63.2959 170.631 63.5459 171.319 63.5459C171.965 63.5459 172.611 63.348 173.256 62.9521C173.319 62.9105 173.413 63.0042 173.538 63.2334C173.663 63.4417 173.715 63.5563 173.694 63.5771C173.381 63.9105 172.902 64.2438 172.256 64.5771C171.611 64.8896 170.944 65.0459 170.256 65.0459ZM182.038 64.9209C181.933 64.8167 181.881 64.6605 181.881 64.4521C181.881 64.1605 181.933 64.0146 182.038 64.0146C182.246 64.0146 182.517 63.9834 182.85 63.9209C183.183 63.8584 183.506 63.7751 183.819 63.6709C184.131 63.5667 184.35 63.4521 184.475 63.3271C184.829 62.9521 185.017 62.0459 185.038 60.6084C185.079 58.1917 185.121 56.0251 185.163 54.1084C185.225 52.1709 185.277 50.5876 185.319 49.3584C185.361 48.1084 185.381 47.3063 185.381 46.9521C185.381 46.3896 185.34 45.973 185.256 45.7021C185.215 45.5771 185.027 45.473 184.694 45.3896C184.381 45.2855 184.038 45.2021 183.663 45.1396C183.288 45.0771 182.996 45.0459 182.788 45.0459C182.704 45.0459 182.663 44.9001 182.663 44.6084C182.663 44.3792 182.704 44.223 182.788 44.1396C183.288 44.1605 183.84 44.1917 184.444 44.2334C185.048 44.2751 185.663 44.2959 186.288 44.2959C186.683 44.2959 187.111 44.2855 187.569 44.2646C188.048 44.223 188.579 44.1813 189.163 44.1396C189.329 44.598 191.392 49.8167 195.35 59.7959C195.392 59.8376 195.433 59.8584 195.475 59.8584C195.558 59.8584 195.611 59.8167 195.631 59.7334C196.652 57.3376 197.569 55.1501 198.381 53.1709C199.194 51.1917 199.902 49.4313 200.506 47.8896L201.756 44.1396C202.423 44.1813 202.965 44.2126 203.381 44.2334C203.819 44.2542 204.142 44.2646 204.35 44.2646C204.996 44.2646 205.611 44.2542 206.194 44.2334C206.777 44.2126 207.329 44.1813 207.85 44.1396C207.913 44.3271 207.944 44.4834 207.944 44.6084C207.944 44.9001 207.892 45.0459 207.788 45.0459H207.725C207.496 45.0459 207.194 45.1188 206.819 45.2646C206.444 45.3896 206.163 45.5251 205.975 45.6709C205.725 45.8584 205.6 46.5563 205.6 47.7646L205.881 60.4521C205.923 61.6605 206.079 62.6188 206.35 63.3271C206.413 63.4521 206.579 63.5667 206.85 63.6709C207.121 63.7751 207.413 63.8584 207.725 63.9209C208.058 63.9834 208.298 64.0146 208.444 64.0146C208.527 64.0146 208.569 64.1605 208.569 64.4521C208.569 64.598 208.548 64.7542 208.506 64.9209C207.465 64.8792 206.631 64.848 206.006 64.8271C205.402 64.7855 204.996 64.7646 204.788 64.7646L201.038 64.9209C200.954 64.8376 200.913 64.6709 200.913 64.4209C200.913 64.1501 200.954 64.0146 201.038 64.0146C201.246 64.0146 201.558 63.9626 201.975 63.8584C202.413 63.7542 202.725 63.6501 202.913 63.5459C203.163 63.3792 203.288 62.9313 203.288 62.2021V60.5459L202.913 49.5459C202.913 49.3167 202.881 49.0667 202.819 48.7959C202.777 48.5042 202.725 48.2542 202.663 48.0459C202.6 47.8167 202.527 47.7021 202.444 47.7021C202.402 47.7021 202.35 47.7751 202.288 47.9209L195.756 63.5459C195.361 64.4417 194.975 64.8896 194.6 64.8896C194.579 64.8896 194.486 64.8688 194.319 64.8271L187.163 46.6396C187.1 49.5771 187.027 52.2021 186.944 54.5146C186.861 56.8063 186.788 58.6501 186.725 60.0459C186.683 61.4417 186.663 62.2542 186.663 62.4834C186.663 62.8584 186.725 63.1292 186.85 63.2959C186.933 63.4001 187.142 63.5146 187.475 63.6396C187.808 63.7438 188.152 63.8376 188.506 63.9209C188.881 63.9834 189.131 64.0146 189.256 64.0146C189.34 64.0146 189.381 64.1709 189.381 64.4834C189.381 64.6084 189.361 64.7542 189.319 64.9209C188.277 64.8792 187.454 64.848 186.85 64.8271C186.246 64.7855 185.861 64.7646 185.694 64.7646L182.038 64.9209ZM216.975 65.0146C215.829 65.0146 214.777 64.7126 213.819 64.1084C212.861 63.5042 212.09 62.7021 211.506 61.7021C210.944 60.6813 210.663 59.5459 210.663 58.2959C210.663 56.8376 210.933 55.5771 211.475 54.5146C212.017 53.4521 212.756 52.6396 213.694 52.0771C214.631 51.4938 215.683 51.2021 216.85 51.2021C217.808 51.2021 218.652 51.3896 219.381 51.7646C220.111 52.1188 220.673 52.5771 221.069 53.1396C221.444 53.723 221.715 54.3167 221.881 54.9209C222.069 55.5042 222.163 56.0876 222.163 56.6709C222.163 57.0876 222.1 57.348 221.975 57.4521C221.85 57.5355 221.611 57.5771 221.256 57.5771H213.381C213.215 57.5771 213.131 57.6292 213.131 57.7334C213.131 58.6084 213.308 59.4521 213.663 60.2646C214.017 61.0563 214.538 61.7126 215.225 62.2334C215.913 62.7542 216.756 63.0146 217.756 63.0146C218.631 63.0146 219.361 62.8896 219.944 62.6396C220.548 62.3688 220.986 62.1292 221.256 61.9209L221.475 61.7646C221.6 61.7646 221.663 61.9001 221.663 62.1709C221.663 62.3167 221.6 62.5042 221.475 62.7334C221.058 63.3167 220.444 63.848 219.631 64.3271C218.819 64.7855 217.933 65.0146 216.975 65.0146ZM213.381 56.2646H219.475C219.579 56.2646 219.631 56.1605 219.631 55.9521C219.631 55.4938 219.506 54.9938 219.256 54.4521C219.027 53.8896 218.673 53.4001 218.194 52.9834C217.715 52.5667 217.111 52.3584 216.381 52.3584C215.715 52.3584 215.142 52.5876 214.663 53.0459C214.183 53.4834 213.819 53.9938 213.569 54.5771C213.319 55.1396 213.194 55.6292 213.194 56.0459C213.194 56.1917 213.256 56.2646 213.381 56.2646Z" fill="#E7EEDA"/>
<defs>
<filter id="filter0_d_84_2645" x="53.7974" y="71.4122" width="79.8813" height="51.4886" filterUnits="userSpaceOnUse" color-interpolation-filters="sRGB">
<feFlood flood-opacity="0" result="BackgroundImageFix"/>
<feColorMatrix in="SourceAlpha" type="matrix" values="0 0 0 0 0 0 0 0 0 0 0 0 0 0 0 0 0 0 127 0" result="hardAlpha"/>
<feOffset dy="4"/>
<feGaussianBlur stdDeviation="2"/>
<feComposite in2="hardAlpha" operator="out"/>
<feColorMatrix type="matrix" values="0 0 0 0 0.393333 0 0 0 0 0.0747333 0 0 0 0 0.303063 0 0 0 0.25 0"/>
<feBlend mode="normal" in2="BackgroundImageFix" result="effect1_dropShadow_84_2645"/>
<feBlend mode="normal" in="SourceGraphic" in2="effect1_dropShadow_84_2645" result="shape"/>
</filter>
<filter id="filter1_d_84_2645" x="155.814" y="76.3269" width="69.7588" height="55.9081" filterUnits="userSpaceOnUse" color-interpolation-filters="sRGB">
<feFlood flood-opacity="0" result="BackgroundImageFix"/>
<feColorMatrix in="SourceAlpha" type="matrix" values="0 0 0 0 0 0 0 0 0 0 0 0 0 0 0 0 0 0 127 0" result="hardAlpha"/>
<feOffset dy="4"/>
<feGaussianBlur stdDeviation="2"/>
<feComposite in2="hardAlpha" operator="out"/>
<feColorMatrix type="matrix" values="0 0 0 0 0.393333 0 0 0 0 0.0747333 0 0 0 0 0.303063 0 0 0 0.25 0"/>
<feBlend mode="normal" in2="BackgroundImageFix" result="effect1_dropShadow_84_2645"/>
<feBlend mode="normal" in="SourceGraphic" in2="effect1_dropShadow_84_2645" result="shape"/>
</filter>
<filter id="filter2_d_84_2645" x="109.692" y="96.7267" width="70.5627" height="67.5447" filterUnits="userSpaceOnUse" color-interpolation-filters="sRGB">
<feFlood flood-opacity="0" result="BackgroundImageFix"/>
<feColorMatrix in="SourceAlpha" type="matrix" values="0 0 0 0 0 0 0 0 0 0 0 0 0 0 0 0 0 0 127 0" result="hardAlpha"/>
<feOffset dy="4"/>
<feGaussianBlur stdDeviation="2"/>
<feComposite in2="hardAlpha" operator="out"/>
<feColorMatrix type="matrix" values="0 0 0 0 0.393333 0 0 0 0 0.0747333 0 0 0 0 0.303063 0 0 0 0.25 0"/>
<feBlend mode="normal" in2="BackgroundImageFix" result="effect1_dropShadow_84_2645"/>
<feBlend mode="normal" in="SourceGraphic" in2="effect1_dropShadow_84_2645" result="shape"/>
</filter>
<filter id="filter3_d_84_2645" x="36.0168" y="24.391" width="74.1082" height="58.4894" filterUnits="userSpaceOnUse" color-interpolation-filters="sRGB">
<feFlood flood-opacity="0" result="BackgroundImageFix"/>
<feColorMatrix in="SourceAlpha" type="matrix" values="0 0 0 0 0 0 0 0 0 0 0 0 0 0 0 0 0 0 127 0" result="hardAlpha"/>
<feOffset dy="4"/>
<feGaussianBlur stdDeviation="2"/>
<feComposite in2="hardAlpha" operator="out"/>
<feColorMatrix type="matrix" values="0 0 0 0 0.393333 0 0 0 0 0.0747333 0 0 0 0 0.303063 0 0 0 0.25 0"/>
<feBlend mode="normal" in2="BackgroundImageFix" result="effect1_dropShadow_84_2645"/>
<feBlend mode="normal" in="SourceGraphic" in2="effect1_dropShadow_84_2645" result="shape"/>
</filter>
<filter id="filter4_d_84_2645" x="69.2529" y="3.17932" width="161.104" height="104.708" filterUnits="userSpaceOnUse" color-interpolation-filters="sRGB">
<feFlood flood-opacity="0" result="BackgroundImageFix"/>
<feColorMatrix in="SourceAlpha" type="matrix" values="0 0 0 0 0 0 0 0 0 0 0 0 0 0 0 0 0 0 127 0" result="hardAlpha"/>
<feOffset dy="4"/>
<feGaussianBlur stdDeviation="2"/>
<feComposite in2="hardAlpha" operator="out"/>
<feColorMatrix type="matrix" values="0 0 0 0 0.393333 0 0 0 0 0.0747333 0 0 0 0 0.303063 0 0 0 0.25 0"/>
<feBlend mode="normal" in2="BackgroundImageFix" result="effect1_dropShadow_84_2645"/>
<feBlend mode="normal" in="SourceGraphic" in2="effect1_dropShadow_84_2645" result="shape"/>
</filter>
<filter id="filter5_d_84_2645" x="98.0806" y="76.994" width="51.9199" height="54.5002" filterUnits="userSpaceOnUse" color-interpolation-filters="sRGB">
<feFlood flood-opacity="0" result="BackgroundImageFix"/>
<feColorMatrix in="SourceAlpha" type="matrix" values="0 0 0 0 0 0 0 0 0 0 0 0 0 0 0 0 0 0 127 0" result="hardAlpha"/>
<feOffset dy="4"/>
<feGaussianBlur stdDeviation="2"/>
<feComposite in2="hardAlpha" operator="out"/>
<feColorMatrix type="matrix" values="0 0 0 0 0.393333 0 0 0 0 0.0747333 0 0 0 0 0.303063 0 0 0 0.25 0"/>
<feBlend mode="normal" in2="BackgroundImageFix" result="effect1_dropShadow_84_2645"/>
<feBlend mode="normal" in="SourceGraphic" in2="effect1_dropShadow_84_2645" result="shape"/>
</filter>
<filter id="filter6_d_84_2645" x="94.3318" y="76.2051" width="59.2891" height="56.4733" filterUnits="userSpaceOnUse" color-interpolation-filters="sRGB">
<feFlood flood-opacity="0" result="BackgroundImageFix"/>
<feColorMatrix in="SourceAlpha" type="matrix" values="0 0 0 0 0 0 0 0 0 0 0 0 0 0 0 0 0 0 127 0" result="hardAlpha"/>
<feOffset dy="4"/>
<feGaussianBlur stdDeviation="2"/>
<feComposite in2="hardAlpha" operator="out"/>
<feColorMatrix type="matrix" values="0 0 0 0 0.393333 0 0 0 0 0.0747333 0 0 0 0 0.303063 0 0 0 0.25 0"/>
<feBlend mode="normal" in2="BackgroundImageFix" result="effect1_dropShadow_84_2645"/>
<feBlend mode="normal" in="SourceGraphic" in2="effect1_dropShadow_84_2645" result="shape"/>
</filter>
<filter id="filter7_d_84_2645" x="104.909" y="85.5033" width="37.7559" height="37.7771" filterUnits="userSpaceOnUse" color-interpolation-filters="sRGB">
<feFlood flood-opacity="0" result="BackgroundImageFix"/>
<feColorMatrix in="SourceAlpha" type="matrix" values="0 0 0 0 0 0 0 0 0 0 0 0 0 0 0 0 0 0 127 0" result="hardAlpha"/>
<feOffset dy="4"/>
<feGaussianBlur stdDeviation="2"/>
<feComposite in2="hardAlpha" operator="out"/>
<feColorMatrix type="matrix" values="0 0 0 0 0.393333 0 0 0 0 0.0747333 0 0 0 0 0.303063 0 0 0 0.25 0"/>
<feBlend mode="normal" in2="BackgroundImageFix" result="effect1_dropShadow_84_2645"/>
<feBlend mode="normal" in="SourceGraphic" in2="effect1_dropShadow_84_2645" result="shape"/>
</filter>
<filter id="filter8_d_84_2645" x="108.39" y="88.5403" width="30.8411" height="30.8578" filterUnits="userSpaceOnUse" color-interpolation-filters="sRGB">
<feFlood flood-opacity="0" result="BackgroundImageFix"/>
<feColorMatrix in="SourceAlpha" type="matrix" values="0 0 0 0 0 0 0 0 0 0 0 0 0 0 0 0 0 0 127 0" result="hardAlpha"/>
<feOffset dy="4"/>
<feGaussianBlur stdDeviation="2"/>
<feComposite in2="hardAlpha" operator="out"/>
<feColorMatrix type="matrix" values="0 0 0 0 0.393333 0 0 0 0 0.0747333 0 0 0 0 0.303063 0 0 0 0.25 0"/>
<feBlend mode="normal" in2="BackgroundImageFix" result="effect1_dropShadow_84_2645"/>
<feBlend mode="normal" in="SourceGraphic" in2="effect1_dropShadow_84_2645" result="shape"/>
</filter>
<filter id="filter9_i_84_2645" x="119.497" y="95.5912" width="8.79297" height="12.7992" filterUnits="userSpaceOnUse" color-interpolation-filters="sRGB">
<feFlood flood-opacity="0" result="BackgroundImageFix"/>
<feBlend mode="normal" in="SourceGraphic" in2="BackgroundImageFix" result="shape"/>
<feColorMatrix in="SourceAlpha" type="matrix" values="0 0 0 0 0 0 0 0 0 0 0 0 0 0 0 0 0 0 127 0" result="hardAlpha"/>
<feOffset dy="4"/>
<feGaussianBlur stdDeviation="2"/>
<feComposite in2="hardAlpha" operator="arithmetic" k2="-1" k3="1"/>
<feColorMatrix type="matrix" values="0 0 0 0 0.393333 0 0 0 0 0.0747333 0 0 0 0 0.303063 0 0 0 0.25 0"/>
<feBlend mode="normal" in2="shape" result="effect1_innerShadow_84_2645"/>
</filter>
</defs>
</svg>
