<svg width="299" height="245" viewBox="0 0 299 245" fill="none" xmlns="http://www.w3.org/2000/svg">
<g filter="url(#filter0_d_77_458)">
<path d="M37.9985 110.747C33.329 119.408 32.8607 132.291 39.4008 140.154C53.631 151.284 57.3135 150.766 71.3795 153.402C85.4455 156.039 100.953 155.235 114.622 151.16C128.291 147.085 139.049 140.059 144.622 131.568C150.195 123.077 150.145 113.787 144.482 105.662C138.82 97.5375 127.989 91.2158 114.281 88.0339C100.573 84.8521 85.0621 85.0597 71.0295 88.6128C56.997 92.1659 49.3552 95.1305 42.9023 103.417L69.5007 114.002L37.9985 110.747Z" fill="#72923D"/>
</g>
<g filter="url(#filter1_d_77_458)">
<path d="M288.86 112.939C294.311 121.591 296.97 135.478 292.851 145.024C282.836 159.316 279.647 159.332 268.277 164.395C256.907 169.459 243.719 171.02 231.503 168.748C219.287 166.477 209 160.551 202.819 152.225C196.637 143.898 195.046 133.823 198.381 124.132C201.717 114.44 209.717 105.891 220.69 100.293C231.663 94.6948 244.749 92.4869 257.179 94.1359C269.609 95.785 276.56 97.7986 283.445 105.766L262.929 121.408L288.86 112.939Z" fill="#72923D"/>
</g>
<g filter="url(#filter2_d_77_458)">
<path d="M124.427 193.647C126.547 204.994 134.814 218.839 145.249 224.093C163.945 229.201 166.505 226.928 179.377 223.13C192.249 219.332 203.953 211.22 212.013 200.509C220.072 189.799 223.856 177.33 222.563 165.74C221.27 154.15 215.002 144.347 205.085 138.406C195.168 132.464 182.379 130.85 169.424 133.904C156.468 136.957 144.362 144.44 135.666 154.769C126.969 165.098 122.924 171.812 123.385 183.598L151.48 182.339L124.427 193.647Z" fill="#72923D"/>
</g>
<g filter="url(#filter3_d_77_458)">
<path d="M14.04 28.5026C7.66743 37.1399 3.95048 51.4424 7.75432 61.7033C17.5624 77.3433 20.9711 77.5901 32.8087 83.695C44.6464 89.7998 58.6477 92.3803 71.8514 90.8905C85.0552 89.4007 96.4258 83.9576 103.558 75.7123C110.691 67.467 113.026 57.0662 110.07 46.7097C107.114 36.3532 99.0988 26.8531 87.7191 20.2188C76.3395 13.5845 62.4881 10.3362 49.0945 11.161C35.701 11.9858 28.1434 13.5863 20.2801 21.4056L41.2304 39.2118L14.04 28.5026Z" fill="#72923D"/>
</g>
<g filter="url(#filter4_d_77_458)">
<path d="M262.175 33.304C270.912 47.0303 273.738 72.7881 264.438 86.8401C243.324 107.464 237.361 107.144 215.262 113.607C193.163 120.07 168.254 121.018 145.804 116.251C123.354 111.485 105.374 107.315 95.2178 94.0039C85.0619 80.6925 85.2813 59.2089 93.14 44.8508C100.999 30.4927 115.63 18.4476 137.076 11.1301C158.523 3.8126 183.349 1.87093 206.304 5.71575C229.259 9.56057 241.911 13.3681 253.444 26.2095L191.015 44.586L262.175 33.304Z" fill="#587637"/>
</g>
<g filter="url(#filter5_d_77_458)">
<path d="M150.127 89.4774C150.142 87.1958 152.596 85.7644 154.588 86.8755L177.537 99.6804C177.919 99.8937 178.344 100.021 178.78 100.052L204.707 101.933C206.81 102.086 208.103 104.305 207.199 106.212L196.058 129.715C195.871 130.111 195.772 130.543 195.769 130.982L195.594 157.275C195.579 159.557 193.125 160.988 191.133 159.877L168.184 147.072C167.802 146.859 167.377 146.732 166.941 146.7L141.013 144.819C138.91 144.667 137.618 142.448 138.521 140.541L149.663 117.037C149.85 116.641 149.949 116.209 149.952 115.771L150.127 89.4774Z" fill="#CCE66F"/>
</g>
<g filter="url(#filter6_d_77_458)">
<path d="M132.733 115.796C131.132 114.172 131.855 111.424 134.048 110.801L159.325 103.616C159.746 103.496 160.136 103.285 160.467 102.999L180.129 85.9831C181.724 84.6027 184.207 85.2574 184.915 87.2453L193.644 111.747C193.791 112.16 194.027 112.536 194.334 112.847L212.79 131.565C214.392 133.189 213.668 135.936 211.475 136.56L186.199 143.745C185.777 143.865 185.388 144.075 185.056 144.362L165.395 161.377C163.8 162.758 161.317 162.103 160.608 160.115L151.879 135.613C151.732 135.2 151.497 134.825 151.189 134.513L132.733 115.796Z" fill="#D7ECBE"/>
</g>
<path d="M146.609 106.027C146.117 104.662 147.195 103.243 148.641 103.353L159.855 104.207C160.683 104.27 161.464 103.815 161.817 103.063L166.6 92.8773C167.217 91.5639 168.982 91.3236 169.927 92.4244L177.254 100.964C177.794 101.594 178.668 101.825 179.448 101.543L190.03 97.7253C191.394 97.2332 192.811 98.312 192.701 99.7588L191.847 110.982C191.784 111.811 192.239 112.591 192.99 112.945L203.17 117.732C204.482 118.35 204.721 120.116 203.621 121.061L195.088 128.393C194.459 128.934 194.228 129.808 194.51 130.59L198.324 141.177C198.816 142.542 197.737 143.961 196.291 143.851L185.077 142.997C184.25 142.934 183.469 143.39 183.116 144.142L178.332 154.327C177.715 155.641 175.95 155.881 175.006 154.78L167.679 146.24C167.138 145.61 166.265 145.38 165.484 145.662L154.903 149.479C153.539 149.971 152.122 148.893 152.232 147.446L153.085 136.222C153.148 135.394 152.693 134.613 151.943 134.26L141.763 129.472C140.451 128.855 140.211 127.089 141.312 126.143L149.844 118.812C150.474 118.271 150.704 117.396 150.423 116.615L146.609 106.027Z" fill="#FBF3E6"/>
<g filter="url(#filter7_d_77_458)">
<path d="M159.161 104.089C159.229 102.64 160.768 101.742 162.062 102.397L168.918 105.87C169.658 106.245 170.554 106.124 171.168 105.564L176.849 100.386C177.921 99.4091 179.643 99.8628 180.095 101.241L182.489 108.55C182.747 109.339 183.466 109.887 184.295 109.925L191.973 110.284C193.421 110.352 194.318 111.891 193.663 113.185L190.191 120.048C189.817 120.789 189.938 121.684 190.497 122.298L195.672 127.985C196.648 129.058 196.194 130.781 194.816 131.233L187.514 133.628C186.725 133.887 186.178 134.607 186.139 135.437L185.781 143.118C185.713 144.567 184.174 145.465 182.88 144.81L176.025 141.337C175.284 140.962 174.389 141.084 173.775 141.643L168.094 146.821C167.021 147.798 165.299 147.344 164.847 145.966L162.453 138.657C162.195 137.868 161.476 137.321 160.647 137.282L152.969 136.923C151.521 136.855 150.624 135.316 151.279 134.022L154.751 127.159C155.126 126.418 155.004 125.523 154.446 124.909L149.27 119.222C148.294 118.15 148.748 116.426 150.126 115.974L157.428 113.579C158.217 113.32 158.764 112.6 158.803 111.77L159.161 104.089Z" fill="#FBFFFB"/>
</g>
<g filter="url(#filter8_d_77_458)">
<path d="M157.412 113.572C156.92 112.207 157.999 110.788 159.445 110.898L164.391 111.274C165.218 111.337 165.999 110.882 166.352 110.13L168.462 105.637C169.079 104.324 170.844 104.084 171.788 105.185L175.021 108.952C175.561 109.582 176.435 109.812 177.215 109.531L181.883 107.846C183.247 107.354 184.664 108.433 184.554 109.88L184.178 114.831C184.115 115.659 184.57 116.44 185.321 116.793L189.811 118.905C191.123 119.523 191.363 121.289 190.263 122.234L186.499 125.468C185.869 126.009 185.639 126.884 185.92 127.665L187.603 132.335C188.095 133.7 187.016 135.119 185.57 135.009L180.624 134.632C179.796 134.569 179.016 135.025 178.663 135.777L176.553 140.269C175.936 141.582 174.171 141.823 173.226 140.722L169.994 136.955C169.453 136.325 168.58 136.094 167.799 136.376L163.132 138.06C161.768 138.552 160.35 137.473 160.46 136.027L160.837 131.075C160.9 130.247 160.445 129.466 159.694 129.113L155.203 127.001C153.891 126.384 153.652 124.618 154.752 123.672L158.516 120.439C159.145 119.897 159.376 119.023 159.094 118.242L157.412 113.572Z" fill="#F2F38D"/>
</g>
<g filter="url(#filter9_i_77_458)">
<ellipse cx="6.76255" cy="6.76496" rx="6.76255" ry="6.76496" transform="matrix(0.863783 -0.503863 0.503318 0.864101 163.387 120.548)" fill="#FAB71C"/>
</g>
<path d="M178.043 119.831C179.785 122.821 178.774 126.658 175.787 128.4C172.799 130.143 168.966 129.132 167.224 126.142C165.482 123.152 166.493 119.316 169.48 117.573C172.468 115.83 176.301 116.841 178.043 119.831Z" stroke="#F2C03E"/>
<path d="M108.151 74.587C106.604 74.587 105.151 74.2823 103.791 73.673C102.455 73.0636 101.272 72.2316 100.24 71.1769C99.2326 70.1222 98.4357 68.9034 97.8498 67.5206C97.2873 66.1144 97.006 64.6261 97.006 63.0558C97.006 61.3917 97.299 59.8331 97.8849 58.38C98.4709 56.9034 99.2912 55.6144 100.346 54.5128C101.401 53.3878 102.619 52.5089 104.002 51.8761C105.408 51.2433 106.92 50.9269 108.537 50.9269C109.92 50.9269 111.326 50.9972 112.756 51.1378C114.186 51.2784 115.627 51.5011 117.08 51.8058L117.01 56.8683C117.01 57.2198 116.764 57.3956 116.272 57.3956C116.037 57.3956 115.885 57.337 115.815 57.2198C115.744 56.9152 115.651 56.6105 115.533 56.3058C115.44 55.9777 115.229 55.5558 114.901 55.0402C114.338 54.2198 113.529 53.5753 112.475 53.1066C111.444 52.6378 110.166 52.4034 108.643 52.4034C107.494 52.4034 106.416 52.6847 105.408 53.2472C104.401 53.7863 103.51 54.5245 102.736 55.462C101.986 56.3995 101.401 57.4659 100.979 58.6613C100.557 59.8331 100.346 61.0519 100.346 62.3175C100.346 64.2628 100.674 66.0089 101.33 67.5558C101.986 69.1495 103.018 70.4738 104.424 71.5284C105.854 72.5597 107.541 73.0753 109.486 73.0753C111.807 73.0753 113.6 72.3956 114.865 71.0363C115.24 70.6378 115.533 70.1691 115.744 69.63C115.955 69.0909 116.119 68.6222 116.236 68.2238C116.354 67.8253 116.471 67.6261 116.588 67.6261C116.729 67.6261 116.893 67.6495 117.08 67.6964C117.291 67.7198 117.455 67.7667 117.572 67.837L117.748 67.9425C117.748 68.0831 117.701 68.4113 117.608 68.9269C117.514 69.4425 117.397 70.0167 117.256 70.6495C117.115 71.2589 116.975 71.798 116.834 72.2667C116.717 72.7355 116.623 72.9933 116.553 73.0402C114.819 74.0714 112.018 74.587 108.151 74.587ZM127.522 74.6222C126.115 74.6222 124.826 74.2706 123.654 73.5675C122.483 72.8644 121.545 71.9152 120.842 70.7198C120.162 69.5245 119.822 68.212 119.822 66.7823C119.822 65.3292 120.151 64.0167 120.807 62.8448C121.486 61.673 122.401 60.7472 123.549 60.0675C124.697 59.3644 125.998 59.0128 127.451 59.0128C128.858 59.0128 130.135 59.3644 131.283 60.0675C132.455 60.7706 133.381 61.7081 134.061 62.88C134.764 64.0519 135.115 65.3527 135.115 66.7823C135.115 68.212 134.776 69.5245 134.096 70.7198C133.416 71.9152 132.502 72.8644 131.354 73.5675C130.229 74.2706 128.951 74.6222 127.522 74.6222ZM127.838 73.2511C128.682 73.2511 129.42 72.9816 130.053 72.4425C130.686 71.9034 131.178 71.1769 131.529 70.2628C131.904 69.3488 132.092 68.3527 132.092 67.2745C132.092 66.0089 131.858 64.8605 131.389 63.8292C130.92 62.7745 130.299 61.9425 129.526 61.3331C128.776 60.7003 127.955 60.3839 127.065 60.3839C126.244 60.3839 125.506 60.6534 124.85 61.1925C124.217 61.7081 123.725 62.4113 123.373 63.3019C123.022 64.1691 122.846 65.1534 122.846 66.255C122.846 67.5206 123.069 68.6925 123.514 69.7706C123.983 70.8253 124.592 71.6691 125.342 72.3019C126.115 72.9347 126.947 73.2511 127.838 73.2511ZM137.611 74.4816C137.518 74.3878 137.471 74.1886 137.471 73.8839C137.471 73.6027 137.518 73.462 137.611 73.462C137.799 73.462 138.057 73.4269 138.385 73.3566C138.713 73.2863 139.018 73.1925 139.299 73.0753C139.58 72.9581 139.733 72.8527 139.756 72.7589C139.85 72.4308 139.908 72.0558 139.932 71.6339C139.979 71.212 140.002 70.7667 140.002 70.298V63.6534C140.002 62.7628 139.838 62.13 139.51 61.755C139.276 61.4738 138.994 61.2863 138.666 61.1925C138.361 61.0988 138.08 61.0519 137.822 61.0519C137.588 61.0284 137.471 60.9933 137.471 60.9464C137.471 60.3839 137.541 60.0909 137.682 60.0675C138.924 59.88 139.932 59.7159 140.705 59.5753C141.479 59.4113 141.959 59.3058 142.147 59.2589L142.709 59.1183C142.803 59.0948 142.861 59.1886 142.885 59.3995C142.908 59.6105 142.908 59.7628 142.885 59.8566C142.838 60.1847 142.803 60.4659 142.779 60.7003C142.756 60.9347 142.744 61.1222 142.744 61.2628C142.744 61.3566 142.768 61.4034 142.815 61.4034C142.838 61.4034 142.873 61.38 142.92 61.3331C143.459 60.7706 144.186 60.2433 145.1 59.7511C146.037 59.2355 146.928 58.9777 147.772 58.9777C149.412 58.9777 150.561 59.5636 151.217 60.7355C151.873 61.9073 152.201 63.8058 152.201 66.4308V69.63C152.201 70.3097 152.225 70.9073 152.272 71.423C152.319 71.9386 152.389 72.3839 152.483 72.7589C152.529 72.8527 152.694 72.9581 152.975 73.0753C153.256 73.1925 153.561 73.2863 153.889 73.3566C154.217 73.4269 154.451 73.462 154.592 73.462C154.662 73.462 154.709 73.6027 154.733 73.8839C154.756 74.1652 154.744 74.3644 154.697 74.4816L150.936 74.3058L147.244 74.4816C147.151 74.3878 147.104 74.1886 147.104 73.8839C147.104 73.6027 147.151 73.462 147.244 73.462C147.432 73.462 147.678 73.4269 147.983 73.3566C148.287 73.2863 148.569 73.1925 148.826 73.0753C149.084 72.9581 149.225 72.8527 149.248 72.7589C149.342 72.4308 149.401 72.0558 149.424 71.6339C149.471 71.212 149.494 70.7667 149.494 70.298V66.7823C149.494 64.6027 149.213 63.1144 148.651 62.3175C148.088 61.5206 147.174 61.1222 145.908 61.1222C145.416 61.1222 144.924 61.2628 144.432 61.5441C143.94 61.8019 143.529 62.1066 143.201 62.4581C142.873 62.8097 142.709 63.1378 142.709 63.4425V69.63C142.709 70.3097 142.733 70.9073 142.779 71.423C142.826 71.9386 142.897 72.3839 142.99 72.7589C143.037 72.8527 143.201 72.9581 143.483 73.0753C143.764 73.1925 144.069 73.2863 144.397 73.3566C144.725 73.4269 144.959 73.462 145.1 73.462C145.17 73.462 145.217 73.6027 145.24 73.8839C145.264 74.1652 145.252 74.3644 145.205 74.4816L141.444 74.3058L137.611 74.4816ZM162.467 74.6222C161.295 74.6222 160.311 74.2355 159.514 73.462C158.74 72.6886 158.354 71.587 158.354 70.1573V61.2277H156.315C156.197 61.2277 156.139 60.9816 156.139 60.4894C156.139 60.3488 156.151 60.2667 156.174 60.2433C156.877 59.9152 157.615 59.2941 158.389 58.38C158.928 57.7472 159.326 57.1964 159.584 56.7277C159.865 56.2589 160.006 55.9777 160.006 55.8839C160.709 55.8839 161.061 55.9425 161.061 56.0597V59.5402L163.838 59.5753H165.807C165.994 59.5753 166.088 59.6808 166.088 59.8917C166.088 60.337 165.971 60.7823 165.736 61.2277H161.061V69.8409C161.061 70.7784 161.295 71.5284 161.764 72.0909C162.256 72.6534 162.889 72.9347 163.662 72.9347C164.389 72.9347 165.115 72.712 165.842 72.2667C165.912 72.2198 166.018 72.3253 166.158 72.5831C166.299 72.8175 166.358 72.9464 166.334 72.9698C165.983 73.3448 165.444 73.7198 164.717 74.0948C163.99 74.4464 163.24 74.6222 162.467 74.6222ZM171.678 74.6222C170.6 74.6222 169.709 74.3409 169.006 73.7784C168.303 73.1925 167.951 72.3253 167.951 71.1769C167.951 69.7706 168.865 68.5988 170.694 67.6613C171.49 67.2628 172.276 66.9464 173.049 66.712C173.846 66.4777 174.643 66.2081 175.44 65.9034C175.651 65.8331 175.756 65.6573 175.756 65.3761V62.7394C175.756 61.9894 175.522 61.4152 175.053 61.0167C174.584 60.5948 174.022 60.3839 173.365 60.3839C172.662 60.3839 172.076 60.63 171.608 61.1222C171.139 61.5909 170.904 62.212 170.904 62.9855C170.904 63.8058 170.424 64.2159 169.463 64.2159C168.783 64.2159 168.326 63.9933 168.092 63.548C168.092 63.0558 168.291 62.5519 168.69 62.0363C169.111 61.4972 169.651 61.005 170.307 60.5597C170.963 60.1144 171.678 59.7511 172.451 59.4698C173.248 59.1886 174.033 59.048 174.807 59.048C176.096 59.048 177.022 59.3644 177.584 59.9972C178.147 60.6066 178.428 61.6027 178.428 62.9855V71.1066C178.428 71.5988 178.557 72.0089 178.815 72.337C179.072 72.6652 179.424 72.8292 179.869 72.8292C180.174 72.8292 180.584 72.6652 181.1 72.337C181.194 72.337 181.24 72.4308 181.24 72.6183C181.24 72.923 181.182 73.1691 181.065 73.3566C180.104 74.1769 179.283 74.587 178.604 74.587C178.065 74.587 177.549 74.3644 177.057 73.9191C176.565 73.4738 176.225 73.005 176.037 72.5128C175.92 72.6066 175.768 72.7355 175.58 72.8995C175.416 73.0402 175.276 73.1573 175.158 73.2511C174.666 73.6261 174.127 73.9542 173.541 74.2355C172.979 74.4933 172.358 74.6222 171.678 74.6222ZM173.014 72.6183C173.67 72.6183 174.291 72.4308 174.877 72.0558C175.463 71.6808 175.756 71.2823 175.756 70.8605V67.2394C175.147 67.4738 174.561 67.6847 173.998 67.8722C173.459 68.0597 173.026 68.212 172.697 68.3292C172.276 68.4933 171.865 68.7863 171.467 69.2081C171.092 69.63 170.904 70.1105 170.904 70.6495C170.904 71.3527 171.115 71.8566 171.537 72.1613C171.983 72.4659 172.475 72.6183 173.014 72.6183ZM189.854 74.587C188.565 74.587 187.381 74.2472 186.303 73.5675C185.225 72.8878 184.358 71.9855 183.701 70.8605C183.069 69.712 182.752 68.4347 182.752 67.0284C182.752 65.5753 183.01 64.2511 183.526 63.0558C184.065 61.837 184.838 60.8644 185.846 60.1378C186.877 59.4113 188.119 59.048 189.572 59.048C192.151 59.048 193.932 59.6456 194.916 60.8409C194.916 62.4113 194.483 63.1964 193.615 63.1964C193.217 63.1964 192.912 63.1144 192.701 62.9503C192.49 62.7628 192.221 62.4347 191.893 61.9659C191.166 60.8878 190.299 60.3488 189.291 60.3488C188.33 60.3488 187.451 60.8058 186.654 61.7198C185.881 62.6339 185.494 63.9933 185.494 65.798C185.494 67.673 185.951 69.2316 186.865 70.4738C187.803 71.7159 189.092 72.337 190.733 72.337C191.717 72.337 192.537 72.1964 193.194 71.9152C193.873 71.6105 194.365 71.3409 194.67 71.1066L194.916 70.9308C195.057 70.9308 195.127 71.0831 195.127 71.3878C195.127 71.5519 195.057 71.7628 194.916 72.0206C194.447 72.6769 193.756 73.2745 192.842 73.8136C191.928 74.3292 190.932 74.587 189.854 74.587ZM202.615 74.6222C201.444 74.6222 200.459 74.2355 199.662 73.462C198.889 72.6886 198.502 71.587 198.502 70.1573V61.2277H196.463C196.346 61.2277 196.287 60.9816 196.287 60.4894C196.287 60.3488 196.299 60.2667 196.322 60.2433C197.026 59.9152 197.764 59.2941 198.537 58.38C199.076 57.7472 199.475 57.1964 199.733 56.7277C200.014 56.2589 200.154 55.9777 200.154 55.8839C200.858 55.8839 201.209 55.9425 201.209 56.0597V59.5402L203.986 59.5753H205.955C206.143 59.5753 206.236 59.6808 206.236 59.8917C206.236 60.337 206.119 60.7823 205.885 61.2277H201.209V69.8409C201.209 70.7784 201.444 71.5284 201.912 72.0909C202.404 72.6534 203.037 72.9347 203.811 72.9347C204.537 72.9347 205.264 72.712 205.99 72.2667C206.061 72.2198 206.166 72.3253 206.307 72.5831C206.447 72.8175 206.506 72.9464 206.483 72.9698C206.131 73.3448 205.592 73.7198 204.865 74.0948C204.139 74.4464 203.389 74.6222 202.615 74.6222ZM215.869 74.4816C215.752 74.3644 215.694 74.1886 215.694 73.9542C215.694 73.6261 215.752 73.462 215.869 73.462C216.104 73.462 216.408 73.4269 216.783 73.3566C217.158 73.2863 217.522 73.1925 217.873 73.0753C218.225 72.9581 218.471 72.8292 218.611 72.6886C219.01 72.2667 219.221 71.2472 219.244 69.63C219.291 66.9113 219.338 64.4738 219.385 62.3175C219.455 60.1378 219.514 58.3566 219.561 56.9738C219.608 55.5675 219.631 54.6652 219.631 54.2667C219.631 53.6339 219.584 53.1652 219.49 52.8605C219.444 52.7198 219.233 52.6027 218.858 52.5089C218.506 52.3917 218.119 52.298 217.697 52.2277C217.276 52.1573 216.947 52.1222 216.713 52.1222C216.619 52.1222 216.572 51.9581 216.572 51.63C216.572 51.3722 216.619 51.1964 216.713 51.1027C217.276 51.1261 217.897 51.1613 218.576 51.2081C219.256 51.255 219.947 51.2784 220.651 51.2784C221.096 51.2784 221.576 51.2667 222.092 51.2433C222.631 51.1964 223.229 51.1495 223.885 51.1027C224.072 51.6183 226.393 57.4894 230.846 68.7159C230.893 68.7628 230.94 68.7863 230.986 68.7863C231.08 68.7863 231.139 68.7394 231.162 68.6456C232.311 65.9503 233.342 63.4894 234.256 61.2628C235.17 59.0363 235.967 57.0558 236.647 55.3214L238.053 51.1027C238.803 51.1495 239.412 51.1847 239.881 51.2081C240.373 51.2316 240.736 51.2433 240.971 51.2433C241.697 51.2433 242.389 51.2316 243.045 51.2081C243.701 51.1847 244.322 51.1495 244.908 51.1027C244.979 51.3136 245.014 51.4894 245.014 51.63C245.014 51.9581 244.955 52.1222 244.838 52.1222H244.768C244.51 52.1222 244.17 52.2042 243.748 52.3683C243.326 52.5089 243.01 52.6613 242.799 52.8253C242.518 53.0363 242.377 53.8214 242.377 55.1808L242.694 69.4542C242.74 70.8136 242.916 71.8917 243.221 72.6886C243.291 72.8292 243.479 72.9581 243.783 73.0753C244.088 73.1925 244.416 73.2863 244.768 73.3566C245.143 73.4269 245.412 73.462 245.576 73.462C245.67 73.462 245.717 73.6261 245.717 73.9542C245.717 74.1183 245.694 74.2941 245.647 74.4816C244.475 74.4347 243.537 74.3995 242.834 74.3761C242.154 74.3292 241.697 74.3058 241.463 74.3058L237.244 74.4816C237.151 74.3878 237.104 74.2003 237.104 73.9191C237.104 73.6144 237.151 73.462 237.244 73.462C237.479 73.462 237.83 73.4034 238.299 73.2863C238.791 73.1691 239.143 73.0519 239.354 72.9347C239.635 72.7472 239.776 72.2433 239.776 71.423V69.5597L239.354 57.1847C239.354 56.9269 239.319 56.6456 239.248 56.3409C239.201 56.0128 239.143 55.7316 239.072 55.4972C239.002 55.2394 238.92 55.1105 238.826 55.1105C238.779 55.1105 238.721 55.1925 238.651 55.3566L231.303 72.9347C230.858 73.9425 230.424 74.4464 230.002 74.4464C229.979 74.4464 229.873 74.423 229.686 74.3761L221.635 53.9152C221.565 57.2198 221.483 60.173 221.389 62.7745C221.295 65.3527 221.213 67.4269 221.143 68.9972C221.096 70.5675 221.072 71.4816 221.072 71.7394C221.072 72.1613 221.143 72.4659 221.283 72.6534C221.377 72.7706 221.611 72.8995 221.986 73.0402C222.361 73.1573 222.748 73.2628 223.147 73.3566C223.569 73.4269 223.85 73.462 223.99 73.462C224.084 73.462 224.131 73.6378 224.131 73.9894C224.131 74.13 224.108 74.2941 224.061 74.4816C222.889 74.4347 221.963 74.3995 221.283 74.3761C220.604 74.3292 220.17 74.3058 219.983 74.3058L215.869 74.4816ZM255.174 74.587C253.885 74.587 252.701 74.2472 251.623 73.5675C250.545 72.8878 249.678 71.9855 249.022 70.8605C248.389 69.712 248.072 68.4347 248.072 67.0284C248.072 65.3878 248.377 63.9698 248.986 62.7745C249.596 61.5792 250.428 60.6652 251.483 60.0323C252.537 59.3761 253.721 59.048 255.033 59.048C256.111 59.048 257.061 59.2589 257.881 59.6808C258.701 60.0792 259.334 60.5948 259.779 61.2277C260.201 61.8839 260.506 62.5519 260.694 63.2316C260.904 63.8878 261.01 64.5441 261.01 65.2003C261.01 65.6691 260.94 65.962 260.799 66.0792C260.658 66.173 260.389 66.2198 259.99 66.2198H251.131C250.944 66.2198 250.85 66.2784 250.85 66.3956C250.85 67.38 251.049 68.3292 251.447 69.2433C251.846 70.1339 252.432 70.8722 253.205 71.4581C253.979 72.0441 254.928 72.337 256.053 72.337C257.037 72.337 257.858 72.1964 258.514 71.9152C259.194 71.6105 259.686 71.3409 259.99 71.1066L260.236 70.9308C260.377 70.9308 260.447 71.0831 260.447 71.3878C260.447 71.5519 260.377 71.7628 260.236 72.0206C259.768 72.6769 259.076 73.2745 258.162 73.8136C257.248 74.3292 256.252 74.587 255.174 74.587ZM251.131 64.7433H257.986C258.104 64.7433 258.162 64.6261 258.162 64.3917C258.162 63.8761 258.022 63.3136 257.74 62.7042C257.483 62.0714 257.084 61.5206 256.545 61.0519C256.006 60.5831 255.326 60.3488 254.506 60.3488C253.756 60.3488 253.111 60.6066 252.572 61.1222C252.033 61.6144 251.623 62.1886 251.342 62.8448C251.061 63.4777 250.92 64.0284 250.92 64.4972C250.92 64.6613 250.99 64.7433 251.131 64.7433Z" fill="#E7EEDA"/>
<path d="M28.5844 66.1523C28.2377 66.1523 28.0644 65.959 28.0644 65.5723C28.0644 65.1456 28.151 64.6323 28.3244 64.0323C28.4977 63.4456 28.6977 62.8323 28.9244 62.1923C29.1644 61.5523 29.371 60.9656 29.5444 60.4323H29.4844C28.831 61.539 28.091 62.419 27.2644 63.0723C26.451 63.7123 25.651 64.0323 24.8644 64.0323C24.4777 64.0323 24.0777 63.939 23.6644 63.7523C23.2644 63.5523 22.891 63.2856 22.5444 62.9523C22.211 62.619 21.9377 62.2456 21.7244 61.8323C21.511 61.419 21.4044 60.9923 21.4044 60.5523C21.4044 59.859 21.5177 59.1256 21.7444 58.3523C21.9844 57.5656 22.3044 56.779 22.7044 55.9923C23.1044 55.2056 23.571 54.459 24.1044 53.7523C24.6377 53.0323 25.2044 52.3923 25.8044 51.8323C26.4177 51.2723 27.0444 50.8323 27.6844 50.5123C28.3244 50.1923 28.9444 50.0323 29.5444 50.0323C29.8377 50.0323 30.1044 50.1456 30.3444 50.3723C30.5977 50.599 30.7977 50.859 30.9444 51.1523C31.1044 51.4456 31.1844 51.6923 31.1844 51.8923C31.1844 52.0923 31.111 52.1923 30.9644 52.1923C30.871 52.1923 30.7244 52.1456 30.5244 52.0523C30.3377 51.9456 30.0644 51.8923 29.7044 51.8923C29.131 51.8923 28.5444 52.079 27.9444 52.4523C27.3444 52.8256 26.7644 53.3256 26.2044 53.9523C25.6444 54.579 25.1377 55.279 24.6844 56.0523C24.231 56.8123 23.871 57.5856 23.6044 58.3723C23.351 59.159 23.2244 59.8923 23.2244 60.5723C23.2244 61.0523 23.3777 61.4656 23.6844 61.8123C23.991 62.1456 24.351 62.3123 24.7644 62.3123C25.191 62.3123 25.671 62.159 26.2044 61.8523C26.7377 61.5323 27.2844 61.0923 27.8444 60.5323C28.4044 59.9723 28.9244 59.3323 29.4044 58.6123V58.5523C29.071 58.659 28.771 58.739 28.5044 58.7923C28.251 58.8323 27.9977 58.8523 27.7444 58.8523C27.3844 58.8523 27.0777 58.759 26.8244 58.5723C26.571 58.3723 26.4444 58.1856 26.4444 58.0123C26.4444 57.9323 26.511 57.839 26.6444 57.7323C26.7777 57.6256 27.0577 57.5323 27.4844 57.4523C27.9244 57.359 28.5844 57.3123 29.4644 57.3123C29.9577 57.3123 30.351 57.5123 30.6444 57.9123C30.9377 58.3123 31.0844 58.7856 31.0844 59.3323C31.0844 59.5056 31.0377 59.799 30.9444 60.2123C30.851 60.6123 30.731 61.0723 30.5844 61.5923C30.4377 62.099 30.271 62.619 30.0844 63.1523C29.911 63.6856 29.7244 64.179 29.5244 64.6323C29.3377 65.0856 29.1644 65.4523 29.0044 65.7323C28.8444 66.0123 28.7044 66.1523 28.5844 66.1523ZM37.4338 52.8723C37.2204 52.8723 36.9804 52.779 36.7138 52.5923C36.4604 52.4056 36.2404 52.1923 36.0538 51.9523C35.8671 51.699 35.7738 51.4856 35.7738 51.3123C35.7738 51.0456 35.8804 50.7923 36.0938 50.5523C36.3071 50.3123 36.5271 50.1923 36.7538 50.1923C36.8871 50.1923 37.0538 50.3256 37.2538 50.5923C37.4538 50.8456 37.6271 51.1456 37.7738 51.4923C37.9204 51.8256 37.9938 52.1123 37.9938 52.3523C37.9938 52.4856 37.9338 52.6056 37.8138 52.7123C37.6938 52.819 37.5671 52.8723 37.4338 52.8723ZM33.8338 64.0523C33.6471 64.0523 33.4871 63.979 33.3538 63.8323C33.2204 63.6723 33.1538 63.4923 33.1538 63.2923C33.1538 63.239 33.2004 62.9856 33.2938 62.5323C33.4004 62.079 33.5271 61.5256 33.6738 60.8723C33.8338 60.2056 34.0004 59.5056 34.1738 58.7723C34.3604 58.039 34.5338 57.3523 34.6938 56.7123C34.8538 56.059 34.9871 55.5323 35.0938 55.1323C35.2804 54.479 35.4738 54.1523 35.6738 54.1523C35.8471 54.1523 36.0138 54.2256 36.1738 54.3723C36.3338 54.519 36.4671 54.699 36.5738 54.9123C36.6804 55.1123 36.7338 55.3123 36.7338 55.5123C36.7338 55.8856 36.6404 56.4456 36.4538 57.1923C36.2671 57.939 36.0204 58.819 35.7138 59.8323C35.4071 60.8323 35.0671 61.9056 34.6938 63.0523C34.4671 63.719 34.1804 64.0523 33.8338 64.0523ZM40.7394 64.0723C40.3127 64.0723 39.926 63.9923 39.5794 63.8323C39.2327 63.659 38.9594 63.4456 38.7594 63.1923C38.5727 62.939 38.4794 62.6923 38.4794 62.4523C38.4794 61.8656 38.646 61.0723 38.9794 60.0723C39.326 59.0723 39.706 57.8323 40.1194 56.3523C39.8127 56.419 39.5527 56.4723 39.3394 56.5123C39.126 56.5523 38.966 56.5723 38.8594 56.5723C38.646 56.5723 38.4327 56.4656 38.2194 56.2523C38.0194 56.0256 37.9194 55.8123 37.9194 55.6123C37.9194 55.2923 38.786 54.9856 40.5194 54.6923C40.7594 53.5856 40.8794 52.6056 40.8794 51.7523C40.8794 51.3523 41.0127 51.1523 41.2794 51.1523C41.386 51.1523 41.5394 51.2056 41.7394 51.3123C41.9527 51.419 42.1527 51.579 42.3394 51.7923C42.526 52.0056 42.6194 52.279 42.6194 52.6123C42.6194 52.8256 42.586 53.0856 42.5194 53.3923C42.466 53.6856 42.386 54.039 42.2794 54.4523C42.666 54.4256 43.006 54.399 43.2994 54.3723C43.606 54.3456 43.8727 54.3323 44.0994 54.3323C44.8994 54.3323 45.2994 54.5123 45.2994 54.8723C45.2994 54.939 45.2194 55.0323 45.0594 55.1523C44.9127 55.259 44.5994 55.3856 44.1194 55.5323C43.6394 55.6656 42.906 55.819 41.9194 55.9923C41.866 56.2056 41.7727 56.539 41.6394 56.9923C41.506 57.4456 41.3594 57.9523 41.1994 58.5123C41.0394 59.059 40.886 59.5923 40.7394 60.1123C40.5927 60.6323 40.466 61.0723 40.3594 61.4323C40.266 61.7923 40.2194 62.0056 40.2194 62.0723C40.2194 62.3256 40.366 62.4523 40.6594 62.4523C40.9394 62.4523 41.2394 62.4123 41.5594 62.3323C41.8794 62.239 42.1927 62.139 42.4994 62.0323C42.806 61.9123 43.066 61.8123 43.2794 61.7323C43.506 61.639 43.6527 61.5923 43.7194 61.5923C43.9594 61.5923 44.0794 61.719 44.0794 61.9723C44.0794 62.1723 43.966 62.3923 43.7394 62.6323C43.526 62.8723 43.2394 63.1056 42.8794 63.3323C42.5327 63.5456 42.166 63.7256 41.7794 63.8723C41.406 64.0056 41.0594 64.0723 40.7394 64.0723ZM47.4938 64.0323C47.3871 64.0323 47.2471 63.9523 47.0738 63.7923C46.9004 63.619 46.7471 63.4123 46.6138 63.1723C46.4804 62.9323 46.4137 62.7056 46.4137 62.4923C46.4137 62.1723 46.7071 60.8656 47.2938 58.5723C47.1204 58.5056 46.9671 58.3923 46.8338 58.2323C46.7138 58.059 46.6538 57.8656 46.6538 57.6523C46.6538 57.479 47.0004 57.2856 47.6938 57.0723C48.5871 53.579 49.0338 51.4123 49.0338 50.5723C49.0338 50.3456 49.0604 50.1923 49.1138 50.1123C49.1804 50.019 49.3071 49.9723 49.4938 49.9723C49.6004 49.9723 49.7471 50.0723 49.9338 50.2723C50.1204 50.459 50.2871 50.7056 50.4338 51.0123C50.5804 51.319 50.6538 51.639 50.6538 51.9723C50.6538 52.4923 50.3271 54.039 49.6738 56.6123C51.4338 56.2523 53.1604 56.019 54.8538 55.9123C55.5338 53.139 55.8738 51.359 55.8738 50.5723C55.8738 50.1723 56.0071 49.9723 56.2738 49.9723C56.4338 49.9723 56.6071 50.0723 56.7938 50.2723C56.9938 50.459 57.1671 50.699 57.3138 50.9923C57.4604 51.2856 57.5338 51.579 57.5338 51.8723C57.5338 52.3256 57.2338 53.6856 56.6338 55.9523C57.2471 56.0456 57.5538 56.2256 57.5538 56.4923C57.5538 56.7723 57.1404 56.999 56.3138 57.1723C55.9804 58.4256 55.7004 59.4723 55.4738 60.3123C55.2471 61.139 55.0671 61.8056 54.9338 62.3123C54.8004 62.8056 54.6871 63.179 54.5938 63.4323C54.5138 63.6723 54.4404 63.8323 54.3738 63.9123C54.3204 63.9923 54.2604 64.0323 54.1938 64.0323C54.1004 64.0323 53.9738 63.959 53.8138 63.8123C53.6671 63.6656 53.5338 63.479 53.4138 63.2523C53.3071 63.0256 53.2538 62.8056 53.2538 62.5923C53.2538 62.259 53.6538 60.5456 54.4538 57.4523C52.5071 57.719 50.7538 58.0256 49.1938 58.3723C48.8871 59.479 48.6338 60.459 48.4338 61.3123C48.2338 62.1656 48.0604 62.8323 47.9138 63.3123C47.7804 63.7923 47.6404 64.0323 47.4938 64.0323ZM61.0722 64.0723C60.6455 64.0723 60.2589 63.9523 59.9122 63.7123C59.5789 63.4723 59.3122 63.1723 59.1122 62.8123C58.9122 62.4523 58.8122 62.099 58.8122 61.7523C58.8122 61.2456 58.8789 60.6656 59.0122 60.0123C59.1455 59.3456 59.3255 58.6723 59.5522 57.9923C59.7789 57.299 60.0189 56.6656 60.2722 56.0923C60.5389 55.519 60.7989 55.0523 61.0522 54.6923C61.3189 54.3323 61.5589 54.1523 61.7722 54.1523C62.0122 54.1523 62.2189 54.2656 62.3922 54.4923C62.5789 54.7056 62.6722 54.9523 62.6722 55.2323C62.6722 55.339 62.4922 55.7656 62.1322 56.5123C61.8922 57.0056 61.6455 57.5656 61.3922 58.1923C61.1522 58.8056 60.9455 59.4256 60.7722 60.0523C60.5989 60.6656 60.5122 61.2256 60.5122 61.7323C60.5122 61.9456 60.5789 62.1256 60.7122 62.2723C60.8455 62.4056 61.0055 62.4723 61.1922 62.4723C61.7122 62.4723 62.3189 62.0256 63.0122 61.1323C63.4789 60.5323 63.9189 59.8656 64.3322 59.1323C64.7455 58.399 65.1122 57.6456 65.4322 56.8723C65.7522 56.099 66.0055 55.379 66.1922 54.7123C66.2455 54.499 66.2989 54.3523 66.3522 54.2723C66.4189 54.1923 66.5389 54.1523 66.7122 54.1523C66.8322 54.1523 66.9722 54.239 67.1322 54.4123C67.3055 54.5723 67.4522 54.7723 67.5722 55.0123C67.6922 55.239 67.7522 55.459 67.7522 55.6723C67.7522 55.739 67.7055 55.9456 67.6122 56.2923C67.5189 56.6256 67.3922 57.0456 67.2322 57.5523C67.0855 58.059 66.9255 58.6056 66.7522 59.1923C66.5789 59.7656 66.4055 60.3256 66.2322 60.8723C66.0589 61.419 65.9055 61.9056 65.7722 62.3323C65.6522 62.7456 65.5655 63.0456 65.5122 63.2323C65.3522 63.7923 65.1255 64.0723 64.8322 64.0723C64.6055 64.0723 64.4389 63.979 64.3322 63.7923C64.2389 63.5923 64.1922 63.359 64.1922 63.0923C64.1922 62.8656 64.2455 62.5456 64.3522 62.1323C64.4589 61.719 64.5655 61.3256 64.6722 60.9523C64.1122 61.859 63.5055 62.6056 62.8522 63.1923C62.2122 63.779 61.6189 64.0723 61.0722 64.0723ZM69.6011 64.0723C69.4811 64.0723 69.3344 64.0056 69.1611 63.8723C69.0011 63.7256 68.8611 63.559 68.7411 63.3723C68.6211 63.1723 68.5611 62.9923 68.5611 62.8323C68.5611 62.7256 68.6211 62.439 68.7411 61.9723C68.8611 61.4923 69.0144 60.8923 69.2011 60.1723C69.4011 59.439 69.6078 58.6256 69.8211 57.7323C70.0344 56.8256 70.2344 55.879 70.4211 54.8923C70.6211 53.9056 70.7811 52.9256 70.9011 51.9523C71.0211 50.9656 71.0811 50.0323 71.0811 49.1523C71.0811 48.7523 71.2278 48.5523 71.5211 48.5523C71.6678 48.5523 71.8344 48.6456 72.0211 48.8323C72.2211 49.019 72.3944 49.2456 72.5411 49.5123C72.6878 49.779 72.7611 50.039 72.7611 50.2923C72.7611 51.9323 72.4011 54.2723 71.6811 57.3123C73.2678 55.1656 74.7078 54.0923 76.0011 54.0923C76.4811 54.0923 76.8878 54.2523 77.2211 54.5723C77.5544 54.8923 77.8078 55.2923 77.9811 55.7723C78.1678 56.2523 78.2544 56.739 78.2411 57.2323C78.2411 57.739 78.1544 58.299 77.9811 58.9123C77.8078 59.5123 77.5611 60.119 77.2411 60.7323C76.9211 61.3456 76.5411 61.9056 76.1011 62.4123C75.6744 62.9056 75.2011 63.3056 74.6811 63.6123C74.1611 63.919 73.6078 64.0723 73.0211 64.0723C72.0478 64.0723 71.1278 63.619 70.2611 62.7123C69.9411 63.619 69.7211 64.0723 69.6011 64.0723ZM72.7811 62.5323C73.2211 62.5323 73.6611 62.3723 74.1011 62.0523C74.5544 61.7323 74.9678 61.3056 75.3411 60.7723C75.7144 60.239 76.0144 59.6456 76.2411 58.9923C76.4678 58.339 76.5811 57.6856 76.5811 57.0323C76.5811 56.2456 76.3411 55.8523 75.8611 55.8523C75.3544 55.8523 74.7944 56.1056 74.1811 56.6123C73.5678 57.1056 72.9678 57.7656 72.3811 58.5923C71.7944 59.419 71.2678 60.3323 70.8011 61.3323C71.4278 62.1323 72.0878 62.5323 72.7811 62.5323Z" fill="#E7EEDA"/>
<path d="M54.2123 137.023C53.7856 137.023 53.3923 136.937 53.0323 136.763C52.6723 136.59 52.379 136.363 52.1523 136.083C51.939 135.79 51.8323 135.47 51.8323 135.123C51.8323 134.843 51.899 134.423 52.0323 133.863C52.1656 133.303 52.3323 132.663 52.5323 131.943C52.7456 131.223 52.9656 130.47 53.1923 129.683C53.4323 128.883 53.6523 128.097 53.8523 127.323C54.0656 126.537 54.239 125.81 54.3723 125.143C54.5056 124.477 54.5723 123.917 54.5723 123.463C54.5723 123.25 54.599 123.097 54.6523 123.003C54.719 122.91 54.8523 122.863 55.0523 122.863C55.1723 122.863 55.3256 122.943 55.5123 123.103C55.699 123.263 55.859 123.463 55.9923 123.703C56.139 123.93 56.2123 124.17 56.2123 124.423C56.2123 124.77 56.1456 125.243 56.0123 125.843C55.8923 126.43 55.7323 127.09 55.5323 127.823C55.3456 128.543 55.139 129.283 54.9123 130.043C54.699 130.79 54.4923 131.497 54.2923 132.163C54.1056 132.83 53.9456 133.397 53.8123 133.863C53.6923 134.33 53.6323 134.643 53.6323 134.803C53.6323 135.163 53.8056 135.343 54.1523 135.343C55.1656 135.343 56.0723 135.263 56.8723 135.103C57.6856 134.93 58.3723 134.763 58.9323 134.603C59.4923 134.443 59.8923 134.363 60.1323 134.363C60.3323 134.363 60.4323 134.477 60.4323 134.703C60.4323 134.983 60.2456 135.263 59.8723 135.543C59.499 135.81 58.999 136.057 58.3723 136.283C57.759 136.51 57.0856 136.69 56.3523 136.823C55.6323 136.957 54.919 137.023 54.2123 137.023ZM66.3503 125.863C66.1369 125.863 65.8969 125.77 65.6303 125.583C65.3769 125.397 65.1569 125.183 64.9703 124.943C64.7836 124.69 64.6903 124.477 64.6903 124.303C64.6903 124.037 64.7969 123.783 65.0103 123.543C65.2236 123.303 65.4436 123.183 65.6703 123.183C65.8036 123.183 65.9703 123.317 66.1703 123.583C66.3703 123.837 66.5436 124.137 66.6903 124.483C66.8369 124.817 66.9103 125.103 66.9103 125.343C66.9103 125.477 66.8503 125.597 66.7303 125.703C66.6103 125.81 66.4836 125.863 66.3503 125.863ZM62.7503 137.043C62.5636 137.043 62.4036 136.97 62.2703 136.823C62.1369 136.663 62.0703 136.483 62.0703 136.283C62.0703 136.23 62.1169 135.977 62.2103 135.523C62.3169 135.07 62.4436 134.517 62.5903 133.863C62.7503 133.197 62.9169 132.497 63.0903 131.763C63.2769 131.03 63.4503 130.343 63.6103 129.703C63.7703 129.05 63.9036 128.523 64.0103 128.123C64.1969 127.47 64.3903 127.143 64.5903 127.143C64.7636 127.143 64.9303 127.217 65.0903 127.363C65.2503 127.51 65.3836 127.69 65.4903 127.903C65.5969 128.103 65.6503 128.303 65.6503 128.503C65.6503 128.877 65.5569 129.437 65.3703 130.183C65.1836 130.93 64.9369 131.81 64.6303 132.823C64.3236 133.823 63.9836 134.897 63.6103 136.043C63.3836 136.71 63.0969 137.043 62.7503 137.043ZM67.7959 137.063C67.6625 137.063 67.5092 136.997 67.3359 136.863C67.1759 136.717 67.0359 136.543 66.9159 136.343C66.7959 136.143 66.7359 135.97 66.7359 135.823C66.7359 135.73 66.8092 135.47 66.9559 135.043C67.1025 134.603 67.2759 134.043 67.4759 133.363C67.6759 132.683 67.8492 131.93 67.9959 131.103C68.1425 130.263 68.2159 129.403 68.2159 128.523C68.2159 127.55 68.3559 127.063 68.6359 127.063C68.8359 127.063 69.0359 127.137 69.2359 127.283C69.4359 127.43 69.6025 127.617 69.7359 127.843C69.8825 128.057 69.9559 128.283 69.9559 128.523C69.9559 128.763 69.9025 129.17 69.7959 129.743C69.7025 130.317 69.5692 130.95 69.3959 131.643C69.2359 132.323 69.0559 132.97 68.8559 133.583H68.9159C69.6092 132.37 70.2092 131.37 70.7159 130.583C71.2359 129.797 71.6759 129.17 72.0359 128.703C72.3959 128.237 72.6959 127.897 72.9359 127.683C73.1892 127.457 73.3959 127.31 73.5559 127.243C73.7159 127.177 73.8559 127.143 73.9759 127.143C74.3225 127.143 74.6559 127.277 74.9759 127.543C75.3092 127.797 75.5825 128.117 75.7959 128.503C76.0092 128.89 76.1159 129.29 76.1159 129.703C76.1159 130.037 76.0625 130.503 75.9559 131.103C75.8492 131.69 75.7025 132.323 75.5159 133.003C75.3425 133.683 75.1359 134.337 74.8959 134.963C74.6559 135.577 74.3959 136.083 74.1159 136.483C73.8492 136.87 73.5759 137.063 73.2959 137.063C73.0025 137.063 72.8559 136.863 72.8559 136.463C72.8559 136.143 72.9359 135.737 73.0959 135.243C73.2559 134.737 73.4425 134.197 73.6559 133.623C73.8692 133.037 74.0559 132.457 74.2159 131.883C74.3759 131.31 74.4559 130.79 74.4559 130.323C74.4559 130.083 74.4092 129.823 74.3159 129.543C74.2359 129.25 74.0959 129.103 73.8959 129.103C73.7759 129.103 73.6492 129.137 73.5159 129.203C73.3825 129.27 73.2092 129.43 72.9959 129.683C72.7825 129.923 72.4959 130.303 72.1359 130.823C71.7759 131.33 71.3092 132.03 70.7359 132.923C70.1625 133.817 69.4425 134.95 68.5759 136.323C68.4025 136.59 68.2492 136.783 68.1159 136.903C67.9959 137.01 67.8892 137.063 67.7959 137.063ZM78.5399 137.063C78.4066 137.063 78.2599 136.99 78.0999 136.843C77.9399 136.683 77.7999 136.503 77.6799 136.303C77.5733 136.103 77.5199 135.937 77.5199 135.803C77.5199 135.617 77.5733 135.33 77.6799 134.943C77.7999 134.557 77.9666 133.983 78.1799 133.223C78.3933 132.463 78.6133 131.617 78.8399 130.683C79.0666 129.75 79.2733 128.783 79.4599 127.783C79.6599 126.783 79.8199 125.797 79.9399 124.823C80.0599 123.85 80.1199 122.943 80.1199 122.103C80.1199 121.89 80.1466 121.743 80.1999 121.663C80.2666 121.583 80.3999 121.543 80.5999 121.543C80.7333 121.543 80.8933 121.637 81.0799 121.823C81.2666 122.01 81.4266 122.237 81.5599 122.503C81.7066 122.77 81.7799 123.03 81.7799 123.283C81.7799 123.883 81.7133 124.617 81.5799 125.483C81.4599 126.337 81.2866 127.27 81.0599 128.283C80.8333 129.283 80.5733 130.303 80.2799 131.343C79.9866 132.383 79.6733 133.383 79.3399 134.343C79.6333 133.917 79.9999 133.397 80.4399 132.783C80.8933 132.17 81.3666 131.537 81.8599 130.883C82.3533 130.23 82.8333 129.623 83.2999 129.063C83.7666 128.49 84.1799 128.03 84.5399 127.683C84.8999 127.323 85.1533 127.143 85.2999 127.143C85.4733 127.143 85.6399 127.203 85.7999 127.323C85.9733 127.443 86.1133 127.577 86.2199 127.723C86.3399 127.87 86.3999 127.997 86.3999 128.103C86.3999 128.237 86.2799 128.43 86.0399 128.683C85.7999 128.937 85.5066 129.237 85.1599 129.583C84.8133 129.93 84.4599 130.303 84.0999 130.703C83.7533 131.09 83.4599 131.49 83.2199 131.903C82.9799 132.317 82.8599 132.717 82.8599 133.103C82.8599 133.357 82.8933 133.603 82.9599 133.843C83.0266 134.07 83.1399 134.297 83.2999 134.523C83.5399 134.857 83.8399 135.15 84.1999 135.403C84.5599 135.643 84.8799 135.857 85.1599 136.043C85.4533 136.23 85.5999 136.403 85.5999 136.563C85.5999 136.897 85.3399 137.063 84.8199 137.063C84.7266 137.063 84.5399 137.03 84.2599 136.963C83.9799 136.883 83.6599 136.737 83.2999 136.523C82.9399 136.297 82.5866 135.97 82.2399 135.543C81.9066 135.103 81.6333 134.523 81.4199 133.803C80.9799 134.417 80.5866 134.937 80.2399 135.363C79.9066 135.79 79.6466 136.123 79.4599 136.363C79.0733 136.83 78.7666 137.063 78.5399 137.063ZM90.2149 137.063C89.5216 137.063 88.9083 136.923 88.3749 136.643C87.8549 136.35 87.4416 135.957 87.1349 135.463C86.8416 134.97 86.6949 134.41 86.6949 133.783C86.6949 133.25 86.7816 132.683 86.9549 132.083C87.1416 131.483 87.3949 130.897 87.7149 130.323C88.0483 129.737 88.4283 129.203 88.8549 128.723C89.2949 128.243 89.7616 127.863 90.2549 127.583C90.7483 127.29 91.2616 127.143 91.7949 127.143C92.1949 127.143 92.5749 127.25 92.9349 127.463C93.3083 127.663 93.6416 127.93 93.9349 128.263C94.2416 128.597 94.4816 128.957 94.6549 129.343C94.8283 129.73 94.9149 130.097 94.9149 130.443C94.9149 130.883 94.7883 131.257 94.5349 131.563C94.2816 131.87 93.9549 132.123 93.5549 132.323C93.1549 132.51 92.7216 132.65 92.2549 132.743C91.8016 132.823 91.3749 132.863 90.9749 132.863C90.1083 132.863 89.2949 132.757 88.5349 132.543C88.3483 133.13 88.2549 133.65 88.2549 134.103C88.2549 134.57 88.3949 134.93 88.6749 135.183C88.9683 135.437 89.4483 135.563 90.1149 135.563C90.5949 135.563 91.0616 135.503 91.5149 135.383C91.9683 135.263 92.3549 135.15 92.6749 135.043C93.0083 134.923 93.2149 134.863 93.2949 134.863C93.6416 134.863 93.8149 134.997 93.8149 135.263C93.8149 135.437 93.7016 135.63 93.4749 135.843C93.2483 136.057 92.9549 136.257 92.5949 136.443C92.2349 136.617 91.8416 136.763 91.4149 136.883C91.0016 137.003 90.6016 137.063 90.2149 137.063ZM90.8149 131.583C91.4949 131.583 92.0883 131.477 92.5949 131.263C93.1016 131.037 93.3549 130.743 93.3549 130.383C93.3549 130.143 93.2749 129.897 93.1149 129.643C92.9683 129.377 92.7816 129.157 92.5549 128.983C92.3283 128.81 92.1083 128.723 91.8949 128.723C91.4016 128.723 90.8883 128.983 90.3549 129.503C89.8216 130.01 89.3683 130.643 88.9949 131.403C89.5283 131.523 90.1349 131.583 90.8149 131.583ZM97.9788 137.063C97.5922 137.063 97.2188 136.937 96.8588 136.683C96.5122 136.43 96.2255 136.117 95.9988 135.743C95.7855 135.37 95.6788 134.99 95.6788 134.603C95.6788 134.057 95.7722 133.45 95.9588 132.783C96.1455 132.117 96.3988 131.457 96.7188 130.803C97.0522 130.137 97.4388 129.53 97.8788 128.983C98.3322 128.423 98.8188 127.977 99.3388 127.643C99.8588 127.31 100.399 127.143 100.959 127.143C101.906 127.143 102.566 127.71 102.939 128.843C103.286 127.43 103.552 126.163 103.739 125.043C103.926 123.923 104.032 122.957 104.059 122.143C104.086 121.743 104.232 121.543 104.499 121.543C104.646 121.543 104.812 121.637 104.999 121.823C105.199 122.01 105.372 122.237 105.519 122.503C105.679 122.77 105.759 123.017 105.759 123.243C105.759 123.403 105.706 123.777 105.599 124.363C105.506 124.937 105.366 125.643 105.179 126.483C105.006 127.31 104.812 128.203 104.599 129.163C104.386 130.11 104.159 131.05 103.919 131.983C103.679 132.917 103.446 133.77 103.219 134.543C103.006 135.303 102.806 135.917 102.619 136.383C102.446 136.837 102.306 137.063 102.199 137.063C102.026 137.063 101.826 136.943 101.599 136.703C101.506 136.61 101.426 136.503 101.359 136.383C101.292 136.263 101.259 136.11 101.259 135.923C101.259 135.83 101.272 135.71 101.299 135.563C101.339 135.403 101.372 135.237 101.399 135.063C100.092 136.397 98.9522 137.063 97.9788 137.063ZM98.1988 135.463C98.4655 135.463 98.7922 135.357 99.1788 135.143C99.5655 134.93 99.9655 134.643 100.379 134.283C100.792 133.91 101.172 133.483 101.519 133.003C101.866 132.523 102.126 132.023 102.299 131.503C102.299 130.677 102.172 130.023 101.919 129.543C101.679 129.05 101.386 128.803 101.039 128.803C100.626 128.803 100.199 128.983 99.7588 129.343C99.3188 129.703 98.9122 130.177 98.5388 130.763C98.1788 131.35 97.8855 131.99 97.6588 132.683C97.4322 133.363 97.3188 134.023 97.3188 134.663C97.3188 134.903 97.4055 135.097 97.5788 135.243C97.7522 135.39 97.9588 135.463 98.1988 135.463ZM107.619 136.983C107.539 136.983 107.419 136.91 107.259 136.763C107.113 136.603 106.973 136.417 106.839 136.203C106.719 135.99 106.659 135.797 106.659 135.623C106.659 135.423 106.713 135.043 106.819 134.483C106.939 133.91 107.093 133.23 107.279 132.443C107.466 131.643 107.659 130.803 107.859 129.923C108.059 129.043 108.253 128.19 108.439 127.363C108.626 126.523 108.773 125.77 108.879 125.103C108.999 124.437 109.059 123.937 109.059 123.603C109.059 123.377 109.086 123.223 109.139 123.143C109.206 123.05 109.339 123.003 109.539 123.003C109.659 123.003 109.813 123.103 109.999 123.303C110.199 123.49 110.373 123.737 110.519 124.043C110.679 124.337 110.759 124.637 110.759 124.943C110.759 125.103 110.699 125.477 110.579 126.063C110.459 126.637 110.306 127.337 110.119 128.163C109.933 128.99 109.726 129.87 109.499 130.803C109.273 131.723 109.046 132.623 108.819 133.503C108.606 134.383 108.413 135.15 108.239 135.803C108.106 136.337 107.986 136.67 107.879 136.803C107.773 136.923 107.686 136.983 107.619 136.983ZM113.011 137.063C112.877 137.063 112.724 136.997 112.551 136.863C112.391 136.717 112.251 136.543 112.131 136.343C112.011 136.143 111.951 135.97 111.951 135.823C111.951 135.73 112.024 135.47 112.171 135.043C112.317 134.603 112.491 134.043 112.691 133.363C112.891 132.683 113.064 131.93 113.211 131.103C113.357 130.263 113.431 129.403 113.431 128.523C113.431 127.55 113.571 127.063 113.851 127.063C114.051 127.063 114.251 127.137 114.451 127.283C114.651 127.43 114.817 127.617 114.951 127.843C115.097 128.057 115.171 128.283 115.171 128.523C115.171 128.763 115.117 129.17 115.011 129.743C114.917 130.317 114.784 130.95 114.611 131.643C114.451 132.323 114.271 132.97 114.071 133.583H114.131C114.824 132.37 115.424 131.37 115.931 130.583C116.451 129.797 116.891 129.17 117.251 128.703C117.611 128.237 117.911 127.897 118.151 127.683C118.404 127.457 118.611 127.31 118.771 127.243C118.931 127.177 119.071 127.143 119.191 127.143C119.537 127.143 119.871 127.277 120.191 127.543C120.524 127.797 120.797 128.117 121.011 128.503C121.224 128.89 121.331 129.29 121.331 129.703C121.331 130.037 121.277 130.503 121.171 131.103C121.064 131.69 120.917 132.323 120.731 133.003C120.557 133.683 120.351 134.337 120.111 134.963C119.871 135.577 119.611 136.083 119.331 136.483C119.064 136.87 118.791 137.063 118.511 137.063C118.217 137.063 118.071 136.863 118.071 136.463C118.071 136.143 118.151 135.737 118.311 135.243C118.471 134.737 118.657 134.197 118.871 133.623C119.084 133.037 119.271 132.457 119.431 131.883C119.591 131.31 119.671 130.79 119.671 130.323C119.671 130.083 119.624 129.823 119.531 129.543C119.451 129.25 119.311 129.103 119.111 129.103C118.991 129.103 118.864 129.137 118.731 129.203C118.597 129.27 118.424 129.43 118.211 129.683C117.997 129.923 117.711 130.303 117.351 130.823C116.991 131.33 116.524 132.03 115.951 132.923C115.377 133.817 114.657 134.95 113.791 136.323C113.617 136.59 113.464 136.783 113.331 136.903C113.211 137.01 113.104 137.063 113.011 137.063Z" fill="#E7EEDA"/>
<path d="M159.313 185.53C159.18 185.53 159.026 185.47 158.853 185.35C158.693 185.23 158.553 185.077 158.433 184.89C158.313 184.69 158.253 184.497 158.253 184.31C158.253 184.177 158.633 183.23 159.393 181.47C159.06 181.47 158.78 181.384 158.553 181.21C158.34 181.024 158.233 180.804 158.233 180.55C158.233 180.284 158.893 179.944 160.213 179.53C160.253 179.45 160.34 179.25 160.473 178.93C160.606 178.597 160.766 178.197 160.953 177.73C161.153 177.264 161.36 176.764 161.573 176.23C161.786 175.697 161.993 175.184 162.193 174.69C162.393 174.197 162.566 173.764 162.713 173.39C162.873 173.004 162.986 172.73 163.053 172.57C163.2 172.21 163.453 171.904 163.813 171.65C164.186 171.384 164.546 171.25 164.893 171.25C165.066 171.25 165.233 171.424 165.393 171.77C165.566 172.117 165.726 172.564 165.873 173.11C166.033 173.657 166.173 174.244 166.293 174.87C166.413 175.497 166.513 176.104 166.593 176.69C166.686 177.264 166.753 177.744 166.793 178.13C166.98 178.104 167.153 178.077 167.313 178.05C167.486 178.01 167.64 177.99 167.773 177.99C168.08 177.99 168.306 178.05 168.453 178.17C168.6 178.277 168.673 178.417 168.673 178.59C168.673 178.844 168.086 179.137 166.913 179.47C166.953 179.924 166.98 180.424 166.993 180.97C167.02 181.504 167.04 182.017 167.053 182.51C167.066 182.99 167.073 183.397 167.073 183.73C167.073 184.29 167.046 184.697 166.993 184.95C166.953 185.204 166.886 185.364 166.793 185.43C166.7 185.497 166.58 185.53 166.433 185.53C166.22 185.53 166.053 185.417 165.933 185.19C165.813 184.964 165.726 184.704 165.673 184.41C165.633 184.117 165.6 183.864 165.573 183.65C165.52 183.01 165.466 182.377 165.413 181.75C165.373 181.124 165.326 180.504 165.273 179.89C164.593 180.064 163.94 180.237 163.313 180.41C162.7 180.57 162.06 180.744 161.393 180.93C160.206 183.997 159.513 185.53 159.313 185.53ZM162.133 179.01C162.6 178.877 163.08 178.764 163.573 178.67C164.08 178.564 164.6 178.464 165.133 178.37C165.013 177.224 164.893 176.224 164.773 175.37C164.653 174.517 164.54 173.804 164.433 173.23C164.14 173.924 163.8 174.75 163.413 175.71C163.026 176.67 162.6 177.77 162.133 179.01ZM170.981 185.47C170.741 185.47 170.554 185.337 170.421 185.07C170.288 184.804 170.221 184.57 170.221 184.37C170.221 184.064 170.281 183.724 170.401 183.35C170.521 182.964 170.654 182.524 170.801 182.03C170.948 181.524 171.081 180.937 171.201 180.27C171.321 179.604 171.381 178.83 171.381 177.95C171.381 177.697 171.368 177.417 171.341 177.11C171.328 176.79 171.321 176.504 171.321 176.25C171.321 176.05 171.354 175.877 171.421 175.73C171.501 175.584 171.614 175.51 171.761 175.51C172.081 175.51 172.341 175.697 172.541 176.07C172.754 176.444 172.861 176.844 172.861 177.27C172.861 177.604 172.841 177.904 172.801 178.17C173.961 176.41 175.061 175.53 176.101 175.53C176.754 175.53 177.081 175.69 177.081 176.01C177.081 176.17 177.008 176.324 176.861 176.47C176.728 176.617 176.494 176.764 176.161 176.91C175.708 177.124 175.294 177.397 174.921 177.73C174.548 178.064 174.188 178.517 173.841 179.09C173.508 179.65 173.168 180.384 172.821 181.29C172.488 182.197 172.121 183.324 171.721 184.67C171.641 184.937 171.534 185.137 171.401 185.27C171.268 185.404 171.128 185.47 170.981 185.47ZM179.953 185.43C179.526 185.43 179.139 185.35 178.793 185.19C178.446 185.017 178.173 184.804 177.973 184.55C177.786 184.297 177.693 184.05 177.693 183.81C177.693 183.224 177.859 182.43 178.193 181.43C178.539 180.43 178.919 179.19 179.333 177.71C179.026 177.777 178.766 177.83 178.553 177.87C178.339 177.91 178.179 177.93 178.073 177.93C177.859 177.93 177.646 177.824 177.433 177.61C177.233 177.384 177.133 177.17 177.133 176.97C177.133 176.65 177.999 176.344 179.733 176.05C179.973 174.944 180.093 173.964 180.093 173.11C180.093 172.71 180.226 172.51 180.493 172.51C180.599 172.51 180.753 172.564 180.953 172.67C181.166 172.777 181.366 172.937 181.553 173.15C181.739 173.364 181.833 173.637 181.833 173.97C181.833 174.184 181.799 174.444 181.733 174.75C181.679 175.044 181.599 175.397 181.493 175.81C181.879 175.784 182.219 175.757 182.513 175.73C182.819 175.704 183.086 175.69 183.313 175.69C184.113 175.69 184.513 175.87 184.513 176.23C184.513 176.297 184.433 176.39 184.273 176.51C184.126 176.617 183.813 176.744 183.333 176.89C182.853 177.024 182.119 177.177 181.133 177.35C181.079 177.564 180.986 177.897 180.853 178.35C180.719 178.804 180.573 179.31 180.413 179.87C180.253 180.417 180.099 180.95 179.953 181.47C179.806 181.99 179.679 182.43 179.573 182.79C179.479 183.15 179.433 183.364 179.433 183.43C179.433 183.684 179.579 183.81 179.873 183.81C180.153 183.81 180.453 183.77 180.773 183.69C181.093 183.597 181.406 183.497 181.713 183.39C182.019 183.27 182.279 183.17 182.493 183.09C182.719 182.997 182.866 182.95 182.933 182.95C183.173 182.95 183.293 183.077 183.293 183.33C183.293 183.53 183.179 183.75 182.953 183.99C182.739 184.23 182.453 184.464 182.093 184.69C181.746 184.904 181.379 185.084 180.993 185.23C180.619 185.364 180.273 185.43 179.953 185.43ZM145.37 205.31C144.516 205.31 143.756 205.157 143.09 204.85C142.436 204.53 141.916 204.15 141.53 203.71C141.156 203.257 140.97 202.837 140.97 202.45C140.97 202.05 141.09 201.85 141.33 201.85C141.503 201.85 141.69 201.95 141.89 202.15C142.103 202.337 142.35 202.557 142.63 202.81C142.91 203.05 143.23 203.27 143.59 203.47C143.95 203.657 144.37 203.75 144.85 203.75C145.476 203.75 146.056 203.637 146.59 203.41C147.136 203.184 147.576 202.897 147.91 202.55C148.256 202.204 148.43 201.844 148.43 201.47C148.43 201.15 148.27 200.79 147.95 200.39C147.643 199.99 147.263 199.577 146.81 199.15C146.356 198.71 145.896 198.277 145.43 197.85C144.976 197.41 144.59 196.99 144.27 196.59C143.963 196.19 143.81 195.837 143.81 195.53C143.81 194.93 143.996 194.377 144.37 193.87C144.743 193.364 145.223 192.924 145.81 192.55C146.41 192.177 147.05 191.884 147.73 191.67C148.41 191.457 149.05 191.35 149.65 191.35C150.036 191.35 150.363 191.477 150.63 191.73C150.896 191.984 151.03 192.25 151.03 192.53C151.03 192.69 150.863 192.817 150.53 192.91C150.196 192.99 149.783 193.077 149.29 193.17C148.81 193.264 148.323 193.41 147.83 193.61C147.056 193.904 146.476 194.17 146.09 194.41C145.716 194.637 145.53 194.884 145.53 195.15C145.53 195.364 145.683 195.63 145.99 195.95C146.31 196.27 146.703 196.637 147.17 197.05C147.636 197.464 148.103 197.91 148.57 198.39C149.05 198.857 149.443 199.35 149.75 199.87C150.07 200.39 150.23 200.917 150.23 201.45C150.23 202.17 149.996 202.824 149.53 203.41C149.076 203.997 148.476 204.464 147.73 204.81C146.996 205.144 146.21 205.31 145.37 205.31ZM154.875 205.43C154.448 205.43 154.061 205.35 153.715 205.19C153.368 205.017 153.095 204.804 152.895 204.55C152.708 204.297 152.615 204.05 152.615 203.81C152.615 203.224 152.781 202.43 153.115 201.43C153.461 200.43 153.841 199.19 154.255 197.71C153.948 197.777 153.688 197.83 153.475 197.87C153.261 197.91 153.101 197.93 152.995 197.93C152.781 197.93 152.568 197.824 152.355 197.61C152.155 197.384 152.055 197.17 152.055 196.97C152.055 196.65 152.921 196.344 154.655 196.05C154.895 194.944 155.015 193.964 155.015 193.11C155.015 192.71 155.148 192.51 155.415 192.51C155.521 192.51 155.675 192.564 155.875 192.67C156.088 192.777 156.288 192.937 156.475 193.15C156.661 193.364 156.755 193.637 156.755 193.97C156.755 194.184 156.721 194.444 156.655 194.75C156.601 195.044 156.521 195.397 156.415 195.81C156.801 195.784 157.141 195.757 157.435 195.73C157.741 195.704 158.008 195.69 158.235 195.69C159.035 195.69 159.435 195.87 159.435 196.23C159.435 196.297 159.355 196.39 159.195 196.51C159.048 196.617 158.735 196.744 158.255 196.89C157.775 197.024 157.041 197.177 156.055 197.35C156.001 197.564 155.908 197.897 155.775 198.35C155.641 198.804 155.495 199.31 155.335 199.87C155.175 200.417 155.021 200.95 154.875 201.47C154.728 201.99 154.601 202.43 154.495 202.79C154.401 203.15 154.355 203.364 154.355 203.43C154.355 203.684 154.501 203.81 154.795 203.81C155.075 203.81 155.375 203.77 155.695 203.69C156.015 203.597 156.328 203.497 156.635 203.39C156.941 203.27 157.201 203.17 157.415 203.09C157.641 202.997 157.788 202.95 157.855 202.95C158.095 202.95 158.215 203.077 158.215 203.33C158.215 203.53 158.101 203.75 157.875 203.99C157.661 204.23 157.375 204.464 157.015 204.69C156.668 204.904 156.301 205.084 155.915 205.23C155.541 205.364 155.195 205.43 154.875 205.43ZM162.069 205.43C161.669 205.43 161.256 205.31 160.829 205.07C160.416 204.817 160.069 204.504 159.789 204.13C159.509 203.757 159.369 203.384 159.369 203.01C159.369 202.424 159.496 201.79 159.749 201.11C160.002 200.43 160.342 199.764 160.769 199.11C161.196 198.444 161.662 197.844 162.169 197.31C162.676 196.764 163.189 196.33 163.709 196.01C164.242 195.677 164.729 195.51 165.169 195.51C165.769 195.51 166.322 195.81 166.829 196.41C167.069 196.704 167.256 196.984 167.389 197.25C167.522 197.504 167.589 197.757 167.589 198.01C167.589 198.264 167.549 198.517 167.469 198.77C167.402 199.024 167.276 199.284 167.089 199.55C167.249 199.75 167.329 199.924 167.329 200.07C167.329 200.564 167.242 201.21 167.069 202.01C166.909 202.797 166.749 203.77 166.589 204.93C166.549 205.264 166.429 205.43 166.229 205.43C166.069 205.43 165.929 205.35 165.809 205.19C165.702 205.017 165.616 204.804 165.549 204.55C165.496 204.297 165.449 204.044 165.409 203.79C165.382 203.537 165.369 203.33 165.369 203.17C164.182 204.677 163.082 205.43 162.069 205.43ZM161.989 203.77C162.416 203.77 162.876 203.577 163.369 203.19C163.876 202.804 164.349 202.284 164.789 201.63C165.229 200.964 165.549 200.224 165.749 199.41C165.789 199.224 165.902 199.097 166.089 199.03C166.089 197.79 165.842 197.17 165.349 197.17C165.016 197.17 164.656 197.317 164.269 197.61C163.882 197.89 163.502 198.264 163.129 198.73C162.756 199.184 162.409 199.677 162.089 200.21C161.769 200.744 161.516 201.257 161.329 201.75C161.142 202.244 161.049 202.664 161.049 203.01C161.049 203.237 161.142 203.424 161.329 203.57C161.516 203.704 161.736 203.77 161.989 203.77ZM171.984 205.43C171.557 205.43 171.171 205.35 170.824 205.19C170.477 205.017 170.204 204.804 170.004 204.55C169.817 204.297 169.724 204.05 169.724 203.81C169.724 203.224 169.891 202.43 170.224 201.43C170.571 200.43 170.951 199.19 171.364 197.71C171.057 197.777 170.797 197.83 170.584 197.87C170.371 197.91 170.211 197.93 170.104 197.93C169.891 197.93 169.677 197.824 169.464 197.61C169.264 197.384 169.164 197.17 169.164 196.97C169.164 196.65 170.031 196.344 171.764 196.05C172.004 194.944 172.124 193.964 172.124 193.11C172.124 192.71 172.257 192.51 172.524 192.51C172.631 192.51 172.784 192.564 172.984 192.67C173.197 192.777 173.397 192.937 173.584 193.15C173.771 193.364 173.864 193.637 173.864 193.97C173.864 194.184 173.831 194.444 173.764 194.75C173.711 195.044 173.631 195.397 173.524 195.81C173.911 195.784 174.251 195.757 174.544 195.73C174.851 195.704 175.117 195.69 175.344 195.69C176.144 195.69 176.544 195.87 176.544 196.23C176.544 196.297 176.464 196.39 176.304 196.51C176.157 196.617 175.844 196.744 175.364 196.89C174.884 197.024 174.151 197.177 173.164 197.35C173.111 197.564 173.017 197.897 172.884 198.35C172.751 198.804 172.604 199.31 172.444 199.87C172.284 200.417 172.131 200.95 171.984 201.47C171.837 201.99 171.711 202.43 171.604 202.79C171.511 203.15 171.464 203.364 171.464 203.43C171.464 203.684 171.611 203.81 171.904 203.81C172.184 203.81 172.484 203.77 172.804 203.69C173.124 203.597 173.437 203.497 173.744 203.39C174.051 203.27 174.311 203.17 174.524 203.09C174.751 202.997 174.897 202.95 174.964 202.95C175.204 202.95 175.324 203.077 175.324 203.33C175.324 203.53 175.211 203.75 174.984 203.99C174.771 204.23 174.484 204.464 174.124 204.69C173.777 204.904 173.411 205.084 173.024 205.23C172.651 205.364 172.304 205.43 171.984 205.43ZM181.178 194.23C180.965 194.23 180.725 194.137 180.458 193.95C180.205 193.764 179.985 193.55 179.798 193.31C179.612 193.057 179.518 192.844 179.518 192.67C179.518 192.404 179.625 192.15 179.838 191.91C180.052 191.67 180.272 191.55 180.498 191.55C180.632 191.55 180.798 191.684 180.998 191.95C181.198 192.204 181.372 192.504 181.518 192.85C181.665 193.184 181.738 193.47 181.738 193.71C181.738 193.844 181.678 193.964 181.558 194.07C181.438 194.177 181.312 194.23 181.178 194.23ZM177.578 205.41C177.392 205.41 177.232 205.337 177.098 205.19C176.965 205.03 176.898 204.85 176.898 204.65C176.898 204.597 176.945 204.344 177.038 203.89C177.145 203.437 177.272 202.884 177.418 202.23C177.578 201.564 177.745 200.864 177.918 200.13C178.105 199.397 178.278 198.71 178.438 198.07C178.598 197.417 178.732 196.89 178.838 196.49C179.025 195.837 179.218 195.51 179.418 195.51C179.592 195.51 179.758 195.584 179.918 195.73C180.078 195.877 180.212 196.057 180.318 196.27C180.425 196.47 180.478 196.67 180.478 196.87C180.478 197.244 180.385 197.804 180.198 198.55C180.012 199.297 179.765 200.177 179.458 201.19C179.152 202.19 178.812 203.264 178.438 204.41C178.212 205.077 177.925 205.41 177.578 205.41ZM184.204 205.43C183.751 205.43 183.344 205.29 182.984 205.01C182.624 204.717 182.337 204.324 182.124 203.83C181.924 203.324 181.824 202.744 181.824 202.09C181.824 201.57 181.904 201.017 182.064 200.43C182.224 199.83 182.451 199.244 182.744 198.67C183.037 198.084 183.384 197.557 183.784 197.09C184.184 196.61 184.624 196.23 185.104 195.95C185.597 195.657 186.117 195.51 186.664 195.51C187.184 195.51 187.651 195.664 188.064 195.97C188.491 196.277 188.824 196.697 189.064 197.23C189.317 197.75 189.444 198.33 189.444 198.97C189.444 199.824 189.297 200.637 189.004 201.41C188.711 202.184 188.311 202.877 187.804 203.49C187.311 204.09 186.751 204.564 186.124 204.91C185.511 205.257 184.871 205.43 184.204 205.43ZM184.304 204.07C184.717 204.07 185.124 203.904 185.524 203.57C185.937 203.224 186.311 202.784 186.644 202.25C186.991 201.704 187.264 201.137 187.464 200.55C187.664 199.95 187.764 199.404 187.764 198.91C187.764 198.604 187.717 198.29 187.624 197.97C187.544 197.637 187.437 197.357 187.304 197.13C187.171 196.89 187.037 196.77 186.904 196.77C186.584 196.77 186.264 196.897 185.944 197.15C185.624 197.404 185.317 197.737 185.024 198.15C184.731 198.564 184.471 199.017 184.244 199.51C184.017 199.99 183.837 200.47 183.704 200.95C183.584 201.43 183.524 201.864 183.524 202.25C183.524 202.677 183.597 203.09 183.744 203.49C183.891 203.877 184.077 204.07 184.304 204.07ZM191.687 205.43C191.553 205.43 191.4 205.364 191.227 205.23C191.067 205.084 190.927 204.91 190.807 204.71C190.687 204.51 190.627 204.337 190.627 204.19C190.627 204.097 190.7 203.837 190.847 203.41C190.993 202.97 191.167 202.41 191.367 201.73C191.567 201.05 191.74 200.297 191.887 199.47C192.033 198.63 192.107 197.77 192.107 196.89C192.107 195.917 192.247 195.43 192.527 195.43C192.727 195.43 192.927 195.504 193.127 195.65C193.327 195.797 193.493 195.984 193.627 196.21C193.773 196.424 193.847 196.65 193.847 196.89C193.847 197.13 193.793 197.537 193.687 198.11C193.593 198.684 193.46 199.317 193.287 200.01C193.127 200.69 192.947 201.337 192.747 201.95H192.807C193.5 200.737 194.1 199.737 194.607 198.95C195.127 198.164 195.567 197.537 195.927 197.07C196.287 196.604 196.587 196.264 196.827 196.05C197.08 195.824 197.287 195.677 197.447 195.61C197.607 195.544 197.747 195.51 197.867 195.51C198.213 195.51 198.547 195.644 198.867 195.91C199.2 196.164 199.473 196.484 199.687 196.87C199.9 197.257 200.007 197.657 200.007 198.07C200.007 198.404 199.953 198.87 199.847 199.47C199.74 200.057 199.593 200.69 199.407 201.37C199.233 202.05 199.027 202.704 198.787 203.33C198.547 203.944 198.287 204.45 198.007 204.85C197.74 205.237 197.467 205.43 197.187 205.43C196.893 205.43 196.747 205.23 196.747 204.83C196.747 204.51 196.827 204.104 196.987 203.61C197.147 203.104 197.333 202.564 197.547 201.99C197.76 201.404 197.947 200.824 198.107 200.25C198.267 199.677 198.347 199.157 198.347 198.69C198.347 198.45 198.3 198.19 198.207 197.91C198.127 197.617 197.987 197.47 197.787 197.47C197.667 197.47 197.54 197.504 197.407 197.57C197.273 197.637 197.1 197.797 196.887 198.05C196.673 198.29 196.387 198.67 196.027 199.19C195.667 199.697 195.2 200.397 194.627 201.29C194.053 202.184 193.333 203.317 192.467 204.69C192.293 204.957 192.14 205.15 192.007 205.27C191.887 205.377 191.78 205.43 191.687 205.43Z" fill="#E7EEDA"/>
<path d="M225.002 144.28C224.709 144.28 224.562 144.04 224.562 143.56C224.562 143.186 224.749 142.62 225.122 141.86C225.202 141.7 225.322 141.453 225.482 141.12C225.656 140.786 225.836 140.44 226.022 140.08C226.209 139.706 226.376 139.38 226.522 139.1C226.669 138.82 226.762 138.64 226.802 138.56C226.136 138.386 225.542 138.053 225.022 137.56C224.502 137.053 224.062 136.446 223.702 135.74C223.342 135.033 223.069 134.286 222.882 133.5C222.696 132.7 222.602 131.92 222.602 131.16C222.602 130.92 222.669 130.693 222.802 130.48C222.949 130.253 223.149 130.14 223.402 130.14C223.522 130.14 223.622 130.2 223.702 130.32C223.796 130.44 223.889 130.673 223.982 131.02C224.089 131.366 224.222 131.873 224.382 132.54C224.516 133.086 224.689 133.626 224.902 134.16C225.129 134.68 225.376 135.16 225.642 135.6C225.922 136.026 226.196 136.366 226.462 136.62C226.742 136.873 227.002 137 227.242 137C227.402 137 227.602 136.833 227.842 136.5C228.096 136.166 228.369 135.74 228.662 135.22C228.956 134.7 229.256 134.153 229.562 133.58C229.869 132.993 230.169 132.44 230.462 131.92C230.769 131.4 231.049 130.973 231.302 130.64C231.569 130.306 231.789 130.14 231.962 130.14C232.256 130.14 232.482 130.24 232.642 130.44C232.816 130.64 232.902 130.853 232.902 131.08C232.902 131.28 232.836 131.52 232.702 131.8C232.582 132.066 232.396 132.413 232.142 132.84C231.489 133.92 230.816 135.033 230.122 136.18C229.442 137.326 228.782 138.46 228.142 139.58C227.516 140.7 226.936 141.766 226.402 142.78C226.136 143.3 225.882 143.68 225.642 143.92C225.402 144.16 225.189 144.28 225.002 144.28ZM233.765 144.16C233.311 144.16 232.905 144.02 232.545 143.74C232.185 143.446 231.898 143.053 231.685 142.56C231.485 142.053 231.385 141.473 231.385 140.82C231.385 140.3 231.465 139.746 231.625 139.16C231.785 138.56 232.011 137.973 232.305 137.4C232.598 136.813 232.945 136.286 233.345 135.82C233.745 135.34 234.185 134.96 234.665 134.68C235.158 134.386 235.678 134.24 236.225 134.24C236.745 134.24 237.211 134.393 237.625 134.7C238.051 135.006 238.385 135.426 238.625 135.96C238.878 136.48 239.005 137.06 239.005 137.7C239.005 138.553 238.858 139.366 238.565 140.14C238.271 140.913 237.871 141.606 237.365 142.22C236.871 142.82 236.311 143.293 235.685 143.64C235.071 143.986 234.431 144.16 233.765 144.16ZM233.865 142.8C234.278 142.8 234.685 142.633 235.085 142.3C235.498 141.953 235.871 141.513 236.205 140.98C236.551 140.433 236.825 139.866 237.025 139.28C237.225 138.68 237.325 138.133 237.325 137.64C237.325 137.333 237.278 137.02 237.185 136.7C237.105 136.366 236.998 136.086 236.865 135.86C236.731 135.62 236.598 135.5 236.465 135.5C236.145 135.5 235.825 135.626 235.505 135.88C235.185 136.133 234.878 136.466 234.585 136.88C234.291 137.293 234.031 137.746 233.805 138.24C233.578 138.72 233.398 139.2 233.265 139.68C233.145 140.16 233.085 140.593 233.085 140.98C233.085 141.406 233.158 141.82 233.305 142.22C233.451 142.606 233.638 142.8 233.865 142.8ZM242.307 144.16C241.88 144.16 241.494 144.04 241.147 143.8C240.814 143.56 240.547 143.26 240.347 142.9C240.147 142.54 240.047 142.186 240.047 141.84C240.047 141.333 240.114 140.753 240.247 140.1C240.38 139.433 240.56 138.76 240.787 138.08C241.014 137.386 241.254 136.753 241.507 136.18C241.774 135.606 242.034 135.14 242.287 134.78C242.554 134.42 242.794 134.24 243.007 134.24C243.247 134.24 243.454 134.353 243.627 134.58C243.814 134.793 243.907 135.04 243.907 135.32C243.907 135.426 243.727 135.853 243.367 136.6C243.127 137.093 242.88 137.653 242.627 138.28C242.387 138.893 242.18 139.513 242.007 140.14C241.834 140.753 241.747 141.313 241.747 141.82C241.747 142.033 241.814 142.213 241.947 142.36C242.08 142.493 242.24 142.56 242.427 142.56C242.947 142.56 243.554 142.113 244.247 141.22C244.714 140.62 245.154 139.953 245.567 139.22C245.98 138.486 246.347 137.733 246.667 136.96C246.987 136.186 247.24 135.466 247.427 134.8C247.48 134.586 247.534 134.44 247.587 134.36C247.654 134.28 247.774 134.24 247.947 134.24C248.067 134.24 248.207 134.326 248.367 134.5C248.54 134.66 248.687 134.86 248.807 135.1C248.927 135.326 248.987 135.546 248.987 135.76C248.987 135.826 248.94 136.033 248.847 136.38C248.754 136.713 248.627 137.133 248.467 137.64C248.32 138.146 248.16 138.693 247.987 139.28C247.814 139.853 247.64 140.413 247.467 140.96C247.294 141.506 247.14 141.993 247.007 142.42C246.887 142.833 246.8 143.133 246.747 143.32C246.587 143.88 246.36 144.16 246.067 144.16C245.84 144.16 245.674 144.066 245.567 143.88C245.474 143.68 245.427 143.446 245.427 143.18C245.427 142.953 245.48 142.633 245.587 142.22C245.694 141.806 245.8 141.413 245.907 141.04C245.347 141.946 244.74 142.693 244.087 143.28C243.447 143.866 242.854 144.16 242.307 144.16ZM253.736 144.08C253.603 144.08 253.456 144.013 253.296 143.88C253.136 143.733 252.996 143.553 252.876 143.34C252.756 143.126 252.696 142.92 252.696 142.72C252.696 142.373 252.763 141.906 252.896 141.32C253.029 140.72 253.196 140.04 253.396 139.28C253.609 138.506 253.829 137.693 254.056 136.84C254.283 135.986 254.483 135.133 254.656 134.28C254.843 133.413 254.969 132.593 255.036 131.82C254.383 131.833 253.763 131.866 253.176 131.92C252.589 131.96 252.069 131.98 251.616 131.98C251.483 131.98 251.336 131.913 251.176 131.78C251.016 131.646 250.883 131.486 250.776 131.3C250.669 131.1 250.616 130.913 250.616 130.74C250.616 130.673 250.643 130.613 250.696 130.56C250.749 130.493 250.876 130.44 251.076 130.4C251.276 130.346 251.596 130.306 252.036 130.28C252.476 130.253 253.083 130.233 253.856 130.22C254.629 130.193 255.616 130.18 256.816 130.18C257.043 130.18 257.343 130.193 257.716 130.22C258.103 130.246 258.509 130.293 258.936 130.36C259.363 130.426 259.769 130.513 260.156 130.62C260.543 130.726 260.856 130.86 261.096 131.02C261.336 131.18 261.456 131.373 261.456 131.6C261.456 131.853 261.236 131.98 260.796 131.98C260.263 131.993 259.636 131.973 258.916 131.92C258.196 131.853 257.456 131.813 256.696 131.8C256.643 132.186 256.543 132.72 256.396 133.4C256.263 134.08 256.103 134.833 255.916 135.66C255.743 136.486 255.563 137.32 255.376 138.16C255.189 138.986 255.009 139.76 254.836 140.48C254.676 141.186 254.543 141.773 254.436 142.24C254.329 142.693 254.263 142.953 254.236 143.02C254.049 143.726 253.883 144.08 253.736 144.08ZM260.237 144.16C259.81 144.16 259.423 144.04 259.077 143.8C258.743 143.56 258.477 143.26 258.277 142.9C258.077 142.54 257.977 142.186 257.977 141.84C257.977 141.333 258.043 140.753 258.177 140.1C258.31 139.433 258.49 138.76 258.717 138.08C258.943 137.386 259.183 136.753 259.437 136.18C259.703 135.606 259.963 135.14 260.217 134.78C260.483 134.42 260.723 134.24 260.937 134.24C261.177 134.24 261.383 134.353 261.557 134.58C261.743 134.793 261.837 135.04 261.837 135.32C261.837 135.426 261.657 135.853 261.297 136.6C261.057 137.093 260.81 137.653 260.557 138.28C260.317 138.893 260.11 139.513 259.937 140.14C259.763 140.753 259.677 141.313 259.677 141.82C259.677 142.033 259.743 142.213 259.877 142.36C260.01 142.493 260.17 142.56 260.357 142.56C260.877 142.56 261.483 142.113 262.177 141.22C262.643 140.62 263.083 139.953 263.497 139.22C263.91 138.486 264.277 137.733 264.597 136.96C264.917 136.186 265.17 135.466 265.357 134.8C265.41 134.586 265.463 134.44 265.517 134.36C265.583 134.28 265.703 134.24 265.877 134.24C265.997 134.24 266.137 134.326 266.297 134.5C266.47 134.66 266.617 134.86 266.737 135.1C266.857 135.326 266.917 135.546 266.917 135.76C266.917 135.826 266.87 136.033 266.777 136.38C266.683 136.713 266.557 137.133 266.397 137.64C266.25 138.146 266.09 138.693 265.917 139.28C265.743 139.853 265.57 140.413 265.397 140.96C265.223 141.506 265.07 141.993 264.937 142.42C264.817 142.833 264.73 143.133 264.677 143.32C264.517 143.88 264.29 144.16 263.997 144.16C263.77 144.16 263.603 144.066 263.497 143.88C263.403 143.68 263.357 143.446 263.357 143.18C263.357 142.953 263.41 142.633 263.517 142.22C263.623 141.806 263.73 141.413 263.837 141.04C263.277 141.946 262.67 142.693 262.017 143.28C261.377 143.866 260.783 144.16 260.237 144.16ZM268.766 144.16C268.646 144.16 268.499 144.093 268.326 143.96C268.166 143.813 268.026 143.646 267.906 143.46C267.786 143.26 267.726 143.08 267.726 142.92C267.726 142.813 267.786 142.526 267.906 142.06C268.026 141.58 268.179 140.98 268.366 140.26C268.566 139.526 268.772 138.713 268.986 137.82C269.199 136.913 269.399 135.966 269.586 134.98C269.786 133.993 269.946 133.013 270.066 132.04C270.186 131.053 270.246 130.12 270.246 129.24C270.246 128.84 270.392 128.64 270.686 128.64C270.832 128.64 270.999 128.733 271.186 128.92C271.386 129.106 271.559 129.333 271.706 129.6C271.852 129.866 271.926 130.126 271.926 130.38C271.926 132.02 271.566 134.36 270.846 137.4C272.432 135.253 273.872 134.18 275.166 134.18C275.646 134.18 276.052 134.34 276.386 134.66C276.719 134.98 276.972 135.38 277.146 135.86C277.332 136.34 277.419 136.826 277.406 137.32C277.406 137.826 277.319 138.386 277.146 139C276.972 139.6 276.726 140.206 276.406 140.82C276.086 141.433 275.706 141.993 275.266 142.5C274.839 142.993 274.366 143.393 273.846 143.7C273.326 144.006 272.772 144.16 272.186 144.16C271.212 144.16 270.292 143.706 269.426 142.8C269.106 143.706 268.886 144.16 268.766 144.16ZM271.946 142.62C272.386 142.62 272.826 142.46 273.266 142.14C273.719 141.82 274.132 141.393 274.506 140.86C274.879 140.326 275.179 139.733 275.406 139.08C275.632 138.426 275.746 137.773 275.746 137.12C275.746 136.333 275.506 135.94 275.026 135.94C274.519 135.94 273.959 136.193 273.346 136.7C272.732 137.193 272.132 137.853 271.546 138.68C270.959 139.506 270.432 140.42 269.966 141.42C270.592 142.22 271.252 142.62 271.946 142.62ZM281.693 144.16C281 144.16 280.387 144.02 279.853 143.74C279.333 143.446 278.92 143.053 278.613 142.56C278.32 142.066 278.173 141.506 278.173 140.88C278.173 140.346 278.26 139.78 278.433 139.18C278.62 138.58 278.873 137.993 279.193 137.42C279.527 136.833 279.907 136.3 280.333 135.82C280.773 135.34 281.24 134.96 281.733 134.68C282.227 134.386 282.74 134.24 283.273 134.24C283.673 134.24 284.053 134.346 284.413 134.56C284.787 134.76 285.12 135.026 285.413 135.36C285.72 135.693 285.96 136.053 286.133 136.44C286.307 136.826 286.393 137.193 286.393 137.54C286.393 137.98 286.267 138.353 286.013 138.66C285.76 138.966 285.433 139.22 285.033 139.42C284.633 139.606 284.2 139.746 283.733 139.84C283.28 139.92 282.853 139.96 282.453 139.96C281.587 139.96 280.773 139.853 280.013 139.64C279.827 140.226 279.733 140.746 279.733 141.2C279.733 141.666 279.873 142.026 280.153 142.28C280.447 142.533 280.927 142.66 281.593 142.66C282.073 142.66 282.54 142.6 282.993 142.48C283.447 142.36 283.833 142.246 284.153 142.14C284.487 142.02 284.693 141.96 284.773 141.96C285.12 141.96 285.293 142.093 285.293 142.36C285.293 142.533 285.18 142.726 284.953 142.94C284.727 143.153 284.433 143.353 284.073 143.54C283.713 143.713 283.32 143.86 282.893 143.98C282.48 144.1 282.08 144.16 281.693 144.16ZM282.293 138.68C282.973 138.68 283.567 138.573 284.073 138.36C284.58 138.133 284.833 137.84 284.833 137.48C284.833 137.24 284.753 136.993 284.593 136.74C284.447 136.473 284.26 136.253 284.033 136.08C283.807 135.906 283.587 135.82 283.373 135.82C282.88 135.82 282.367 136.08 281.833 136.6C281.3 137.106 280.847 137.74 280.473 138.5C281.007 138.62 281.613 138.68 282.293 138.68Z" fill="#E7EEDA"/>
<defs>
<filter id="filter0_d_77_458" x="30.4888" y="85.7892" width="122.277" height="77.1381" filterUnits="userSpaceOnUse" color-interpolation-filters="sRGB">
<feFlood flood-opacity="0" result="BackgroundImageFix"/>
<feColorMatrix in="SourceAlpha" type="matrix" values="0 0 0 0 0 0 0 0 0 0 0 0 0 0 0 0 0 0 127 0" result="hardAlpha"/>
<feOffset dy="4"/>
<feGaussianBlur stdDeviation="2"/>
<feComposite in2="hardAlpha" operator="out"/>
<feColorMatrix type="matrix" values="0 0 0 0 0.393333 0 0 0 0 0.0747333 0 0 0 0 0.303063 0 0 0 0.25 0"/>
<feBlend mode="normal" in2="BackgroundImageFix" result="effect1_dropShadow_77_458"/>
<feBlend mode="normal" in="SourceGraphic" in2="effect1_dropShadow_77_458" result="shape"/>
</filter>
<filter id="filter1_d_77_458" x="192.675" y="93.6025" width="106.184" height="84.1642" filterUnits="userSpaceOnUse" color-interpolation-filters="sRGB">
<feFlood flood-opacity="0" result="BackgroundImageFix"/>
<feColorMatrix in="SourceAlpha" type="matrix" values="0 0 0 0 0 0 0 0 0 0 0 0 0 0 0 0 0 0 127 0" result="hardAlpha"/>
<feOffset dy="4"/>
<feGaussianBlur stdDeviation="2"/>
<feComposite in2="hardAlpha" operator="out"/>
<feColorMatrix type="matrix" values="0 0 0 0 0.393333 0 0 0 0 0.0747333 0 0 0 0 0.303063 0 0 0 0.25 0"/>
<feBlend mode="normal" in2="BackgroundImageFix" result="effect1_dropShadow_77_458"/>
<feBlend mode="normal" in="SourceGraphic" in2="effect1_dropShadow_77_458" result="shape"/>
</filter>
<filter id="filter2_d_77_458" x="119.349" y="132.393" width="107.462" height="102.664" filterUnits="userSpaceOnUse" color-interpolation-filters="sRGB">
<feFlood flood-opacity="0" result="BackgroundImageFix"/>
<feColorMatrix in="SourceAlpha" type="matrix" values="0 0 0 0 0 0 0 0 0 0 0 0 0 0 0 0 0 0 127 0" result="hardAlpha"/>
<feOffset dy="4"/>
<feGaussianBlur stdDeviation="2"/>
<feComposite in2="hardAlpha" operator="out"/>
<feColorMatrix type="matrix" values="0 0 0 0 0.393333 0 0 0 0 0.0747333 0 0 0 0 0.303063 0 0 0 0.25 0"/>
<feBlend mode="normal" in2="BackgroundImageFix" result="effect1_dropShadow_77_458"/>
<feBlend mode="normal" in="SourceGraphic" in2="effect1_dropShadow_77_458" result="shape"/>
</filter>
<filter id="filter3_d_77_458" x="2.22119" y="11.035" width="113.099" height="88.2678" filterUnits="userSpaceOnUse" color-interpolation-filters="sRGB">
<feFlood flood-opacity="0" result="BackgroundImageFix"/>
<feColorMatrix in="SourceAlpha" type="matrix" values="0 0 0 0 0 0 0 0 0 0 0 0 0 0 0 0 0 0 127 0" result="hardAlpha"/>
<feOffset dy="4"/>
<feGaussianBlur stdDeviation="2"/>
<feComposite in2="hardAlpha" operator="out"/>
<feColorMatrix type="matrix" values="0 0 0 0 0.393333 0 0 0 0 0.0747333 0 0 0 0 0.303063 0 0 0 0.25 0"/>
<feBlend mode="normal" in2="BackgroundImageFix" result="effect1_dropShadow_77_458"/>
<feBlend mode="normal" in="SourceGraphic" in2="effect1_dropShadow_77_458" result="shape"/>
</filter>
<filter id="filter4_d_77_458" x="83.4053" y="3.78442" width="190.797" height="123.464" filterUnits="userSpaceOnUse" color-interpolation-filters="sRGB">
<feFlood flood-opacity="0" result="BackgroundImageFix"/>
<feColorMatrix in="SourceAlpha" type="matrix" values="0 0 0 0 0 0 0 0 0 0 0 0 0 0 0 0 0 0 127 0" result="hardAlpha"/>
<feOffset dy="4"/>
<feGaussianBlur stdDeviation="2"/>
<feComposite in2="hardAlpha" operator="out"/>
<feColorMatrix type="matrix" values="0 0 0 0 0.393333 0 0 0 0 0.0747333 0 0 0 0 0.303063 0 0 0 0.25 0"/>
<feBlend mode="normal" in2="BackgroundImageFix" result="effect1_dropShadow_77_458"/>
<feBlend mode="normal" in="SourceGraphic" in2="effect1_dropShadow_77_458" result="shape"/>
</filter>
<filter id="filter5_d_77_458" x="134.229" y="86.4915" width="77.2625" height="81.7699" filterUnits="userSpaceOnUse" color-interpolation-filters="sRGB">
<feFlood flood-opacity="0" result="BackgroundImageFix"/>
<feColorMatrix in="SourceAlpha" type="matrix" values="0 0 0 0 0 0 0 0 0 0 0 0 0 0 0 0 0 0 127 0" result="hardAlpha"/>
<feOffset dy="4"/>
<feGaussianBlur stdDeviation="2"/>
<feComposite in2="hardAlpha" operator="out"/>
<feColorMatrix type="matrix" values="0 0 0 0 0.393333 0 0 0 0 0.0747333 0 0 0 0 0.303063 0 0 0 0.25 0"/>
<feBlend mode="normal" in2="BackgroundImageFix" result="effect1_dropShadow_77_458"/>
<feBlend mode="normal" in="SourceGraphic" in2="effect1_dropShadow_77_458" result="shape"/>
</filter>
<filter id="filter6_d_77_458" x="127.867" y="85.2507" width="89.7891" height="84.859" filterUnits="userSpaceOnUse" color-interpolation-filters="sRGB">
<feFlood flood-opacity="0" result="BackgroundImageFix"/>
<feColorMatrix in="SourceAlpha" type="matrix" values="0 0 0 0 0 0 0 0 0 0 0 0 0 0 0 0 0 0 127 0" result="hardAlpha"/>
<feOffset dy="4"/>
<feGaussianBlur stdDeviation="2"/>
<feComposite in2="hardAlpha" operator="out"/>
<feColorMatrix type="matrix" values="0 0 0 0 0.393333 0 0 0 0 0.0747333 0 0 0 0 0.303063 0 0 0 0.25 0"/>
<feBlend mode="normal" in2="BackgroundImageFix" result="effect1_dropShadow_77_458"/>
<feBlend mode="normal" in="SourceGraphic" in2="effect1_dropShadow_77_458" result="shape"/>
</filter>
<filter id="filter7_d_77_458" x="144.748" y="99.8635" width="55.446" height="55.48" filterUnits="userSpaceOnUse" color-interpolation-filters="sRGB">
<feFlood flood-opacity="0" result="BackgroundImageFix"/>
<feColorMatrix in="SourceAlpha" type="matrix" values="0 0 0 0 0 0 0 0 0 0 0 0 0 0 0 0 0 0 127 0" result="hardAlpha"/>
<feOffset dy="4"/>
<feGaussianBlur stdDeviation="2"/>
<feComposite in2="hardAlpha" operator="out"/>
<feColorMatrix type="matrix" values="0 0 0 0 0.393333 0 0 0 0 0.0747333 0 0 0 0 0.303063 0 0 0 0.25 0"/>
<feBlend mode="normal" in2="BackgroundImageFix" result="effect1_dropShadow_77_458"/>
<feBlend mode="normal" in="SourceGraphic" in2="effect1_dropShadow_77_458" result="shape"/>
</filter>
<filter id="filter8_d_77_458" x="150.055" y="104.487" width="44.9053" height="44.9323" filterUnits="userSpaceOnUse" color-interpolation-filters="sRGB">
<feFlood flood-opacity="0" result="BackgroundImageFix"/>
<feColorMatrix in="SourceAlpha" type="matrix" values="0 0 0 0 0 0 0 0 0 0 0 0 0 0 0 0 0 0 127 0" result="hardAlpha"/>
<feOffset dy="4"/>
<feGaussianBlur stdDeviation="2"/>
<feComposite in2="hardAlpha" operator="out"/>
<feColorMatrix type="matrix" values="0 0 0 0 0.393333 0 0 0 0 0.0747333 0 0 0 0 0.303063 0 0 0 0.25 0"/>
<feBlend mode="normal" in2="BackgroundImageFix" result="effect1_dropShadow_77_458"/>
<feBlend mode="normal" in="SourceGraphic" in2="effect1_dropShadow_77_458" result="shape"/>
</filter>
<filter id="filter9_i_77_458" x="165.871" y="116.219" width="13.5249" height="17.5347" filterUnits="userSpaceOnUse" color-interpolation-filters="sRGB">
<feFlood flood-opacity="0" result="BackgroundImageFix"/>
<feBlend mode="normal" in="SourceGraphic" in2="BackgroundImageFix" result="shape"/>
<feColorMatrix in="SourceAlpha" type="matrix" values="0 0 0 0 0 0 0 0 0 0 0 0 0 0 0 0 0 0 127 0" result="hardAlpha"/>
<feOffset dy="4"/>
<feGaussianBlur stdDeviation="2"/>
<feComposite in2="hardAlpha" operator="arithmetic" k2="-1" k3="1"/>
<feColorMatrix type="matrix" values="0 0 0 0 0.393333 0 0 0 0 0.0747333 0 0 0 0 0.303063 0 0 0 0.25 0"/>
<feBlend mode="normal" in2="shape" result="effect1_innerShadow_77_458"/>
</filter>
</defs>
</svg>
