<svg width="251" height="205" viewBox="0 0 251 205" fill="none" xmlns="http://www.w3.org/2000/svg">
<g filter="url(#filter0_d_84_2663)">
<path d="M60.0051 87.1112C57.0679 92.5586 56.7733 100.662 60.8871 105.608C69.8381 112.609 72.1544 112.283 81.0021 113.942C89.8497 115.6 99.604 115.094 108.202 112.531C116.8 109.968 123.567 105.549 127.072 100.208C130.578 94.8667 130.546 89.023 126.984 83.9126C123.423 78.8021 116.61 74.8256 107.987 72.8242C99.3649 70.8228 89.6086 70.9534 80.7819 73.1883C71.9553 75.4233 67.1485 77.288 63.0896 82.5005L79.8203 89.1587L60.0051 87.1112Z" fill="#72923D"/>
</g>
<g filter="url(#filter1_d_84_2663)">
<path d="M179.799 126.13C183.228 120.688 184.901 111.953 182.31 105.948C176.01 96.9584 174.004 96.9483 166.852 93.7634C159.7 90.5785 151.405 89.5966 143.721 91.0253C136.037 92.454 129.567 96.1813 125.679 101.419C121.79 106.656 120.79 112.994 122.887 119.09C124.985 125.186 130.018 130.563 136.92 134.085C143.822 137.606 152.053 138.995 159.872 137.957C167.691 136.92 172.062 135.653 176.394 130.642L163.489 120.803L179.799 126.13Z" fill="#72923D"/>
</g>
<g filter="url(#filter2_d_84_2663)">
<path d="M206.127 38.6675C212.336 48.4225 214.345 66.7281 207.735 76.7146C192.73 91.3717 188.492 91.1446 172.787 95.7375C157.082 100.33 139.379 101.004 123.424 97.6168C107.47 94.2291 94.6914 91.2659 87.4738 81.8058C80.2561 72.3457 80.412 57.0777 85.9971 46.8736C91.5821 36.6695 101.98 28.1093 117.222 22.9089C132.464 17.7084 150.107 16.3285 166.421 19.061C182.734 21.7934 191.726 24.4994 199.922 33.6256L155.555 46.6854L206.127 38.6675Z" fill="#587637"/>
</g>
<g filter="url(#filter3_d_84_2663)">
<path d="M109.249 79.98C109.264 77.6983 111.718 76.267 113.71 77.3781L126.878 84.7254C127.26 84.9387 127.684 85.0657 128.121 85.0974L143.216 86.1926C145.319 86.3452 146.612 88.5643 145.708 90.4708L139.222 104.155C139.034 104.551 138.935 104.983 138.932 105.421L138.832 120.508C138.817 122.79 136.363 124.221 134.371 123.11L121.203 115.763C120.821 115.55 120.397 115.423 119.96 115.391L104.865 114.296C102.762 114.143 101.469 111.924 102.373 110.018L108.859 96.3333C109.047 95.9374 109.146 95.5052 109.149 95.0671L109.249 79.98Z" fill="#CCE66F"/>
</g>
<g filter="url(#filter4_d_84_2663)">
<path d="M99.1978 96.5785C97.5965 94.9545 98.3199 92.2071 100.513 91.5837L115.017 87.4607C115.438 87.341 115.828 87.1304 116.159 86.8438L127.606 76.9374C129.201 75.557 131.684 76.2117 132.392 78.1996L137.475 92.4646C137.622 92.8773 137.857 93.2528 138.165 93.5646L148.755 104.305C150.356 105.929 149.633 108.676 147.44 109.3L132.936 113.423C132.515 113.542 132.125 113.753 131.794 114.04L120.347 123.946C118.752 125.326 116.269 124.672 115.56 122.684L110.478 108.419C110.331 108.006 110.096 107.631 109.788 107.319L99.1978 96.5785Z" fill="#D7ECBE"/>
</g>
<path d="M107.34 89.9828C106.848 88.6176 107.927 87.1986 109.373 87.3087L115.104 87.745C115.932 87.808 116.713 87.3526 117.066 86.6008L119.511 81.3947C120.128 80.0813 121.893 79.841 122.837 80.9419L126.583 85.3074C127.123 85.9374 127.996 86.1676 128.777 85.8859L134.186 83.9344C135.55 83.4423 136.967 84.5211 136.857 85.9679L136.421 91.7052C136.358 92.5333 136.813 93.3141 137.564 93.6673L142.767 96.1149C144.079 96.732 144.319 98.4982 143.219 99.4436L138.857 103.191C138.228 103.732 137.997 104.606 138.279 105.388L140.228 110.799C140.72 112.164 139.642 113.583 138.196 113.473L132.464 113.037C131.636 112.974 130.856 113.429 130.503 114.181L128.058 119.387C127.441 120.701 125.676 120.941 124.731 119.84L120.986 115.475C120.445 114.845 119.572 114.614 118.791 114.896L113.382 116.848C112.018 117.34 110.601 116.261 110.711 114.814L111.147 109.077C111.21 108.249 110.756 107.468 110.005 107.115L104.801 104.667C103.489 104.05 103.249 102.284 104.35 101.338L108.711 97.5911C109.341 97.0499 109.571 96.1755 109.29 95.3941L107.34 89.9828Z" fill="#FBF3E6"/>
<g filter="url(#filter5_d_84_2663)">
<path d="M115.084 88.7857C115.151 87.3361 116.691 86.4381 117.985 87.0936L121.047 88.6448C121.787 89.02 122.683 88.8982 123.297 88.3387L125.834 86.026C126.906 85.0488 128.629 85.5025 129.08 86.8812L130.15 90.1469C130.408 90.9359 131.127 91.483 131.956 91.5217L135.387 91.682C136.835 91.7497 137.732 93.2889 137.077 94.5834L135.526 97.6497C135.151 98.3906 135.272 99.2861 135.831 99.8999L138.143 102.441C139.12 103.513 138.665 105.237 137.287 105.689L134.026 106.759C133.237 107.018 132.69 107.737 132.651 108.567L132.491 111.998C132.423 113.448 130.884 114.346 129.59 113.69L126.528 112.139C125.787 111.764 124.892 111.885 124.278 112.445L121.741 114.758C120.668 115.735 118.946 115.281 118.494 113.902L117.425 110.637C117.166 109.848 116.447 109.301 115.618 109.262L112.188 109.102C110.74 109.034 109.843 107.495 110.498 106.2L112.049 103.134C112.424 102.393 112.302 101.498 111.744 100.884L109.431 98.3429C108.455 97.2702 108.909 95.5468 110.287 95.0947L113.549 94.0248C114.338 93.766 114.885 93.0463 114.924 92.2166L115.084 88.7857Z" fill="#FBFFFB"/>
</g>
<g filter="url(#filter6_d_84_2663)">
<path d="M114.364 94.8876C113.872 93.5225 114.95 92.1035 116.396 92.2136L118.053 92.3397C118.881 92.4027 119.661 91.9473 120.014 91.1954L120.721 89.6906C121.338 88.3772 123.103 88.1369 124.047 89.2377L125.131 90.5004C125.671 91.1304 126.545 91.3606 127.325 91.079L128.89 90.5145C130.254 90.0224 131.671 91.1012 131.561 92.548L131.435 94.2075C131.372 95.0356 131.827 95.8164 132.578 96.1696L134.083 96.8776C135.395 97.4947 135.634 99.2609 134.534 100.206L133.273 101.289C132.644 101.831 132.413 102.705 132.695 103.486L133.258 105.051C133.75 106.416 132.671 107.835 131.225 107.725L129.569 107.599C128.741 107.536 127.96 107.991 127.607 108.743L126.901 110.248C126.284 111.561 124.519 111.801 123.574 110.701L122.491 109.438C121.95 108.808 121.077 108.578 120.296 108.859L118.732 109.424C117.368 109.916 115.951 108.837 116.061 107.39L116.187 105.731C116.25 104.903 115.795 104.122 115.044 103.769L113.539 103.061C112.227 102.444 111.988 100.677 113.088 99.732L114.348 98.6488C114.978 98.1076 115.209 97.2332 114.927 96.4518L114.364 94.8876Z" fill="#F2F38D"/>
</g>
<g filter="url(#filter7_i_84_2663)">
<ellipse cx="4.39652" cy="4.39809" rx="4.39652" ry="4.39809" transform="matrix(0.863783 -0.503863 0.503318 0.864101 117.882 98.4056)" fill="#FAB71C"/>
</g>
<path d="M127.259 98.0275C128.343 99.8879 127.714 102.275 125.855 103.359C123.996 104.443 121.611 103.815 120.527 101.954C119.444 100.094 120.072 97.7067 121.931 96.6224C123.79 95.5382 126.175 96.167 127.259 98.0275Z" stroke="#F2C03E"/>
<path d="M99.9595 70.9678C98.9282 70.9678 97.9595 70.7646 97.0532 70.3584C96.1626 69.9521 95.3735 69.3975 94.686 68.6943C94.0142 67.9912 93.4829 67.1787 93.0923 66.2568C92.7173 65.3193 92.5298 64.3271 92.5298 63.2803C92.5298 62.1709 92.7251 61.1318 93.1157 60.1631C93.5063 59.1787 94.0532 58.3193 94.7563 57.585C95.4595 56.835 96.272 56.249 97.1938 55.8271C98.1313 55.4053 99.1392 55.1943 100.217 55.1943C101.139 55.1943 102.077 55.2412 103.03 55.335C103.983 55.4287 104.944 55.5771 105.913 55.7803L105.866 59.1553C105.866 59.3896 105.702 59.5068 105.374 59.5068C105.217 59.5068 105.116 59.4678 105.069 59.3896C105.022 59.1865 104.959 58.9834 104.881 58.7803C104.819 58.5615 104.678 58.2803 104.459 57.9365C104.084 57.3896 103.545 56.96 102.842 56.6475C102.155 56.335 101.303 56.1787 100.288 56.1787C99.522 56.1787 98.8032 56.3662 98.1313 56.7412C97.4595 57.1006 96.8657 57.5928 96.3501 58.2178C95.8501 58.8428 95.4595 59.5537 95.1782 60.3506C94.897 61.1318 94.7563 61.9443 94.7563 62.7881C94.7563 64.085 94.9751 65.249 95.4126 66.2803C95.8501 67.3428 96.5376 68.2256 97.4751 68.9287C98.4282 69.6162 99.5532 69.96 100.85 69.96C102.397 69.96 103.592 69.5068 104.436 68.6006C104.686 68.335 104.881 68.0225 105.022 67.6631C105.163 67.3037 105.272 66.9912 105.35 66.7256C105.428 66.46 105.506 66.3271 105.584 66.3271C105.678 66.3271 105.788 66.3428 105.913 66.374C106.053 66.3896 106.163 66.4209 106.241 66.4678L106.358 66.5381C106.358 66.6318 106.327 66.8506 106.264 67.1943C106.202 67.5381 106.124 67.9209 106.03 68.3428C105.936 68.749 105.842 69.1084 105.749 69.4209C105.67 69.7334 105.608 69.9053 105.561 69.9365C104.405 70.624 102.538 70.9678 99.9595 70.9678ZM112.874 70.9912C111.936 70.9912 111.077 70.7568 110.295 70.2881C109.514 69.8193 108.889 69.1865 108.42 68.3896C107.967 67.5928 107.741 66.7178 107.741 65.7646C107.741 64.7959 107.959 63.9209 108.397 63.1396C108.85 62.3584 109.459 61.7412 110.225 61.2881C110.991 60.8193 111.858 60.585 112.827 60.585C113.764 60.585 114.616 60.8193 115.381 61.2881C116.163 61.7568 116.78 62.3818 117.233 63.1631C117.702 63.9443 117.936 64.8115 117.936 65.7646C117.936 66.7178 117.709 67.5928 117.256 68.3896C116.803 69.1865 116.194 69.8193 115.428 70.2881C114.678 70.7568 113.827 70.9912 112.874 70.9912ZM113.084 70.0771C113.647 70.0771 114.139 69.8975 114.561 69.5381C114.983 69.1787 115.311 68.6943 115.545 68.085C115.795 67.4756 115.92 66.8115 115.92 66.0928C115.92 65.249 115.764 64.4834 115.452 63.7959C115.139 63.0928 114.725 62.5381 114.209 62.1318C113.709 61.71 113.163 61.499 112.569 61.499C112.022 61.499 111.53 61.6787 111.092 62.0381C110.67 62.3818 110.342 62.8506 110.108 63.4443C109.874 64.0225 109.756 64.6787 109.756 65.4131C109.756 66.2568 109.905 67.0381 110.202 67.7568C110.514 68.46 110.92 69.0225 111.42 69.4443C111.936 69.8662 112.491 70.0771 113.084 70.0771ZM119.6 70.8975C119.538 70.835 119.506 70.7021 119.506 70.499C119.506 70.3115 119.538 70.2178 119.6 70.2178C119.725 70.2178 119.897 70.1943 120.116 70.1475C120.334 70.1006 120.538 70.0381 120.725 69.96C120.913 69.8818 121.014 69.8115 121.03 69.749C121.092 69.5303 121.131 69.2803 121.147 68.999C121.178 68.7178 121.194 68.4209 121.194 68.1084V63.6787C121.194 63.085 121.084 62.6631 120.866 62.4131C120.709 62.2256 120.522 62.1006 120.303 62.0381C120.1 61.9756 119.913 61.9443 119.741 61.9443C119.584 61.9287 119.506 61.9053 119.506 61.874C119.506 61.499 119.553 61.3037 119.647 61.2881C120.475 61.1631 121.147 61.0537 121.663 60.96C122.178 60.8506 122.499 60.7803 122.624 60.749L122.999 60.6553C123.061 60.6396 123.1 60.7021 123.116 60.8428C123.131 60.9834 123.131 61.085 123.116 61.1475C123.084 61.3662 123.061 61.5537 123.045 61.71C123.03 61.8662 123.022 61.9912 123.022 62.085C123.022 62.1475 123.038 62.1787 123.069 62.1787C123.084 62.1787 123.108 62.1631 123.139 62.1318C123.499 61.7568 123.983 61.4053 124.592 61.0771C125.217 60.7334 125.811 60.5615 126.374 60.5615C127.467 60.5615 128.233 60.9521 128.67 61.7334C129.108 62.5146 129.327 63.7803 129.327 65.5303V67.6631C129.327 68.1162 129.342 68.5146 129.374 68.8584C129.405 69.2021 129.452 69.499 129.514 69.749C129.545 69.8115 129.655 69.8818 129.842 69.96C130.03 70.0381 130.233 70.1006 130.452 70.1475C130.67 70.1943 130.827 70.2178 130.92 70.2178C130.967 70.2178 130.999 70.3115 131.014 70.499C131.03 70.6865 131.022 70.8193 130.991 70.8975L128.483 70.7803L126.022 70.8975C125.959 70.835 125.928 70.7021 125.928 70.499C125.928 70.3115 125.959 70.2178 126.022 70.2178C126.147 70.2178 126.311 70.1943 126.514 70.1475C126.717 70.1006 126.905 70.0381 127.077 69.96C127.249 69.8818 127.342 69.8115 127.358 69.749C127.42 69.5303 127.459 69.2803 127.475 68.999C127.506 68.7178 127.522 68.4209 127.522 68.1084V65.7646C127.522 64.3115 127.334 63.3193 126.959 62.7881C126.584 62.2568 125.975 61.9912 125.131 61.9912C124.803 61.9912 124.475 62.085 124.147 62.2725C123.819 62.4443 123.545 62.6475 123.327 62.8818C123.108 63.1162 122.999 63.335 122.999 63.5381V67.6631C122.999 68.1162 123.014 68.5146 123.045 68.8584C123.077 69.2021 123.124 69.499 123.186 69.749C123.217 69.8115 123.327 69.8818 123.514 69.96C123.702 70.0381 123.905 70.1006 124.124 70.1475C124.342 70.1943 124.499 70.2178 124.592 70.2178C124.639 70.2178 124.67 70.3115 124.686 70.499C124.702 70.6865 124.694 70.8193 124.663 70.8975L122.155 70.7803L119.6 70.8975ZM136.17 70.9912C135.389 70.9912 134.733 70.7334 134.202 70.2178C133.686 69.7021 133.428 68.9678 133.428 68.0146V62.0615H132.069C131.991 62.0615 131.952 61.8975 131.952 61.5693C131.952 61.4756 131.959 61.4209 131.975 61.4053C132.444 61.1865 132.936 60.7725 133.452 60.1631C133.811 59.7412 134.077 59.374 134.249 59.0615C134.436 58.749 134.53 58.5615 134.53 58.499C134.999 58.499 135.233 58.5381 135.233 58.6162V60.9365L137.084 60.96H138.397C138.522 60.96 138.584 61.0303 138.584 61.1709C138.584 61.4678 138.506 61.7646 138.35 62.0615H135.233V67.8037C135.233 68.4287 135.389 68.9287 135.702 69.3037C136.03 69.6787 136.452 69.8662 136.967 69.8662C137.452 69.8662 137.936 69.7178 138.42 69.4209C138.467 69.3896 138.538 69.46 138.631 69.6318C138.725 69.7881 138.764 69.874 138.749 69.8896C138.514 70.1396 138.155 70.3896 137.67 70.6396C137.186 70.874 136.686 70.9912 136.17 70.9912ZM142.311 70.9912C141.592 70.9912 140.999 70.8037 140.53 70.4287C140.061 70.0381 139.827 69.46 139.827 68.6943C139.827 67.7568 140.436 66.9756 141.655 66.3506C142.186 66.085 142.709 65.874 143.225 65.7178C143.756 65.5615 144.288 65.3818 144.819 65.1787C144.959 65.1318 145.03 65.0146 145.03 64.8271V63.0693C145.03 62.5693 144.874 62.1865 144.561 61.9209C144.249 61.6396 143.874 61.499 143.436 61.499C142.967 61.499 142.577 61.6631 142.264 61.9912C141.952 62.3037 141.795 62.7178 141.795 63.2334C141.795 63.7803 141.475 64.0537 140.834 64.0537C140.381 64.0537 140.077 63.9053 139.92 63.6084C139.92 63.2803 140.053 62.9443 140.319 62.6006C140.6 62.2412 140.959 61.9131 141.397 61.6162C141.834 61.3193 142.311 61.0771 142.827 60.8896C143.358 60.7021 143.881 60.6084 144.397 60.6084C145.256 60.6084 145.874 60.8193 146.249 61.2412C146.624 61.6475 146.811 62.3115 146.811 63.2334V68.6475C146.811 68.9756 146.897 69.249 147.069 69.4678C147.241 69.6865 147.475 69.7959 147.772 69.7959C147.975 69.7959 148.249 69.6865 148.592 69.4678C148.655 69.4678 148.686 69.5303 148.686 69.6553C148.686 69.8584 148.647 70.0225 148.569 70.1475C147.928 70.6943 147.381 70.9678 146.928 70.9678C146.569 70.9678 146.225 70.8193 145.897 70.5225C145.569 70.2256 145.342 69.9131 145.217 69.585C145.139 69.6475 145.038 69.7334 144.913 69.8428C144.803 69.9365 144.709 70.0146 144.631 70.0771C144.303 70.3271 143.944 70.5459 143.553 70.7334C143.178 70.9053 142.764 70.9912 142.311 70.9912ZM143.202 69.6553C143.639 69.6553 144.053 69.5303 144.444 69.2803C144.834 69.0303 145.03 68.7646 145.03 68.4834V66.0693C144.624 66.2256 144.233 66.3662 143.858 66.4912C143.499 66.6162 143.209 66.7178 142.991 66.7959C142.709 66.9053 142.436 67.1006 142.17 67.3818C141.92 67.6631 141.795 67.9834 141.795 68.3428C141.795 68.8115 141.936 69.1475 142.217 69.3506C142.514 69.5537 142.842 69.6553 143.202 69.6553ZM154.428 70.9678C153.569 70.9678 152.78 70.7412 152.061 70.2881C151.342 69.835 150.764 69.2334 150.327 68.4834C149.905 67.7178 149.694 66.8662 149.694 65.9287C149.694 64.96 149.866 64.0771 150.209 63.2803C150.569 62.4678 151.084 61.8193 151.756 61.335C152.444 60.8506 153.272 60.6084 154.241 60.6084C155.959 60.6084 157.147 61.0068 157.803 61.8037C157.803 62.8506 157.514 63.374 156.936 63.374C156.67 63.374 156.467 63.3193 156.327 63.21C156.186 63.085 156.006 62.8662 155.788 62.5537C155.303 61.835 154.725 61.4756 154.053 61.4756C153.413 61.4756 152.827 61.7803 152.295 62.3896C151.78 62.999 151.522 63.9053 151.522 65.1084C151.522 66.3584 151.827 67.3975 152.436 68.2256C153.061 69.0537 153.92 69.4678 155.014 69.4678C155.67 69.4678 156.217 69.374 156.655 69.1865C157.108 68.9834 157.436 68.8037 157.639 68.6475L157.803 68.5303C157.897 68.5303 157.944 68.6318 157.944 68.835C157.944 68.9443 157.897 69.085 157.803 69.2568C157.491 69.6943 157.03 70.0928 156.42 70.4521C155.811 70.7959 155.147 70.9678 154.428 70.9678ZM162.936 70.9912C162.155 70.9912 161.499 70.7334 160.967 70.2178C160.452 69.7021 160.194 68.9678 160.194 68.0146V62.0615H158.834C158.756 62.0615 158.717 61.8975 158.717 61.5693C158.717 61.4756 158.725 61.4209 158.741 61.4053C159.209 61.1865 159.702 60.7725 160.217 60.1631C160.577 59.7412 160.842 59.374 161.014 59.0615C161.202 58.749 161.295 58.5615 161.295 58.499C161.764 58.499 161.999 58.5381 161.999 58.6162V60.9365L163.85 60.96H165.163C165.288 60.96 165.35 61.0303 165.35 61.1709C165.35 61.4678 165.272 61.7646 165.116 62.0615H161.999V67.8037C161.999 68.4287 162.155 68.9287 162.467 69.3037C162.795 69.6787 163.217 69.8662 163.733 69.8662C164.217 69.8662 164.702 69.7178 165.186 69.4209C165.233 69.3896 165.303 69.46 165.397 69.6318C165.491 69.7881 165.53 69.874 165.514 69.8896C165.28 70.1396 164.92 70.3896 164.436 70.6396C163.952 70.874 163.452 70.9912 162.936 70.9912ZM171.772 70.8975C171.694 70.8193 171.655 70.7021 171.655 70.5459C171.655 70.3271 171.694 70.2178 171.772 70.2178C171.928 70.2178 172.131 70.1943 172.381 70.1475C172.631 70.1006 172.874 70.0381 173.108 69.96C173.342 69.8818 173.506 69.7959 173.6 69.7021C173.866 69.4209 174.006 68.7412 174.022 67.6631C174.053 65.8506 174.084 64.2256 174.116 62.7881C174.163 61.335 174.202 60.1475 174.233 59.2256C174.264 58.2881 174.28 57.6865 174.28 57.4209C174.28 56.999 174.249 56.6865 174.186 56.4834C174.155 56.3896 174.014 56.3115 173.764 56.249C173.53 56.1709 173.272 56.1084 172.991 56.0615C172.709 56.0146 172.491 55.9912 172.334 55.9912C172.272 55.9912 172.241 55.8818 172.241 55.6631C172.241 55.4912 172.272 55.374 172.334 55.3115C172.709 55.3271 173.124 55.3506 173.577 55.3818C174.03 55.4131 174.491 55.4287 174.959 55.4287C175.256 55.4287 175.577 55.4209 175.92 55.4053C176.28 55.374 176.678 55.3428 177.116 55.3115C177.241 55.6553 178.788 59.5693 181.756 67.0537C181.788 67.085 181.819 67.1006 181.85 67.1006C181.913 67.1006 181.952 67.0693 181.967 67.0068C182.733 65.21 183.42 63.5693 184.03 62.085C184.639 60.6006 185.17 59.2803 185.624 58.124L186.561 55.3115C187.061 55.3428 187.467 55.3662 187.78 55.3818C188.108 55.3975 188.35 55.4053 188.506 55.4053C188.991 55.4053 189.452 55.3975 189.889 55.3818C190.327 55.3662 190.741 55.3428 191.131 55.3115C191.178 55.4521 191.202 55.5693 191.202 55.6631C191.202 55.8818 191.163 55.9912 191.084 55.9912H191.038C190.866 55.9912 190.639 56.0459 190.358 56.1553C190.077 56.249 189.866 56.3506 189.725 56.46C189.538 56.6006 189.444 57.124 189.444 58.0303L189.655 67.5459C189.686 68.4521 189.803 69.1709 190.006 69.7021C190.053 69.7959 190.178 69.8818 190.381 69.96C190.584 70.0381 190.803 70.1006 191.038 70.1475C191.288 70.1943 191.467 70.2178 191.577 70.2178C191.639 70.2178 191.67 70.3271 191.67 70.5459C191.67 70.6553 191.655 70.7725 191.624 70.8975C190.842 70.8662 190.217 70.8428 189.749 70.8271C189.295 70.7959 188.991 70.7803 188.834 70.7803L186.022 70.8975C185.959 70.835 185.928 70.71 185.928 70.5225C185.928 70.3193 185.959 70.2178 186.022 70.2178C186.178 70.2178 186.413 70.1787 186.725 70.1006C187.053 70.0225 187.288 69.9443 187.428 69.8662C187.616 69.7412 187.709 69.4053 187.709 68.8584V67.6162L187.428 59.3662C187.428 59.1943 187.405 59.0068 187.358 58.8037C187.327 58.585 187.288 58.3975 187.241 58.2412C187.194 58.0693 187.139 57.9834 187.077 57.9834C187.045 57.9834 187.006 58.0381 186.959 58.1475L182.061 69.8662C181.764 70.5381 181.475 70.874 181.194 70.874C181.178 70.874 181.108 70.8584 180.983 70.8271L175.616 57.1865C175.569 59.3896 175.514 61.3584 175.452 63.0928C175.389 64.8115 175.334 66.1943 175.288 67.2412C175.256 68.2881 175.241 68.8975 175.241 69.0693C175.241 69.3506 175.288 69.5537 175.381 69.6787C175.444 69.7568 175.6 69.8428 175.85 69.9365C176.1 70.0146 176.358 70.085 176.624 70.1475C176.905 70.1943 177.092 70.2178 177.186 70.2178C177.249 70.2178 177.28 70.335 177.28 70.5693C177.28 70.6631 177.264 70.7725 177.233 70.8975C176.452 70.8662 175.834 70.8428 175.381 70.8271C174.928 70.7959 174.639 70.7803 174.514 70.7803L171.772 70.8975ZM197.975 70.9678C197.116 70.9678 196.327 70.7412 195.608 70.2881C194.889 69.835 194.311 69.2334 193.874 68.4834C193.452 67.7178 193.241 66.8662 193.241 65.9287C193.241 64.835 193.444 63.8896 193.85 63.0928C194.256 62.2959 194.811 61.6865 195.514 61.2646C196.217 60.8271 197.006 60.6084 197.881 60.6084C198.6 60.6084 199.233 60.749 199.78 61.0303C200.327 61.2959 200.749 61.6396 201.045 62.0615C201.327 62.499 201.53 62.9443 201.655 63.3975C201.795 63.835 201.866 64.2725 201.866 64.71C201.866 65.0225 201.819 65.2178 201.725 65.2959C201.631 65.3584 201.452 65.3896 201.186 65.3896H195.28C195.155 65.3896 195.092 65.4287 195.092 65.5068C195.092 66.1631 195.225 66.7959 195.491 67.4053C195.756 67.999 196.147 68.4912 196.663 68.8818C197.178 69.2725 197.811 69.4678 198.561 69.4678C199.217 69.4678 199.764 69.374 200.202 69.1865C200.655 68.9834 200.983 68.8037 201.186 68.6475L201.35 68.5303C201.444 68.5303 201.491 68.6318 201.491 68.835C201.491 68.9443 201.444 69.085 201.35 69.2568C201.038 69.6943 200.577 70.0928 199.967 70.4521C199.358 70.7959 198.694 70.9678 197.975 70.9678ZM195.28 64.4053H199.85C199.928 64.4053 199.967 64.3271 199.967 64.1709C199.967 63.8271 199.874 63.4521 199.686 63.0459C199.514 62.624 199.249 62.2568 198.889 61.9443C198.53 61.6318 198.077 61.4756 197.53 61.4756C197.03 61.4756 196.6 61.6475 196.241 61.9912C195.881 62.3193 195.608 62.7021 195.42 63.1396C195.233 63.5615 195.139 63.9287 195.139 64.2412C195.139 64.3506 195.186 64.4053 195.28 64.4053Z" fill="#E7EEDA"/>
<defs>
<filter id="filter0_d_84_2663" x="53.7974" y="71.4122" width="79.8813" height="51.4886" filterUnits="userSpaceOnUse" color-interpolation-filters="sRGB">
<feFlood flood-opacity="0" result="BackgroundImageFix"/>
<feColorMatrix in="SourceAlpha" type="matrix" values="0 0 0 0 0 0 0 0 0 0 0 0 0 0 0 0 0 0 127 0" result="hardAlpha"/>
<feOffset dy="4"/>
<feGaussianBlur stdDeviation="2"/>
<feComposite in2="hardAlpha" operator="out"/>
<feColorMatrix type="matrix" values="0 0 0 0 0.393333 0 0 0 0 0.0747333 0 0 0 0 0.303063 0 0 0 0.25 0"/>
<feBlend mode="normal" in2="BackgroundImageFix" result="effect1_dropShadow_84_2663"/>
<feBlend mode="normal" in="SourceGraphic" in2="effect1_dropShadow_84_2663" result="shape"/>
</filter>
<filter id="filter1_d_84_2663" x="117.814" y="90.3848" width="69.7588" height="55.9081" filterUnits="userSpaceOnUse" color-interpolation-filters="sRGB">
<feFlood flood-opacity="0" result="BackgroundImageFix"/>
<feColorMatrix in="SourceAlpha" type="matrix" values="0 0 0 0 0 0 0 0 0 0 0 0 0 0 0 0 0 0 127 0" result="hardAlpha"/>
<feOffset dy="4"/>
<feGaussianBlur stdDeviation="2"/>
<feComposite in2="hardAlpha" operator="out"/>
<feColorMatrix type="matrix" values="0 0 0 0 0.393333 0 0 0 0 0.0747333 0 0 0 0 0.303063 0 0 0 0.25 0"/>
<feBlend mode="normal" in2="BackgroundImageFix" result="effect1_dropShadow_84_2663"/>
<feBlend mode="normal" in="SourceGraphic" in2="effect1_dropShadow_84_2663" result="shape"/>
</filter>
<filter id="filter2_d_84_2663" x="77.9216" y="17.6884" width="137.911" height="90.058" filterUnits="userSpaceOnUse" color-interpolation-filters="sRGB">
<feFlood flood-opacity="0" result="BackgroundImageFix"/>
<feColorMatrix in="SourceAlpha" type="matrix" values="0 0 0 0 0 0 0 0 0 0 0 0 0 0 0 0 0 0 127 0" result="hardAlpha"/>
<feOffset dy="4"/>
<feGaussianBlur stdDeviation="2"/>
<feComposite in2="hardAlpha" operator="out"/>
<feColorMatrix type="matrix" values="0 0 0 0 0.393333 0 0 0 0 0.0747333 0 0 0 0 0.303063 0 0 0 0.25 0"/>
<feBlend mode="normal" in2="BackgroundImageFix" result="effect1_dropShadow_84_2663"/>
<feBlend mode="normal" in="SourceGraphic" in2="effect1_dropShadow_84_2663" result="shape"/>
</filter>
<filter id="filter3_d_84_2663" x="98.0806" y="76.994" width="51.9199" height="54.5002" filterUnits="userSpaceOnUse" color-interpolation-filters="sRGB">
<feFlood flood-opacity="0" result="BackgroundImageFix"/>
<feColorMatrix in="SourceAlpha" type="matrix" values="0 0 0 0 0 0 0 0 0 0 0 0 0 0 0 0 0 0 127 0" result="hardAlpha"/>
<feOffset dy="4"/>
<feGaussianBlur stdDeviation="2"/>
<feComposite in2="hardAlpha" operator="out"/>
<feColorMatrix type="matrix" values="0 0 0 0 0.393333 0 0 0 0 0.0747333 0 0 0 0 0.303063 0 0 0 0.25 0"/>
<feBlend mode="normal" in2="BackgroundImageFix" result="effect1_dropShadow_84_2663"/>
<feBlend mode="normal" in="SourceGraphic" in2="effect1_dropShadow_84_2663" result="shape"/>
</filter>
<filter id="filter4_d_84_2663" x="94.3318" y="76.2051" width="59.2891" height="56.4733" filterUnits="userSpaceOnUse" color-interpolation-filters="sRGB">
<feFlood flood-opacity="0" result="BackgroundImageFix"/>
<feColorMatrix in="SourceAlpha" type="matrix" values="0 0 0 0 0 0 0 0 0 0 0 0 0 0 0 0 0 0 127 0" result="hardAlpha"/>
<feOffset dy="4"/>
<feGaussianBlur stdDeviation="2"/>
<feComposite in2="hardAlpha" operator="out"/>
<feColorMatrix type="matrix" values="0 0 0 0 0.393333 0 0 0 0 0.0747333 0 0 0 0 0.303063 0 0 0 0.25 0"/>
<feBlend mode="normal" in2="BackgroundImageFix" result="effect1_dropShadow_84_2663"/>
<feBlend mode="normal" in="SourceGraphic" in2="effect1_dropShadow_84_2663" result="shape"/>
</filter>
<filter id="filter5_d_84_2663" x="104.909" y="85.5033" width="37.7559" height="37.7771" filterUnits="userSpaceOnUse" color-interpolation-filters="sRGB">
<feFlood flood-opacity="0" result="BackgroundImageFix"/>
<feColorMatrix in="SourceAlpha" type="matrix" values="0 0 0 0 0 0 0 0 0 0 0 0 0 0 0 0 0 0 127 0" result="hardAlpha"/>
<feOffset dy="4"/>
<feGaussianBlur stdDeviation="2"/>
<feComposite in2="hardAlpha" operator="out"/>
<feColorMatrix type="matrix" values="0 0 0 0 0.393333 0 0 0 0 0.0747333 0 0 0 0 0.303063 0 0 0 0.25 0"/>
<feBlend mode="normal" in2="BackgroundImageFix" result="effect1_dropShadow_84_2663"/>
<feBlend mode="normal" in="SourceGraphic" in2="effect1_dropShadow_84_2663" result="shape"/>
</filter>
<filter id="filter6_d_84_2663" x="108.39" y="88.5403" width="30.8411" height="30.8578" filterUnits="userSpaceOnUse" color-interpolation-filters="sRGB">
<feFlood flood-opacity="0" result="BackgroundImageFix"/>
<feColorMatrix in="SourceAlpha" type="matrix" values="0 0 0 0 0 0 0 0 0 0 0 0 0 0 0 0 0 0 127 0" result="hardAlpha"/>
<feOffset dy="4"/>
<feGaussianBlur stdDeviation="2"/>
<feComposite in2="hardAlpha" operator="out"/>
<feColorMatrix type="matrix" values="0 0 0 0 0.393333 0 0 0 0 0.0747333 0 0 0 0 0.303063 0 0 0 0.25 0"/>
<feBlend mode="normal" in2="BackgroundImageFix" result="effect1_dropShadow_84_2663"/>
<feBlend mode="normal" in="SourceGraphic" in2="effect1_dropShadow_84_2663" result="shape"/>
</filter>
<filter id="filter7_i_84_2663" x="119.497" y="95.5912" width="8.79297" height="12.7992" filterUnits="userSpaceOnUse" color-interpolation-filters="sRGB">
<feFlood flood-opacity="0" result="BackgroundImageFix"/>
<feBlend mode="normal" in="SourceGraphic" in2="BackgroundImageFix" result="shape"/>
<feColorMatrix in="SourceAlpha" type="matrix" values="0 0 0 0 0 0 0 0 0 0 0 0 0 0 0 0 0 0 127 0" result="hardAlpha"/>
<feOffset dy="4"/>
<feGaussianBlur stdDeviation="2"/>
<feComposite in2="hardAlpha" operator="arithmetic" k2="-1" k3="1"/>
<feColorMatrix type="matrix" values="0 0 0 0 0.393333 0 0 0 0 0.0747333 0 0 0 0 0.303063 0 0 0 0.25 0"/>
<feBlend mode="normal" in2="shape" result="effect1_innerShadow_84_2663"/>
</filter>
</defs>
</svg>
