<svg width="202" height="164" viewBox="0 0 202 164" fill="none" xmlns="http://www.w3.org/2000/svg">
<g filter="url(#filter0_d_84_2627)">
<path d="M25.5532 74.2259C22.4244 80.0288 22.1105 88.6612 26.4927 93.9298C36.0277 101.387 38.4952 101.04 47.9201 102.807C57.3449 104.574 67.7357 104.035 76.8945 101.304C86.0534 98.5741 93.2622 93.8663 96.9961 88.1769C100.73 82.4875 100.696 76.2625 96.9024 70.8186C93.1083 65.3747 85.8512 61.1388 76.6661 59.0068C67.4809 56.8748 57.088 57.0139 47.6856 59.3947C38.2831 61.7755 33.1627 63.7619 28.8389 69.3144L46.6612 76.407L25.5532 74.2259Z" fill="#72923D"/>
</g>
<g filter="url(#filter1_d_84_2627)">
<path d="M193.643 75.6947C197.295 81.4918 199.077 90.7965 196.317 97.1928C189.606 106.769 187.469 106.78 179.851 110.173C172.232 113.565 163.396 114.611 155.211 113.089C147.025 111.568 140.133 107.597 135.991 102.018C131.849 96.4386 130.783 89.688 133.018 83.194C135.252 76.7 140.613 70.9718 147.966 67.2209C155.318 63.47 164.086 61.9905 172.415 63.0955C180.744 64.2004 185.401 65.5497 190.015 70.8881L176.268 81.369L193.643 75.6947Z" fill="#72923D"/>
</g>
<g filter="url(#filter2_d_84_2627)">
<path d="M83.4647 129.773C84.8849 137.376 90.4243 146.653 97.4161 150.173C109.943 153.595 111.659 152.073 120.284 149.528C128.909 146.983 136.751 141.547 142.151 134.371C147.552 127.194 150.087 118.84 149.22 111.074C148.354 103.308 144.154 96.7395 137.509 92.7585C130.864 88.7774 122.295 87.6956 113.614 89.7418C104.934 91.788 96.8219 96.8018 90.9949 103.723C85.1679 110.644 82.4571 115.142 82.7661 123.04L101.591 122.196L83.4647 129.773Z" fill="#72923D"/>
</g>
<g filter="url(#filter3_d_84_2627)">
<path d="M9.49971 19.1179C5.22981 24.9053 2.73926 34.4887 5.28803 41.364C11.8599 51.8436 14.1439 52.0089 22.0757 56.0995C30.0075 60.19 39.3891 61.919 48.2362 60.9208C57.0834 59.9226 64.7023 56.2754 69.4815 50.7507C74.2607 45.2259 75.8255 38.2569 73.8448 31.3175C71.8641 24.3781 66.4933 18.0126 58.8684 13.5673C51.2435 9.12201 41.9623 6.9455 32.988 7.49814C24.0137 8.05077 18.9497 9.12322 13.6809 14.3625L27.7186 26.2935L9.49971 19.1179Z" fill="#72923D"/>
</g>
<g filter="url(#filter4_d_84_2627)">
<path d="M175.762 22.335C181.616 31.5323 183.51 48.7913 177.279 58.2068C163.131 72.0258 159.136 71.8117 144.328 76.1421C129.521 80.4724 112.831 81.1078 97.7882 77.9139C82.7455 74.7199 70.698 71.9261 63.893 63.0069C57.0881 54.0877 57.235 39.6926 62.5008 30.0719C67.7665 20.4513 77.5699 12.3805 91.9403 7.47739C106.311 2.57432 122.946 1.2733 138.326 3.84952C153.707 6.42574 162.185 8.97695 169.912 17.5814L128.082 29.8945L175.762 22.335Z" fill="#587637"/>
</g>
<g filter="url(#filter5_d_84_2627)">
<path d="M100.674 61.6475C100.689 59.3659 103.143 57.9345 105.134 59.0456L118.859 66.7037C119.242 66.917 119.666 67.044 120.103 67.0757L135.815 68.2156C137.918 68.3682 139.21 70.5873 138.307 72.4938L131.555 86.7371C131.367 87.133 131.269 87.5652 131.266 88.0033L131.161 103.729C131.146 106.01 128.692 107.442 126.7 106.33L112.975 98.6724C112.593 98.459 112.169 98.3321 111.732 98.3004L96.0201 97.1604C93.917 97.0078 92.6244 94.7887 93.5281 92.8822L100.28 78.6389C100.467 78.243 100.566 77.8108 100.569 77.3727L100.674 61.6475Z" fill="#CCE66F"/>
</g>
<g filter="url(#filter6_d_84_2627)">
<path d="M90.2043 78.7994C88.603 77.1754 89.3264 74.428 91.5195 73.8046L106.637 69.5072C107.058 69.3875 107.448 69.177 107.779 68.8904L119.694 58.5792C121.289 57.1987 123.772 57.8535 124.48 59.8413L129.77 74.6892C129.917 75.1019 130.152 75.4774 130.46 75.7893L141.498 86.9838C143.099 88.6077 142.376 91.3551 140.183 91.9786L125.066 96.2759C124.644 96.3957 124.254 96.6062 123.923 96.8928L112.009 107.204C110.414 108.584 107.931 107.93 107.222 105.942L101.933 91.094C101.786 90.6813 101.55 90.3058 101.242 89.9939L90.2043 78.7994Z" fill="#D7ECBE"/>
</g>
<path d="M98.673 72.0231C98.1812 70.658 99.2599 69.239 100.706 69.3491L106.75 69.8092C107.577 69.8722 108.358 69.4168 108.711 68.6649L111.289 63.1754C111.906 61.862 113.671 61.6217 114.615 62.7225L118.565 67.3257C119.105 67.9557 119.979 68.1859 120.759 67.9042L126.463 65.8465C127.827 65.3543 129.244 66.4332 129.134 67.8799L128.674 73.9297C128.611 74.7578 129.066 75.5386 129.817 75.8918L135.304 78.4726C136.616 79.0897 136.855 80.8559 135.755 81.8013L131.156 85.7527C130.527 86.2939 130.296 87.1682 130.578 87.9497L132.634 93.6557C133.125 95.0209 132.047 96.4399 130.601 96.3298L124.557 95.8697C123.729 95.8067 122.949 96.2621 122.596 97.014L120.017 102.504C119.4 103.817 117.636 104.057 116.691 102.956L112.742 98.3532C112.201 97.7232 111.328 97.493 110.547 97.7746L104.844 99.8324C103.48 100.325 102.063 99.2457 102.173 97.7989L102.632 91.7492C102.695 90.9211 102.241 90.1403 101.49 89.7871L96.0028 87.2063C94.6907 86.5891 94.4512 84.8229 95.5514 83.8776L100.15 79.9262C100.78 79.385 101.01 78.5107 100.729 77.7292L98.673 72.0231Z" fill="#FBF3E6"/>
<g filter="url(#filter7_d_84_2627)">
<path d="M106.691 70.7839C106.758 69.3342 108.298 68.4362 109.592 69.0917L112.87 70.7524C113.61 71.1276 114.506 71.0058 115.12 70.4463L117.836 67.9705C118.908 66.9932 120.631 67.447 121.082 68.8256L122.227 72.3216C122.486 73.1106 123.205 73.6576 124.034 73.6964L127.706 73.868C129.154 73.9357 130.051 75.4749 129.396 76.7694L127.735 80.0518C127.361 80.7928 127.482 81.6882 128.041 82.302L130.516 85.022C131.492 86.0947 131.038 87.8181 129.66 88.2702L126.169 89.4155C125.38 89.6743 124.832 90.394 124.794 91.2238L124.622 94.8966C124.555 96.3463 123.015 97.2443 121.721 96.5888L118.443 94.9281C117.703 94.5529 116.807 94.6748 116.194 95.2342L113.477 97.7101C112.405 98.6873 110.682 98.2336 110.231 96.8549L109.086 93.3589C108.827 92.57 108.109 92.0229 107.28 91.9841L103.607 91.8125C102.159 91.7448 101.262 90.2056 101.917 88.9111L103.578 85.6287C103.952 84.8878 103.831 83.9923 103.272 83.3785L100.797 80.6585C99.8206 79.5859 100.275 77.8624 101.653 77.4103L105.144 76.265C105.933 76.0062 106.481 75.2865 106.519 74.4567L106.691 70.7839Z" fill="#FBFFFB"/>
</g>
<g filter="url(#filter8_d_84_2627)">
<path d="M105.912 77.0783C105.42 75.7131 106.499 74.2941 107.945 74.4042L109.789 74.5446C110.616 74.6076 111.397 74.1522 111.75 73.4003L112.537 71.7253C113.154 70.4119 114.919 70.1716 115.863 71.2725L117.069 72.6778C117.609 73.3078 118.483 73.538 119.263 73.2563L121.005 72.6281C122.368 72.136 123.786 73.2148 123.676 74.6616L123.535 76.5086C123.472 77.3367 123.927 78.1175 124.678 78.4707L126.353 79.2586C127.665 79.8757 127.905 81.6419 126.804 82.5873L125.401 83.7929C124.771 84.3341 124.541 85.2085 124.823 85.9899L125.45 87.7309C125.942 89.0961 124.863 90.5151 123.417 90.405L121.573 90.2646C120.745 90.2016 119.965 90.657 119.612 91.4089L118.825 93.0838C118.208 94.3972 116.443 94.6375 115.499 93.5367L114.293 92.1314C113.752 91.5014 112.879 91.2712 112.098 91.5529L110.357 92.1811C108.993 92.6732 107.576 91.5944 107.686 90.1476L107.827 88.3006C107.89 87.4725 107.435 86.6917 106.684 86.3385L105.009 85.5506C103.697 84.9335 103.457 83.1673 104.557 82.2219L105.96 81.0162C106.59 80.475 106.821 79.6007 106.539 78.8193L105.912 77.0783Z" fill="#F2F38D"/>
</g>
<g filter="url(#filter9_i_84_2627)">
<ellipse cx="4.53124" cy="4.53286" rx="4.53124" ry="4.53286" transform="matrix(0.863783 -0.503863 0.503318 0.864101 109.57 80.7932)" fill="#FAB71C"/>
</g>
<path d="M119.247 80.3957C120.369 82.3205 119.718 84.79 117.795 85.9117C115.872 87.0334 113.404 86.3829 112.283 84.4581C111.162 82.5334 111.813 80.0639 113.735 78.9421C115.658 77.8204 118.126 78.471 119.247 80.3957Z" stroke="#F2C03E"/>
<path d="M72.797 50.2144C71.7658 50.2144 70.797 50.0112 69.8908 49.605C69.0002 49.1987 68.2111 48.644 67.5236 47.9409C66.8517 47.2378 66.3205 46.4253 65.9299 45.5034C65.5549 44.5659 65.3674 43.5737 65.3674 42.5269C65.3674 41.4175 65.5627 40.3784 65.9533 39.4097C66.3439 38.4253 66.8908 37.5659 67.5939 36.8315C68.297 36.0815 69.1095 35.4956 70.0314 35.0737C70.9689 34.6519 71.9767 34.4409 73.0549 34.4409C73.9767 34.4409 74.9142 34.4878 75.8674 34.5815C76.8205 34.6753 77.7814 34.8237 78.7502 35.0269L78.7033 38.4019C78.7033 38.6362 78.5392 38.7534 78.2111 38.7534C78.0549 38.7534 77.9533 38.7144 77.9064 38.6362C77.8595 38.4331 77.797 38.23 77.7189 38.0269C77.6564 37.8081 77.5158 37.5269 77.297 37.1831C76.922 36.6362 76.383 36.2065 75.6799 35.894C74.9924 35.5815 74.1408 35.4253 73.1252 35.4253C72.3595 35.4253 71.6408 35.6128 70.9689 35.9878C70.297 36.3472 69.7033 36.8394 69.1877 37.4644C68.6877 38.0894 68.297 38.8003 68.0158 39.5972C67.7345 40.3784 67.5939 41.1909 67.5939 42.0347C67.5939 43.3315 67.8127 44.4956 68.2502 45.5269C68.6877 46.5894 69.3752 47.4722 70.3127 48.1753C71.2658 48.8628 72.3908 49.2065 73.6877 49.2065C75.2345 49.2065 76.4299 48.7534 77.2736 47.8472C77.5236 47.5815 77.7189 47.269 77.8595 46.9097C78.0002 46.5503 78.1095 46.2378 78.1877 45.9722C78.2658 45.7065 78.3439 45.5737 78.422 45.5737C78.5158 45.5737 78.6252 45.5894 78.7502 45.6206C78.8908 45.6362 79.0002 45.6675 79.0783 45.7144L79.1955 45.7847C79.1955 45.8784 79.1642 46.0972 79.1017 46.4409C79.0392 46.7847 78.9611 47.1675 78.8674 47.5894C78.7736 47.9956 78.6799 48.355 78.5861 48.6675C78.508 48.98 78.4455 49.1519 78.3986 49.1831C77.2424 49.8706 75.3752 50.2144 72.797 50.2144ZM85.7111 50.2378C84.7736 50.2378 83.9142 50.0034 83.133 49.5347C82.3517 49.0659 81.7267 48.4331 81.258 47.6362C80.8049 46.8394 80.5783 45.9644 80.5783 45.0112C80.5783 44.0425 80.797 43.1675 81.2345 42.3862C81.6877 41.605 82.297 40.9878 83.0627 40.5347C83.8283 40.0659 84.6955 39.8315 85.6642 39.8315C86.6017 39.8315 87.4533 40.0659 88.2189 40.5347C89.0002 41.0034 89.6174 41.6284 90.0705 42.4097C90.5392 43.1909 90.7736 44.0581 90.7736 45.0112C90.7736 45.9644 90.547 46.8394 90.0939 47.6362C89.6408 48.4331 89.0314 49.0659 88.2658 49.5347C87.5158 50.0034 86.6642 50.2378 85.7111 50.2378ZM85.922 49.3237C86.4845 49.3237 86.9767 49.144 87.3986 48.7847C87.8205 48.4253 88.1486 47.9409 88.383 47.3315C88.633 46.7222 88.758 46.0581 88.758 45.3394C88.758 44.4956 88.6017 43.73 88.2892 43.0425C87.9767 42.3394 87.5627 41.7847 87.047 41.3784C86.547 40.9565 86.0002 40.7456 85.4064 40.7456C84.8595 40.7456 84.3674 40.9253 83.9299 41.2847C83.508 41.6284 83.1799 42.0972 82.9455 42.6909C82.7111 43.269 82.5939 43.9253 82.5939 44.6597C82.5939 45.5034 82.7424 46.2847 83.0392 47.0034C83.3517 47.7065 83.758 48.269 84.258 48.6909C84.7736 49.1128 85.3283 49.3237 85.922 49.3237ZM92.4377 50.144C92.3752 50.0815 92.3439 49.9487 92.3439 49.7456C92.3439 49.5581 92.3752 49.4644 92.4377 49.4644C92.5627 49.4644 92.7345 49.4409 92.9533 49.394C93.172 49.3472 93.3752 49.2847 93.5627 49.2065C93.7502 49.1284 93.8517 49.0581 93.8674 48.9956C93.9299 48.7769 93.9689 48.5269 93.9845 48.2456C94.0158 47.9644 94.0314 47.6675 94.0314 47.355V42.9253C94.0314 42.3315 93.922 41.9097 93.7033 41.6597C93.547 41.4722 93.3595 41.3472 93.1408 41.2847C92.9377 41.2222 92.7502 41.1909 92.5783 41.1909C92.422 41.1753 92.3439 41.1519 92.3439 41.1206C92.3439 40.7456 92.3908 40.5503 92.4845 40.5347C93.3127 40.4097 93.9845 40.3003 94.5002 40.2065C95.0158 40.0972 95.3361 40.0269 95.4611 39.9956L95.8361 39.9019C95.8986 39.8862 95.9377 39.9487 95.9533 40.0894C95.9689 40.23 95.9689 40.3315 95.9533 40.394C95.922 40.6128 95.8986 40.8003 95.883 40.9565C95.8674 41.1128 95.8595 41.2378 95.8595 41.3315C95.8595 41.394 95.8752 41.4253 95.9064 41.4253C95.922 41.4253 95.9455 41.4097 95.9767 41.3784C96.3361 41.0034 96.8205 40.6519 97.4299 40.3237C98.0549 39.98 98.6486 39.8081 99.2111 39.8081C100.305 39.8081 101.07 40.1987 101.508 40.98C101.945 41.7612 102.164 43.0269 102.164 44.7769V46.9097C102.164 47.3628 102.18 47.7612 102.211 48.105C102.242 48.4487 102.289 48.7456 102.352 48.9956C102.383 49.0581 102.492 49.1284 102.68 49.2065C102.867 49.2847 103.07 49.3472 103.289 49.394C103.508 49.4409 103.664 49.4644 103.758 49.4644C103.805 49.4644 103.836 49.5581 103.852 49.7456C103.867 49.9331 103.86 50.0659 103.828 50.144L101.32 50.0269L98.8595 50.144C98.797 50.0815 98.7658 49.9487 98.7658 49.7456C98.7658 49.5581 98.797 49.4644 98.8595 49.4644C98.9845 49.4644 99.1486 49.4409 99.3517 49.394C99.5549 49.3472 99.7424 49.2847 99.9142 49.2065C100.086 49.1284 100.18 49.0581 100.195 48.9956C100.258 48.7769 100.297 48.5269 100.313 48.2456C100.344 47.9644 100.36 47.6675 100.36 47.355V45.0112C100.36 43.5581 100.172 42.5659 99.797 42.0347C99.422 41.5034 98.8127 41.2378 97.9689 41.2378C97.6408 41.2378 97.3127 41.3315 96.9845 41.519C96.6564 41.6909 96.383 41.894 96.1642 42.1284C95.9455 42.3628 95.8361 42.5815 95.8361 42.7847V46.9097C95.8361 47.3628 95.8517 47.7612 95.883 48.105C95.9142 48.4487 95.9611 48.7456 96.0236 48.9956C96.0549 49.0581 96.1642 49.1284 96.3517 49.2065C96.5392 49.2847 96.7424 49.3472 96.9611 49.394C97.1799 49.4409 97.3361 49.4644 97.4299 49.4644C97.4767 49.4644 97.508 49.5581 97.5236 49.7456C97.5392 49.9331 97.5314 50.0659 97.5002 50.144L94.9924 50.0269L92.4377 50.144ZM109.008 50.2378C108.227 50.2378 107.57 49.98 107.039 49.4644C106.524 48.9487 106.266 48.2144 106.266 47.2612V41.3081H104.906C104.828 41.3081 104.789 41.144 104.789 40.8159C104.789 40.7222 104.797 40.6675 104.813 40.6519C105.281 40.4331 105.774 40.019 106.289 39.4097C106.649 38.9878 106.914 38.6206 107.086 38.3081C107.274 37.9956 107.367 37.8081 107.367 37.7456C107.836 37.7456 108.07 37.7847 108.07 37.8628V40.1831L109.922 40.2065H111.235C111.36 40.2065 111.422 40.2769 111.422 40.4175C111.422 40.7144 111.344 41.0112 111.188 41.3081H108.07V47.0503C108.07 47.6753 108.227 48.1753 108.539 48.5503C108.867 48.9253 109.289 49.1128 109.805 49.1128C110.289 49.1128 110.774 48.9644 111.258 48.6675C111.305 48.6362 111.375 48.7065 111.469 48.8784C111.563 49.0347 111.602 49.1206 111.586 49.1362C111.352 49.3862 110.992 49.6362 110.508 49.8862C110.024 50.1206 109.524 50.2378 109.008 50.2378ZM115.149 50.2378C114.43 50.2378 113.836 50.0503 113.367 49.6753C112.899 49.2847 112.664 48.7065 112.664 47.9409C112.664 47.0034 113.274 46.2222 114.492 45.5972C115.024 45.3315 115.547 45.1206 116.063 44.9644C116.594 44.8081 117.125 44.6284 117.656 44.4253C117.797 44.3784 117.867 44.2612 117.867 44.0737V42.3159C117.867 41.8159 117.711 41.4331 117.399 41.1675C117.086 40.8862 116.711 40.7456 116.274 40.7456C115.805 40.7456 115.414 40.9097 115.102 41.2378C114.789 41.5503 114.633 41.9644 114.633 42.48C114.633 43.0269 114.313 43.3003 113.672 43.3003C113.219 43.3003 112.914 43.1519 112.758 42.855C112.758 42.5269 112.891 42.1909 113.156 41.8472C113.438 41.4878 113.797 41.1597 114.235 40.8628C114.672 40.5659 115.149 40.3237 115.664 40.1362C116.195 39.9487 116.719 39.855 117.235 39.855C118.094 39.855 118.711 40.0659 119.086 40.4878C119.461 40.894 119.649 41.5581 119.649 42.48V47.894C119.649 48.2222 119.735 48.4956 119.906 48.7144C120.078 48.9331 120.313 49.0425 120.61 49.0425C120.813 49.0425 121.086 48.9331 121.43 48.7144C121.492 48.7144 121.524 48.7769 121.524 48.9019C121.524 49.105 121.485 49.269 121.406 49.394C120.766 49.9409 120.219 50.2144 119.766 50.2144C119.406 50.2144 119.063 50.0659 118.735 49.769C118.406 49.4722 118.18 49.1597 118.055 48.8315C117.977 48.894 117.875 48.98 117.75 49.0894C117.641 49.1831 117.547 49.2612 117.469 49.3237C117.141 49.5737 116.781 49.7925 116.391 49.98C116.016 50.1519 115.602 50.2378 115.149 50.2378ZM116.039 48.9019C116.477 48.9019 116.891 48.7769 117.281 48.5269C117.672 48.2769 117.867 48.0112 117.867 47.73V45.3159C117.461 45.4722 117.07 45.6128 116.695 45.7378C116.336 45.8628 116.047 45.9644 115.828 46.0425C115.547 46.1519 115.274 46.3472 115.008 46.6284C114.758 46.9097 114.633 47.23 114.633 47.5894C114.633 48.0581 114.774 48.394 115.055 48.5972C115.352 48.8003 115.68 48.9019 116.039 48.9019ZM127.266 50.2144C126.406 50.2144 125.617 49.9878 124.899 49.5347C124.18 49.0815 123.602 48.48 123.164 47.73C122.742 46.9644 122.531 46.1128 122.531 45.1753C122.531 44.2065 122.703 43.3237 123.047 42.5269C123.406 41.7144 123.922 41.0659 124.594 40.5815C125.281 40.0972 126.11 39.855 127.078 39.855C128.797 39.855 129.985 40.2534 130.641 41.0503C130.641 42.0972 130.352 42.6206 129.774 42.6206C129.508 42.6206 129.305 42.5659 129.164 42.4565C129.024 42.3315 128.844 42.1128 128.625 41.8003C128.141 41.0815 127.563 40.7222 126.891 40.7222C126.25 40.7222 125.664 41.0269 125.133 41.6362C124.617 42.2456 124.36 43.1519 124.36 44.355C124.36 45.605 124.664 46.644 125.274 47.4722C125.899 48.3003 126.758 48.7144 127.852 48.7144C128.508 48.7144 129.055 48.6206 129.492 48.4331C129.945 48.23 130.274 48.0503 130.477 47.894L130.641 47.7769C130.735 47.7769 130.781 47.8784 130.781 48.0815C130.781 48.1909 130.735 48.3315 130.641 48.5034C130.328 48.9409 129.867 49.3394 129.258 49.6987C128.649 50.0425 127.985 50.2144 127.266 50.2144ZM135.774 50.2378C134.992 50.2378 134.336 49.98 133.805 49.4644C133.289 48.9487 133.031 48.2144 133.031 47.2612V41.3081H131.672C131.594 41.3081 131.555 41.144 131.555 40.8159C131.555 40.7222 131.563 40.6675 131.578 40.6519C132.047 40.4331 132.539 40.019 133.055 39.4097C133.414 38.9878 133.68 38.6206 133.852 38.3081C134.039 37.9956 134.133 37.8081 134.133 37.7456C134.602 37.7456 134.836 37.7847 134.836 37.8628V40.1831L136.688 40.2065H138C138.125 40.2065 138.188 40.2769 138.188 40.4175C138.188 40.7144 138.11 41.0112 137.953 41.3081H134.836V47.0503C134.836 47.6753 134.992 48.1753 135.305 48.5503C135.633 48.9253 136.055 49.1128 136.57 49.1128C137.055 49.1128 137.539 48.9644 138.024 48.6675C138.07 48.6362 138.141 48.7065 138.235 48.8784C138.328 49.0347 138.367 49.1206 138.352 49.1362C138.117 49.3862 137.758 49.6362 137.274 49.8862C136.789 50.1206 136.289 50.2378 135.774 50.2378ZM144.61 50.144C144.531 50.0659 144.492 49.9487 144.492 49.7925C144.492 49.5737 144.531 49.4644 144.61 49.4644C144.766 49.4644 144.969 49.4409 145.219 49.394C145.469 49.3472 145.711 49.2847 145.945 49.2065C146.18 49.1284 146.344 49.0425 146.438 48.9487C146.703 48.6675 146.844 47.9878 146.86 46.9097C146.891 45.0972 146.922 43.4722 146.953 42.0347C147 40.5815 147.039 39.394 147.07 38.4722C147.102 37.5347 147.117 36.9331 147.117 36.6675C147.117 36.2456 147.086 35.9331 147.024 35.73C146.992 35.6362 146.852 35.5581 146.602 35.4956C146.367 35.4175 146.11 35.355 145.828 35.3081C145.547 35.2612 145.328 35.2378 145.172 35.2378C145.11 35.2378 145.078 35.1284 145.078 34.9097C145.078 34.7378 145.11 34.6206 145.172 34.5581C145.547 34.5737 145.961 34.5972 146.414 34.6284C146.867 34.6597 147.328 34.6753 147.797 34.6753C148.094 34.6753 148.414 34.6675 148.758 34.6519C149.117 34.6206 149.516 34.5894 149.953 34.5581C150.078 34.9019 151.625 38.8159 154.594 46.3003C154.625 46.3315 154.656 46.3472 154.688 46.3472C154.75 46.3472 154.789 46.3159 154.805 46.2534C155.57 44.4565 156.258 42.8159 156.867 41.3315C157.477 39.8472 158.008 38.5269 158.461 37.3706L159.399 34.5581C159.899 34.5894 160.305 34.6128 160.617 34.6284C160.945 34.644 161.188 34.6519 161.344 34.6519C161.828 34.6519 162.289 34.644 162.727 34.6284C163.164 34.6128 163.578 34.5894 163.969 34.5581C164.016 34.6987 164.039 34.8159 164.039 34.9097C164.039 35.1284 164 35.2378 163.922 35.2378H163.875C163.703 35.2378 163.477 35.2925 163.195 35.4019C162.914 35.4956 162.703 35.5972 162.563 35.7065C162.375 35.8472 162.281 36.3706 162.281 37.2769L162.492 46.7925C162.524 47.6987 162.641 48.4175 162.844 48.9487C162.891 49.0425 163.016 49.1284 163.219 49.2065C163.422 49.2847 163.641 49.3472 163.875 49.394C164.125 49.4409 164.305 49.4644 164.414 49.4644C164.477 49.4644 164.508 49.5737 164.508 49.7925C164.508 49.9019 164.492 50.019 164.461 50.144C163.68 50.1128 163.055 50.0894 162.586 50.0737C162.133 50.0425 161.828 50.0269 161.672 50.0269L158.86 50.144C158.797 50.0815 158.766 49.9565 158.766 49.769C158.766 49.5659 158.797 49.4644 158.86 49.4644C159.016 49.4644 159.25 49.4253 159.563 49.3472C159.891 49.269 160.125 49.1909 160.266 49.1128C160.453 48.9878 160.547 48.6519 160.547 48.105V46.8628L160.266 38.6128C160.266 38.4409 160.242 38.2534 160.195 38.0503C160.164 37.8315 160.125 37.644 160.078 37.4878C160.031 37.3159 159.977 37.23 159.914 37.23C159.883 37.23 159.844 37.2847 159.797 37.394L154.899 49.1128C154.602 49.7847 154.313 50.1206 154.031 50.1206C154.016 50.1206 153.945 50.105 153.82 50.0737L148.453 36.4331C148.406 38.6362 148.352 40.605 148.289 42.3394C148.227 44.0581 148.172 45.4409 148.125 46.4878C148.094 47.5347 148.078 48.144 148.078 48.3159C148.078 48.5972 148.125 48.8003 148.219 48.9253C148.281 49.0034 148.438 49.0894 148.688 49.1831C148.938 49.2612 149.195 49.3315 149.461 49.394C149.742 49.4409 149.93 49.4644 150.024 49.4644C150.086 49.4644 150.117 49.5815 150.117 49.8159C150.117 49.9097 150.102 50.019 150.07 50.144C149.289 50.1128 148.672 50.0894 148.219 50.0737C147.766 50.0425 147.477 50.0269 147.352 50.0269L144.61 50.144ZM170.813 50.2144C169.953 50.2144 169.164 49.9878 168.445 49.5347C167.727 49.0815 167.149 48.48 166.711 47.73C166.289 46.9644 166.078 46.1128 166.078 45.1753C166.078 44.0815 166.281 43.1362 166.688 42.3394C167.094 41.5425 167.649 40.9331 168.352 40.5112C169.055 40.0737 169.844 39.855 170.719 39.855C171.438 39.855 172.07 39.9956 172.617 40.2769C173.164 40.5425 173.586 40.8862 173.883 41.3081C174.164 41.7456 174.367 42.1909 174.492 42.644C174.633 43.0815 174.703 43.519 174.703 43.9565C174.703 44.269 174.656 44.4644 174.563 44.5425C174.469 44.605 174.289 44.6362 174.024 44.6362H168.117C167.992 44.6362 167.93 44.6753 167.93 44.7534C167.93 45.4097 168.063 46.0425 168.328 46.6519C168.594 47.2456 168.985 47.7378 169.5 48.1284C170.016 48.519 170.649 48.7144 171.399 48.7144C172.055 48.7144 172.602 48.6206 173.039 48.4331C173.492 48.23 173.82 48.0503 174.024 47.894L174.188 47.7769C174.281 47.7769 174.328 47.8784 174.328 48.0815C174.328 48.1909 174.281 48.3315 174.188 48.5034C173.875 48.9409 173.414 49.3394 172.805 49.6987C172.195 50.0425 171.531 50.2144 170.813 50.2144ZM168.117 43.6519H172.688C172.766 43.6519 172.805 43.5737 172.805 43.4175C172.805 43.0737 172.711 42.6987 172.524 42.2925C172.352 41.8706 172.086 41.5034 171.727 41.1909C171.367 40.8784 170.914 40.7222 170.367 40.7222C169.867 40.7222 169.438 40.894 169.078 41.2378C168.719 41.5659 168.445 41.9487 168.258 42.3862C168.07 42.8081 167.977 43.1753 167.977 43.4878C167.977 43.5972 168.024 43.6519 168.117 43.6519Z" fill="#E7EEDA"/>
<path d="M28.6438 48.0035C28.2971 48.0035 28.1238 47.8102 28.1238 47.4235C28.1238 46.9968 28.2105 46.4835 28.3838 45.8835C28.5571 45.2968 28.7571 44.6835 28.9838 44.0435C29.2238 43.4035 29.4305 42.8168 29.6038 42.2835H29.5438C28.8905 43.3902 28.1505 44.2702 27.3238 44.9235C26.5105 45.5635 25.7105 45.8835 24.9238 45.8835C24.5371 45.8835 24.1371 45.7902 23.7238 45.6035C23.3238 45.4035 22.9505 45.1368 22.6038 44.8035C22.2705 44.4702 21.9971 44.0968 21.7838 43.6835C21.5705 43.2702 21.4638 42.8435 21.4638 42.4035C21.4638 41.7102 21.5771 40.9768 21.8038 40.2035C22.0438 39.4168 22.3638 38.6302 22.7638 37.8435C23.1638 37.0568 23.6305 36.3102 24.1638 35.6035C24.6971 34.8835 25.2638 34.2435 25.8638 33.6835C26.4771 33.1235 27.1038 32.6835 27.7438 32.3635C28.3838 32.0435 29.0038 31.8835 29.6038 31.8835C29.8971 31.8835 30.1638 31.9968 30.4038 32.2235C30.6571 32.4502 30.8571 32.7102 31.0038 33.0035C31.1638 33.2968 31.2438 33.5435 31.2438 33.7435C31.2438 33.9435 31.1705 34.0435 31.0238 34.0435C30.9305 34.0435 30.7838 33.9968 30.5838 33.9035C30.3971 33.7968 30.1238 33.7435 29.7638 33.7435C29.1905 33.7435 28.6038 33.9302 28.0038 34.3035C27.4038 34.6768 26.8238 35.1768 26.2638 35.8035C25.7038 36.4302 25.1971 37.1302 24.7438 37.9035C24.2905 38.6635 23.9305 39.4368 23.6638 40.2235C23.4105 41.0102 23.2838 41.7435 23.2838 42.4235C23.2838 42.9035 23.4371 43.3168 23.7438 43.6635C24.0505 43.9968 24.4105 44.1635 24.8238 44.1635C25.2505 44.1635 25.7305 44.0102 26.2638 43.7035C26.7971 43.3835 27.3438 42.9435 27.9038 42.3835C28.4638 41.8235 28.9838 41.1835 29.4638 40.4635V40.4035C29.1305 40.5102 28.8305 40.5902 28.5638 40.6435C28.3105 40.6835 28.0571 40.7035 27.8038 40.7035C27.4438 40.7035 27.1371 40.6102 26.8838 40.4235C26.6305 40.2235 26.5038 40.0368 26.5038 39.8635C26.5038 39.7835 26.5705 39.6902 26.7038 39.5835C26.8371 39.4768 27.1171 39.3835 27.5438 39.3035C27.9838 39.2102 28.6438 39.1635 29.5238 39.1635C30.0171 39.1635 30.4105 39.3635 30.7038 39.7635C30.9971 40.1635 31.1438 40.6368 31.1438 41.1835C31.1438 41.3568 31.0971 41.6502 31.0038 42.0635C30.9105 42.4635 30.7905 42.9235 30.6438 43.4435C30.4971 43.9502 30.3305 44.4702 30.1438 45.0035C29.9705 45.5368 29.7838 46.0302 29.5838 46.4835C29.3971 46.9368 29.2238 47.3035 29.0638 47.5835C28.9038 47.8635 28.7638 48.0035 28.6438 48.0035ZM35.0532 45.8835C34.9465 45.8835 34.8065 45.8035 34.6332 45.6435C34.4598 45.4702 34.3065 45.2635 34.1732 45.0235C34.0398 44.7835 33.9732 44.5568 33.9732 44.3435C33.9732 44.0235 34.2665 42.7168 34.8532 40.4235C34.6798 40.3568 34.5265 40.2435 34.3932 40.0835C34.2732 39.9102 34.2132 39.7168 34.2132 39.5035C34.2132 39.3302 34.5598 39.1368 35.2532 38.9235C36.1465 35.4302 36.5932 33.2635 36.5932 32.4235C36.5932 32.1968 36.6198 32.0435 36.6732 31.9635C36.7398 31.8702 36.8665 31.8235 37.0532 31.8235C37.1598 31.8235 37.3065 31.9235 37.4932 32.1235C37.6798 32.3102 37.8465 32.5568 37.9932 32.8635C38.1398 33.1702 38.2132 33.4902 38.2132 33.8235C38.2132 34.3435 37.8865 35.8902 37.2332 38.4635C38.9932 38.1035 40.7198 37.8702 42.4132 37.7635C43.0932 34.9902 43.4332 33.2102 43.4332 32.4235C43.4332 32.0235 43.5665 31.8235 43.8332 31.8235C43.9932 31.8235 44.1665 31.9235 44.3532 32.1235C44.5532 32.3102 44.7265 32.5502 44.8732 32.8435C45.0198 33.1368 45.0932 33.4302 45.0932 33.7235C45.0932 34.1768 44.7932 35.5368 44.1932 37.8035C44.8065 37.8968 45.1132 38.0768 45.1132 38.3435C45.1132 38.6235 44.6998 38.8502 43.8732 39.0235C43.5398 40.2768 43.2598 41.3235 43.0332 42.1635C42.8065 42.9902 42.6265 43.6568 42.4932 44.1635C42.3598 44.6568 42.2465 45.0302 42.1532 45.2835C42.0732 45.5235 41.9998 45.6835 41.9332 45.7635C41.8798 45.8435 41.8198 45.8835 41.7532 45.8835C41.6598 45.8835 41.5332 45.8102 41.3732 45.6635C41.2265 45.5168 41.0932 45.3302 40.9732 45.1035C40.8665 44.8768 40.8132 44.6568 40.8132 44.4435C40.8132 44.1102 41.2132 42.3968 42.0132 39.3035C40.0665 39.5702 38.3132 39.8768 36.7532 40.2235C36.4465 41.3302 36.1932 42.3102 35.9932 43.1635C35.7932 44.0168 35.6198 44.6835 35.4732 45.1635C35.3398 45.6435 35.1998 45.8835 35.0532 45.8835Z" fill="#E7EEDA"/>
<path d="M45.6993 94.1198C45.2726 94.1198 44.8793 94.0331 44.5193 93.8598C44.1593 93.6865 43.866 93.4598 43.6393 93.1798C43.426 92.8865 43.3193 92.5665 43.3193 92.2198C43.3193 91.9398 43.386 91.5198 43.5193 90.9598C43.6526 90.3998 43.8193 89.7598 44.0193 89.0398C44.2326 88.3198 44.4526 87.5665 44.6793 86.7798C44.9193 85.9798 45.1393 85.1931 45.3393 84.4198C45.5526 83.6331 45.726 82.9065 45.8593 82.2398C45.9926 81.5731 46.0593 81.0131 46.0593 80.5598C46.0593 80.3465 46.086 80.1931 46.1393 80.0998C46.206 80.0065 46.3393 79.9598 46.5393 79.9598C46.6593 79.9598 46.8126 80.0398 46.9993 80.1998C47.186 80.3598 47.346 80.5598 47.4793 80.7998C47.626 81.0265 47.6993 81.2665 47.6993 81.5198C47.6993 81.8665 47.6326 82.3398 47.4993 82.9398C47.3793 83.5265 47.2193 84.1865 47.0193 84.9198C46.8326 85.6398 46.626 86.3798 46.3993 87.1398C46.186 87.8865 45.9793 88.5931 45.7793 89.2598C45.5926 89.9265 45.4326 90.4931 45.2993 90.9598C45.1793 91.4265 45.1193 91.7398 45.1193 91.8998C45.1193 92.2598 45.2926 92.4398 45.6393 92.4398C46.6526 92.4398 47.5593 92.3598 48.3593 92.1998C49.1726 92.0265 49.8593 91.8598 50.4193 91.6998C50.9793 91.5398 51.3793 91.4598 51.6193 91.4598C51.8193 91.4598 51.9193 91.5731 51.9193 91.7998C51.9193 92.0798 51.7326 92.3598 51.3593 92.6398C50.986 92.9065 50.486 93.1531 49.8593 93.3798C49.246 93.6065 48.5726 93.7865 47.8393 93.9198C47.1193 94.0531 46.406 94.1198 45.6993 94.1198ZM55.3173 94.0798C55.2373 94.0798 55.1173 94.0065 54.9573 93.8598C54.8106 93.6998 54.6706 93.5131 54.5373 93.2998C54.4173 93.0865 54.3573 92.8931 54.3573 92.7198C54.3573 92.5198 54.4106 92.1398 54.5173 91.5798C54.6373 91.0065 54.7906 90.3265 54.9773 89.5398C55.1639 88.7398 55.3573 87.8998 55.5573 87.0198C55.7573 86.1398 55.9506 85.2865 56.1373 84.4598C56.3239 83.6198 56.4706 82.8665 56.5773 82.1998C56.6973 81.5331 56.7573 81.0331 56.7573 80.6998C56.7573 80.4731 56.7839 80.3198 56.8373 80.2398C56.9039 80.1465 57.0373 80.0998 57.2373 80.0998C57.3573 80.0998 57.5106 80.1998 57.6973 80.3998C57.8973 80.5865 58.0706 80.8331 58.2173 81.1398C58.3773 81.4331 58.4573 81.7331 58.4573 82.0398C58.4573 82.1998 58.3973 82.5731 58.2773 83.1598C58.1573 83.7331 58.0039 84.4331 57.8173 85.2598C57.6306 86.0865 57.4239 86.9665 57.1973 87.8998C56.9706 88.8198 56.7439 89.7198 56.5173 90.5998C56.3039 91.4798 56.1106 92.2465 55.9373 92.8998C55.8039 93.4331 55.6839 93.7665 55.5773 93.8998C55.4706 94.0198 55.3839 94.0798 55.3173 94.0798ZM61.1687 94.1198C60.942 94.1198 60.7287 93.9665 60.5287 93.6598C60.342 93.3398 60.2487 93.0198 60.2487 92.6998C60.2487 92.5131 60.3087 92.1398 60.4287 91.5798C60.562 91.0198 60.7287 90.3465 60.9287 89.5598C61.1287 88.7731 61.342 87.9398 61.5687 87.0598C61.7953 86.1798 62.0087 85.3198 62.2087 84.4798C62.4087 83.6398 62.5687 82.8865 62.6887 82.2198C62.822 81.5531 62.8887 81.0398 62.8887 80.6798C62.8887 80.2531 63.002 80.0398 63.2287 80.0398C63.3753 80.0398 63.5753 80.1665 63.8287 80.4198C64.0953 80.6598 64.2887 80.9265 64.4087 81.2198C66.5553 86.7931 67.9153 90.2065 68.4887 91.4598C68.742 90.7798 68.9687 90.0331 69.1687 89.2198C69.382 88.3931 69.562 87.5531 69.7087 86.6998C69.8687 85.8465 70.002 85.0331 70.1087 84.2598C70.2153 83.4731 70.2953 82.7865 70.3487 82.1998C70.402 81.5998 70.4287 81.1531 70.4287 80.8598C70.4287 80.2865 70.5687 79.9998 70.8487 79.9998C71.0087 79.9998 71.182 80.0798 71.3687 80.2398C71.5687 80.3865 71.7353 80.5665 71.8687 80.7798C72.0153 80.9931 72.0887 81.2065 72.0887 81.4198C72.0887 81.6731 72.0553 82.0931 71.9887 82.6798C71.9353 83.2531 71.8553 83.9331 71.7487 84.7198C71.642 85.4931 71.5087 86.3131 71.3487 87.1798C71.1887 88.0331 71.0087 88.8731 70.8087 89.6998C70.622 90.5131 70.4087 91.2531 70.1687 91.9198C69.942 92.5865 69.6953 93.1198 69.4287 93.5198C69.162 93.9198 68.8887 94.1198 68.6087 94.1198C68.2753 94.1198 67.9553 93.8798 67.6487 93.3998C67.3553 92.9065 67.0353 92.2265 66.6887 91.3598C66.3553 90.4798 65.9687 89.4465 65.5287 88.2598C65.102 87.0598 64.582 85.7531 63.9687 84.3398C63.5953 85.6598 63.2687 86.9131 62.9887 88.0998C62.722 89.2731 62.482 90.3131 62.2687 91.2198C62.0687 92.1265 61.882 92.8398 61.7087 93.3598C61.5353 93.8665 61.3553 94.1198 61.1687 94.1198Z" fill="#E7EEDA"/>
<path d="M103.532 130.26C103.398 130.26 103.245 130.2 103.072 130.08C102.912 129.96 102.772 129.806 102.652 129.62C102.532 129.42 102.472 129.226 102.472 129.04C102.472 128.906 102.852 127.96 103.612 126.2C103.278 126.2 102.998 126.113 102.772 125.94C102.558 125.753 102.452 125.533 102.452 125.28C102.452 125.013 103.112 124.673 104.432 124.26C104.472 124.18 104.558 123.98 104.692 123.66C104.825 123.326 104.985 122.926 105.172 122.46C105.372 121.993 105.578 121.493 105.792 120.96C106.005 120.426 106.212 119.913 106.412 119.42C106.612 118.926 106.785 118.493 106.932 118.12C107.092 117.733 107.205 117.46 107.272 117.3C107.418 116.94 107.672 116.633 108.032 116.38C108.405 116.113 108.765 115.98 109.112 115.98C109.285 115.98 109.452 116.153 109.612 116.5C109.785 116.846 109.945 117.293 110.092 117.84C110.252 118.386 110.392 118.973 110.512 119.6C110.632 120.226 110.732 120.833 110.812 121.42C110.905 121.993 110.972 122.473 111.012 122.86C111.198 122.833 111.372 122.806 111.532 122.78C111.705 122.74 111.858 122.72 111.992 122.72C112.298 122.72 112.525 122.78 112.672 122.9C112.818 123.006 112.892 123.146 112.892 123.32C112.892 123.573 112.305 123.866 111.132 124.2C111.172 124.653 111.198 125.153 111.212 125.7C111.238 126.233 111.258 126.746 111.272 127.24C111.285 127.72 111.292 128.126 111.292 128.46C111.292 129.02 111.265 129.426 111.212 129.68C111.172 129.933 111.105 130.093 111.012 130.16C110.918 130.226 110.798 130.26 110.652 130.26C110.438 130.26 110.272 130.146 110.152 129.92C110.032 129.693 109.945 129.433 109.892 129.14C109.852 128.846 109.818 128.593 109.792 128.38C109.738 127.74 109.685 127.106 109.632 126.48C109.592 125.853 109.545 125.233 109.492 124.62C108.812 124.793 108.158 124.966 107.532 125.14C106.918 125.3 106.278 125.473 105.612 125.66C104.425 128.726 103.732 130.26 103.532 130.26ZM106.352 123.74C106.818 123.606 107.298 123.493 107.792 123.4C108.298 123.293 108.818 123.193 109.352 123.1C109.232 121.953 109.112 120.953 108.992 120.1C108.872 119.246 108.758 118.533 108.652 117.96C108.358 118.653 108.018 119.48 107.632 120.44C107.245 121.4 106.818 122.5 106.352 123.74ZM115.2 130.2C114.96 130.2 114.773 130.066 114.64 129.8C114.506 129.533 114.44 129.3 114.44 129.1C114.44 128.793 114.5 128.453 114.62 128.08C114.74 127.693 114.873 127.253 115.02 126.76C115.166 126.253 115.3 125.666 115.42 125C115.54 124.333 115.6 123.56 115.6 122.68C115.6 122.426 115.586 122.146 115.56 121.84C115.546 121.52 115.54 121.233 115.54 120.98C115.54 120.78 115.573 120.606 115.64 120.46C115.72 120.313 115.833 120.24 115.98 120.24C116.3 120.24 116.56 120.426 116.76 120.8C116.973 121.173 117.08 121.573 117.08 122C117.08 122.333 117.06 122.633 117.02 122.9C118.18 121.14 119.28 120.26 120.32 120.26C120.973 120.26 121.3 120.42 121.3 120.74C121.3 120.9 121.226 121.053 121.08 121.2C120.946 121.346 120.713 121.493 120.38 121.64C119.926 121.853 119.513 122.126 119.14 122.46C118.766 122.793 118.406 123.246 118.06 123.82C117.726 124.38 117.386 125.113 117.04 126.02C116.706 126.926 116.34 128.053 115.94 129.4C115.86 129.666 115.753 129.866 115.62 130C115.486 130.133 115.346 130.2 115.2 130.2ZM124.171 130.16C123.745 130.16 123.358 130.08 123.011 129.92C122.665 129.746 122.391 129.533 122.191 129.28C122.005 129.026 121.911 128.78 121.911 128.54C121.911 127.953 122.078 127.16 122.411 126.16C122.758 125.16 123.138 123.92 123.551 122.44C123.245 122.506 122.985 122.56 122.771 122.6C122.558 122.64 122.398 122.66 122.291 122.66C122.078 122.66 121.865 122.553 121.651 122.34C121.451 122.113 121.351 121.9 121.351 121.7C121.351 121.38 122.218 121.073 123.951 120.78C124.191 119.673 124.311 118.693 124.311 117.84C124.311 117.44 124.445 117.24 124.711 117.24C124.818 117.24 124.971 117.293 125.171 117.4C125.385 117.506 125.585 117.666 125.771 117.88C125.958 118.093 126.051 118.366 126.051 118.7C126.051 118.913 126.018 119.173 125.951 119.48C125.898 119.773 125.818 120.126 125.711 120.54C126.098 120.513 126.438 120.486 126.731 120.46C127.038 120.433 127.305 120.42 127.531 120.42C128.331 120.42 128.731 120.6 128.731 120.96C128.731 121.026 128.651 121.12 128.491 121.24C128.345 121.346 128.031 121.473 127.551 121.62C127.071 121.753 126.338 121.906 125.351 122.08C125.298 122.293 125.205 122.626 125.071 123.08C124.938 123.533 124.791 124.04 124.631 124.6C124.471 125.146 124.318 125.68 124.171 126.2C124.025 126.72 123.898 127.16 123.791 127.52C123.698 127.88 123.651 128.093 123.651 128.16C123.651 128.413 123.798 128.54 124.091 128.54C124.371 128.54 124.671 128.5 124.991 128.42C125.311 128.326 125.625 128.226 125.931 128.12C126.238 128 126.498 127.9 126.711 127.82C126.938 127.726 127.085 127.68 127.151 127.68C127.391 127.68 127.511 127.806 127.511 128.06C127.511 128.26 127.398 128.48 127.171 128.72C126.958 128.96 126.671 129.193 126.311 129.42C125.965 129.633 125.598 129.813 125.211 129.96C124.838 130.093 124.491 130.16 124.171 130.16ZM133.026 130.04C132.172 130.04 131.412 129.886 130.746 129.58C130.092 129.26 129.572 128.88 129.186 128.44C128.812 127.986 128.626 127.566 128.626 127.18C128.626 126.78 128.746 126.58 128.986 126.58C129.159 126.58 129.346 126.68 129.546 126.88C129.759 127.066 130.006 127.286 130.286 127.54C130.566 127.78 130.886 128 131.246 128.2C131.606 128.386 132.026 128.48 132.506 128.48C133.132 128.48 133.712 128.366 134.246 128.14C134.792 127.913 135.232 127.626 135.566 127.28C135.912 126.933 136.086 126.573 136.086 126.2C136.086 125.88 135.926 125.52 135.606 125.12C135.299 124.72 134.919 124.306 134.466 123.88C134.012 123.44 133.552 123.006 133.086 122.58C132.632 122.14 132.246 121.72 131.926 121.32C131.619 120.92 131.466 120.566 131.466 120.26C131.466 119.66 131.652 119.106 132.026 118.6C132.399 118.093 132.879 117.653 133.466 117.28C134.066 116.906 134.706 116.613 135.386 116.4C136.066 116.186 136.706 116.08 137.306 116.08C137.692 116.08 138.019 116.206 138.286 116.46C138.552 116.713 138.686 116.98 138.686 117.26C138.686 117.42 138.519 117.546 138.186 117.64C137.852 117.72 137.439 117.806 136.946 117.9C136.466 117.993 135.979 118.14 135.486 118.34C134.712 118.633 134.132 118.9 133.746 119.14C133.372 119.366 133.186 119.613 133.186 119.88C133.186 120.093 133.339 120.36 133.646 120.68C133.966 121 134.359 121.366 134.826 121.78C135.292 122.193 135.759 122.64 136.226 123.12C136.706 123.586 137.099 124.08 137.406 124.6C137.726 125.12 137.886 125.646 137.886 126.18C137.886 126.9 137.652 127.553 137.186 128.14C136.732 128.726 136.132 129.193 135.386 129.54C134.652 129.873 133.866 130.04 133.026 130.04Z" fill="#E7EEDA"/>
<path d="M159.916 101.28C159.623 101.28 159.476 101.04 159.476 100.56C159.476 100.186 159.663 99.6198 160.036 98.8598C160.116 98.6998 160.236 98.4531 160.396 98.1198C160.57 97.7865 160.75 97.4398 160.936 97.0798C161.123 96.7065 161.29 96.3798 161.436 96.0998C161.583 95.8198 161.676 95.6398 161.716 95.5598C161.05 95.3865 160.456 95.0531 159.936 94.5598C159.416 94.0531 158.976 93.4465 158.616 92.7398C158.256 92.0331 157.983 91.2865 157.796 90.4998C157.61 89.6998 157.516 88.9198 157.516 88.1598C157.516 87.9198 157.583 87.6931 157.716 87.4798C157.863 87.2531 158.063 87.1398 158.316 87.1398C158.436 87.1398 158.536 87.1998 158.616 87.3198C158.71 87.4398 158.803 87.6731 158.896 88.0198C159.003 88.3665 159.136 88.8731 159.296 89.5398C159.43 90.0865 159.603 90.6265 159.816 91.1598C160.043 91.6798 160.29 92.1598 160.556 92.5998C160.836 93.0265 161.11 93.3665 161.376 93.6198C161.656 93.8731 161.916 93.9998 162.156 93.9998C162.316 93.9998 162.516 93.8331 162.756 93.4998C163.01 93.1665 163.283 92.7398 163.576 92.2198C163.87 91.6998 164.17 91.1531 164.476 90.5798C164.783 89.9931 165.083 89.4398 165.376 88.9198C165.683 88.3998 165.963 87.9731 166.216 87.6398C166.483 87.3065 166.703 87.1398 166.876 87.1398C167.17 87.1398 167.396 87.2398 167.556 87.4398C167.73 87.6398 167.816 87.8531 167.816 88.0798C167.816 88.2798 167.75 88.5198 167.616 88.7998C167.496 89.0665 167.31 89.4131 167.056 89.8398C166.403 90.9198 165.73 92.0331 165.036 93.1798C164.356 94.3265 163.696 95.4598 163.056 96.5798C162.43 97.6998 161.85 98.7665 161.316 99.7798C161.05 100.3 160.796 100.68 160.556 100.92C160.316 101.16 160.103 101.28 159.916 101.28ZM171.56 101.08C171.427 101.08 171.28 101.013 171.12 100.88C170.96 100.733 170.82 100.553 170.7 100.34C170.58 100.126 170.52 99.9198 170.52 99.7198C170.52 99.3731 170.587 98.9065 170.72 98.3198C170.854 97.7198 171.02 97.0398 171.22 96.2798C171.434 95.5065 171.654 94.6931 171.88 93.8398C172.107 92.9865 172.307 92.1331 172.48 91.2798C172.667 90.4131 172.794 89.5931 172.86 88.8198C172.207 88.8331 171.587 88.8665 171 88.9198C170.414 88.9598 169.894 88.9798 169.44 88.9798C169.307 88.9798 169.16 88.9131 169 88.7798C168.84 88.6465 168.707 88.4865 168.6 88.2998C168.494 88.0998 168.44 87.9131 168.44 87.7398C168.44 87.6731 168.467 87.6131 168.52 87.5598C168.574 87.4931 168.7 87.4398 168.9 87.3998C169.1 87.3465 169.42 87.3065 169.86 87.2798C170.3 87.2531 170.907 87.2331 171.68 87.2198C172.454 87.1931 173.44 87.1798 174.64 87.1798C174.867 87.1798 175.167 87.1931 175.54 87.2198C175.927 87.2465 176.334 87.2931 176.76 87.3598C177.187 87.4265 177.594 87.5131 177.98 87.6198C178.367 87.7265 178.68 87.8598 178.92 88.0198C179.16 88.1798 179.28 88.3731 179.28 88.5998C179.28 88.8531 179.06 88.9798 178.62 88.9798C178.087 88.9931 177.46 88.9731 176.74 88.9198C176.02 88.8531 175.28 88.8131 174.52 88.7998C174.467 89.1865 174.367 89.7198 174.22 90.3998C174.087 91.0798 173.927 91.8331 173.74 92.6598C173.567 93.4865 173.387 94.3198 173.2 95.1598C173.014 95.9865 172.834 96.7598 172.66 97.4798C172.5 98.1865 172.367 98.7731 172.26 99.2398C172.154 99.6931 172.087 99.9531 172.06 100.02C171.874 100.726 171.707 101.08 171.56 101.08Z" fill="#E7EEDA"/>
<defs>
<filter id="filter0_d_84_2627" x="19.2014" y="57.5027" width="84.571" height="54.326" filterUnits="userSpaceOnUse" color-interpolation-filters="sRGB">
<feFlood flood-opacity="0" result="BackgroundImageFix"/>
<feColorMatrix in="SourceAlpha" type="matrix" values="0 0 0 0 0 0 0 0 0 0 0 0 0 0 0 0 0 0 127 0" result="hardAlpha"/>
<feOffset dy="4"/>
<feGaussianBlur stdDeviation="2"/>
<feComposite in2="hardAlpha" operator="out"/>
<feColorMatrix type="matrix" values="0 0 0 0 0.393333 0 0 0 0 0.0747333 0 0 0 0 0.303063 0 0 0 0.25 0"/>
<feBlend mode="normal" in2="BackgroundImageFix" result="effect1_dropShadow_84_2627"/>
<feBlend mode="normal" in="SourceGraphic" in2="effect1_dropShadow_84_2627" result="shape"/>
</filter>
<filter id="filter1_d_84_2627" x="127.874" y="62.738" width="73.7881" height="59.0338" filterUnits="userSpaceOnUse" color-interpolation-filters="sRGB">
<feFlood flood-opacity="0" result="BackgroundImageFix"/>
<feColorMatrix in="SourceAlpha" type="matrix" values="0 0 0 0 0 0 0 0 0 0 0 0 0 0 0 0 0 0 127 0" result="hardAlpha"/>
<feOffset dy="4"/>
<feGaussianBlur stdDeviation="2"/>
<feComposite in2="hardAlpha" operator="out"/>
<feColorMatrix type="matrix" values="0 0 0 0 0.393333 0 0 0 0 0.0747333 0 0 0 0 0.303063 0 0 0 0.25 0"/>
<feBlend mode="normal" in2="BackgroundImageFix" result="effect1_dropShadow_84_2627"/>
<feBlend mode="normal" in="SourceGraphic" in2="effect1_dropShadow_84_2627" result="shape"/>
</filter>
<filter id="filter2_d_84_2627" x="78.7424" y="88.7297" width="74.6445" height="71.4296" filterUnits="userSpaceOnUse" color-interpolation-filters="sRGB">
<feFlood flood-opacity="0" result="BackgroundImageFix"/>
<feColorMatrix in="SourceAlpha" type="matrix" values="0 0 0 0 0 0 0 0 0 0 0 0 0 0 0 0 0 0 127 0" result="hardAlpha"/>
<feOffset dy="4"/>
<feGaussianBlur stdDeviation="2"/>
<feComposite in2="hardAlpha" operator="out"/>
<feColorMatrix type="matrix" values="0 0 0 0 0.393333 0 0 0 0 0.0747333 0 0 0 0 0.303063 0 0 0 0.25 0"/>
<feBlend mode="normal" in2="BackgroundImageFix" result="effect1_dropShadow_84_2627"/>
<feBlend mode="normal" in="SourceGraphic" in2="effect1_dropShadow_84_2627" result="shape"/>
</filter>
<filter id="filter3_d_84_2627" x="0.260742" y="7.4137" width="78.4214" height="61.7834" filterUnits="userSpaceOnUse" color-interpolation-filters="sRGB">
<feFlood flood-opacity="0" result="BackgroundImageFix"/>
<feColorMatrix in="SourceAlpha" type="matrix" values="0 0 0 0 0 0 0 0 0 0 0 0 0 0 0 0 0 0 127 0" result="hardAlpha"/>
<feOffset dy="4"/>
<feGaussianBlur stdDeviation="2"/>
<feComposite in2="hardAlpha" operator="out"/>
<feColorMatrix type="matrix" values="0 0 0 0 0.393333 0 0 0 0 0.0747333 0 0 0 0 0.303063 0 0 0 0.25 0"/>
<feBlend mode="normal" in2="BackgroundImageFix" result="effect1_dropShadow_84_2627"/>
<feBlend mode="normal" in="SourceGraphic" in2="effect1_dropShadow_84_2627" result="shape"/>
</filter>
<filter id="filter4_d_84_2627" x="54.6582" y="2.55542" width="130.483" height="85.3663" filterUnits="userSpaceOnUse" color-interpolation-filters="sRGB">
<feFlood flood-opacity="0" result="BackgroundImageFix"/>
<feColorMatrix in="SourceAlpha" type="matrix" values="0 0 0 0 0 0 0 0 0 0 0 0 0 0 0 0 0 0 127 0" result="hardAlpha"/>
<feOffset dy="4"/>
<feGaussianBlur stdDeviation="2"/>
<feComposite in2="hardAlpha" operator="out"/>
<feColorMatrix type="matrix" values="0 0 0 0 0.393333 0 0 0 0 0.0747333 0 0 0 0 0.303063 0 0 0 0.25 0"/>
<feBlend mode="normal" in2="BackgroundImageFix" result="effect1_dropShadow_84_2627"/>
<feBlend mode="normal" in="SourceGraphic" in2="effect1_dropShadow_84_2627" result="shape"/>
</filter>
<filter id="filter5_d_84_2627" x="89.2358" y="58.6615" width="53.363" height="56.053" filterUnits="userSpaceOnUse" color-interpolation-filters="sRGB">
<feFlood flood-opacity="0" result="BackgroundImageFix"/>
<feColorMatrix in="SourceAlpha" type="matrix" values="0 0 0 0 0 0 0 0 0 0 0 0 0 0 0 0 0 0 127 0" result="hardAlpha"/>
<feOffset dy="4"/>
<feGaussianBlur stdDeviation="2"/>
<feComposite in2="hardAlpha" operator="out"/>
<feColorMatrix type="matrix" values="0 0 0 0 0.393333 0 0 0 0 0.0747333 0 0 0 0 0.303063 0 0 0 0.25 0"/>
<feBlend mode="normal" in2="BackgroundImageFix" result="effect1_dropShadow_84_2627"/>
<feBlend mode="normal" in="SourceGraphic" in2="effect1_dropShadow_84_2627" result="shape"/>
</filter>
<filter id="filter6_d_84_2627" x="85.3384" y="57.8468" width="61.0256" height="58.0896" filterUnits="userSpaceOnUse" color-interpolation-filters="sRGB">
<feFlood flood-opacity="0" result="BackgroundImageFix"/>
<feColorMatrix in="SourceAlpha" type="matrix" values="0 0 0 0 0 0 0 0 0 0 0 0 0 0 0 0 0 0 127 0" result="hardAlpha"/>
<feOffset dy="4"/>
<feGaussianBlur stdDeviation="2"/>
<feComposite in2="hardAlpha" operator="out"/>
<feColorMatrix type="matrix" values="0 0 0 0 0.393333 0 0 0 0 0.0747333 0 0 0 0 0.303063 0 0 0 0.25 0"/>
<feBlend mode="normal" in2="BackgroundImageFix" result="effect1_dropShadow_84_2627"/>
<feBlend mode="normal" in="SourceGraphic" in2="effect1_dropShadow_84_2627" result="shape"/>
</filter>
<filter id="filter7_d_84_2627" x="96.2749" y="67.4478" width="38.7632" height="38.785" filterUnits="userSpaceOnUse" color-interpolation-filters="sRGB">
<feFlood flood-opacity="0" result="BackgroundImageFix"/>
<feColorMatrix in="SourceAlpha" type="matrix" values="0 0 0 0 0 0 0 0 0 0 0 0 0 0 0 0 0 0 127 0" result="hardAlpha"/>
<feOffset dy="4"/>
<feGaussianBlur stdDeviation="2"/>
<feComposite in2="hardAlpha" operator="out"/>
<feColorMatrix type="matrix" values="0 0 0 0 0.393333 0 0 0 0 0.0747333 0 0 0 0 0.303063 0 0 0 0.25 0"/>
<feBlend mode="normal" in2="BackgroundImageFix" result="effect1_dropShadow_84_2627"/>
<feBlend mode="normal" in="SourceGraphic" in2="effect1_dropShadow_84_2627" result="shape"/>
</filter>
<filter id="filter8_d_84_2627" x="99.8599" y="70.575" width="31.6418" height="31.6592" filterUnits="userSpaceOnUse" color-interpolation-filters="sRGB">
<feFlood flood-opacity="0" result="BackgroundImageFix"/>
<feColorMatrix in="SourceAlpha" type="matrix" values="0 0 0 0 0 0 0 0 0 0 0 0 0 0 0 0 0 0 127 0" result="hardAlpha"/>
<feOffset dy="4"/>
<feGaussianBlur stdDeviation="2"/>
<feComposite in2="hardAlpha" operator="out"/>
<feColorMatrix type="matrix" values="0 0 0 0 0.393333 0 0 0 0 0.0747333 0 0 0 0 0.303063 0 0 0 0.25 0"/>
<feBlend mode="normal" in2="BackgroundImageFix" result="effect1_dropShadow_84_2627"/>
<feBlend mode="normal" in="SourceGraphic" in2="effect1_dropShadow_84_2627" result="shape"/>
</filter>
<filter id="filter9_i_84_2627" x="111.234" y="77.8925" width="9.06226" height="13.069" filterUnits="userSpaceOnUse" color-interpolation-filters="sRGB">
<feFlood flood-opacity="0" result="BackgroundImageFix"/>
<feBlend mode="normal" in="SourceGraphic" in2="BackgroundImageFix" result="shape"/>
<feColorMatrix in="SourceAlpha" type="matrix" values="0 0 0 0 0 0 0 0 0 0 0 0 0 0 0 0 0 0 127 0" result="hardAlpha"/>
<feOffset dy="4"/>
<feGaussianBlur stdDeviation="2"/>
<feComposite in2="hardAlpha" operator="arithmetic" k2="-1" k3="1"/>
<feColorMatrix type="matrix" values="0 0 0 0 0.393333 0 0 0 0 0.0747333 0 0 0 0 0.303063 0 0 0 0.25 0"/>
<feBlend mode="normal" in2="shape" result="effect1_innerShadow_84_2627"/>
</filter>
</defs>
</svg>
