<svg width="138" height="143" viewBox="0 0 138 143" fill="none" xmlns="http://www.w3.org/2000/svg">
<g filter="url(#filter0_d_69_753)">
<path d="M70.1989 21.4868C71.3606 19.5242 74.2007 19.5242 75.3623 21.4868L91.6563 49.0166C91.8794 49.3935 92.1823 49.717 92.5438 49.9644L118.569 67.7737C120.31 68.9651 120.31 71.5338 118.569 72.7252L92.5438 90.5345C92.1823 90.7819 91.8794 91.1054 91.6563 91.4823L75.3623 119.012C74.2007 120.975 71.3606 120.975 70.1989 119.012L53.9049 91.4823C53.6819 91.1054 53.379 90.7819 53.0175 90.5345L26.9927 72.7252C25.2516 71.5338 25.2516 68.9651 26.9927 67.7737L53.0175 49.9644C53.379 49.717 53.6819 49.3935 53.905 49.0166L70.1989 21.4868Z" fill="#4892CA"/>
</g>
<g filter="url(#filter1_d_69_753)">
<path d="M36.1941 37.8452C35.6277 35.636 37.6359 33.6277 39.8451 34.1941L70.8332 42.139C71.2575 42.2478 71.7004 42.2624 72.1309 42.1817L103.126 36.3724C105.2 35.9838 107.016 37.8002 106.628 39.8737L100.818 70.8691C100.738 71.2996 100.752 71.7426 100.861 72.1669L108.806 103.155C109.372 105.364 107.364 107.372 105.155 106.806L74.1668 98.8611C73.7425 98.7523 73.2996 98.7378 72.8691 98.8185L41.8737 104.628C39.8001 105.016 37.9837 103.2 38.3724 101.126L44.1816 70.131C44.2623 69.7005 44.2478 69.2576 44.139 68.8333L36.1941 37.8452Z" fill="#66C8E3"/>
</g>
<path d="M56.4393 36.4741C56.7015 35.0474 58.3476 34.3656 59.5418 35.189L71.1099 43.1658C71.7934 43.6371 72.6971 43.6371 73.3806 43.1658L84.9487 35.189C86.1429 34.3656 87.789 35.0474 88.0511 36.4741L90.5906 50.2944C90.7406 51.111 91.3796 51.75 92.1962 51.9L106.017 54.4395C107.443 54.7016 108.125 56.3477 107.302 57.5419L99.3248 69.11C98.8535 69.7935 98.8535 70.6972 99.3248 71.3807L107.302 82.9488C108.125 84.143 107.443 85.7891 106.017 86.0512L92.1962 88.5907C91.3796 88.7407 90.7406 89.3797 90.5906 90.1963L88.0511 104.017C87.789 105.443 86.1429 106.125 84.9487 105.302L73.3806 97.3249C72.6971 96.8536 71.7934 96.8536 71.1099 97.3249L59.5418 105.302C58.3476 106.125 56.7015 105.443 56.4394 104.017L53.8999 90.1963C53.7499 89.3797 53.1109 88.7407 52.2943 88.5907L38.4739 86.0513C37.0473 85.7891 36.3654 84.143 37.1889 82.9488L45.1657 71.3807C45.637 70.6972 45.637 69.7935 45.1657 69.11L37.1889 57.5419C36.3654 56.3477 37.0473 54.7016 38.4739 54.4395L52.2943 51.9C53.1109 51.75 53.7499 51.111 53.8999 50.2944L56.4393 36.4741Z" fill="#AFF6EC"/>
<g filter="url(#filter2_d_69_753)">
<path d="M70.5705 42.0314C71.3587 40.8136 73.1404 40.8136 73.9285 42.0314L79.2825 50.3036C79.7336 51.0006 80.5685 51.3464 81.3803 51.1725L91.0155 49.109C92.4339 48.8052 93.6937 50.0651 93.39 51.4835L91.3264 61.1186C91.1526 61.9305 91.4984 62.7654 92.1954 63.2165L100.468 68.5704C101.685 69.3586 101.685 71.1403 100.468 71.9285L92.1954 77.2824C91.4984 77.7335 91.1526 78.5684 91.3264 79.3802L93.39 89.0154C93.6937 90.4338 92.4338 91.6936 91.0155 91.3899L81.3803 89.3264C80.5685 89.1525 79.7336 89.4983 79.2825 90.1953L73.9285 98.4675C73.1404 99.6853 71.3587 99.6853 70.5705 98.4675L65.2166 90.1953C64.7654 89.4983 63.9306 89.1525 63.1187 89.3264L53.4836 91.3899C52.0652 91.6936 50.8053 90.4338 51.1091 89.0154L53.1726 79.3802C53.3465 78.5684 53.0007 77.7335 52.3037 77.2824L44.0314 71.9285C42.8137 71.1403 42.8137 69.3586 44.0315 68.5704L52.3037 63.2165C53.0007 62.7654 53.3465 61.9305 53.1726 61.1186L51.1091 51.4835C50.8053 50.0651 52.0652 48.8052 53.4836 49.109L63.1187 51.1725C63.9306 51.3464 64.7654 51.0006 65.2166 50.3036L70.5705 42.0314Z" fill="#FBFFFB"/>
</g>
<g filter="url(#filter3_d_69_753)">
<path d="M62.9651 50.5623C63.2273 49.1356 64.8734 48.4538 66.0675 49.2772L71.5367 53.0485C72.2202 53.5198 73.1239 53.5198 73.8074 53.0485L79.2765 49.2772C80.4707 48.4538 82.1168 49.1357 82.3789 50.5623L83.5795 57.0963C83.7296 57.9129 84.3686 58.5518 85.1852 58.7019L91.7191 59.9025C93.1458 60.1646 93.8276 61.8107 93.0042 63.0049L89.2329 68.474C88.7616 69.1576 88.7616 70.0612 89.2329 70.7447L93.0042 76.2139C93.8276 77.408 93.1458 79.0541 91.7191 79.3163L85.1852 80.5169C84.3686 80.6669 83.7296 81.3059 83.5795 82.1225L82.379 88.6565C82.1168 90.0831 80.4707 90.765 79.2765 89.9415L73.8074 86.1703C73.1239 85.6989 72.2202 85.6989 71.5367 86.1703L66.0675 89.9415C64.8734 90.765 63.2273 90.0831 62.9651 88.6565L61.7645 82.1225C61.6145 81.3059 60.9755 80.6669 60.1589 80.5169L53.625 79.3163C52.1983 79.0541 51.5165 77.408 52.3399 76.2139L56.1112 70.7447C56.5825 70.0612 56.5825 69.1576 56.1112 68.474L52.3399 63.0049C51.5165 61.8107 52.1983 60.1646 53.625 59.9025L60.1589 58.7019C60.9755 58.5518 61.6145 57.9129 61.7645 57.0963L62.9651 50.5623Z" fill="#E0F3ED"/>
</g>
<g filter="url(#filter4_i_69_753)">
<circle cx="72.7807" cy="69.7182" r="7.96869" fill="#FAB71C"/>
</g>
<circle cx="72.7807" cy="69.7182" r="7.46869" stroke="#F2C03E"/>
<defs>
<filter id="filter0_d_69_753" x="21.6868" y="20.0148" width="102.188" height="108.469" filterUnits="userSpaceOnUse" color-interpolation-filters="sRGB">
<feFlood flood-opacity="0" result="BackgroundImageFix"/>
<feColorMatrix in="SourceAlpha" type="matrix" values="0 0 0 0 0 0 0 0 0 0 0 0 0 0 0 0 0 0 127 0" result="hardAlpha"/>
<feOffset dy="4"/>
<feGaussianBlur stdDeviation="2"/>
<feComposite in2="hardAlpha" operator="out"/>
<feColorMatrix type="matrix" values="0 0 0 0 0.393333 0 0 0 0 0.0747333 0 0 0 0 0.303063 0 0 0 0.25 0"/>
<feBlend mode="normal" in2="BackgroundImageFix" result="effect1_dropShadow_69_753"/>
<feBlend mode="normal" in="SourceGraphic" in2="effect1_dropShadow_69_753" result="shape"/>
</filter>
<filter id="filter1_d_69_753" x="32.0972" y="34.0973" width="80.8057" height="80.8056" filterUnits="userSpaceOnUse" color-interpolation-filters="sRGB">
<feFlood flood-opacity="0" result="BackgroundImageFix"/>
<feColorMatrix in="SourceAlpha" type="matrix" values="0 0 0 0 0 0 0 0 0 0 0 0 0 0 0 0 0 0 127 0" result="hardAlpha"/>
<feOffset dy="4"/>
<feGaussianBlur stdDeviation="2"/>
<feComposite in2="hardAlpha" operator="out"/>
<feColorMatrix type="matrix" values="0 0 0 0 0.393333 0 0 0 0 0.0747333 0 0 0 0 0.303063 0 0 0 0.25 0"/>
<feBlend mode="normal" in2="BackgroundImageFix" result="effect1_dropShadow_69_753"/>
<feBlend mode="normal" in="SourceGraphic" in2="effect1_dropShadow_69_753" result="shape"/>
</filter>
<filter id="filter2_d_69_753" x="39.1182" y="41.118" width="66.2627" height="66.2628" filterUnits="userSpaceOnUse" color-interpolation-filters="sRGB">
<feFlood flood-opacity="0" result="BackgroundImageFix"/>
<feColorMatrix in="SourceAlpha" type="matrix" values="0 0 0 0 0 0 0 0 0 0 0 0 0 0 0 0 0 0 127 0" result="hardAlpha"/>
<feOffset dy="4"/>
<feGaussianBlur stdDeviation="2"/>
<feComposite in2="hardAlpha" operator="out"/>
<feColorMatrix type="matrix" values="0 0 0 0 0.393333 0 0 0 0 0.0747333 0 0 0 0 0.303063 0 0 0 0.25 0"/>
<feBlend mode="normal" in2="BackgroundImageFix" result="effect1_dropShadow_69_753"/>
<feBlend mode="normal" in="SourceGraphic" in2="effect1_dropShadow_69_753" result="shape"/>
</filter>
<filter id="filter3_d_69_753" x="47.9846" y="48.922" width="49.3748" height="49.3748" filterUnits="userSpaceOnUse" color-interpolation-filters="sRGB">
<feFlood flood-opacity="0" result="BackgroundImageFix"/>
<feColorMatrix in="SourceAlpha" type="matrix" values="0 0 0 0 0 0 0 0 0 0 0 0 0 0 0 0 0 0 127 0" result="hardAlpha"/>
<feOffset dy="4"/>
<feGaussianBlur stdDeviation="2"/>
<feComposite in2="hardAlpha" operator="out"/>
<feColorMatrix type="matrix" values="0 0 0 0 0.393333 0 0 0 0 0.0747333 0 0 0 0 0.303063 0 0 0 0.25 0"/>
<feBlend mode="normal" in2="BackgroundImageFix" result="effect1_dropShadow_69_753"/>
<feBlend mode="normal" in="SourceGraphic" in2="effect1_dropShadow_69_753" result="shape"/>
</filter>
<filter id="filter4_i_69_753" x="64.812" y="61.7495" width="15.9375" height="19.9374" filterUnits="userSpaceOnUse" color-interpolation-filters="sRGB">
<feFlood flood-opacity="0" result="BackgroundImageFix"/>
<feBlend mode="normal" in="SourceGraphic" in2="BackgroundImageFix" result="shape"/>
<feColorMatrix in="SourceAlpha" type="matrix" values="0 0 0 0 0 0 0 0 0 0 0 0 0 0 0 0 0 0 127 0" result="hardAlpha"/>
<feOffset dy="4"/>
<feGaussianBlur stdDeviation="2"/>
<feComposite in2="hardAlpha" operator="arithmetic" k2="-1" k3="1"/>
<feColorMatrix type="matrix" values="0 0 0 0 0.393333 0 0 0 0 0.0747333 0 0 0 0 0.303063 0 0 0 0.25 0"/>
<feBlend mode="normal" in2="shape" result="effect1_innerShadow_69_753"/>
</filter>
</defs>
</svg>
