<svg width="264" height="257" viewBox="0 0 264 257" fill="none" xmlns="http://www.w3.org/2000/svg">
<g filter="url(#filter0_d_75_860)">
<path d="M219.034 138.872C217.709 125.623 209.667 108.756 198.359 101.458C177.692 93.3088 174.581 95.5952 159.659 98.3584C144.737 101.122 130.73 108.967 120.599 120.236C110.468 131.505 105.008 145.313 105.374 158.739C105.74 172.166 111.904 184.159 122.561 192.181C133.218 200.203 147.533 203.626 162.478 201.724C177.423 199.823 191.826 192.748 202.642 181.994C213.457 171.241 218.669 164.053 219.262 150.504L188.108 150.504L219.034 138.872Z" fill="#2A803C"/>
</g>
<g filter="url(#filter1_d_75_860)">
<path d="M14.0043 118.946C12.81 132.207 17.5328 150.287 27.2638 159.584C46.027 171.479 49.5128 169.819 64.6878 169.915C79.8629 170.011 95.0973 164.943 107.169 155.784C119.241 146.624 127.203 134.092 129.371 120.836C131.54 107.58 127.745 94.6417 118.789 84.7564C109.834 74.8711 96.4192 68.8143 81.3834 67.8673C66.3476 66.9202 50.8694 71.1571 38.2227 79.6817C25.5761 88.2064 19.1039 94.284 15.9698 107.479L46.9224 115.466L14.0043 118.946Z" fill="#2A803C"/>
</g>
<g filter="url(#filter2_d_75_860)">
<path d="M201.026 32.4409C209.398 42.7954 215.533 60.4457 212.621 73.5852C203.649 93.9088 199.83 94.4694 187.274 102.993C174.719 111.516 159.241 115.783 144.114 114.889C128.987 113.996 115.398 108.012 106.22 98.2051C97.0422 88.3978 92.9959 75.5355 94.9368 62.3385C96.8776 49.1416 104.654 36.6449 116.62 27.4917C128.586 18.3384 143.804 13.2464 159.056 13.2925C174.307 13.3386 183.067 14.7873 193.013 24.0068L171.739 47.8665L201.026 32.4409Z" fill="#449F5A"/>
</g>
<path d="M145.622 149.7C144.769 149.7 143.976 149.547 143.242 149.24C142.522 148.947 141.889 148.527 141.342 147.98C140.809 147.447 140.389 146.827 140.082 146.12C139.789 145.413 139.642 144.66 139.642 143.86C139.642 142.82 139.809 141.74 140.142 140.62C140.489 139.5 140.982 138.42 141.622 137.38C142.276 136.327 143.062 135.38 143.982 134.54C144.902 133.7 145.942 133.033 147.102 132.54C148.276 132.047 149.549 131.8 150.922 131.8C152.176 131.8 153.256 132.073 154.162 132.62C155.082 133.153 155.789 133.9 156.282 134.86C156.789 135.807 157.042 136.9 157.042 138.14C157.042 138.7 156.949 139.293 156.762 139.92C156.576 140.547 156.309 141.16 155.962 141.76C155.629 142.36 155.236 142.907 154.782 143.4C154.329 143.88 153.836 144.267 153.302 144.56C152.782 144.853 152.236 145 151.662 145C151.169 145 150.769 144.867 150.462 144.6C150.169 144.32 149.976 143.967 149.882 143.54C148.696 144.793 147.689 145.42 146.862 145.42C146.462 145.42 146.056 145.3 145.642 145.06C145.242 144.82 144.902 144.52 144.622 144.16C144.342 143.787 144.202 143.413 144.202 143.04C144.202 142.547 144.316 141.993 144.542 141.38C144.782 140.753 145.096 140.127 145.482 139.5C145.869 138.873 146.302 138.293 146.782 137.76C147.276 137.213 147.782 136.78 148.302 136.46C148.836 136.127 149.342 135.96 149.822 135.96C150.169 135.96 150.516 136.073 150.862 136.3C151.222 136.527 151.522 136.827 151.762 137.2C152.002 137.573 152.136 137.98 152.162 138.42C152.202 138.86 152.076 139.293 151.782 139.72C151.982 139.947 152.082 140.147 152.082 140.32C152.082 140.533 152.029 140.773 151.922 141.04C151.816 141.293 151.702 141.553 151.582 141.82C151.476 142.087 151.422 142.347 151.422 142.6C151.422 142.84 151.476 143.04 151.582 143.2C151.689 143.347 151.856 143.42 152.082 143.42C152.402 143.42 152.749 143.267 153.122 142.96C153.496 142.64 153.842 142.227 154.162 141.72C154.496 141.213 154.769 140.66 154.982 140.06C155.196 139.447 155.302 138.847 155.302 138.26C155.302 137.3 155.136 136.453 154.802 135.72C154.482 134.987 154.009 134.42 153.382 134.02C152.756 133.607 151.982 133.4 151.062 133.4C149.982 133.4 148.962 133.607 148.002 134.02C147.042 134.42 146.162 134.973 145.362 135.68C144.562 136.373 143.869 137.173 143.282 138.08C142.709 138.973 142.262 139.927 141.942 140.94C141.622 141.94 141.462 142.94 141.462 143.94C141.462 144.753 141.622 145.473 141.942 146.1C142.276 146.74 142.749 147.24 143.362 147.6C143.989 147.96 144.736 148.14 145.602 148.14C146.682 148.14 147.569 148.06 148.262 147.9C148.956 147.74 149.496 147.58 149.882 147.42C150.282 147.26 150.582 147.18 150.782 147.18C150.956 147.18 151.042 147.273 151.042 147.46C151.042 147.727 150.869 147.993 150.522 148.26C150.176 148.527 149.729 148.767 149.182 148.98C148.636 149.207 148.042 149.38 147.402 149.5C146.776 149.633 146.182 149.7 145.622 149.7ZM146.742 143.94C147.049 143.94 147.389 143.827 147.762 143.6C148.136 143.373 148.509 143.06 148.882 142.66C149.269 142.247 149.609 141.78 149.902 141.26C150.196 140.74 150.409 140.193 150.542 139.62C150.582 139.433 150.696 139.333 150.882 139.32C150.882 138.773 150.789 138.333 150.602 138C150.429 137.653 150.216 137.48 149.962 137.48C149.642 137.48 149.296 137.62 148.922 137.9C148.549 138.18 148.176 138.547 147.802 139C147.442 139.44 147.109 139.92 146.802 140.44C146.496 140.947 146.249 141.433 146.062 141.9C145.876 142.367 145.782 142.76 145.782 143.08C145.782 143.32 145.882 143.527 146.082 143.7C146.282 143.86 146.502 143.94 146.742 143.94ZM161.699 146.06C161.273 146.06 160.879 145.973 160.519 145.8C160.159 145.627 159.866 145.4 159.639 145.12C159.426 144.827 159.319 144.507 159.319 144.16C159.319 143.88 159.386 143.46 159.519 142.9C159.653 142.34 159.819 141.7 160.019 140.98C160.233 140.26 160.453 139.507 160.679 138.72C160.919 137.92 161.139 137.133 161.339 136.36C161.553 135.573 161.726 134.847 161.859 134.18C161.993 133.513 162.059 132.953 162.059 132.5C162.059 132.287 162.086 132.133 162.139 132.04C162.206 131.947 162.339 131.9 162.539 131.9C162.659 131.9 162.813 131.98 162.999 132.14C163.186 132.3 163.346 132.5 163.479 132.74C163.626 132.967 163.699 133.207 163.699 133.46C163.699 133.807 163.633 134.28 163.499 134.88C163.379 135.467 163.219 136.127 163.019 136.86C162.833 137.58 162.626 138.32 162.399 139.08C162.186 139.827 161.979 140.533 161.779 141.2C161.593 141.867 161.433 142.433 161.299 142.9C161.179 143.367 161.119 143.68 161.119 143.84C161.119 144.2 161.293 144.38 161.639 144.38C162.653 144.38 163.559 144.3 164.359 144.14C165.173 143.967 165.859 143.8 166.419 143.64C166.979 143.48 167.379 143.4 167.619 143.4C167.819 143.4 167.919 143.513 167.919 143.74C167.919 144.02 167.733 144.3 167.359 144.58C166.986 144.847 166.486 145.093 165.859 145.32C165.246 145.547 164.573 145.727 163.839 145.86C163.119 145.993 162.406 146.06 161.699 146.06ZM171.077 146C170.971 146 170.837 145.92 170.677 145.76C170.531 145.587 170.397 145.387 170.277 145.16C170.171 144.92 170.117 144.693 170.117 144.48C170.117 144.2 170.177 143.793 170.297 143.26C170.431 142.727 170.591 142.107 170.777 141.4C170.977 140.68 171.184 139.927 171.397 139.14C171.624 138.34 171.831 137.547 172.017 136.76C172.217 135.96 172.377 135.207 172.497 134.5C172.631 133.793 172.697 133.173 172.697 132.64C172.697 132.413 172.724 132.26 172.777 132.18C172.844 132.087 172.964 132.04 173.137 132.04C173.244 132.04 173.417 132.127 173.657 132.3C173.897 132.473 174.117 132.68 174.317 132.92C174.531 133.147 174.644 133.353 174.657 133.54C174.697 133.86 174.824 134.353 175.037 135.02C175.264 135.687 175.544 136.44 175.877 137.28C176.224 138.12 176.591 138.96 176.977 139.8C177.724 138.92 178.444 138.033 179.137 137.14C179.831 136.247 180.464 135.433 181.037 134.7C181.611 133.967 182.111 133.38 182.537 132.94C182.964 132.487 183.284 132.26 183.497 132.26C183.657 132.26 183.824 132.327 183.997 132.46C184.184 132.58 184.337 132.733 184.457 132.92C184.591 133.093 184.657 133.26 184.657 133.42C184.657 133.727 184.584 134.2 184.437 134.84C184.304 135.467 184.124 136.2 183.897 137.04C183.671 137.88 183.431 138.767 183.177 139.7C182.924 140.62 182.677 141.527 182.437 142.42C182.197 143.3 181.997 144.107 181.837 144.84C181.664 145.613 181.477 146 181.277 146C181.064 146 180.877 145.833 180.717 145.5C180.557 145.153 180.477 144.727 180.477 144.22C180.477 144.007 180.517 143.667 180.597 143.2C180.677 142.72 180.791 142.16 180.937 141.52C181.084 140.88 181.251 140.2 181.437 139.48C181.624 138.76 181.817 138.053 182.017 137.36C182.231 136.667 182.444 136.027 182.657 135.44C182.044 136.2 181.444 136.96 180.857 137.72C180.271 138.48 179.711 139.173 179.177 139.8C178.644 140.413 178.164 140.907 177.737 141.28C177.311 141.653 176.944 141.84 176.637 141.84C176.357 141.84 176.084 141.68 175.817 141.36C175.564 141.027 175.317 140.587 175.077 140.04C174.837 139.493 174.604 138.893 174.377 138.24C174.164 137.587 173.957 136.94 173.757 136.3C173.611 137.247 173.431 138.16 173.217 139.04C173.004 139.92 172.791 140.733 172.577 141.48C172.377 142.227 172.197 142.873 172.037 143.42C171.837 144.153 171.651 144.767 171.477 145.26C171.317 145.753 171.184 146 171.077 146ZM126.445 175.1C126.312 175.1 126.158 175.033 125.985 174.9C125.825 174.753 125.685 174.58 125.565 174.38C125.445 174.18 125.385 174.007 125.385 173.86C125.385 173.767 125.458 173.507 125.605 173.08C125.752 172.64 125.925 172.08 126.125 171.4C126.325 170.72 126.498 169.967 126.645 169.14C126.792 168.3 126.865 167.44 126.865 166.56C126.865 165.587 127.005 165.1 127.285 165.1C127.485 165.1 127.685 165.173 127.885 165.32C128.085 165.467 128.252 165.653 128.385 165.88C128.532 166.093 128.605 166.32 128.605 166.56C128.605 166.8 128.552 167.207 128.445 167.78C128.352 168.353 128.218 168.987 128.045 169.68C127.885 170.36 127.705 171.007 127.505 171.62H127.565C128.258 170.407 128.858 169.407 129.365 168.62C129.885 167.833 130.325 167.207 130.685 166.74C131.045 166.273 131.345 165.933 131.585 165.72C131.838 165.493 132.045 165.347 132.205 165.28C132.365 165.213 132.505 165.18 132.625 165.18C132.972 165.18 133.305 165.313 133.625 165.58C133.958 165.833 134.232 166.153 134.445 166.54C134.658 166.927 134.765 167.327 134.765 167.74C134.765 168.073 134.712 168.54 134.605 169.14C134.498 169.727 134.352 170.36 134.165 171.04C133.992 171.72 133.785 172.373 133.545 173C133.305 173.613 133.045 174.12 132.765 174.52C132.498 174.907 132.225 175.1 131.945 175.1C131.652 175.1 131.505 174.9 131.505 174.5C131.505 174.18 131.585 173.773 131.745 173.28C131.905 172.773 132.092 172.233 132.305 171.66C132.518 171.073 132.705 170.493 132.865 169.92C133.025 169.347 133.105 168.827 133.105 168.36C133.105 168.12 133.058 167.86 132.965 167.58C132.885 167.287 132.745 167.14 132.545 167.14C132.425 167.14 132.298 167.173 132.165 167.24C132.032 167.307 131.858 167.467 131.645 167.72C131.432 167.96 131.145 168.34 130.785 168.86C130.425 169.367 129.958 170.067 129.385 170.96C128.812 171.853 128.092 172.987 127.225 174.36C127.052 174.627 126.898 174.82 126.765 174.94C126.645 175.047 126.538 175.1 126.445 175.1ZM138.689 175.1C138.236 175.1 137.829 174.96 137.469 174.68C137.109 174.387 136.822 173.993 136.609 173.5C136.409 172.993 136.309 172.413 136.309 171.76C136.309 171.24 136.389 170.687 136.549 170.1C136.709 169.5 136.936 168.913 137.229 168.34C137.522 167.753 137.869 167.227 138.269 166.76C138.669 166.28 139.109 165.9 139.589 165.62C140.082 165.327 140.602 165.18 141.149 165.18C141.669 165.18 142.136 165.333 142.549 165.64C142.976 165.947 143.309 166.367 143.549 166.9C143.802 167.42 143.929 168 143.929 168.64C143.929 169.493 143.782 170.307 143.489 171.08C143.196 171.853 142.796 172.547 142.289 173.16C141.796 173.76 141.236 174.233 140.609 174.58C139.996 174.927 139.356 175.1 138.689 175.1ZM138.789 173.74C139.202 173.74 139.609 173.573 140.009 173.24C140.422 172.893 140.796 172.453 141.129 171.92C141.476 171.373 141.749 170.807 141.949 170.22C142.149 169.62 142.249 169.073 142.249 168.58C142.249 168.273 142.202 167.96 142.109 167.64C142.029 167.307 141.922 167.027 141.789 166.8C141.656 166.56 141.522 166.44 141.389 166.44C141.069 166.44 140.749 166.567 140.429 166.82C140.109 167.073 139.802 167.407 139.509 167.82C139.216 168.233 138.956 168.687 138.729 169.18C138.502 169.66 138.322 170.14 138.189 170.62C138.069 171.1 138.009 171.533 138.009 171.92C138.009 172.347 138.082 172.76 138.229 173.16C138.376 173.547 138.562 173.74 138.789 173.74ZM148.572 175.14C148.398 175.14 148.185 175.013 147.932 174.76C147.678 174.507 147.492 174.233 147.372 173.94C147.225 173.607 147.072 173.167 146.912 172.62C146.752 172.073 146.592 171.48 146.432 170.84C146.272 170.2 146.125 169.56 145.992 168.92C145.872 168.28 145.772 167.687 145.692 167.14C145.625 166.58 145.592 166.127 145.592 165.78C145.592 165.38 145.712 165.18 145.952 165.18C146.245 165.18 146.558 165.3 146.892 165.54C147.225 165.767 147.425 166.08 147.492 166.48C147.585 167 147.658 167.627 147.712 168.36C147.765 169.08 147.852 169.84 147.972 170.64C148.105 171.427 148.318 172.193 148.612 172.94C149.078 171.94 149.538 170.887 149.992 169.78C150.458 168.66 150.898 167.56 151.312 166.48C151.445 166.133 151.585 165.833 151.732 165.58C151.892 165.313 152.038 165.18 152.172 165.18C152.398 165.18 152.618 165.267 152.832 165.44C153.045 165.6 153.152 165.78 153.152 165.98C153.152 166.1 153.085 166.347 152.952 166.72C152.818 167.08 152.638 167.527 152.412 168.06C152.198 168.58 151.958 169.133 151.692 169.72C151.438 170.307 151.178 170.88 150.912 171.44C150.645 172 150.398 172.507 150.172 172.96C149.958 173.413 149.785 173.767 149.652 174.02C149.225 174.767 148.865 175.14 148.572 175.14ZM166.257 175.08C165.83 175.08 165.397 175.02 164.957 174.9C164.517 174.767 164.077 174.627 163.637 174.48C163.197 174.333 162.75 174.233 162.297 174.18C161.977 174.473 161.703 174.68 161.477 174.8C161.25 174.92 161.023 174.98 160.797 174.98C160.383 174.98 160.057 174.867 159.817 174.64C159.59 174.4 159.477 174.033 159.477 173.54C159.477 173.073 159.63 172.713 159.937 172.46C160.257 172.193 160.643 172.06 161.097 172.06C161.243 172.06 161.39 172.073 161.537 172.1C161.697 172.113 161.857 172.147 162.017 172.2C162.483 171.787 162.977 171.3 163.497 170.74C164.017 170.18 164.503 169.593 164.957 168.98C165.41 168.353 165.777 167.733 166.057 167.12C166.35 166.493 166.497 165.907 166.497 165.36C166.497 164.973 166.37 164.687 166.117 164.5C165.863 164.313 165.557 164.22 165.197 164.22C164.81 164.22 164.417 164.327 164.017 164.54C163.617 164.753 163.283 165.033 163.017 165.38C162.75 165.713 162.617 166.067 162.617 166.44C162.617 166.653 162.683 166.827 162.817 166.96C162.963 167.093 163.123 167.16 163.297 167.16C163.523 167.16 163.717 167.087 163.877 166.94C164.037 166.793 164.237 166.72 164.477 166.72C164.623 166.72 164.737 166.767 164.817 166.86C164.897 166.94 164.937 167.04 164.937 167.16C164.937 167.4 164.817 167.607 164.577 167.78C164.337 167.94 164.05 168.067 163.717 168.16C163.397 168.24 163.103 168.28 162.837 168.28C162.383 168.28 161.977 168.173 161.617 167.96C161.257 167.733 161.077 167.373 161.077 166.88C161.077 166.333 161.223 165.813 161.517 165.32C161.81 164.813 162.197 164.36 162.677 163.96C163.157 163.56 163.683 163.247 164.257 163.02C164.843 162.793 165.423 162.68 165.997 162.68C166.863 162.68 167.523 162.92 167.977 163.4C168.43 163.867 168.657 164.433 168.657 165.1C168.657 165.7 168.523 166.307 168.257 166.92C167.99 167.52 167.65 168.113 167.237 168.7C166.823 169.287 166.377 169.84 165.897 170.36C165.417 170.88 164.957 171.353 164.517 171.78C164.09 172.207 163.73 172.573 163.437 172.88C163.997 173.253 164.51 173.507 164.977 173.64C165.443 173.76 165.863 173.82 166.237 173.82C166.677 173.82 167.057 173.767 167.377 173.66C167.697 173.553 168.01 173.5 168.317 173.5C168.463 173.5 168.537 173.6 168.537 173.8C168.537 174.027 168.41 174.24 168.157 174.44C167.917 174.627 167.617 174.78 167.257 174.9C166.91 175.02 166.577 175.08 166.257 175.08ZM173.85 175C172.556 175 171.576 174.593 170.91 173.78C170.256 172.953 169.93 171.847 169.93 170.46C169.93 169.62 170.03 168.753 170.23 167.86C170.43 166.967 170.736 166.133 171.15 165.36C171.576 164.587 172.123 163.967 172.79 163.5C173.456 163.02 174.256 162.78 175.19 162.78C176.083 162.78 176.823 162.98 177.41 163.38C177.996 163.767 178.436 164.307 178.73 165C179.023 165.693 179.17 166.493 179.17 167.4C179.17 168.04 179.096 168.713 178.95 169.42C178.803 170.127 178.583 170.813 178.29 171.48C177.996 172.133 177.63 172.727 177.19 173.26C176.763 173.793 176.27 174.22 175.71 174.54C175.15 174.847 174.53 175 173.85 175ZM173.65 173.84C174.156 173.84 174.596 173.673 174.97 173.34C175.356 172.993 175.683 172.547 175.95 172C176.23 171.44 176.456 170.84 176.63 170.2C176.816 169.547 176.95 168.907 177.03 168.28C177.11 167.653 177.15 167.107 177.15 166.64C177.15 166.107 177.09 165.62 176.97 165.18C176.863 164.74 176.676 164.387 176.41 164.12C176.143 163.853 175.783 163.72 175.33 163.72C174.85 163.72 174.416 163.893 174.03 164.24C173.656 164.587 173.33 165.047 173.05 165.62C172.77 166.18 172.536 166.787 172.35 167.44C172.176 168.093 172.043 168.74 171.95 169.38C171.87 170.007 171.83 170.553 171.83 171.02C171.83 171.527 171.876 171.993 171.97 172.42C172.076 172.847 172.263 173.193 172.53 173.46C172.796 173.713 173.17 173.84 173.65 173.84ZM186.393 175.08C185.967 175.08 185.533 175.02 185.093 174.9C184.653 174.767 184.213 174.627 183.773 174.48C183.333 174.333 182.887 174.233 182.433 174.18C182.113 174.473 181.84 174.68 181.613 174.8C181.387 174.92 181.16 174.98 180.933 174.98C180.52 174.98 180.193 174.867 179.953 174.64C179.727 174.4 179.613 174.033 179.613 173.54C179.613 173.073 179.767 172.713 180.073 172.46C180.393 172.193 180.78 172.06 181.233 172.06C181.38 172.06 181.527 172.073 181.673 172.1C181.833 172.113 181.993 172.147 182.153 172.2C182.62 171.787 183.113 171.3 183.633 170.74C184.153 170.18 184.64 169.593 185.093 168.98C185.547 168.353 185.913 167.733 186.193 167.12C186.487 166.493 186.633 165.907 186.633 165.36C186.633 164.973 186.507 164.687 186.253 164.5C186 164.313 185.693 164.22 185.333 164.22C184.947 164.22 184.553 164.327 184.153 164.54C183.753 164.753 183.42 165.033 183.153 165.38C182.887 165.713 182.753 166.067 182.753 166.44C182.753 166.653 182.82 166.827 182.953 166.96C183.1 167.093 183.26 167.16 183.433 167.16C183.66 167.16 183.853 167.087 184.013 166.94C184.173 166.793 184.373 166.72 184.613 166.72C184.76 166.72 184.873 166.767 184.953 166.86C185.033 166.94 185.073 167.04 185.073 167.16C185.073 167.4 184.953 167.607 184.713 167.78C184.473 167.94 184.187 168.067 183.853 168.16C183.533 168.24 183.24 168.28 182.973 168.28C182.52 168.28 182.113 168.173 181.753 167.96C181.393 167.733 181.213 167.373 181.213 166.88C181.213 166.333 181.36 165.813 181.653 165.32C181.947 164.813 182.333 164.36 182.813 163.96C183.293 163.56 183.82 163.247 184.393 163.02C184.98 162.793 185.56 162.68 186.133 162.68C187 162.68 187.66 162.92 188.113 163.4C188.567 163.867 188.793 164.433 188.793 165.1C188.793 165.7 188.66 166.307 188.393 166.92C188.127 167.52 187.787 168.113 187.373 168.7C186.96 169.287 186.513 169.84 186.033 170.36C185.553 170.88 185.093 171.353 184.653 171.78C184.227 172.207 183.867 172.573 183.573 172.88C184.133 173.253 184.647 173.507 185.113 173.64C185.58 173.76 186 173.82 186.373 173.82C186.813 173.82 187.193 173.767 187.513 173.66C187.833 173.553 188.147 173.5 188.453 173.5C188.6 173.5 188.673 173.6 188.673 173.8C188.673 174.027 188.547 174.24 188.293 174.44C188.053 174.627 187.753 174.78 187.393 174.9C187.047 175.02 186.713 175.08 186.393 175.08ZM192.946 178.56C192.706 178.56 192.566 178.52 192.526 178.44C192.486 178.373 192.466 178.273 192.466 178.14C192.466 178.087 192.526 177.893 192.646 177.56C192.78 177.227 192.953 176.793 193.166 176.26C193.393 175.74 193.633 175.167 193.886 174.54C193.273 174.487 192.64 174.447 191.986 174.42C191.333 174.38 190.666 174.36 189.986 174.36C189.493 174.36 189.14 174.267 188.926 174.08C188.713 173.893 188.606 173.687 188.606 173.46C188.606 173.113 188.766 172.813 189.086 172.56C189.673 172.08 190.28 171.527 190.906 170.9C191.533 170.26 192.153 169.593 192.766 168.9C193.393 168.207 193.986 167.527 194.546 166.86C195.106 166.18 195.613 165.56 196.066 165C196.52 164.427 196.893 163.96 197.186 163.6C197.48 163.227 197.66 163.007 197.726 162.94C197.806 162.86 197.88 162.793 197.946 162.74C198.013 162.687 198.093 162.66 198.186 162.66C198.36 162.66 198.446 162.767 198.446 162.98C198.446 163.22 198.32 163.593 198.066 164.1C197.826 164.607 197.493 165.193 197.066 165.86C196.653 166.513 196.18 167.2 195.646 167.92C195.126 168.64 194.58 169.347 194.006 170.04C193.446 170.72 192.893 171.347 192.346 171.92C191.813 172.48 191.326 172.927 190.886 173.26C191.433 173.247 192.013 173.227 192.626 173.2C193.253 173.16 193.86 173.127 194.446 173.1C194.726 172.393 194.993 171.7 195.246 171.02C195.5 170.34 195.693 169.753 195.826 169.26C195.906 168.993 196.06 168.84 196.286 168.8C196.526 168.747 196.766 168.72 197.006 168.72C197.273 168.72 197.48 168.74 197.626 168.78C197.773 168.82 197.846 168.973 197.846 169.24C197.846 169.333 197.78 169.573 197.646 169.96C197.513 170.333 197.333 170.8 197.106 171.36C196.893 171.907 196.646 172.487 196.366 173.1C196.58 173.1 196.8 173.113 197.026 173.14C197.266 173.153 197.466 173.207 197.626 173.3C197.8 173.38 197.886 173.527 197.886 173.74C197.886 173.86 197.833 174.02 197.726 174.22C197.633 174.42 197.506 174.6 197.346 174.76C197.186 174.92 197.013 175 196.826 175C196.693 175 196.493 174.973 196.226 174.92C195.973 174.853 195.753 174.807 195.566 174.78C195.233 175.46 194.9 176.087 194.566 176.66C194.233 177.233 193.926 177.693 193.646 178.04C193.366 178.387 193.133 178.56 192.946 178.56Z" fill="#FAF6F6"/>
<rect x="57.2805" y="109.5" width="46" height="29" rx="13.5" fill="url(#paint0_linear_75_860)" stroke="#FAF6F6"/>
<circle cx="72.2805" cy="124.5" r="4.5" fill="#FAB71C"/>
<rect x="128.281" y="53.5" width="46" height="29" rx="13.5" fill="#012169" stroke="#FAF6F6"/>
<path d="M135.98 78L166.58 58" stroke="#FAF6F6" stroke-width="5" stroke-linecap="round"/>
<path d="M166.581 78L135.981 58" stroke="#FAF6F6" stroke-width="5" stroke-linecap="round"/>
<path d="M166.581 78L135.981 58" stroke="#C8102E" stroke-width="2" stroke-linecap="round"/>
<path d="M135.98 78L166.58 58" stroke="#C8102E" stroke-width="2" stroke-linecap="round"/>
<path d="M132.381 68L170.181 68" stroke="#FAF6F6" stroke-width="8" stroke-linecap="round"/>
<path d="M151.281 79L151.281 57" stroke="#FAF6F6" stroke-width="8" stroke-linecap="round"/>
<path d="M151.281 79L151.281 57" stroke="#C8102E" stroke-width="5" stroke-linecap="round"/>
<path d="M132.381 68L170.181 68" stroke="#C8102E" stroke-width="5" stroke-linecap="round"/>
<defs>
<filter id="filter0_d_75_860" x="101.357" y="95.8103" width="121.906" height="114.427" filterUnits="userSpaceOnUse" color-interpolation-filters="sRGB">
<feFlood flood-opacity="0" result="BackgroundImageFix"/>
<feColorMatrix in="SourceAlpha" type="matrix" values="0 0 0 0 0 0 0 0 0 0 0 0 0 0 0 0 0 0 127 0" result="hardAlpha"/>
<feOffset dy="4"/>
<feGaussianBlur stdDeviation="2"/>
<feComposite in2="hardAlpha" operator="out"/>
<feColorMatrix type="matrix" values="0 0 0 0 0.393333 0 0 0 0 0.0747333 0 0 0 0 0.303063 0 0 0 0.25 0"/>
<feBlend mode="normal" in2="BackgroundImageFix" result="effect1_dropShadow_75_860"/>
<feBlend mode="normal" in="SourceGraphic" in2="effect1_dropShadow_75_860" result="shape"/>
</filter>
<filter id="filter1_d_75_860" x="9.82251" y="67.7368" width="124.145" height="110.209" filterUnits="userSpaceOnUse" color-interpolation-filters="sRGB">
<feFlood flood-opacity="0" result="BackgroundImageFix"/>
<feColorMatrix in="SourceAlpha" type="matrix" values="0 0 0 0 0 0 0 0 0 0 0 0 0 0 0 0 0 0 127 0" result="hardAlpha"/>
<feOffset dy="4"/>
<feGaussianBlur stdDeviation="2"/>
<feComposite in2="hardAlpha" operator="out"/>
<feColorMatrix type="matrix" values="0 0 0 0 0.393333 0 0 0 0 0.0747333 0 0 0 0 0.303063 0 0 0 0.25 0"/>
<feBlend mode="normal" in2="BackgroundImageFix" result="effect1_dropShadow_75_860"/>
<feBlend mode="normal" in="SourceGraphic" in2="effect1_dropShadow_75_860" result="shape"/>
</filter>
<filter id="filter2_d_75_860" x="90.4612" y="13.2922" width="126.895" height="109.714" filterUnits="userSpaceOnUse" color-interpolation-filters="sRGB">
<feFlood flood-opacity="0" result="BackgroundImageFix"/>
<feColorMatrix in="SourceAlpha" type="matrix" values="0 0 0 0 0 0 0 0 0 0 0 0 0 0 0 0 0 0 127 0" result="hardAlpha"/>
<feOffset dy="4"/>
<feGaussianBlur stdDeviation="2"/>
<feComposite in2="hardAlpha" operator="out"/>
<feColorMatrix type="matrix" values="0 0 0 0 0.393333 0 0 0 0 0.0747333 0 0 0 0 0.303063 0 0 0 0.25 0"/>
<feBlend mode="normal" in2="BackgroundImageFix" result="effect1_dropShadow_75_860"/>
<feBlend mode="normal" in="SourceGraphic" in2="effect1_dropShadow_75_860" result="shape"/>
</filter>
<linearGradient id="paint0_linear_75_860" x1="56.7805" y1="124" x2="103.781" y2="124" gradientUnits="userSpaceOnUse">
<stop offset="0.36" stop-color="#065C2C"/>
<stop offset="0.36" stop-color="#D30D1C"/>
</linearGradient>
</defs>
</svg>
