<svg width="371" height="88" viewBox="0 0 371 88" fill="none" xmlns="http://www.w3.org/2000/svg">
<g filter="url(#filter0_i_79_1280)">
<rect x="3" y="33" width="368" height="50" rx="15" fill="#E7EEDA"/>
</g>
<path d="M18.8409 67V53.9091H20.8523V67H18.8409ZM19.8636 51.7273C19.4716 51.7273 19.1335 51.5938 18.8494 51.3267C18.571 51.0597 18.4318 50.7386 18.4318 50.3636C18.4318 49.9886 18.571 49.6676 18.8494 49.4006C19.1335 49.1335 19.4716 49 19.8636 49C20.2557 49 20.5909 49.1335 20.8693 49.4006C21.1534 49.6676 21.2955 49.9886 21.2955 50.3636C21.2955 50.7386 21.1534 51.0597 20.8693 51.3267C20.5909 51.5938 20.2557 51.7273 19.8636 51.7273ZM25.1076 59.125V67H23.0962V53.9091H25.0394V55.9545H25.2099C25.5167 55.2898 25.9826 54.7557 26.6076 54.3523C27.2326 53.9432 28.0394 53.7386 29.028 53.7386C29.9144 53.7386 30.69 53.9205 31.3547 54.2841C32.0195 54.642 32.5366 55.1875 32.9059 55.9205C33.2752 56.6477 33.4599 57.5682 33.4599 58.6818V67H31.4485V58.8182C31.4485 57.7898 31.1814 56.9886 30.6474 56.4148C30.1133 55.8352 29.3803 55.5455 28.4485 55.5455C27.8064 55.5455 27.2326 55.6847 26.7269 55.9631C26.2269 56.2415 25.832 56.6477 25.5422 57.1818C25.2525 57.7159 25.1076 58.3636 25.1076 59.125ZM35.6953 71.9091V53.9091H37.6385V55.9886H37.8771C38.0248 55.7614 38.2294 55.4716 38.4907 55.1193C38.7578 54.7614 39.1385 54.4432 39.6328 54.1648C40.1328 53.8807 40.8089 53.7386 41.6612 53.7386C42.7635 53.7386 43.7351 54.0142 44.576 54.5653C45.4169 55.1165 46.0731 55.8977 46.5447 56.9091C47.0163 57.9205 47.2521 59.1136 47.2521 60.4886C47.2521 61.875 47.0163 63.0767 46.5447 64.0938C46.0731 65.1051 45.4197 65.8892 44.5845 66.446C43.7493 66.9972 42.7862 67.2727 41.6953 67.2727C40.8544 67.2727 40.1811 67.1335 39.6754 66.8551C39.1697 66.571 38.7805 66.25 38.5078 65.892C38.2351 65.5284 38.0248 65.2273 37.8771 64.9886H37.7066V71.9091H35.6953ZM37.6726 60.4545C37.6726 61.4432 37.8174 62.3153 38.1072 63.071C38.397 63.821 38.8203 64.4091 39.3771 64.8352C39.9339 65.2557 40.6157 65.4659 41.4226 65.4659C42.2635 65.4659 42.9652 65.2443 43.5277 64.8011C44.0959 64.3523 44.522 63.75 44.8061 62.9943C45.0959 62.233 45.2407 61.3864 45.2407 60.4545C45.2407 59.5341 45.0987 58.7045 44.8146 57.9659C44.5362 57.2216 44.1129 56.6335 43.5447 56.2017C42.9822 55.7642 42.2748 55.5455 41.4226 55.5455C40.6044 55.5455 39.9169 55.7528 39.3601 56.1676C38.8032 56.5767 38.3828 57.1506 38.0987 57.8892C37.8146 58.6222 37.6726 59.4773 37.6726 60.4545ZM57.1303 61.6477V53.9091H59.1416V67H57.1303V64.7841H56.9939C56.6871 65.4489 56.2098 66.0142 55.5621 66.4801C54.9144 66.9403 54.0962 67.1705 53.1076 67.1705C52.2894 67.1705 51.5621 66.9915 50.9257 66.6335C50.2894 66.2699 49.7894 65.7244 49.4257 64.9972C49.0621 64.2642 48.8803 63.3409 48.8803 62.2273V53.9091H50.8916V62.0909C50.8916 63.0455 51.1587 63.8068 51.6928 64.375C52.2326 64.9432 52.9201 65.2273 53.7553 65.2273C54.2553 65.2273 54.7638 65.0994 55.2809 64.8438C55.8036 64.5881 56.2411 64.196 56.5934 63.6676C56.9513 63.1392 57.1303 62.4659 57.1303 61.6477ZM67.0788 53.9091V55.6136H60.2947V53.9091H67.0788ZM62.272 50.7727H64.2833V63.25C64.2833 63.8182 64.3657 64.2443 64.5305 64.5284C64.7009 64.8068 64.9168 64.9943 65.1782 65.0909C65.4453 65.1818 65.7265 65.2273 66.022 65.2273C66.2435 65.2273 66.4254 65.2159 66.5674 65.1932C66.7095 65.1648 66.8231 65.142 66.9083 65.125L67.3174 66.9318C67.181 66.983 66.9907 67.0341 66.7464 67.0852C66.5021 67.142 66.1924 67.1705 65.8174 67.1705C65.2492 67.1705 64.6924 67.0483 64.147 66.804C63.6072 66.5597 63.1583 66.1875 62.8004 65.6875C62.4481 65.1875 62.272 64.5568 62.272 63.7955V50.7727ZM78.9175 67.2727C77.8266 67.2727 76.8636 66.9972 76.0283 66.446C75.1931 65.8892 74.5397 65.1051 74.0681 64.0938C73.5965 63.0767 73.3607 61.875 73.3607 60.4886C73.3607 59.1136 73.5965 57.9205 74.0681 56.9091C74.5397 55.8977 75.1959 55.1165 76.0368 54.5653C76.8778 54.0142 77.8493 53.7386 78.9516 53.7386C79.8039 53.7386 80.4772 53.8807 80.9715 54.1648C81.4715 54.4432 81.8522 54.7614 82.1136 55.1193C82.3806 55.4716 82.588 55.7614 82.7357 55.9886H82.9062V49.5455H84.9175V67H82.9743V64.9886H82.7357C82.588 65.2273 82.3778 65.5284 82.105 65.892C81.8323 66.25 81.4431 66.571 80.9374 66.8551C80.4317 67.1335 79.7584 67.2727 78.9175 67.2727ZM79.1903 65.4659C79.9971 65.4659 80.6789 65.2557 81.2357 64.8352C81.7925 64.4091 82.2158 63.821 82.5056 63.071C82.7954 62.3153 82.9403 61.4432 82.9403 60.4545C82.9403 59.4773 82.7982 58.6222 82.5141 57.8892C82.23 57.1506 81.8096 56.5767 81.2528 56.1676C80.6959 55.7528 80.0084 55.5455 79.1903 55.5455C78.338 55.5455 77.6278 55.7642 77.0596 56.2017C76.4971 56.6335 76.0738 57.2216 75.7897 57.9659C75.5113 58.7045 75.3721 59.5341 75.3721 60.4545C75.3721 61.3864 75.5141 62.233 75.7982 62.9943C76.088 63.75 76.5141 64.3523 77.0766 64.8011C77.6448 65.2443 78.3493 65.4659 79.1903 65.4659ZM91.2929 67.3068C90.4633 67.3068 89.7105 67.1506 89.0343 66.8381C88.3582 66.5199 87.8213 66.0625 87.4235 65.4659C87.0258 64.8636 86.827 64.1364 86.827 63.2841C86.827 62.5341 86.9747 61.9261 87.2701 61.4602C87.5656 60.9886 87.9605 60.6193 88.4548 60.3523C88.9491 60.0852 89.4946 59.8864 90.0912 59.7557C90.6934 59.6193 91.2985 59.5114 91.9065 59.4318C92.702 59.3295 93.3468 59.2528 93.8412 59.2017C94.3412 59.1449 94.7048 59.0511 94.9321 58.9205C95.165 58.7898 95.2815 58.5625 95.2815 58.2386V58.1705C95.2815 57.3295 95.0514 56.6761 94.5912 56.2102C94.1366 55.7443 93.4463 55.5114 92.5201 55.5114C91.5599 55.5114 90.8071 55.7216 90.2616 56.142C89.7162 56.5625 89.3326 57.0114 89.111 57.4886L87.202 56.8068C87.5429 56.0114 87.9974 55.392 88.5656 54.9489C89.1395 54.5 89.7645 54.1875 90.4406 54.0114C91.1224 53.8295 91.7929 53.7386 92.452 53.7386C92.8724 53.7386 93.3554 53.7898 93.9008 53.892C94.452 53.9886 94.9832 54.1903 95.4946 54.4972C96.0116 54.804 96.4406 55.267 96.7815 55.8864C97.1224 56.5057 97.2929 57.3352 97.2929 58.375V67H95.2815V65.2273H95.1792C95.0429 65.5114 94.8156 65.8153 94.4974 66.1392C94.1792 66.4631 93.7559 66.7386 93.2275 66.9659C92.6991 67.1932 92.0542 67.3068 91.2929 67.3068ZM91.5997 65.5C92.3951 65.5 93.0656 65.3438 93.611 65.0312C94.1622 64.7188 94.577 64.3153 94.8554 63.821C95.1395 63.3267 95.2815 62.8068 95.2815 62.2614V60.4205C95.1963 60.5227 95.0088 60.6165 94.719 60.7017C94.4349 60.7812 94.1054 60.8523 93.7304 60.9148C93.361 60.9716 93.0003 61.0227 92.648 61.0682C92.3014 61.108 92.0201 61.142 91.8042 61.1705C91.2815 61.2386 90.7929 61.3494 90.3383 61.5028C89.8895 61.6506 89.5258 61.875 89.2474 62.1761C88.9747 62.4716 88.8383 62.875 88.8383 63.3864C88.8383 64.0852 89.0968 64.6136 89.6139 64.9716C90.1366 65.3239 90.7985 65.5 91.5997 65.5ZM105.217 53.9091V55.6136H98.4331V53.9091H105.217ZM100.41 50.7727H102.422V63.25C102.422 63.8182 102.504 64.2443 102.669 64.5284C102.839 64.8068 103.055 64.9943 103.317 65.0909C103.584 65.1818 103.865 65.2273 104.16 65.2273C104.382 65.2273 104.564 65.2159 104.706 65.1932C104.848 65.1648 104.962 65.142 105.047 65.125L105.456 66.9318C105.319 66.983 105.129 67.0341 104.885 67.0852C104.641 67.142 104.331 67.1705 103.956 67.1705C103.388 67.1705 102.831 67.0483 102.285 66.804C101.746 66.5597 101.297 66.1875 100.939 65.6875C100.587 65.1875 100.41 64.5568 100.41 63.7955V50.7727ZM110.655 67.3068C109.826 67.3068 109.073 67.1506 108.397 66.8381C107.72 66.5199 107.183 66.0625 106.786 65.4659C106.388 64.8636 106.189 64.1364 106.189 63.2841C106.189 62.5341 106.337 61.9261 106.632 61.4602C106.928 60.9886 107.323 60.6193 107.817 60.3523C108.311 60.0852 108.857 59.8864 109.453 59.7557C110.056 59.6193 110.661 59.5114 111.269 59.4318C112.064 59.3295 112.709 59.2528 113.203 59.2017C113.703 59.1449 114.067 59.0511 114.294 58.9205C114.527 58.7898 114.644 58.5625 114.644 58.2386V58.1705C114.644 57.3295 114.414 56.6761 113.953 56.2102C113.499 55.7443 112.808 55.5114 111.882 55.5114C110.922 55.5114 110.169 55.7216 109.624 56.142C109.078 56.5625 108.695 57.0114 108.473 57.4886L106.564 56.8068C106.905 56.0114 107.36 55.392 107.928 54.9489C108.502 54.5 109.127 54.1875 109.803 54.0114C110.485 53.8295 111.155 53.7386 111.814 53.7386C112.235 53.7386 112.718 53.7898 113.263 53.892C113.814 53.9886 114.345 54.1903 114.857 54.4972C115.374 54.804 115.803 55.267 116.144 55.8864C116.485 56.5057 116.655 57.3352 116.655 58.375V67H114.644V65.2273H114.541C114.405 65.5114 114.178 65.8153 113.86 66.1392C113.541 66.4631 113.118 66.7386 112.59 66.9659C112.061 67.1932 111.416 67.3068 110.655 67.3068ZM110.962 65.5C111.757 65.5 112.428 65.3438 112.973 65.0312C113.524 64.7188 113.939 64.3153 114.218 63.821C114.502 63.3267 114.644 62.8068 114.644 62.2614V60.4205C114.558 60.5227 114.371 60.6165 114.081 60.7017C113.797 60.7812 113.468 60.8523 113.093 60.9148C112.723 60.9716 112.362 61.0227 112.01 61.0682C111.664 61.108 111.382 61.142 111.166 61.1705C110.644 61.2386 110.155 61.3494 109.701 61.5028C109.252 61.6506 108.888 61.875 108.61 62.1761C108.337 62.4716 108.201 62.875 108.201 63.3864C108.201 64.0852 108.459 64.6136 108.976 64.9716C109.499 65.3239 110.161 65.5 110.962 65.5Z" fill="#181916"/>
<g filter="url(#filter1_d_79_1280)">
<path d="M18.6562 22.125C17.5729 22.125 15.8854 22.0938 13.5938 22.0312C12.4479 21.9896 11.4062 21.9583 10.4688 21.9375C9.53125 21.9167 8.70833 21.9167 8 21.9375L4.21875 22.0312C4.15625 21.9688 4.125 21.8021 4.125 21.5312C4.125 21.2604 4.15625 21.125 4.21875 21.125C4.42708 21.125 4.67708 21.0938 4.96875 21.0312C5.28125 20.9688 5.57292 20.8958 5.84375 20.8125C6.13542 20.7083 6.3125 20.5938 6.375 20.4688C6.52083 20.2396 6.59375 19.2604 6.59375 17.5312V5.71875C6.59375 4.34375 6.52083 3.39583 6.375 2.875C6.33333 2.75 6.17708 2.64583 5.90625 2.5625C5.63542 2.45833 5.34375 2.375 5.03125 2.3125C4.71875 2.25 4.46875 2.21875 4.28125 2.21875C4.19792 2.21875 4.15625 2.08333 4.15625 1.8125C4.15625 1.5625 4.19792 1.39583 4.28125 1.3125C4.46875 1.3125 4.78125 1.33333 5.21875 1.375C5.67708 1.39583 6.16667 1.42708 6.6875 1.46875C7.20833 1.48958 7.65625 1.5 8.03125 1.5C8.69792 1.5 9.36458 1.47917 10.0312 1.4375C10.6979 1.375 11.2396 1.33333 11.6562 1.3125C11.6979 1.47917 11.7188 1.63542 11.7188 1.78125C11.7188 2.07292 11.6771 2.21875 11.5938 2.21875C11.4688 2.21875 11.25 2.26042 10.9375 2.34375C10.625 2.40625 10.3333 2.48958 10.0625 2.59375C9.79167 2.67708 9.63542 2.77083 9.59375 2.875C9.40625 3.58333 9.3125 4.55208 9.3125 5.78125V17.5625C9.3125 18.6667 9.40625 19.5833 9.59375 20.3125C9.65625 20.5208 10.3646 20.625 11.7188 20.625H13.2188C15.1354 20.625 16.4479 20.4479 17.1562 20.0938C17.4688 19.9271 17.8125 19.5625 18.1875 19C18.5833 18.4167 18.8958 17.7292 19.125 16.9375C19.1667 16.8125 19.3125 16.75 19.5625 16.75C19.9583 16.75 20.2188 16.8125 20.3438 16.9375C20.2812 17.1042 20.1771 17.3646 20.0312 17.7188C19.9062 18.0521 19.7812 18.3958 19.6562 18.75C19.5312 19.1042 19.4271 19.4062 19.3438 19.6562C19.2188 20.0312 19.0833 20.4583 18.9375 20.9375C18.7917 21.4167 18.6979 21.8125 18.6562 22.125ZM23.3612 22.2188C22.4029 22.2188 21.6112 21.9688 20.9862 21.4688C20.3612 20.9479 20.0487 20.1771 20.0487 19.1562C20.0487 17.9062 20.8612 16.8646 22.4862 16.0312C23.1946 15.6771 23.8925 15.3958 24.58 15.1875C25.2883 14.9792 25.9967 14.7396 26.705 14.4688C26.8925 14.4062 26.9862 14.25 26.9862 14V11.6562C26.9862 10.9896 26.7779 10.4792 26.3612 10.125C25.9446 9.75 25.4446 9.5625 24.8612 9.5625C24.2362 9.5625 23.7154 9.78125 23.2987 10.2188C22.8821 10.6354 22.6737 11.1875 22.6737 11.875C22.6737 12.6042 22.2467 12.9688 21.3925 12.9688C20.7883 12.9688 20.3821 12.7708 20.1737 12.375C20.1737 11.9375 20.3508 11.4896 20.705 11.0312C21.08 10.5521 21.5592 10.1146 22.1425 9.71875C22.7258 9.32292 23.3612 9 24.0487 8.75C24.7571 8.5 25.455 8.375 26.1425 8.375C27.2883 8.375 28.1112 8.65625 28.6112 9.21875C29.1112 9.76042 29.3612 10.6458 29.3612 11.875V19.0938C29.3612 19.5312 29.4758 19.8958 29.705 20.1875C29.9342 20.4792 30.2467 20.625 30.6425 20.625C30.9133 20.625 31.2779 20.4792 31.7362 20.1875C31.8196 20.1875 31.8612 20.2708 31.8612 20.4375C31.8612 20.7083 31.8092 20.9271 31.705 21.0938C30.8508 21.8229 30.1217 22.1875 29.5175 22.1875C29.0383 22.1875 28.58 21.9896 28.1425 21.5938C27.705 21.1979 27.4029 20.7812 27.2362 20.3438C27.1321 20.4271 26.9967 20.5417 26.83 20.6875C26.6842 20.8125 26.5592 20.9167 26.455 21C26.0175 21.3333 25.5383 21.625 25.0175 21.875C24.5175 22.1042 23.9654 22.2188 23.3612 22.2188ZM24.5487 20.4375C25.1321 20.4375 25.6842 20.2708 26.205 19.9375C26.7258 19.6042 26.9862 19.25 26.9862 18.875V15.6562C26.4446 15.8646 25.9237 16.0521 25.4237 16.2188C24.9446 16.3854 24.5592 16.5208 24.2675 16.625C23.8925 16.7708 23.5279 17.0312 23.1737 17.4062C22.8404 17.7812 22.6737 18.2083 22.6737 18.6875C22.6737 19.3125 22.8612 19.7604 23.2362 20.0312C23.6321 20.3021 24.0696 20.4375 24.5487 20.4375ZM37.4725 22.1875C36.7642 22.1875 36.0662 22.125 35.3787 22C34.7121 21.8542 34.2746 21.7812 34.0662 21.7812C33.8787 21.7812 33.6496 21.8438 33.3787 21.9688C33.1079 22.0729 32.9412 22.125 32.8787 22.125C32.7954 22.125 32.66 22.0938 32.4725 22.0312C32.3058 21.9688 32.2225 21.8958 32.2225 21.8125C32.2225 21.6875 32.285 21.2917 32.41 20.625C32.535 19.9375 32.5975 18.9896 32.5975 17.7812V4.84375C32.5975 4.13542 32.535 3.46875 32.41 2.84375C32.3267 2.51042 31.7954 2.34375 30.8162 2.34375H30.535C30.41 2.34375 30.3475 2.22917 30.3475 2C30.3475 1.66667 30.41 1.5 30.535 1.5C31.7017 1.39583 32.6183 1.23958 33.285 1.03125C33.9725 0.822917 34.4621 0.614583 34.7537 0.40625L34.8787 0.3125H34.9412C35.0246 0.3125 35.1079 0.375 35.1912 0.5C35.2746 0.604167 35.3267 0.708333 35.3475 0.8125C35.1183 1.5 35.0037 2.40625 35.0037 3.53125V9C35.0037 9.22917 35.035 9.34375 35.0975 9.34375C35.1183 9.34375 35.1287 9.34375 35.1287 9.34375C35.1496 9.32292 35.1704 9.3125 35.1912 9.3125C35.4829 9.10417 35.9308 8.88542 36.535 8.65625C37.1392 8.42708 37.6704 8.3125 38.1287 8.3125C39.4621 8.3125 40.6079 8.63542 41.5662 9.28125C42.5246 9.90625 43.2537 10.7083 43.7537 11.6875C44.2746 12.6667 44.535 13.6771 44.535 14.7188C44.535 15.7188 44.3371 16.6667 43.9412 17.5625C43.5454 18.4583 43.0037 19.2604 42.3162 19.9688C41.6496 20.6562 40.8892 21.1979 40.035 21.5938C39.2017 21.9896 38.3475 22.1875 37.4725 22.1875ZM38.0662 20.875C38.8579 20.875 39.535 20.6146 40.0975 20.0938C40.66 19.5729 41.0871 18.8958 41.3787 18.0625C41.6912 17.2083 41.8475 16.3125 41.8475 15.375C41.8475 13.7292 41.41 12.3958 40.535 11.375C39.6808 10.3542 38.5454 9.84375 37.1287 9.84375C36.5454 9.84375 36.0454 10.0104 35.6287 10.3438C35.2121 10.6562 35.0037 11.1146 35.0037 11.7188V19C35.0037 19.6458 35.3058 20.125 35.91 20.4375C36.535 20.7292 37.2537 20.875 38.0662 20.875ZM51.2713 22.1875C50.1254 22.1875 49.0733 21.8854 48.115 21.2812C47.1567 20.6771 46.3858 19.875 45.8025 18.875C45.24 17.8542 44.9588 16.7188 44.9588 15.4688C44.9588 14.0104 45.2296 12.75 45.7713 11.6875C46.3129 10.625 47.0525 9.8125 47.99 9.25C48.9275 8.66667 49.9796 8.375 51.1463 8.375C52.1046 8.375 52.9483 8.5625 53.6775 8.9375C54.4067 9.29167 54.9692 9.75 55.365 10.3125C55.74 10.8958 56.0108 11.4896 56.1775 12.0938C56.365 12.6771 56.4588 13.2604 56.4588 13.8438C56.4588 14.2604 56.3963 14.5208 56.2713 14.625C56.1463 14.7083 55.9067 14.75 55.5525 14.75H47.6775C47.5108 14.75 47.4275 14.8021 47.4275 14.9062C47.4275 15.7812 47.6046 16.625 47.9588 17.4375C48.3129 18.2292 48.8338 18.8854 49.5213 19.4062C50.2088 19.9271 51.0525 20.1875 52.0525 20.1875C52.9275 20.1875 53.6567 20.0625 54.24 19.8125C54.8442 19.5417 55.2817 19.3021 55.5525 19.0938L55.7713 18.9375C55.8963 18.9375 55.9588 19.0729 55.9588 19.3438C55.9588 19.4896 55.8963 19.6771 55.7713 19.9062C55.3546 20.4896 54.74 21.0208 53.9275 21.5C53.115 21.9583 52.2296 22.1875 51.2713 22.1875ZM47.6775 13.4375H53.7713C53.8754 13.4375 53.9275 13.3333 53.9275 13.125C53.9275 12.6667 53.8025 12.1667 53.5525 11.625C53.3233 11.0625 52.9692 10.5729 52.49 10.1562C52.0108 9.73958 51.4067 9.53125 50.6775 9.53125C50.0108 9.53125 49.4379 9.76042 48.9588 10.2188C48.4796 10.6562 48.115 11.1667 47.865 11.75C47.615 12.3125 47.49 12.8021 47.49 13.2188C47.49 13.3646 47.5525 13.4375 47.6775 13.4375ZM55.9137 22.0938C55.8304 22.0104 55.7887 21.8333 55.7887 21.5625C55.7887 21.3125 55.8304 21.1875 55.9137 21.1875C56.0804 21.1875 56.3096 21.1562 56.6012 21.0938C56.8929 21.0312 57.1637 20.9479 57.4137 20.8438C57.6637 20.7396 57.7992 20.6458 57.82 20.5625C57.9033 20.2708 57.9554 19.9375 57.9762 19.5625C58.0179 19.1875 58.0387 18.7917 58.0387 18.375V4.84375C58.0387 4.13542 57.9762 3.46875 57.8512 2.84375C57.7679 2.51042 57.2367 2.34375 56.2575 2.34375H55.9762C55.8512 2.34375 55.7887 2.22917 55.7887 2C55.7887 1.66667 55.8512 1.5 55.9762 1.5C57.2262 1.35417 58.1533 1.1875 58.7575 1C59.3617 0.8125 59.7783 0.645833 60.0075 0.5L60.32 0.3125H60.3825C60.4658 0.3125 60.5492 0.375 60.6325 0.5C60.7158 0.604167 60.7679 0.708333 60.7887 0.8125C60.5596 1.5 60.445 2.40625 60.445 3.53125V17.7812C60.445 18.3854 60.4658 18.9167 60.5075 19.375C60.5492 19.8333 60.6117 20.2292 60.695 20.5625C60.7367 20.6458 60.8825 20.7396 61.1325 20.8438C61.3825 20.9479 61.6533 21.0312 61.945 21.0938C62.2367 21.1562 62.445 21.1875 62.57 21.1875C62.6325 21.1875 62.6742 21.3125 62.695 21.5625C62.7158 21.8125 62.7054 21.9896 62.6637 22.0938L59.32 21.9375L55.9137 22.0938ZM67.5112 22.0938C67.4279 22.0104 67.3862 21.8333 67.3862 21.5625C67.3862 21.3125 67.4279 21.1875 67.5112 21.1875C67.6779 21.1875 67.9071 21.1562 68.1987 21.0938C68.4904 21.0312 68.7612 20.9479 69.0112 20.8438C69.2612 20.7396 69.3967 20.6458 69.4175 20.5625C69.5008 20.2708 69.5529 19.9375 69.5737 19.5625C69.6154 19.1875 69.6362 18.7917 69.6362 18.375V12.4688C69.6362 11.6771 69.4904 11.1146 69.1987 10.7812C68.9904 10.5312 68.7404 10.3646 68.4487 10.2812C68.1779 10.1979 67.9279 10.1562 67.6987 10.1562C67.4904 10.1354 67.3862 10.1042 67.3862 10.0625C67.3862 9.5625 67.4487 9.30208 67.5737 9.28125C68.6779 9.11458 69.5737 8.96875 70.2612 8.84375C70.9487 8.69792 71.3758 8.60417 71.5425 8.5625L72.0425 8.4375C72.1258 8.41667 72.1779 8.5 72.1987 8.6875C72.2196 8.875 72.2196 9.01042 72.1987 9.09375C72.1571 9.38542 72.1258 9.63542 72.105 9.84375C72.0842 10.0521 72.0737 10.2188 72.0737 10.3438C72.0737 10.4271 72.0946 10.4688 72.1362 10.4688C72.1571 10.4688 72.1883 10.4479 72.23 10.4062C72.7092 9.90625 73.355 9.4375 74.1675 9C75.0008 8.54167 75.7925 8.3125 76.5425 8.3125C78.0008 8.3125 79.0217 8.83333 79.605 9.875C80.1883 10.9167 80.48 12.6042 80.48 14.9375V17.7812C80.48 18.3854 80.5008 18.9167 80.5425 19.375C80.5842 19.8333 80.6467 20.2292 80.73 20.5625C80.7717 20.6458 80.9175 20.7396 81.1675 20.8438C81.4175 20.9479 81.6883 21.0312 81.98 21.0938C82.2717 21.1562 82.48 21.1875 82.605 21.1875C82.6675 21.1875 82.7092 21.3125 82.73 21.5625C82.7508 21.8125 82.7404 21.9896 82.6987 22.0938L79.355 21.9375L76.0737 22.0938C75.9904 22.0104 75.9487 21.8333 75.9487 21.5625C75.9487 21.3125 75.9904 21.1875 76.0737 21.1875C76.2404 21.1875 76.4592 21.1562 76.73 21.0938C77.0008 21.0312 77.2508 20.9479 77.48 20.8438C77.7092 20.7396 77.8342 20.6458 77.855 20.5625C77.9383 20.2708 77.9904 19.9375 78.0112 19.5625C78.0529 19.1875 78.0737 18.7917 78.0737 18.375V15.25C78.0737 13.3125 77.8237 11.9896 77.3237 11.2812C76.8237 10.5729 76.0112 10.2188 74.8862 10.2188C74.4487 10.2188 74.0112 10.3438 73.5737 10.5938C73.1362 10.8229 72.7717 11.0938 72.48 11.4062C72.1883 11.7188 72.0425 12.0104 72.0425 12.2812V17.7812C72.0425 18.3854 72.0633 18.9167 72.105 19.375C72.1467 19.8333 72.2092 20.2292 72.2925 20.5625C72.3342 20.6458 72.48 20.7396 72.73 20.8438C72.98 20.9479 73.2508 21.0312 73.5425 21.0938C73.8342 21.1562 74.0425 21.1875 74.1675 21.1875C74.23 21.1875 74.2717 21.3125 74.2925 21.5625C74.3133 21.8125 74.3029 21.9896 74.2612 22.0938L70.9175 21.9375L67.5112 22.0938ZM86.06 22.2188C85.1017 22.2188 84.31 21.9688 83.685 21.4688C83.06 20.9479 82.7475 20.1771 82.7475 19.1562C82.7475 17.9062 83.56 16.8646 85.185 16.0312C85.8933 15.6771 86.5912 15.3958 87.2787 15.1875C87.9871 14.9792 88.6954 14.7396 89.4037 14.4688C89.5912 14.4062 89.685 14.25 89.685 14V11.6562C89.685 10.9896 89.4767 10.4792 89.06 10.125C88.6433 9.75 88.1433 9.5625 87.56 9.5625C86.935 9.5625 86.4142 9.78125 85.9975 10.2188C85.5808 10.6354 85.3725 11.1875 85.3725 11.875C85.3725 12.6042 84.9454 12.9688 84.0912 12.9688C83.4871 12.9688 83.0808 12.7708 82.8725 12.375C82.8725 11.9375 83.0496 11.4896 83.4037 11.0312C83.7787 10.5521 84.2579 10.1146 84.8412 9.71875C85.4246 9.32292 86.06 9 86.7475 8.75C87.4558 8.5 88.1537 8.375 88.8412 8.375C89.9871 8.375 90.81 8.65625 91.31 9.21875C91.81 9.76042 92.06 10.6458 92.06 11.875V19.0938C92.06 19.5312 92.1746 19.8958 92.4037 20.1875C92.6329 20.4792 92.9454 20.625 93.3412 20.625C93.6121 20.625 93.9767 20.4792 94.435 20.1875C94.5183 20.1875 94.56 20.2708 94.56 20.4375C94.56 20.7083 94.5079 20.9271 94.4037 21.0938C93.5496 21.8229 92.8204 22.1875 92.2162 22.1875C91.7371 22.1875 91.2787 21.9896 90.8412 21.5938C90.4037 21.1979 90.1017 20.7812 89.935 20.3438C89.8308 20.4271 89.6954 20.5417 89.5287 20.6875C89.3829 20.8125 89.2579 20.9167 89.1537 21C88.7162 21.3333 88.2371 21.625 87.7162 21.875C87.2162 22.1042 86.6642 22.2188 86.06 22.2188ZM87.2475 20.4375C87.8308 20.4375 88.3829 20.2708 88.9037 19.9375C89.4246 19.6042 89.685 19.25 89.685 18.875V15.6562C89.1433 15.8646 88.6225 16.0521 88.1225 16.2188C87.6433 16.3854 87.2579 16.5208 86.9662 16.625C86.5912 16.7708 86.2267 17.0312 85.8725 17.4062C85.5392 17.7812 85.3725 18.2083 85.3725 18.6875C85.3725 19.3125 85.56 19.7604 85.935 20.0312C86.3308 20.3021 86.7683 20.4375 87.2475 20.4375ZM93.7962 22.0938C93.7129 22.0104 93.6712 21.8333 93.6712 21.5625C93.6712 21.3125 93.7129 21.1875 93.7962 21.1875C93.9629 21.1875 94.1921 21.1562 94.4837 21.0938C94.7754 21.0312 95.0462 20.9479 95.2962 20.8438C95.5462 20.7396 95.6817 20.6458 95.7025 20.5625C95.7858 20.2708 95.8379 19.9375 95.8587 19.5625C95.9004 19.1875 95.9212 18.7917 95.9212 18.375V12.4688C95.9212 11.6771 95.7754 11.1146 95.4837 10.7812C95.2754 10.5312 95.0254 10.3646 94.7337 10.2812C94.4629 10.1979 94.2129 10.1562 93.9837 10.1562C93.7754 10.1354 93.6712 10.1042 93.6712 10.0625C93.6712 9.5625 93.7337 9.30208 93.8587 9.28125C94.9629 9.11458 95.8275 8.96875 96.4525 8.84375C97.0983 8.71875 97.5879 8.61458 97.9212 8.53125L98.3275 8.4375C98.4108 8.41667 98.4629 8.5 98.4837 8.6875C98.5046 8.85417 98.5046 8.98958 98.4837 9.09375C98.4421 9.38542 98.4108 9.63542 98.39 9.84375C98.3692 10.0521 98.3587 10.2188 98.3587 10.3438C98.3587 10.4271 98.3796 10.4688 98.4212 10.4688C98.4421 10.4688 98.4733 10.4479 98.515 10.4062C98.9942 9.90625 99.64 9.4375 100.452 9C101.286 8.54167 102.077 8.3125 102.827 8.3125C103.661 8.3125 104.348 8.54167 104.89 9C105.452 9.4375 105.838 9.94792 106.046 10.5312C107.63 9.05208 109.244 8.3125 110.89 8.3125C113.515 8.3125 114.827 10.3125 114.827 14.3125V17.7812C114.827 18.3854 114.848 18.9167 114.89 19.375C114.932 19.8333 114.994 20.2292 115.077 20.5625C115.119 20.6458 115.265 20.7396 115.515 20.8438C115.765 20.9479 116.036 21.0312 116.327 21.0938C116.619 21.1562 116.827 21.1875 116.952 21.1875C117.015 21.1875 117.057 21.3125 117.077 21.5625C117.098 21.8125 117.088 21.9896 117.046 22.0938L113.702 21.9375L110.296 22.0938C110.213 22.0104 110.171 21.8333 110.171 21.5625C110.171 21.3125 110.213 21.1875 110.296 21.1875C110.463 21.1875 110.692 21.1562 110.984 21.0938C111.275 21.0312 111.546 20.9479 111.796 20.8438C112.046 20.7396 112.182 20.6458 112.202 20.5625C112.286 20.2708 112.338 19.9583 112.359 19.625C112.4 19.2708 112.421 18.9167 112.421 18.5625V15.0312C112.421 11.8229 111.369 10.2188 109.265 10.2188C108.765 10.2188 108.296 10.3333 107.859 10.5625C107.421 10.7708 107.067 11.0104 106.796 11.2812C106.546 11.5521 106.421 11.7917 106.421 12C106.484 12.3958 106.525 12.8021 106.546 13.2188C106.567 13.6146 106.577 14.0521 106.577 14.5312V18.0625C106.577 18.5833 106.598 19.0521 106.64 19.4688C106.682 19.8646 106.744 20.2292 106.827 20.5625C106.869 20.6458 107.015 20.7396 107.265 20.8438C107.515 20.9479 107.786 21.0312 108.077 21.0938C108.369 21.1562 108.577 21.1875 108.702 21.1875C108.765 21.1875 108.807 21.3125 108.827 21.5625C108.848 21.8125 108.838 21.9896 108.796 22.0938L105.452 21.9375L102.046 22.0938C101.963 22.0104 101.921 21.8333 101.921 21.5625C101.921 21.3125 101.963 21.1875 102.046 21.1875C102.213 21.1875 102.442 21.1562 102.734 21.0938C103.025 21.0312 103.296 20.9479 103.546 20.8438C103.796 20.7396 103.932 20.6458 103.952 20.5625C104.036 20.2708 104.088 19.9375 104.109 19.5625C104.15 19.1875 104.171 18.7917 104.171 18.375V15.1875C104.171 11.875 103.171 10.2188 101.171 10.2188C100.755 10.2188 100.327 10.3333 99.89 10.5625C99.4525 10.7708 99.0775 11.0417 98.765 11.375C98.4733 11.6875 98.3275 11.9896 98.3275 12.2812V17.7812C98.3275 18.3854 98.3483 18.9167 98.39 19.375C98.4317 19.8333 98.4942 20.2292 98.5775 20.5625C98.6192 20.6458 98.765 20.7396 99.015 20.8438C99.265 20.9479 99.5358 21.0312 99.8275 21.0938C100.119 21.1562 100.327 21.1875 100.452 21.1875C100.515 21.1875 100.557 21.3125 100.577 21.5625C100.598 21.8125 100.588 21.9896 100.546 22.0938L97.2025 21.9375L93.7962 22.0938ZM123.376 22.1875C122.23 22.1875 121.178 21.8854 120.22 21.2812C119.262 20.6771 118.491 19.875 117.908 18.875C117.345 17.8542 117.064 16.7188 117.064 15.4688C117.064 14.0104 117.335 12.75 117.876 11.6875C118.418 10.625 119.158 9.8125 120.095 9.25C121.033 8.66667 122.085 8.375 123.251 8.375C124.21 8.375 125.053 8.5625 125.783 8.9375C126.512 9.29167 127.074 9.75 127.47 10.3125C127.845 10.8958 128.116 11.4896 128.283 12.0938C128.47 12.6771 128.564 13.2604 128.564 13.8438C128.564 14.2604 128.501 14.5208 128.376 14.625C128.251 14.7083 128.012 14.75 127.658 14.75H119.783C119.616 14.75 119.533 14.8021 119.533 14.9062C119.533 15.7812 119.71 16.625 120.064 17.4375C120.418 18.2292 120.939 18.8854 121.626 19.4062C122.314 19.9271 123.158 20.1875 124.158 20.1875C125.033 20.1875 125.762 20.0625 126.345 19.8125C126.949 19.5417 127.387 19.3021 127.658 19.0938L127.876 18.9375C128.001 18.9375 128.064 19.0729 128.064 19.3438C128.064 19.4896 128.001 19.6771 127.876 19.9062C127.46 20.4896 126.845 21.0208 126.033 21.5C125.22 21.9583 124.335 22.1875 123.376 22.1875ZM119.783 13.4375H125.876C125.98 13.4375 126.033 13.3333 126.033 13.125C126.033 12.6667 125.908 12.1667 125.658 11.625C125.428 11.0625 125.074 10.5729 124.595 10.1562C124.116 9.73958 123.512 9.53125 122.783 9.53125C122.116 9.53125 121.543 9.76042 121.064 10.2188C120.585 10.6562 120.22 11.1667 119.97 11.75C119.72 12.3125 119.595 12.8021 119.595 13.2188C119.595 13.3646 119.658 13.4375 119.783 13.4375ZM133.831 12.6562C133.519 12.6562 133.269 12.5521 133.081 12.3438C132.894 12.1146 132.8 11.8333 132.8 11.5C132.8 11.1458 132.894 10.7396 133.081 10.2812C133.29 9.80208 133.498 9.33333 133.706 8.875C133.935 8.41667 134.071 8.03125 134.113 7.71875C134.133 7.59375 134.113 7.46875 134.05 7.34375C133.988 7.21875 133.842 7.17708 133.613 7.21875C133.342 7.28125 132.977 7.41667 132.519 7.625C132.081 7.83333 131.623 8.03125 131.144 8.21875C130.685 8.38542 130.269 8.46875 129.894 8.46875C129.56 8.46875 129.269 8.39583 129.019 8.25C128.79 8.08333 128.675 7.84375 128.675 7.53125C128.675 7.07292 128.873 6.77083 129.269 6.625C129.665 6.45833 130.071 6.375 130.488 6.375C130.883 6.375 131.373 6.41667 131.956 6.5C132.54 6.58333 133.029 6.60417 133.425 6.5625C133.654 6.54167 133.8 6.45833 133.863 6.3125C133.925 6.16667 133.904 6.02083 133.8 5.875C133.613 5.54167 133.321 5.16667 132.925 4.75C132.529 4.3125 132.165 3.875 131.831 3.4375C131.498 2.97917 131.331 2.55208 131.331 2.15625C131.331 1.86458 131.446 1.63542 131.675 1.46875C131.904 1.30208 132.133 1.21875 132.363 1.21875C132.717 1.21875 132.998 1.39583 133.206 1.75C133.435 2.08333 133.602 2.46875 133.706 2.90625C133.831 3.32292 133.915 3.66667 133.956 3.9375C133.998 4.1875 134.05 4.46875 134.113 4.78125C134.196 5.09375 134.29 5.36458 134.394 5.59375C134.519 5.82292 134.644 5.9375 134.769 5.9375C134.935 5.9375 135.133 5.76042 135.363 5.40625C135.613 5.05208 135.821 4.70833 135.988 4.375C136.113 4.14583 136.279 3.86458 136.488 3.53125C136.717 3.17708 136.967 2.875 137.238 2.625C137.529 2.35417 137.831 2.21875 138.144 2.21875C138.415 2.21875 138.633 2.32292 138.8 2.53125C138.988 2.71875 139.081 2.94792 139.081 3.21875C139.081 3.51042 138.956 3.79167 138.706 4.0625C138.477 4.3125 138.206 4.54167 137.894 4.75C137.581 4.9375 137.29 5.10417 137.019 5.25C136.685 5.4375 136.394 5.61458 136.144 5.78125C135.894 5.92708 135.696 6.07292 135.55 6.21875C135.342 6.42708 135.29 6.59375 135.394 6.71875C135.519 6.84375 135.623 6.92708 135.706 6.96875C136.227 7.19792 136.779 7.35417 137.363 7.4375C137.967 7.5 138.529 7.65625 139.05 7.90625C139.342 8.05208 139.581 8.22917 139.769 8.4375C139.956 8.625 140.05 8.83333 140.05 9.0625C140.05 9.29167 139.956 9.51042 139.769 9.71875C139.581 9.92708 139.321 10.0312 138.988 10.0312C138.613 10.0312 138.217 9.875 137.8 9.5625C137.383 9.22917 136.977 8.86458 136.581 8.46875C136.185 8.07292 135.831 7.79167 135.519 7.625C135.269 7.47917 135.092 7.41667 134.988 7.4375C134.883 7.4375 134.81 7.58333 134.769 7.875C134.748 8.3125 134.769 8.76042 134.831 9.21875C134.894 9.65625 134.925 10.1146 134.925 10.5938C134.925 11.0521 134.852 11.5104 134.706 11.9688C134.581 12.4271 134.29 12.6562 133.831 12.6562Z" fill="#E7EEDA"/>
</g>
<defs>
<filter id="filter0_i_79_1280" x="3" y="33" width="368" height="54" filterUnits="userSpaceOnUse" color-interpolation-filters="sRGB">
<feFlood flood-opacity="0" result="BackgroundImageFix"/>
<feBlend mode="normal" in="SourceGraphic" in2="BackgroundImageFix" result="shape"/>
<feColorMatrix in="SourceAlpha" type="matrix" values="0 0 0 0 0 0 0 0 0 0 0 0 0 0 0 0 0 0 127 0" result="hardAlpha"/>
<feOffset dy="4"/>
<feGaussianBlur stdDeviation="2"/>
<feComposite in2="hardAlpha" operator="arithmetic" k2="-1" k3="1"/>
<feColorMatrix type="matrix" values="0 0 0 0 0.393333 0 0 0 0 0.0747333 0 0 0 0 0.303063 0 0 0 0.25 0"/>
<feBlend mode="normal" in2="shape" result="effect1_innerShadow_79_1280"/>
</filter>
<filter id="filter1_d_79_1280" x="0.125" y="0.3125" width="143.925" height="29.9062" filterUnits="userSpaceOnUse" color-interpolation-filters="sRGB">
<feFlood flood-opacity="0" result="BackgroundImageFix"/>
<feColorMatrix in="SourceAlpha" type="matrix" values="0 0 0 0 0 0 0 0 0 0 0 0 0 0 0 0 0 0 127 0" result="hardAlpha"/>
<feOffset dy="4"/>
<feGaussianBlur stdDeviation="2"/>
<feComposite in2="hardAlpha" operator="out"/>
<feColorMatrix type="matrix" values="0 0 0 0 0 0 0 0 0 0 0 0 0 0 0 0 0 0 0.25 0"/>
<feBlend mode="normal" in2="BackgroundImageFix" result="effect1_dropShadow_79_1280"/>
<feBlend mode="normal" in="SourceGraphic" in2="effect1_dropShadow_79_1280" result="shape"/>
</filter>
</defs>
</svg>
