<svg width="221" height="223" viewBox="0 0 221 223" fill="none" xmlns="http://www.w3.org/2000/svg">
<g filter="url(#filter0_d_84_2508)">
<path d="M15.579 109.926C18.3814 102.622 25.611 94.2851 33.2483 91.8626C46.4082 90.3752 47.8483 92.1411 56.0187 95.9649C64.189 99.7887 71.0505 106.353 75.1519 114.269C79.2532 122.186 80.2728 130.833 77.995 138.383C75.7172 145.933 70.3206 151.793 62.9467 154.724C55.5727 157.655 46.7996 157.427 38.483 154.088C30.1664 150.749 22.9584 144.561 18.3836 136.832C13.8087 129.104 11.9128 124.244 13.6566 116.48L32.3449 120.167L15.579 109.926Z" fill="#72923D"/>
</g>
<g filter="url(#filter1_d_84_2508)">
<path d="M73.4962 161.877C70.9147 144.898 76.1129 115.897 86.9734 102.359C108.437 84.0615 112.761 85.67 130.946 83.1978C149.131 80.7256 167.835 84.9268 183.102 94.9128C198.368 104.899 210.496 113.285 214.245 130.104C217.994 146.924 211.752 170.57 201.871 184.749C191.991 198.929 177.753 209.13 159.809 212.683C141.865 216.235 122.94 213.147 107.039 204.071C91.138 194.995 82.8516 188.131 77.9501 171.54L130.946 157.44L73.4962 161.877Z" fill="#587637"/>
</g>
<g filter="url(#filter2_d_84_2508)">
<path d="M126.674 116.354C125.861 116.354 124.596 116.33 122.877 116.283C122.018 116.252 121.236 116.229 120.533 116.213C119.83 116.197 119.213 116.197 118.682 116.213L115.846 116.283C115.799 116.236 115.775 116.111 115.775 115.908C115.775 115.705 115.799 115.604 115.846 115.604C116.002 115.604 116.189 115.58 116.408 115.533C116.643 115.486 116.861 115.432 117.064 115.369C117.283 115.291 117.416 115.205 117.463 115.111C117.572 114.939 117.627 114.205 117.627 112.908V104.049C117.627 103.018 117.572 102.307 117.463 101.916C117.432 101.822 117.314 101.744 117.111 101.682C116.908 101.604 116.689 101.541 116.455 101.494C116.221 101.447 116.033 101.424 115.893 101.424C115.83 101.424 115.799 101.322 115.799 101.119C115.799 100.932 115.83 100.807 115.893 100.744C116.033 100.744 116.268 100.76 116.596 100.791C116.939 100.807 117.307 100.83 117.697 100.861C118.088 100.877 118.424 100.885 118.705 100.885C119.205 100.885 119.705 100.869 120.205 100.838C120.705 100.791 121.111 100.76 121.424 100.744C121.455 100.869 121.471 100.986 121.471 101.096C121.471 101.314 121.439 101.424 121.377 101.424C121.283 101.424 121.119 101.455 120.885 101.518C120.65 101.564 120.432 101.627 120.229 101.705C120.025 101.768 119.908 101.838 119.877 101.916C119.736 102.447 119.666 103.174 119.666 104.096V112.932C119.666 113.76 119.736 114.447 119.877 114.994C119.924 115.15 120.455 115.229 121.471 115.229H122.596C124.033 115.229 125.018 115.096 125.549 114.83C125.783 114.705 126.041 114.432 126.322 114.01C126.619 113.572 126.854 113.057 127.025 112.463C127.057 112.369 127.166 112.322 127.354 112.322C127.65 112.322 127.846 112.369 127.939 112.463C127.893 112.588 127.814 112.783 127.705 113.049C127.611 113.299 127.518 113.557 127.424 113.822C127.33 114.088 127.252 114.314 127.189 114.502C127.096 114.783 126.994 115.104 126.885 115.463C126.775 115.822 126.705 116.119 126.674 116.354ZM133.846 116.4C132.986 116.4 132.197 116.174 131.479 115.721C130.76 115.268 130.182 114.666 129.744 113.916C129.322 113.15 129.111 112.299 129.111 111.361C129.111 110.268 129.314 109.322 129.721 108.525C130.127 107.729 130.682 107.119 131.385 106.697C132.088 106.26 132.877 106.041 133.752 106.041C134.471 106.041 135.104 106.182 135.65 106.463C136.197 106.729 136.619 107.072 136.916 107.494C137.197 107.932 137.4 108.377 137.525 108.83C137.666 109.268 137.736 109.705 137.736 110.143C137.736 110.455 137.689 110.65 137.596 110.729C137.502 110.791 137.322 110.822 137.057 110.822H131.15C131.025 110.822 130.963 110.861 130.963 110.939C130.963 111.596 131.096 112.229 131.361 112.838C131.627 113.432 132.018 113.924 132.533 114.314C133.049 114.705 133.682 114.9 134.432 114.9C135.088 114.9 135.635 114.807 136.072 114.619C136.525 114.416 136.854 114.236 137.057 114.08L137.221 113.963C137.314 113.963 137.361 114.064 137.361 114.268C137.361 114.377 137.314 114.518 137.221 114.689C136.908 115.127 136.447 115.525 135.838 115.885C135.229 116.229 134.564 116.4 133.846 116.4ZM131.15 109.838H135.721C135.799 109.838 135.838 109.76 135.838 109.604C135.838 109.26 135.744 108.885 135.557 108.479C135.385 108.057 135.119 107.689 134.76 107.377C134.4 107.064 133.947 106.908 133.4 106.908C132.9 106.908 132.471 107.08 132.111 107.424C131.752 107.752 131.479 108.135 131.291 108.572C131.104 108.994 131.01 109.361 131.01 109.674C131.01 109.783 131.057 109.838 131.15 109.838ZM144.322 116.424C143.385 116.424 142.525 116.189 141.744 115.721C140.963 115.252 140.338 114.619 139.869 113.822C139.416 113.025 139.189 112.15 139.189 111.197C139.189 110.229 139.408 109.354 139.846 108.572C140.299 107.791 140.908 107.174 141.674 106.721C142.439 106.252 143.307 106.018 144.275 106.018C145.213 106.018 146.064 106.252 146.83 106.721C147.611 107.189 148.229 107.814 148.682 108.596C149.15 109.377 149.385 110.244 149.385 111.197C149.385 112.15 149.158 113.025 148.705 113.822C148.252 114.619 147.643 115.252 146.877 115.721C146.127 116.189 145.275 116.424 144.322 116.424ZM144.533 115.51C145.096 115.51 145.588 115.33 146.01 114.971C146.432 114.611 146.76 114.127 146.994 113.518C147.244 112.908 147.369 112.244 147.369 111.525C147.369 110.682 147.213 109.916 146.9 109.229C146.588 108.525 146.174 107.971 145.658 107.564C145.158 107.143 144.611 106.932 144.018 106.932C143.471 106.932 142.979 107.111 142.541 107.471C142.119 107.814 141.791 108.283 141.557 108.877C141.322 109.455 141.205 110.111 141.205 110.846C141.205 111.689 141.354 112.471 141.65 113.189C141.963 113.893 142.369 114.455 142.869 114.877C143.385 115.299 143.939 115.51 144.533 115.51ZM151.049 116.33C150.986 116.268 150.955 116.135 150.955 115.932C150.955 115.744 150.986 115.65 151.049 115.65C151.174 115.65 151.346 115.627 151.564 115.58C151.783 115.533 151.986 115.471 152.174 115.393C152.361 115.314 152.463 115.244 152.479 115.182C152.541 114.963 152.58 114.713 152.596 114.432C152.627 114.15 152.643 113.854 152.643 113.541V109.111C152.643 108.518 152.533 108.096 152.314 107.846C152.158 107.658 151.971 107.533 151.752 107.471C151.549 107.408 151.361 107.377 151.189 107.377C151.033 107.361 150.955 107.338 150.955 107.307C150.955 106.932 151.002 106.736 151.096 106.721C151.924 106.596 152.596 106.486 153.111 106.393C153.627 106.283 153.947 106.213 154.072 106.182L154.447 106.088C154.51 106.072 154.549 106.135 154.564 106.275C154.58 106.416 154.58 106.518 154.564 106.58C154.533 106.799 154.51 106.986 154.494 107.143C154.479 107.299 154.471 107.424 154.471 107.518C154.471 107.58 154.486 107.611 154.518 107.611C154.533 107.611 154.557 107.596 154.588 107.564C154.947 107.189 155.432 106.838 156.041 106.51C156.666 106.166 157.26 105.994 157.822 105.994C158.916 105.994 159.682 106.385 160.119 107.166C160.557 107.947 160.775 109.213 160.775 110.963V113.096C160.775 113.549 160.791 113.947 160.822 114.291C160.854 114.635 160.9 114.932 160.963 115.182C160.994 115.244 161.104 115.314 161.291 115.393C161.479 115.471 161.682 115.533 161.9 115.58C162.119 115.627 162.275 115.65 162.369 115.65C162.416 115.65 162.447 115.744 162.463 115.932C162.479 116.119 162.471 116.252 162.439 116.33L159.932 116.213L157.471 116.33C157.408 116.268 157.377 116.135 157.377 115.932C157.377 115.744 157.408 115.65 157.471 115.65C157.596 115.65 157.76 115.627 157.963 115.58C158.166 115.533 158.354 115.471 158.525 115.393C158.697 115.314 158.791 115.244 158.807 115.182C158.869 114.963 158.908 114.713 158.924 114.432C158.955 114.15 158.971 113.854 158.971 113.541V111.197C158.971 109.744 158.783 108.752 158.408 108.221C158.033 107.689 157.424 107.424 156.58 107.424C156.252 107.424 155.924 107.518 155.596 107.705C155.268 107.877 154.994 108.08 154.775 108.314C154.557 108.549 154.447 108.768 154.447 108.971V113.096C154.447 113.549 154.463 113.947 154.494 114.291C154.525 114.635 154.572 114.932 154.635 115.182C154.666 115.244 154.775 115.314 154.963 115.393C155.15 115.471 155.354 115.533 155.572 115.58C155.791 115.627 155.947 115.65 156.041 115.65C156.088 115.65 156.119 115.744 156.135 115.932C156.15 116.119 156.143 116.252 156.111 116.33L153.604 116.213L151.049 116.33ZM169.002 116.424C168.064 116.424 167.205 116.189 166.424 115.721C165.643 115.252 165.018 114.619 164.549 113.822C164.096 113.025 163.869 112.15 163.869 111.197C163.869 110.229 164.088 109.354 164.525 108.572C164.979 107.791 165.588 107.174 166.354 106.721C167.119 106.252 167.986 106.018 168.955 106.018C169.893 106.018 170.744 106.252 171.51 106.721C172.291 107.189 172.908 107.814 173.361 108.596C173.83 109.377 174.064 110.244 174.064 111.197C174.064 112.15 173.838 113.025 173.385 113.822C172.932 114.619 172.322 115.252 171.557 115.721C170.807 116.189 169.955 116.424 169.002 116.424ZM169.213 115.51C169.775 115.51 170.268 115.33 170.689 114.971C171.111 114.611 171.439 114.127 171.674 113.518C171.924 112.908 172.049 112.244 172.049 111.525C172.049 110.682 171.893 109.916 171.58 109.229C171.268 108.525 170.854 107.971 170.338 107.564C169.838 107.143 169.291 106.932 168.697 106.932C168.15 106.932 167.658 107.111 167.221 107.471C166.799 107.814 166.471 108.283 166.236 108.877C166.002 109.455 165.885 110.111 165.885 110.846C165.885 111.689 166.033 112.471 166.33 113.189C166.643 113.893 167.049 114.455 167.549 114.877C168.064 115.299 168.619 115.51 169.213 115.51ZM175.822 116.33C175.76 116.268 175.729 116.135 175.729 115.932C175.729 115.744 175.76 115.65 175.822 115.65C175.947 115.65 176.119 115.627 176.338 115.58C176.557 115.533 176.76 115.471 176.947 115.393C177.135 115.314 177.236 115.244 177.252 115.182C177.314 114.963 177.354 114.713 177.369 114.432C177.4 114.15 177.416 113.854 177.416 113.541V109.111C177.416 108.518 177.307 108.096 177.088 107.846C176.932 107.658 176.744 107.533 176.525 107.471C176.322 107.408 176.135 107.377 175.963 107.377C175.807 107.361 175.729 107.338 175.729 107.307C175.729 106.932 175.775 106.736 175.869 106.721C177.572 106.455 178.557 106.283 178.822 106.205L179.221 106.088C179.283 106.072 179.322 106.135 179.338 106.275C179.354 106.416 179.354 106.518 179.338 106.58L179.197 107.752C179.479 107.33 179.861 106.939 180.346 106.58C180.846 106.205 181.338 106.018 181.822 106.018C182.729 106.018 183.338 106.244 183.65 106.697C183.65 107.244 183.564 107.643 183.393 107.893C183.221 108.143 183.01 108.268 182.76 108.268C182.479 108.268 182.221 108.135 181.986 107.869C181.752 107.604 181.432 107.471 181.025 107.471C180.713 107.471 180.416 107.58 180.135 107.799C179.854 108.002 179.627 108.268 179.455 108.596C179.299 108.908 179.221 109.236 179.221 109.58V113.096C179.221 113.549 179.236 113.947 179.268 114.291C179.299 114.635 179.346 114.932 179.408 115.182C179.439 115.244 179.549 115.314 179.736 115.393C179.924 115.471 180.127 115.533 180.346 115.58C180.58 115.627 180.744 115.65 180.838 115.65C180.885 115.65 180.916 115.744 180.932 115.932C180.947 116.119 180.939 116.252 180.908 116.33L178.377 116.213L175.822 116.33ZM108.299 147.33C108.221 147.252 108.182 147.135 108.182 146.979C108.182 146.76 108.221 146.65 108.299 146.65C108.455 146.65 108.658 146.627 108.908 146.58C109.158 146.533 109.4 146.471 109.635 146.393C109.869 146.314 110.033 146.229 110.127 146.135C110.393 145.854 110.533 145.174 110.549 144.096C110.58 142.283 110.611 140.658 110.643 139.221C110.689 137.768 110.729 136.58 110.76 135.658C110.791 134.721 110.807 134.119 110.807 133.854C110.807 133.432 110.775 133.119 110.713 132.916C110.682 132.822 110.541 132.744 110.291 132.682C110.057 132.604 109.799 132.541 109.518 132.494C109.236 132.447 109.018 132.424 108.861 132.424C108.799 132.424 108.768 132.314 108.768 132.096C108.768 131.924 108.799 131.807 108.861 131.744C109.236 131.76 109.65 131.783 110.104 131.814C110.557 131.846 111.018 131.861 111.486 131.861C111.783 131.861 112.104 131.854 112.447 131.838C112.807 131.807 113.205 131.775 113.643 131.744C113.768 132.088 115.314 136.002 118.283 143.486C118.314 143.518 118.346 143.533 118.377 143.533C118.439 143.533 118.479 143.502 118.494 143.439C119.26 141.643 119.947 140.002 120.557 138.518C121.166 137.033 121.697 135.713 122.15 134.557L123.088 131.744C123.588 131.775 123.994 131.799 124.307 131.814C124.635 131.83 124.877 131.838 125.033 131.838C125.518 131.838 125.979 131.83 126.416 131.814C126.854 131.799 127.268 131.775 127.658 131.744C127.705 131.885 127.729 132.002 127.729 132.096C127.729 132.314 127.689 132.424 127.611 132.424H127.564C127.393 132.424 127.166 132.479 126.885 132.588C126.604 132.682 126.393 132.783 126.252 132.893C126.064 133.033 125.971 133.557 125.971 134.463L126.182 143.979C126.213 144.885 126.33 145.604 126.533 146.135C126.58 146.229 126.705 146.314 126.908 146.393C127.111 146.471 127.33 146.533 127.564 146.58C127.814 146.627 127.994 146.65 128.104 146.65C128.166 146.65 128.197 146.76 128.197 146.979C128.197 147.088 128.182 147.205 128.15 147.33C127.369 147.299 126.744 147.275 126.275 147.26C125.822 147.229 125.518 147.213 125.361 147.213L122.549 147.33C122.486 147.268 122.455 147.143 122.455 146.955C122.455 146.752 122.486 146.65 122.549 146.65C122.705 146.65 122.939 146.611 123.252 146.533C123.58 146.455 123.814 146.377 123.955 146.299C124.143 146.174 124.236 145.838 124.236 145.291V144.049L123.955 135.799C123.955 135.627 123.932 135.439 123.885 135.236C123.854 135.018 123.814 134.83 123.768 134.674C123.721 134.502 123.666 134.416 123.604 134.416C123.572 134.416 123.533 134.471 123.486 134.58L118.588 146.299C118.291 146.971 118.002 147.307 117.721 147.307C117.705 147.307 117.635 147.291 117.51 147.26L112.143 133.619C112.096 135.822 112.041 137.791 111.979 139.525C111.916 141.244 111.861 142.627 111.814 143.674C111.783 144.721 111.768 145.33 111.768 145.502C111.768 145.783 111.814 145.986 111.908 146.111C111.971 146.189 112.127 146.275 112.377 146.369C112.627 146.447 112.885 146.518 113.15 146.58C113.432 146.627 113.619 146.65 113.713 146.65C113.775 146.65 113.807 146.768 113.807 147.002C113.807 147.096 113.791 147.205 113.76 147.33C112.979 147.299 112.361 147.275 111.908 147.26C111.455 147.229 111.166 147.213 111.041 147.213L108.299 147.33ZM134.502 147.4C133.643 147.4 132.854 147.174 132.135 146.721C131.416 146.268 130.838 145.666 130.4 144.916C129.979 144.15 129.768 143.299 129.768 142.361C129.768 141.268 129.971 140.322 130.377 139.525C130.783 138.729 131.338 138.119 132.041 137.697C132.744 137.26 133.533 137.041 134.408 137.041C135.127 137.041 135.76 137.182 136.307 137.463C136.854 137.729 137.275 138.072 137.572 138.494C137.854 138.932 138.057 139.377 138.182 139.83C138.322 140.268 138.393 140.705 138.393 141.143C138.393 141.455 138.346 141.65 138.252 141.729C138.158 141.791 137.979 141.822 137.713 141.822H131.807C131.682 141.822 131.619 141.861 131.619 141.939C131.619 142.596 131.752 143.229 132.018 143.838C132.283 144.432 132.674 144.924 133.189 145.314C133.705 145.705 134.338 145.9 135.088 145.9C135.744 145.9 136.291 145.807 136.729 145.619C137.182 145.416 137.51 145.236 137.713 145.08L137.877 144.963C137.971 144.963 138.018 145.064 138.018 145.268C138.018 145.377 137.971 145.518 137.877 145.689C137.564 146.127 137.104 146.525 136.494 146.885C135.885 147.229 135.221 147.4 134.502 147.4ZM131.807 140.838H136.377C136.455 140.838 136.494 140.76 136.494 140.604C136.494 140.26 136.4 139.885 136.213 139.479C136.041 139.057 135.775 138.689 135.416 138.377C135.057 138.064 134.604 137.908 134.057 137.908C133.557 137.908 133.127 138.08 132.768 138.424C132.408 138.752 132.135 139.135 131.947 139.572C131.76 139.994 131.666 140.361 131.666 140.674C131.666 140.783 131.713 140.838 131.807 140.838ZM147.158 147.4C147.064 147.4 147.018 147.268 147.018 147.002V146.721C147.018 146.643 146.986 146.611 146.924 146.627C146.064 147.111 145.236 147.354 144.439 147.354C143.58 147.354 142.799 147.143 142.096 146.721C141.408 146.283 140.861 145.713 140.455 145.01C140.064 144.291 139.869 143.51 139.869 142.666C139.869 141.916 140.01 141.197 140.291 140.51C140.588 139.822 140.979 139.213 141.463 138.682C141.963 138.135 142.525 137.713 143.15 137.416C143.775 137.104 144.424 136.947 145.096 136.947C145.768 136.947 146.354 137.08 146.854 137.346C146.963 137.346 147.018 137.205 147.018 136.924V134.393C147.018 133.861 146.971 133.361 146.877 132.893C146.814 132.643 146.416 132.518 145.682 132.518H145.471C145.377 132.518 145.33 132.432 145.33 132.26C145.33 132.01 145.377 131.885 145.471 131.885C146.346 131.807 147.033 131.689 147.533 131.533C148.049 131.377 148.416 131.221 148.635 131.064L148.729 130.994H148.775C148.838 130.994 148.9 131.041 148.963 131.135C149.025 131.213 149.064 131.291 149.08 131.369C148.908 131.885 148.822 132.564 148.822 133.408V143.955C148.822 144.689 148.869 145.283 148.963 145.736C149.01 145.893 149.143 145.994 149.361 146.041C149.596 146.072 149.838 146.104 150.088 146.135L150.299 146.158C150.346 146.174 150.369 146.268 150.369 146.439C150.369 146.674 150.322 146.791 150.229 146.791C149.713 146.822 149.182 146.908 148.635 147.049C148.088 147.174 147.666 147.275 147.369 147.354L147.158 147.4ZM145.33 146.205C145.861 146.205 146.275 146.088 146.572 145.854C146.869 145.604 147.018 145.275 147.018 144.869V139.291C147.018 138.963 146.838 138.658 146.479 138.377C146.135 138.08 145.572 137.932 144.791 137.932C144.197 137.932 143.682 138.119 143.244 138.494C142.807 138.869 142.471 139.369 142.236 139.994C142.002 140.604 141.885 141.268 141.885 141.986C141.885 142.736 142.018 143.432 142.283 144.072C142.564 144.713 142.963 145.229 143.479 145.619C143.994 146.01 144.611 146.205 145.33 146.205ZM156.229 147.4C155.369 147.4 154.58 147.174 153.861 146.721C153.143 146.268 152.564 145.666 152.127 144.916C151.705 144.15 151.494 143.299 151.494 142.361C151.494 141.268 151.697 140.322 152.104 139.525C152.51 138.729 153.064 138.119 153.768 137.697C154.471 137.26 155.26 137.041 156.135 137.041C156.854 137.041 157.486 137.182 158.033 137.463C158.58 137.729 159.002 138.072 159.299 138.494C159.58 138.932 159.783 139.377 159.908 139.83C160.049 140.268 160.119 140.705 160.119 141.143C160.119 141.455 160.072 141.65 159.979 141.729C159.885 141.791 159.705 141.822 159.439 141.822H153.533C153.408 141.822 153.346 141.861 153.346 141.939C153.346 142.596 153.479 143.229 153.744 143.838C154.01 144.432 154.4 144.924 154.916 145.314C155.432 145.705 156.064 145.9 156.814 145.9C157.471 145.9 158.018 145.807 158.455 145.619C158.908 145.416 159.236 145.236 159.439 145.08L159.604 144.963C159.697 144.963 159.744 145.064 159.744 145.268C159.744 145.377 159.697 145.518 159.604 145.689C159.291 146.127 158.83 146.525 158.221 146.885C157.611 147.229 156.947 147.4 156.229 147.4ZM153.533 140.838H158.104C158.182 140.838 158.221 140.76 158.221 140.604C158.221 140.26 158.127 139.885 157.939 139.479C157.768 139.057 157.502 138.689 157.143 138.377C156.783 138.064 156.33 137.908 155.783 137.908C155.283 137.908 154.854 138.08 154.494 138.424C154.135 138.752 153.861 139.135 153.674 139.572C153.486 139.994 153.393 140.361 153.393 140.674C153.393 140.783 153.439 140.838 153.533 140.838ZM161.549 147.33C161.486 147.268 161.455 147.135 161.455 146.932C161.455 146.744 161.486 146.65 161.549 146.65C161.674 146.65 161.846 146.627 162.064 146.58C162.283 146.533 162.486 146.471 162.674 146.393C162.861 146.314 162.963 146.244 162.979 146.182C163.041 145.963 163.08 145.713 163.096 145.432C163.127 145.15 163.143 144.854 163.143 144.541V140.111C163.143 139.518 163.033 139.096 162.814 138.846C162.658 138.643 162.471 138.518 162.252 138.471C162.033 138.408 161.846 138.377 161.689 138.377C161.533 138.361 161.455 138.338 161.455 138.307C161.455 137.932 161.502 137.736 161.596 137.721C162.424 137.596 163.057 137.494 163.494 137.416C163.932 137.322 164.322 137.236 164.666 137.158L164.947 137.088C165.01 137.072 165.049 137.135 165.064 137.275C165.08 137.416 165.08 137.518 165.064 137.58C165.033 137.893 165.002 138.189 164.971 138.471C164.955 138.752 164.947 139.018 164.947 139.268V144.096C164.947 144.549 164.963 144.947 164.994 145.291C165.025 145.635 165.072 145.932 165.135 146.182C165.166 146.244 165.275 146.314 165.463 146.393C165.65 146.471 165.854 146.533 166.072 146.58C166.291 146.627 166.447 146.65 166.541 146.65C166.588 146.65 166.619 146.744 166.635 146.932C166.65 147.119 166.643 147.252 166.611 147.33L164.104 147.213L161.549 147.33ZM163.869 134.533C163.557 134.533 163.283 134.416 163.049 134.182C162.814 133.947 162.697 133.674 162.697 133.361C162.697 133.033 162.814 132.76 163.049 132.541C163.283 132.307 163.557 132.189 163.869 132.189C164.197 132.189 164.471 132.307 164.689 132.541C164.924 132.76 165.041 133.033 165.041 133.361C165.041 133.674 164.924 133.947 164.689 134.182C164.471 134.416 164.197 134.533 163.869 134.533ZM168.182 147.33C168.119 147.268 168.088 147.135 168.088 146.932C168.088 146.744 168.119 146.65 168.182 146.65C168.307 146.65 168.479 146.627 168.697 146.58C168.916 146.533 169.119 146.471 169.307 146.393C169.494 146.314 169.596 146.244 169.611 146.182C169.674 145.963 169.713 145.713 169.729 145.432C169.76 145.15 169.775 144.854 169.775 144.541V140.111C169.775 139.518 169.666 139.096 169.447 138.846C169.291 138.658 169.104 138.533 168.885 138.471C168.682 138.408 168.494 138.377 168.322 138.377C168.166 138.361 168.088 138.338 168.088 138.307C168.088 137.932 168.135 137.736 168.229 137.721C169.932 137.455 170.916 137.283 171.182 137.205L171.58 137.088C171.643 137.072 171.682 137.135 171.697 137.275C171.713 137.416 171.713 137.518 171.697 137.58L171.557 138.752C171.838 138.33 172.221 137.939 172.705 137.58C173.205 137.205 173.697 137.018 174.182 137.018C175.088 137.018 175.697 137.244 176.01 137.697C176.01 138.244 175.924 138.643 175.752 138.893C175.58 139.143 175.369 139.268 175.119 139.268C174.838 139.268 174.58 139.135 174.346 138.869C174.111 138.604 173.791 138.471 173.385 138.471C173.072 138.471 172.775 138.58 172.494 138.799C172.213 139.002 171.986 139.268 171.814 139.596C171.658 139.908 171.58 140.236 171.58 140.58V144.096C171.58 144.549 171.596 144.947 171.627 145.291C171.658 145.635 171.705 145.932 171.768 146.182C171.799 146.244 171.908 146.314 172.096 146.393C172.283 146.471 172.486 146.533 172.705 146.58C172.939 146.627 173.104 146.65 173.197 146.65C173.244 146.65 173.275 146.744 173.291 146.932C173.307 147.119 173.299 147.252 173.268 147.33L170.736 147.213L168.182 147.33ZM182.221 147.424C181.283 147.424 180.424 147.189 179.643 146.721C178.861 146.252 178.236 145.619 177.768 144.822C177.314 144.025 177.088 143.15 177.088 142.197C177.088 141.229 177.307 140.354 177.744 139.572C178.197 138.791 178.807 138.174 179.572 137.721C180.338 137.252 181.205 137.018 182.174 137.018C183.111 137.018 183.963 137.252 184.729 137.721C185.51 138.189 186.127 138.814 186.58 139.596C187.049 140.377 187.283 141.244 187.283 142.197C187.283 143.15 187.057 144.025 186.604 144.822C186.15 145.619 185.541 146.252 184.775 146.721C184.025 147.189 183.174 147.424 182.221 147.424ZM182.432 146.51C182.994 146.51 183.486 146.33 183.908 145.971C184.33 145.611 184.658 145.127 184.893 144.518C185.143 143.908 185.268 143.244 185.268 142.525C185.268 141.682 185.111 140.916 184.799 140.229C184.486 139.525 184.072 138.971 183.557 138.564C183.057 138.143 182.51 137.932 181.916 137.932C181.369 137.932 180.877 138.111 180.439 138.471C180.018 138.814 179.689 139.283 179.455 139.877C179.221 140.455 179.104 141.111 179.104 141.846C179.104 142.689 179.252 143.471 179.549 144.189C179.861 144.893 180.268 145.455 180.768 145.877C181.283 146.299 181.838 146.51 182.432 146.51ZM192.275 147.518C191.791 147.518 191.354 147.463 190.963 147.354C190.572 147.244 190.096 147.15 189.533 147.072C189.471 146.9 189.408 146.666 189.346 146.369C189.283 146.072 189.229 145.76 189.182 145.432C189.15 145.104 189.135 144.838 189.135 144.635C189.26 144.541 189.354 144.494 189.416 144.494C189.65 144.494 189.775 144.541 189.791 144.635C189.854 144.947 190.01 145.26 190.26 145.572C190.51 145.885 190.814 146.15 191.174 146.369C191.533 146.572 191.9 146.674 192.275 146.674C192.775 146.674 193.182 146.541 193.494 146.275C193.822 145.994 193.986 145.596 193.986 145.08C193.986 144.533 193.775 144.08 193.354 143.721C193.025 143.455 192.744 143.268 192.51 143.158C192.291 143.033 192.072 142.924 191.854 142.83C191.65 142.721 191.393 142.572 191.08 142.385C189.861 141.682 189.252 140.846 189.252 139.877C189.252 139.314 189.408 138.822 189.721 138.4C190.033 137.963 190.447 137.627 190.963 137.393C191.494 137.143 192.057 137.018 192.65 137.018C192.822 137.018 193.018 137.033 193.236 137.064C193.455 137.08 193.697 137.104 193.963 137.135C194.229 137.182 194.447 137.221 194.619 137.252C194.791 137.283 194.932 137.307 195.041 137.322C195.213 138.041 195.307 138.838 195.322 139.713C195.322 139.791 195.221 139.83 195.018 139.83C194.799 139.83 194.682 139.775 194.666 139.666C194.588 139.229 194.361 138.814 193.986 138.424C193.627 138.033 193.213 137.838 192.744 137.838C191.619 137.838 191.057 138.299 191.057 139.221C191.057 139.455 191.08 139.666 191.127 139.854C191.189 140.025 191.322 140.189 191.525 140.346C192.01 140.721 192.58 141.096 193.236 141.471C193.908 141.846 194.463 142.197 194.9 142.525C195.557 143.025 195.885 143.611 195.885 144.283C195.885 144.893 195.721 145.447 195.393 145.947C195.064 146.432 194.627 146.814 194.08 147.096C193.533 147.377 192.932 147.518 192.275 147.518Z" fill="#E7EEDA"/>
</g>
<g filter="url(#filter3_d_84_2508)">
<path d="M118.747 183.118C118.708 183.079 118.688 182.962 118.688 182.767C118.688 182.598 118.708 182.513 118.747 182.513C118.877 182.513 119.033 182.493 119.215 182.454C119.411 182.415 119.593 182.37 119.762 182.318C119.944 182.253 120.055 182.181 120.094 182.103C120.185 181.96 120.231 181.348 120.231 180.267V172.884C120.231 172.506 120.218 172.174 120.192 171.888C120.179 171.601 120.146 171.374 120.094 171.204C120.068 171.126 119.964 171.055 119.782 170.99C119.612 170.924 119.424 170.872 119.215 170.833C119.02 170.794 118.864 170.775 118.747 170.775C118.694 170.775 118.668 170.697 118.668 170.54C118.668 170.371 118.694 170.26 118.747 170.208L121.09 170.247C121.286 170.247 121.5 170.247 121.735 170.247C121.969 170.234 122.217 170.221 122.477 170.208C122.737 170.195 122.985 170.189 123.219 170.189C123.454 170.176 123.662 170.169 123.844 170.169C124.274 170.169 124.71 170.234 125.153 170.365C125.596 170.495 126.019 170.69 126.422 170.95C126.839 171.211 127.171 171.582 127.418 172.064C127.679 172.545 127.809 173.105 127.809 173.743C127.809 174.147 127.724 174.577 127.555 175.032C127.386 175.488 127.132 175.918 126.793 176.322C126.468 176.712 126.051 177.031 125.543 177.279C125.049 177.526 124.476 177.65 123.825 177.65C123.096 177.65 122.594 177.467 122.321 177.103C122.243 177.012 122.223 176.862 122.262 176.654C122.288 176.588 122.308 176.569 122.321 176.595C122.724 176.738 123.161 176.81 123.629 176.81C124.072 176.81 124.469 176.686 124.821 176.439C125.185 176.178 125.472 175.84 125.68 175.423C125.902 174.993 126.012 174.531 126.012 174.036C126.012 173.112 125.81 172.383 125.407 171.849C125.003 171.302 124.378 171.029 123.532 171.029C122.933 171.029 122.477 171.074 122.165 171.165C122.047 171.178 121.976 171.38 121.95 171.771C121.937 172.161 121.93 172.676 121.93 173.314V180.286C121.93 181.146 121.982 181.712 122.086 181.986C122.139 182.09 122.262 182.187 122.458 182.279C122.666 182.37 122.887 182.441 123.122 182.493C123.356 182.532 123.525 182.552 123.629 182.552C123.681 182.552 123.708 182.643 123.708 182.825C123.708 182.917 123.694 183.014 123.668 183.118C123.017 183.092 122.477 183.073 122.047 183.06C121.631 183.034 121.325 183.021 121.129 183.021L118.747 183.118ZM132.946 183.197C132.165 183.197 131.448 183.001 130.797 182.611C130.146 182.22 129.625 181.693 129.235 181.029C128.857 180.365 128.668 179.635 128.668 178.841C128.668 178.034 128.851 177.305 129.215 176.654C129.593 176.003 130.101 175.488 130.739 175.111C131.377 174.72 132.099 174.525 132.907 174.525C133.688 174.525 134.398 174.72 135.036 175.111C135.687 175.501 136.201 176.022 136.579 176.673C136.969 177.324 137.165 178.047 137.165 178.841C137.165 179.635 136.976 180.365 136.598 181.029C136.221 181.693 135.713 182.22 135.075 182.611C134.45 183.001 133.74 183.197 132.946 183.197ZM133.122 182.435C133.59 182.435 134 182.285 134.352 181.986C134.704 181.686 134.977 181.282 135.172 180.775C135.381 180.267 135.485 179.713 135.485 179.115C135.485 178.411 135.355 177.773 135.094 177.2C134.834 176.615 134.489 176.152 134.059 175.814C133.642 175.462 133.187 175.286 132.692 175.286C132.236 175.286 131.826 175.436 131.461 175.736C131.11 176.022 130.836 176.413 130.641 176.907C130.446 177.389 130.348 177.936 130.348 178.548C130.348 179.251 130.472 179.902 130.719 180.501C130.98 181.087 131.318 181.556 131.735 181.907C132.165 182.259 132.627 182.435 133.122 182.435ZM138.629 183.118C138.577 183.066 138.551 182.956 138.551 182.786C138.551 182.63 138.577 182.552 138.629 182.552C138.734 182.552 138.877 182.532 139.059 182.493C139.241 182.454 139.411 182.402 139.567 182.337C139.723 182.272 139.808 182.213 139.821 182.161C139.873 181.979 139.905 181.771 139.918 181.536C139.944 181.302 139.958 181.055 139.958 180.794V177.103C139.958 176.608 139.866 176.256 139.684 176.048C139.554 175.892 139.398 175.788 139.215 175.736C139.046 175.684 138.89 175.657 138.747 175.657C138.616 175.644 138.551 175.625 138.551 175.599C138.551 175.286 138.59 175.124 138.668 175.111C140.088 174.889 140.908 174.746 141.129 174.681L141.461 174.583C141.514 174.57 141.546 174.622 141.559 174.74C141.572 174.857 141.572 174.941 141.559 174.993L141.442 175.97C141.676 175.618 141.995 175.293 142.399 174.993C142.816 174.681 143.226 174.525 143.629 174.525C144.385 174.525 144.892 174.713 145.153 175.091C145.153 175.547 145.081 175.879 144.938 176.087C144.795 176.295 144.619 176.4 144.411 176.4C144.176 176.4 143.961 176.289 143.766 176.068C143.571 175.846 143.304 175.736 142.965 175.736C142.705 175.736 142.458 175.827 142.223 176.009C141.989 176.178 141.8 176.4 141.657 176.673C141.527 176.934 141.461 177.207 141.461 177.493V180.423C141.461 180.801 141.474 181.133 141.5 181.419C141.527 181.706 141.566 181.953 141.618 182.161C141.644 182.213 141.735 182.272 141.891 182.337C142.047 182.402 142.217 182.454 142.399 182.493C142.594 182.532 142.731 182.552 142.809 182.552C142.848 182.552 142.874 182.63 142.887 182.786C142.9 182.943 142.894 183.053 142.868 183.118L140.758 183.021L138.629 183.118ZM149.176 183.197C148.525 183.197 147.978 182.982 147.536 182.552C147.106 182.122 146.891 181.51 146.891 180.716V175.755H145.758C145.693 175.755 145.661 175.618 145.661 175.345C145.661 175.267 145.667 175.221 145.68 175.208C146.071 175.026 146.481 174.681 146.911 174.173C147.21 173.822 147.431 173.516 147.575 173.255C147.731 172.995 147.809 172.838 147.809 172.786C148.2 172.786 148.395 172.819 148.395 172.884V174.818L149.938 174.837H151.032C151.136 174.837 151.188 174.896 151.188 175.013C151.188 175.26 151.123 175.508 150.993 175.755H148.395V180.54C148.395 181.061 148.525 181.478 148.786 181.79C149.059 182.103 149.411 182.259 149.84 182.259C150.244 182.259 150.648 182.135 151.051 181.888C151.09 181.862 151.149 181.92 151.227 182.064C151.305 182.194 151.338 182.266 151.325 182.279C151.129 182.487 150.83 182.695 150.426 182.904C150.023 183.099 149.606 183.197 149.176 183.197ZM152.047 183.118C152.008 183.079 151.982 182.975 151.969 182.806C151.969 182.637 151.995 182.552 152.047 182.552C152.152 182.552 152.288 182.532 152.458 182.493C152.627 182.454 152.783 182.402 152.926 182.337C153.083 182.272 153.167 182.213 153.18 182.161C153.245 181.901 153.291 181.628 153.317 181.341C153.356 181.055 153.375 180.749 153.375 180.423V175.931C153.375 175.84 153.343 175.794 153.278 175.794H152.243C152.204 175.794 152.184 175.755 152.184 175.677C152.184 175.56 152.282 175.397 152.477 175.189C152.685 174.98 152.913 174.876 153.161 174.876H153.278C153.343 174.876 153.375 174.837 153.375 174.759V174.505C153.375 173.815 153.486 173.17 153.708 172.572C153.929 171.973 154.222 171.439 154.586 170.97C154.964 170.501 155.381 170.137 155.836 169.876C156.305 169.616 156.78 169.486 157.262 169.486C158.213 169.486 158.831 169.74 159.118 170.247C159.118 171.068 158.883 171.478 158.415 171.478C158.271 171.478 158.141 171.419 158.024 171.302C157.907 171.172 157.783 171.029 157.653 170.872C157.536 170.703 157.392 170.56 157.223 170.443C157.067 170.312 156.878 170.247 156.657 170.247C156.279 170.247 155.954 170.41 155.68 170.736C155.407 171.061 155.198 171.491 155.055 172.025C154.925 172.559 154.86 173.144 154.86 173.782V174.779C154.86 174.844 154.892 174.876 154.958 174.876H157.125C157.191 174.876 157.223 174.922 157.223 175.013C157.223 175.221 157.145 175.482 156.989 175.794H154.977C154.899 175.794 154.86 175.833 154.86 175.911V180.423C154.86 181.126 154.918 181.706 155.036 182.161C155.062 182.213 155.146 182.272 155.29 182.337C155.433 182.402 155.589 182.454 155.758 182.493C155.928 182.532 156.051 182.552 156.129 182.552C156.168 182.552 156.194 182.63 156.208 182.786C156.221 182.943 156.214 183.053 156.188 183.118L154.098 183.021L152.047 183.118ZM162.34 183.197C161.559 183.197 160.843 183.001 160.192 182.611C159.541 182.22 159.02 181.693 158.629 181.029C158.252 180.365 158.063 179.635 158.063 178.841C158.063 178.034 158.245 177.305 158.61 176.654C158.987 176.003 159.495 175.488 160.133 175.111C160.771 174.72 161.494 174.525 162.301 174.525C163.083 174.525 163.792 174.72 164.43 175.111C165.081 175.501 165.596 176.022 165.973 176.673C166.364 177.324 166.559 178.047 166.559 178.841C166.559 179.635 166.37 180.365 165.993 181.029C165.615 181.693 165.107 182.22 164.469 182.611C163.844 183.001 163.135 183.197 162.34 183.197ZM162.516 182.435C162.985 182.435 163.395 182.285 163.747 181.986C164.098 181.686 164.372 181.282 164.567 180.775C164.775 180.267 164.879 179.713 164.879 179.115C164.879 178.411 164.749 177.773 164.489 177.2C164.228 176.615 163.883 176.152 163.454 175.814C163.037 175.462 162.581 175.286 162.086 175.286C161.631 175.286 161.221 175.436 160.856 175.736C160.504 176.022 160.231 176.413 160.036 176.907C159.84 177.389 159.743 177.936 159.743 178.548C159.743 179.251 159.866 179.902 160.114 180.501C160.374 181.087 160.713 181.556 161.129 181.907C161.559 182.259 162.021 182.435 162.516 182.435ZM167.672 183.118C167.62 183.066 167.594 182.956 167.594 182.786C167.594 182.63 167.62 182.552 167.672 182.552C167.777 182.552 167.92 182.532 168.102 182.493C168.284 182.454 168.454 182.402 168.61 182.337C168.766 182.272 168.851 182.213 168.864 182.161C168.916 181.979 168.948 181.771 168.961 181.536C168.987 181.302 169 181.055 169 180.794V172.337C169 171.894 168.961 171.478 168.883 171.087C168.831 170.879 168.499 170.775 167.887 170.775H167.711C167.633 170.775 167.594 170.703 167.594 170.56C167.594 170.351 167.633 170.247 167.711 170.247C168.493 170.156 169.072 170.052 169.45 169.935C169.827 169.818 170.088 169.713 170.231 169.622L170.426 169.505H170.465C170.517 169.505 170.569 169.544 170.622 169.622C170.674 169.687 170.706 169.753 170.719 169.818C170.576 170.247 170.504 170.814 170.504 171.517V180.423C170.504 180.801 170.517 181.133 170.543 181.419C170.569 181.706 170.609 181.953 170.661 182.161C170.687 182.213 170.778 182.272 170.934 182.337C171.09 182.402 171.26 182.454 171.442 182.493C171.624 182.532 171.754 182.552 171.833 182.552C171.872 182.552 171.898 182.63 171.911 182.786C171.924 182.943 171.917 183.053 171.891 183.118L169.801 183.021L167.672 183.118ZM172.907 183.118C172.855 183.066 172.829 182.956 172.829 182.786C172.829 182.63 172.855 182.552 172.907 182.552C173.011 182.552 173.154 182.532 173.336 182.493C173.519 182.454 173.688 182.402 173.844 182.337C174 182.272 174.085 182.213 174.098 182.161C174.15 181.979 174.183 181.771 174.196 181.536C174.222 181.302 174.235 181.055 174.235 180.794V177.103C174.235 176.608 174.144 176.256 173.961 176.048C173.831 175.879 173.675 175.775 173.493 175.736C173.31 175.684 173.154 175.657 173.024 175.657C172.894 175.644 172.829 175.625 172.829 175.599C172.829 175.286 172.868 175.124 172.946 175.111C173.636 175.006 174.163 174.922 174.528 174.857C174.892 174.779 175.218 174.707 175.504 174.642L175.739 174.583C175.791 174.57 175.823 174.622 175.836 174.74C175.849 174.857 175.849 174.941 175.836 174.993C175.81 175.254 175.784 175.501 175.758 175.736C175.745 175.97 175.739 176.191 175.739 176.4V180.423C175.739 180.801 175.752 181.133 175.778 181.419C175.804 181.706 175.843 181.953 175.895 182.161C175.921 182.213 176.012 182.272 176.168 182.337C176.325 182.402 176.494 182.454 176.676 182.493C176.859 182.532 176.989 182.552 177.067 182.552C177.106 182.552 177.132 182.63 177.145 182.786C177.158 182.943 177.152 183.053 177.125 183.118L175.036 183.021L172.907 183.118ZM174.84 172.454C174.58 172.454 174.352 172.357 174.157 172.161C173.961 171.966 173.864 171.738 173.864 171.478C173.864 171.204 173.961 170.976 174.157 170.794C174.352 170.599 174.58 170.501 174.84 170.501C175.114 170.501 175.342 170.599 175.524 170.794C175.719 170.976 175.817 171.204 175.817 171.478C175.817 171.738 175.719 171.966 175.524 172.161C175.342 172.357 175.114 172.454 174.84 172.454ZM182.711 183.197C181.93 183.197 181.214 183.001 180.563 182.611C179.912 182.22 179.391 181.693 179 181.029C178.623 180.365 178.434 179.635 178.434 178.841C178.434 178.034 178.616 177.305 178.981 176.654C179.359 176.003 179.866 175.488 180.504 175.111C181.142 174.72 181.865 174.525 182.672 174.525C183.454 174.525 184.163 174.72 184.801 175.111C185.452 175.501 185.967 176.022 186.344 176.673C186.735 177.324 186.93 178.047 186.93 178.841C186.93 179.635 186.741 180.365 186.364 181.029C185.986 181.693 185.478 182.22 184.84 182.611C184.215 183.001 183.506 183.197 182.711 183.197ZM182.887 182.435C183.356 182.435 183.766 182.285 184.118 181.986C184.469 181.686 184.743 181.282 184.938 180.775C185.146 180.267 185.25 179.713 185.25 179.115C185.25 178.411 185.12 177.773 184.86 177.2C184.599 176.615 184.254 176.152 183.825 175.814C183.408 175.462 182.952 175.286 182.458 175.286C182.002 175.286 181.592 175.436 181.227 175.736C180.875 176.022 180.602 176.413 180.407 176.907C180.211 177.389 180.114 177.936 180.114 178.548C180.114 179.251 180.237 179.902 180.485 180.501C180.745 181.087 181.084 181.556 181.5 181.907C181.93 182.259 182.392 182.435 182.887 182.435Z" fill="#E7EEDA"/>
</g>
<g filter="url(#filter4_d_84_2508)">
<path d="M46.7539 85.7191C45.5533 83.7986 46.8881 81.2917 49.1807 81.1615L69.3083 80.0184C69.7486 79.9934 70.1789 79.8736 70.5689 79.6673L88.315 70.2834C90.1935 69.29 92.4796 70.4616 92.7216 72.5417L95.0078 92.192C95.058 92.6238 95.2036 93.0387 95.4342 93.4076L105.975 110.268C107.176 112.188 105.841 114.695 103.549 114.826L83.421 115.969C82.9807 115.994 82.5504 116.114 82.1604 116.32L64.4143 125.704C62.5358 126.697 60.2497 125.526 60.0077 123.445L57.7215 103.795C57.6713 103.363 57.5257 102.948 57.2952 102.58L46.7539 85.7191Z" fill="#CCE66F"/>
</g>
<g filter="url(#filter5_d_84_2508)">
<path d="M46.509 110.31C44.2767 109.802 43.4334 107.114 44.9758 105.422L58.5169 90.5702C58.8131 90.2454 59.0343 89.861 59.1648 89.4442L65.1039 70.48C65.7326 68.4725 68.2028 67.6977 69.8654 68.9864L85.5721 81.1607C85.9173 81.4283 86.3184 81.6174 86.7471 81.7149L106.345 86.1716C108.577 86.6792 109.421 89.3678 107.878 91.0594L94.337 105.911C94.0408 106.236 93.8197 106.62 93.6891 107.037L87.75 126.001C87.1213 128.009 84.6512 128.784 82.9885 127.495L67.2818 115.321C66.9366 115.053 66.5356 114.864 66.1069 114.767L46.509 110.31Z" fill="#D7ECBE"/>
</g>
<path d="M51.3733 97.9203C50.2269 97.0382 50.3937 95.2743 51.6878 94.5958L58.9819 90.7714C59.7226 90.383 60.1473 89.5854 60.0491 88.7671L59.0821 80.709C58.9105 79.2794 60.291 78.1374 61.6838 78.5567L69.5347 80.92C70.332 81.16 71.2009 80.8875 71.7183 80.2351L76.8127 73.8111C77.7165 72.6714 79.5019 72.8203 80.1776 74.0917L83.9864 81.2584C84.3732 81.9862 85.1773 82.3983 86.0072 82.294L94.1788 81.2671C95.6285 81.0849 96.773 82.4375 96.3357 83.8164L93.8713 91.5882C93.621 92.3774 93.8893 93.2329 94.5455 93.7378L101.007 98.7096C102.154 99.5916 101.987 101.356 100.693 102.034L93.3989 105.858C92.6582 106.247 92.2335 107.044 92.3317 107.863L93.2987 115.921C93.4702 117.35 92.0898 118.492 90.6969 118.073L82.8461 115.71C82.0488 115.47 81.1798 115.742 80.6625 116.395L75.5681 122.819C74.6643 123.958 72.8789 123.81 72.2032 122.538L68.3944 115.371C68.0076 114.644 67.2034 114.232 66.3736 114.336L58.202 115.363C56.7523 115.545 55.6078 114.192 56.045 112.813L58.5095 105.042C58.7598 104.252 58.4915 103.397 57.8353 102.892L51.3733 97.9203Z" fill="#FBF3E6"/>
<g filter="url(#filter6_d_84_2508)">
<path d="M58.992 91.3841C58.2787 90.1331 59.1161 88.5604 60.5702 88.4201L65.8932 87.9066C66.7255 87.8263 67.4257 87.2471 67.6525 86.4512L69.1032 81.3612C69.4995 79.9707 71.2128 79.4332 72.3323 80.3482L76.4303 83.6977C77.0711 84.2215 77.9766 84.297 78.7057 83.8875L83.3683 81.2687C84.6421 80.5533 86.2277 81.366 86.3568 82.8003L86.8292 88.0507C86.9031 88.8717 87.4836 89.5577 88.2878 89.7745L93.431 91.161C94.8361 91.5398 95.3652 93.2265 94.4282 94.3399L90.9983 98.4156C90.462 99.0529 90.3774 99.9476 90.7857 100.664L93.3967 105.243C94.11 106.494 93.2726 108.067 91.8185 108.207L86.4955 108.721C85.6631 108.801 84.963 109.38 84.7362 110.176L83.2855 115.266C82.8892 116.657 81.1759 117.194 80.0564 116.279L75.9583 112.93C75.3176 112.406 74.4121 112.33 73.683 112.74L69.0204 115.359C67.7466 116.074 66.161 115.261 66.0319 113.827L65.5595 108.577C65.4856 107.756 64.9051 107.07 64.1009 106.853L58.9577 105.466C57.5526 105.088 57.0235 103.401 57.9605 102.288L61.3903 98.2118C61.9267 97.5745 62.0113 96.6798 61.603 95.9638L58.992 91.3841Z" fill="#FBFFFB"/>
</g>
<g filter="url(#filter7_d_84_2508)">
<path d="M62.0276 98.3746C60.8811 97.4926 61.048 95.7286 62.3421 95.0501L65.1237 93.5917C65.8644 93.2033 66.2891 92.4057 66.1909 91.5874L65.8221 88.5145C65.6506 87.0849 67.031 85.9429 68.4239 86.3622L71.4178 87.2634C72.215 87.5034 73.084 87.2308 73.6013 86.5785L75.5441 84.1287C76.4479 82.989 78.2333 83.1379 78.909 84.4093L80.3615 87.1424C80.7483 87.8701 81.5525 88.2823 82.3823 88.178L85.4985 87.7864C86.9483 87.6042 88.0928 88.9568 87.6555 90.3356L86.7157 93.2994C86.4654 94.0886 86.7338 94.9441 87.39 95.4489L89.8542 97.3449C91.0007 98.227 90.8338 99.991 89.5397 100.669L86.7581 102.128C86.0174 102.516 85.5927 103.314 85.6909 104.132L86.0597 107.205C86.2312 108.635 84.8508 109.777 83.4579 109.357L80.464 108.456C79.6667 108.216 78.7978 108.489 78.2804 109.141L76.3377 111.591C75.4339 112.731 73.6485 112.582 72.9728 111.31L71.5203 108.577C71.1335 107.849 70.3293 107.437 69.4995 107.542L66.3833 107.933C64.9335 108.115 63.789 106.763 64.2263 105.384L65.1661 102.42C65.4164 101.631 65.148 100.776 64.4918 100.271L62.0276 98.3746Z" fill="#F2F38D"/>
</g>
<g filter="url(#filter8_i_84_2508)">
<ellipse cx="5.44069" cy="5.44069" rx="5.44069" ry="5.44069" transform="matrix(0.469995 -0.882669 0.889938 0.456082 68.6431 100.149)" fill="#FAB71C"/>
</g>
<path d="M78.3641 93.4671C80.7925 94.7116 81.7214 97.673 80.439 100.081C79.1565 102.49 76.1483 103.434 73.7199 102.189C71.2916 100.945 70.3627 97.9833 71.6451 95.5748C72.9276 93.1662 75.9358 92.2226 78.3641 93.4671Z" stroke="#F2C03E"/>
<defs>
<filter id="filter0_d_84_2508" x="9.01611" y="91.3373" width="74.168" height="73.4308" filterUnits="userSpaceOnUse" color-interpolation-filters="sRGB">
<feFlood flood-opacity="0" result="BackgroundImageFix"/>
<feColorMatrix in="SourceAlpha" type="matrix" values="0 0 0 0 0 0 0 0 0 0 0 0 0 0 0 0 0 0 127 0" result="hardAlpha"/>
<feOffset dy="4"/>
<feGaussianBlur stdDeviation="2"/>
<feComposite in2="hardAlpha" operator="out"/>
<feColorMatrix type="matrix" values="0 0 0 0 0.393333 0 0 0 0 0.0747333 0 0 0 0 0.303063 0 0 0 0.25 0"/>
<feBlend mode="normal" in2="BackgroundImageFix" result="effect1_dropShadow_84_2508"/>
<feBlend mode="normal" in="SourceGraphic" in2="effect1_dropShadow_84_2508" result="shape"/>
</filter>
<filter id="filter1_d_84_2508" x="68.8438" y="82.5051" width="150.503" height="139.615" filterUnits="userSpaceOnUse" color-interpolation-filters="sRGB">
<feFlood flood-opacity="0" result="BackgroundImageFix"/>
<feColorMatrix in="SourceAlpha" type="matrix" values="0 0 0 0 0 0 0 0 0 0 0 0 0 0 0 0 0 0 127 0" result="hardAlpha"/>
<feOffset dy="4"/>
<feGaussianBlur stdDeviation="2"/>
<feComposite in2="hardAlpha" operator="out"/>
<feColorMatrix type="matrix" values="0 0 0 0 0.393333 0 0 0 0 0.0747333 0 0 0 0 0.303063 0 0 0 0.25 0"/>
<feBlend mode="normal" in2="BackgroundImageFix" result="effect1_dropShadow_84_2508"/>
<feBlend mode="normal" in="SourceGraphic" in2="effect1_dropShadow_84_2508" result="shape"/>
</filter>
<filter id="filter2_d_84_2508" x="104.182" y="100.744" width="95.7031" height="54.7734" filterUnits="userSpaceOnUse" color-interpolation-filters="sRGB">
<feFlood flood-opacity="0" result="BackgroundImageFix"/>
<feColorMatrix in="SourceAlpha" type="matrix" values="0 0 0 0 0 0 0 0 0 0 0 0 0 0 0 0 0 0 127 0" result="hardAlpha"/>
<feOffset dy="4"/>
<feGaussianBlur stdDeviation="2"/>
<feComposite in2="hardAlpha" operator="out"/>
<feColorMatrix type="matrix" values="0 0 0 0 0 0 0 0 0 0 0 0 0 0 0 0 0 0 0.25 0"/>
<feBlend mode="normal" in2="BackgroundImageFix" result="effect1_dropShadow_84_2508"/>
<feBlend mode="normal" in="SourceGraphic" in2="effect1_dropShadow_84_2508" result="shape"/>
</filter>
<filter id="filter3_d_84_2508" x="114.668" y="169.486" width="76.2617" height="21.7109" filterUnits="userSpaceOnUse" color-interpolation-filters="sRGB">
<feFlood flood-opacity="0" result="BackgroundImageFix"/>
<feColorMatrix in="SourceAlpha" type="matrix" values="0 0 0 0 0 0 0 0 0 0 0 0 0 0 0 0 0 0 127 0" result="hardAlpha"/>
<feOffset dy="4"/>
<feGaussianBlur stdDeviation="2"/>
<feComposite in2="hardAlpha" operator="out"/>
<feColorMatrix type="matrix" values="0 0 0 0 0 0 0 0 0 0 0 0 0 0 0 0 0 0 0.25 0"/>
<feBlend mode="normal" in2="BackgroundImageFix" result="effect1_dropShadow_84_2508"/>
<feBlend mode="normal" in="SourceGraphic" in2="effect1_dropShadow_84_2508" result="shape"/>
</filter>
<filter id="filter4_d_84_2508" x="42.3037" y="69.9246" width="68.1216" height="64.1379" filterUnits="userSpaceOnUse" color-interpolation-filters="sRGB">
<feFlood flood-opacity="0" result="BackgroundImageFix"/>
<feColorMatrix in="SourceAlpha" type="matrix" values="0 0 0 0 0 0 0 0 0 0 0 0 0 0 0 0 0 0 127 0" result="hardAlpha"/>
<feOffset dy="4"/>
<feGaussianBlur stdDeviation="2"/>
<feComposite in2="hardAlpha" operator="out"/>
<feColorMatrix type="matrix" values="0 0 0 0 0.393333 0 0 0 0 0.0747333 0 0 0 0 0.303063 0 0 0 0.25 0"/>
<feBlend mode="normal" in2="BackgroundImageFix" result="effect1_dropShadow_84_2508"/>
<feBlend mode="normal" in="SourceGraphic" in2="effect1_dropShadow_84_2508" result="shape"/>
</filter>
<filter id="filter5_d_84_2508" x="40.1904" y="68.3547" width="72.4731" height="67.772" filterUnits="userSpaceOnUse" color-interpolation-filters="sRGB">
<feFlood flood-opacity="0" result="BackgroundImageFix"/>
<feColorMatrix in="SourceAlpha" type="matrix" values="0 0 0 0 0 0 0 0 0 0 0 0 0 0 0 0 0 0 127 0" result="hardAlpha"/>
<feOffset dy="4"/>
<feGaussianBlur stdDeviation="2"/>
<feComposite in2="hardAlpha" operator="out"/>
<feColorMatrix type="matrix" values="0 0 0 0 0.393333 0 0 0 0 0.0747333 0 0 0 0 0.303063 0 0 0 0.25 0"/>
<feBlend mode="normal" in2="BackgroundImageFix" result="effect1_dropShadow_84_2508"/>
<feBlend mode="normal" in="SourceGraphic" in2="effect1_dropShadow_84_2508" result="shape"/>
</filter>
<filter id="filter6_d_84_2508" x="53.4902" y="79.895" width="45.4087" height="44.8373" filterUnits="userSpaceOnUse" color-interpolation-filters="sRGB">
<feFlood flood-opacity="0" result="BackgroundImageFix"/>
<feColorMatrix in="SourceAlpha" type="matrix" values="0 0 0 0 0 0 0 0 0 0 0 0 0 0 0 0 0 0 127 0" result="hardAlpha"/>
<feOffset dy="4"/>
<feGaussianBlur stdDeviation="2"/>
<feComposite in2="hardAlpha" operator="out"/>
<feColorMatrix type="matrix" values="0 0 0 0 0.393333 0 0 0 0 0.0747333 0 0 0 0 0.303063 0 0 0 0.25 0"/>
<feBlend mode="normal" in2="BackgroundImageFix" result="effect1_dropShadow_84_2508"/>
<feBlend mode="normal" in="SourceGraphic" in2="effect1_dropShadow_84_2508" result="shape"/>
</filter>
<filter id="filter7_d_84_2508" x="57.2607" y="83.3577" width="37.3604" height="37.0043" filterUnits="userSpaceOnUse" color-interpolation-filters="sRGB">
<feFlood flood-opacity="0" result="BackgroundImageFix"/>
<feColorMatrix in="SourceAlpha" type="matrix" values="0 0 0 0 0 0 0 0 0 0 0 0 0 0 0 0 0 0 127 0" result="hardAlpha"/>
<feOffset dy="4"/>
<feGaussianBlur stdDeviation="2"/>
<feComposite in2="hardAlpha" operator="out"/>
<feColorMatrix type="matrix" values="0 0 0 0 0.393333 0 0 0 0 0.0747333 0 0 0 0 0.303063 0 0 0 0.25 0"/>
<feBlend mode="normal" in2="BackgroundImageFix" result="effect1_dropShadow_84_2508"/>
<feBlend mode="normal" in="SourceGraphic" in2="effect1_dropShadow_84_2508" result="shape"/>
</filter>
<filter id="filter8_i_84_2508" x="70.5654" y="92.4215" width="10.9531" height="14.8132" filterUnits="userSpaceOnUse" color-interpolation-filters="sRGB">
<feFlood flood-opacity="0" result="BackgroundImageFix"/>
<feBlend mode="normal" in="SourceGraphic" in2="BackgroundImageFix" result="shape"/>
<feColorMatrix in="SourceAlpha" type="matrix" values="0 0 0 0 0 0 0 0 0 0 0 0 0 0 0 0 0 0 127 0" result="hardAlpha"/>
<feOffset dy="4"/>
<feGaussianBlur stdDeviation="2"/>
<feComposite in2="hardAlpha" operator="arithmetic" k2="-1" k3="1"/>
<feColorMatrix type="matrix" values="0 0 0 0 0.393333 0 0 0 0 0.0747333 0 0 0 0 0.303063 0 0 0 0.25 0"/>
<feBlend mode="normal" in2="shape" result="effect1_innerShadow_84_2508"/>
</filter>
</defs>
</svg>
