<svg width="161" height="149" viewBox="0 0 161 149" fill="none" xmlns="http://www.w3.org/2000/svg">
<g filter="url(#filter0_d_32_162)">
<path d="M23.4618 118.519C12.1782 104.136 1.98058 74.6328 5.18811 56.5285C15.9338 28.5742 20.8559 27.8419 36.7479 16.2134C52.6398 4.585 72.4985 -1.13556 92.1235 0.261745C111.749 1.65905 127.574 3.18826 139.878 16.8243C152.182 30.4602 158.603 55.5454 156.656 73.7394C154.708 91.9334 146.572 108.686 131.47 121.19C116.368 133.694 96.8815 140.557 77.1315 140.328C57.3814 140.099 45.9772 138.005 32.7034 125.172L72.789 78.0057L23.4618 118.519Z" fill="#587637"/>
</g>
<defs>
<filter id="filter0_d_32_162" x="0.589355" y="0.0548706" width="160.41" height="148.279" filterUnits="userSpaceOnUse" color-interpolation-filters="sRGB">
<feFlood flood-opacity="0" result="BackgroundImageFix"/>
<feColorMatrix in="SourceAlpha" type="matrix" values="0 0 0 0 0 0 0 0 0 0 0 0 0 0 0 0 0 0 127 0" result="hardAlpha"/>
<feOffset dy="4"/>
<feGaussianBlur stdDeviation="2"/>
<feComposite in2="hardAlpha" operator="out"/>
<feColorMatrix type="matrix" values="0 0 0 0 0.393333 0 0 0 0 0.0747333 0 0 0 0 0.303063 0 0 0 0.25 0"/>
<feBlend mode="normal" in2="BackgroundImageFix" result="effect1_dropShadow_32_162"/>
<feBlend mode="normal" in="SourceGraphic" in2="effect1_dropShadow_32_162" result="shape"/>
</filter>
</defs>
</svg>
