<svg width="299" height="245" viewBox="0 0 299 245" fill="none" xmlns="http://www.w3.org/2000/svg">
<g filter="url(#filter0_d_77_523)">
<path d="M37.9983 110.747C33.3287 119.408 32.8604 132.291 39.4005 140.154C53.6308 151.284 57.3133 150.766 71.3792 153.402C85.4452 156.039 100.953 155.235 114.622 151.16C128.29 147.085 139.049 140.059 144.622 131.568C150.194 123.077 150.144 113.787 144.482 105.662C138.819 97.5377 127.989 91.2159 114.281 88.034C100.572 84.8522 85.0618 85.0598 71.0293 88.6129C56.9968 92.166 49.3549 95.1306 42.902 103.417L69.5004 114.003L37.9983 110.747Z" fill="#449F5A"/>
</g>
<g filter="url(#filter1_d_77_523)">
<path d="M288.86 112.939C294.311 121.591 296.97 135.478 292.85 145.024C282.836 159.316 279.646 159.332 268.276 164.396C256.906 169.459 243.719 171.02 231.502 168.749C219.286 166.477 209 160.551 202.818 152.225C196.637 143.898 195.046 133.824 198.381 124.132C201.716 114.44 209.717 105.891 220.69 100.293C231.663 94.695 244.748 92.487 257.179 94.136C269.609 95.7851 276.559 97.7988 283.445 105.766L262.929 121.408L288.86 112.939Z" fill="#449F5A"/>
</g>
<g filter="url(#filter2_d_77_523)">
<path d="M124.428 193.647C126.547 204.994 134.814 218.839 145.249 224.093C163.945 229.201 166.505 226.928 179.377 223.13C192.25 219.332 203.953 211.22 212.013 200.509C220.073 189.799 223.856 177.33 222.563 165.74C221.27 154.15 215.002 144.347 205.085 138.406C195.168 132.464 182.379 130.85 169.424 133.904C156.468 136.958 144.362 144.44 135.666 154.769C126.969 165.098 122.924 171.812 123.385 183.598L151.48 182.339L124.428 193.647Z" fill="#449F5A"/>
</g>
<g filter="url(#filter3_d_77_523)">
<path d="M14.04 28.5027C7.66743 37.14 3.95048 51.4426 7.75432 61.7034C17.5624 77.3435 20.9711 77.5902 32.8087 83.6951C44.6464 89.8 58.6477 92.3804 71.8514 90.8906C85.0552 89.4009 96.4258 83.9577 103.558 75.7124C110.691 67.4672 113.026 57.0664 110.07 46.7098C107.114 36.3533 99.0988 26.8532 87.7191 20.2189C76.3395 13.5846 62.4881 10.3364 49.0945 11.1611C35.701 11.9859 28.1434 13.5864 20.2801 21.4057L41.2304 39.2119L14.04 28.5027Z" fill="#449F5A"/>
</g>
<g filter="url(#filter4_d_77_523)">
<path d="M262.175 33.3042C270.912 47.0305 273.738 72.7882 264.438 86.8402C243.324 107.464 237.361 107.145 215.262 113.607C193.163 120.07 168.254 121.018 145.804 116.252C123.354 111.485 105.374 107.315 95.2178 94.004C85.0619 80.6927 85.2813 59.209 93.14 44.8509C100.999 30.4928 115.63 18.4477 137.076 11.1302C158.523 3.81272 183.349 1.87105 206.304 5.71587C229.259 9.56069 241.911 13.3682 253.444 26.2097L191.015 44.5861L262.175 33.3042Z" fill="#2A803C"/>
</g>
<g filter="url(#filter5_d_77_523)">
<path d="M150.127 89.4777C150.142 87.196 152.596 85.7646 154.588 86.8758L177.537 99.6806C177.919 99.894 178.344 100.021 178.78 100.053L204.707 101.934C206.81 102.086 208.103 104.305 207.199 106.212L196.058 129.716C195.871 130.111 195.772 130.544 195.769 130.982L195.594 157.276C195.579 159.557 193.125 160.989 191.133 159.877L168.184 147.073C167.802 146.859 167.377 146.732 166.941 146.701L141.013 144.82C138.91 144.667 137.618 142.448 138.521 140.541L149.663 117.038C149.85 116.642 149.949 116.21 149.952 115.771L150.127 89.4777Z" fill="#D69590"/>
</g>
<g filter="url(#filter6_d_77_523)">
<path d="M132.733 115.796C131.132 114.172 131.855 111.425 134.048 110.801L159.325 103.616C159.746 103.496 160.136 103.286 160.467 102.999L180.129 85.9834C181.724 84.6029 184.207 85.2577 184.915 87.2455L193.644 111.748C193.791 112.16 194.027 112.536 194.334 112.848L212.79 131.565C214.392 133.189 213.668 135.936 211.475 136.56L186.199 143.745C185.777 143.865 185.388 144.075 185.056 144.362L165.395 161.378C163.8 162.758 161.317 162.103 160.608 160.115L151.879 135.613C151.732 135.201 151.497 134.825 151.189 134.513L132.733 115.796Z" fill="#EEBBB7"/>
</g>
<path d="M146.608 106.028C146.116 104.663 147.195 103.244 148.641 103.354L159.855 104.207C160.683 104.27 161.463 103.815 161.816 103.063L166.6 92.8775C167.217 91.5641 168.982 91.3238 169.926 92.4246L177.254 100.965C177.794 101.595 178.667 101.825 179.448 101.543L190.029 97.7255C191.393 97.2334 192.81 98.3123 192.7 99.759L191.847 110.983C191.784 111.811 192.239 112.592 192.99 112.945L203.169 117.733C204.482 118.35 204.721 120.116 203.621 121.061L195.088 128.393C194.458 128.934 194.228 129.809 194.51 130.59L198.324 141.177C198.816 142.543 197.737 143.961 196.291 143.851L185.077 142.998C184.249 142.935 183.469 143.39 183.116 144.142L178.332 154.328C177.715 155.641 175.95 155.881 175.006 154.78L167.679 146.24C167.138 145.61 166.265 145.38 165.484 145.662L154.903 149.48C153.539 149.972 152.122 148.893 152.232 147.446L153.085 136.222C153.148 135.394 152.693 134.613 151.942 134.26L141.763 129.472C140.451 128.855 140.211 127.089 141.311 126.144L149.844 118.812C150.474 118.271 150.704 117.396 150.423 116.615L146.608 106.028Z" fill="#EFD7D5"/>
<g filter="url(#filter7_d_77_523)">
<path d="M159.161 104.09C159.229 102.64 160.768 101.742 162.062 102.397L168.918 105.87C169.658 106.246 170.554 106.124 171.168 105.564L176.849 100.387C177.921 99.4093 179.643 99.863 180.095 101.242L182.489 108.551C182.747 109.34 183.466 109.887 184.295 109.926L191.973 110.284C193.421 110.352 194.318 111.891 193.663 113.186L190.191 120.048C189.817 120.789 189.938 121.685 190.497 122.298L195.672 127.985C196.648 129.058 196.194 130.781 194.816 131.233L187.514 133.629C186.725 133.887 186.178 134.607 186.139 135.437L185.781 143.118C185.713 144.568 184.174 145.466 182.88 144.81L176.025 141.337C175.284 140.962 174.389 141.084 173.775 141.643L168.094 146.821C167.021 147.798 165.299 147.345 164.847 145.966L162.453 138.657C162.195 137.868 161.476 137.321 160.647 137.282L152.969 136.923C151.521 136.856 150.624 135.316 151.279 134.022L154.751 127.159C155.126 126.418 155.004 125.523 154.446 124.909L149.27 119.222C148.294 118.15 148.748 116.426 150.126 115.974L157.428 113.579C158.217 113.32 158.764 112.6 158.803 111.771L159.161 104.09Z" fill="#FBFFFB"/>
</g>
<g filter="url(#filter8_d_77_523)">
<path d="M157.412 113.572C156.92 112.207 157.998 110.788 159.444 110.898L164.391 111.275C165.218 111.338 165.999 110.882 166.352 110.13L168.462 105.638C169.079 104.324 170.844 104.084 171.788 105.185L175.02 108.952C175.561 109.582 176.434 109.812 177.215 109.531L181.883 107.847C183.247 107.355 184.664 108.433 184.554 109.88L184.178 114.831C184.115 115.66 184.569 116.44 185.32 116.794L189.811 118.906C191.123 119.523 191.363 121.289 190.262 122.234L186.499 125.468C185.869 126.009 185.639 126.884 185.92 127.665L187.603 132.335C188.094 133.7 187.016 135.119 185.57 135.009L180.624 134.633C179.796 134.569 179.015 135.025 178.662 135.777L176.552 140.269C175.935 141.583 174.171 141.823 173.226 140.722L169.994 136.955C169.453 136.325 168.58 136.095 167.799 136.376L163.131 138.06C161.767 138.553 160.35 137.474 160.46 136.027L160.837 131.076C160.9 130.248 160.445 129.467 159.694 129.114L155.203 127.001C153.891 126.384 153.652 124.618 154.752 123.673L158.515 120.439C159.145 119.898 159.376 119.023 159.094 118.242L157.412 113.572Z" fill="#FFF4F0"/>
</g>
<g filter="url(#filter9_i_77_523)">
<ellipse cx="6.76255" cy="6.76496" rx="6.76255" ry="6.76496" transform="matrix(0.863783 -0.503863 0.503318 0.864101 163.387 120.549)" fill="#FAB71C"/>
</g>
<path d="M178.043 119.831C179.785 122.821 178.774 126.658 175.787 128.4C172.799 130.143 168.966 129.132 167.224 126.142C165.482 123.152 166.493 119.316 169.48 117.573C172.468 115.831 176.301 116.841 178.043 119.831Z" stroke="#FAB71C"/>
<path d="M91.7304 74.4817C91.6601 74.4114 91.6249 74.2004 91.6249 73.8489C91.6249 73.5442 91.6601 73.3918 91.7304 73.3918C91.9648 73.3918 92.246 73.3567 92.5741 73.2864C92.9257 73.2161 93.2538 73.134 93.5585 73.0403C93.8866 72.9231 94.0859 72.7942 94.1562 72.6536C94.3202 72.3958 94.4023 71.2942 94.4023 69.3489V56.0598C94.4023 55.3801 94.3788 54.7825 94.332 54.2668C94.3085 53.7512 94.2499 53.3411 94.1562 53.0364C94.1093 52.8958 93.9218 52.7668 93.5937 52.6497C93.289 52.5325 92.9491 52.4387 92.5741 52.3684C92.2226 52.2981 91.9413 52.2629 91.7304 52.2629C91.6366 52.2629 91.5898 52.1223 91.5898 51.8411C91.5898 51.5364 91.6366 51.3372 91.7304 51.2434L95.9491 51.3137C96.3007 51.3137 96.6874 51.3137 97.1093 51.3137C97.5312 51.2903 97.9765 51.2668 98.4452 51.2434C98.914 51.22 99.3593 51.2083 99.7812 51.2083C100.203 51.1848 100.578 51.1731 100.906 51.1731C101.68 51.1731 102.465 51.2903 103.262 51.5247C104.059 51.759 104.82 52.1106 105.547 52.5793C106.297 53.0481 106.894 53.7161 107.34 54.5833C107.809 55.4504 108.043 56.4583 108.043 57.6067C108.043 58.3333 107.891 59.1067 107.586 59.927C107.281 60.7473 106.824 61.5208 106.215 62.2473C105.629 62.9504 104.879 63.5247 103.965 63.97C103.074 64.4153 102.043 64.6379 100.871 64.6379C99.5585 64.6379 98.6562 64.3098 98.164 63.6536C98.0234 63.4895 97.9882 63.22 98.0585 62.845C98.1054 62.7278 98.1405 62.6926 98.164 62.7395C98.8905 62.9973 99.6757 63.1262 100.519 63.1262C101.316 63.1262 102.031 62.9036 102.664 62.4583C103.32 61.9895 103.836 61.3801 104.211 60.6301C104.609 59.8567 104.809 59.0247 104.809 58.134C104.809 56.47 104.445 55.1575 103.719 54.1965C102.992 53.2122 101.867 52.72 100.344 52.72C99.2655 52.72 98.4452 52.802 97.8827 52.9661C97.6718 52.9895 97.5429 53.3528 97.496 54.0559C97.4726 54.759 97.4609 55.6848 97.4609 56.8333V69.384C97.4609 70.9309 97.5546 71.9504 97.7421 72.4426C97.8359 72.6301 98.0585 72.8059 98.4101 72.97C98.7851 73.134 99.1835 73.2629 99.6054 73.3567C100.027 73.427 100.332 73.4622 100.519 73.4622C100.613 73.4622 100.66 73.6262 100.66 73.9543C100.66 74.1184 100.637 74.2942 100.59 74.4817C99.4179 74.4348 98.4452 74.3997 97.6718 74.3762C96.9218 74.3293 96.371 74.3059 96.0195 74.3059L91.7304 74.4817ZM110.644 74.4817C110.551 74.3879 110.504 74.1887 110.504 73.884C110.504 73.6028 110.551 73.4622 110.644 73.4622C110.832 73.4622 111.09 73.427 111.418 73.3567C111.746 73.2864 112.051 73.1926 112.332 73.0754C112.613 72.9583 112.766 72.8528 112.789 72.759C112.883 72.4309 112.941 72.0559 112.965 71.634C113.012 71.2122 113.035 70.7668 113.035 70.2981V63.6536C113.035 62.7629 112.871 62.1301 112.543 61.7551C112.309 61.4739 112.027 61.2864 111.699 61.1926C111.394 61.0989 111.113 61.052 110.855 61.052C110.621 61.0286 110.504 60.9934 110.504 60.9465C110.504 60.384 110.574 60.0911 110.715 60.0676C113.269 59.6692 114.746 59.4114 115.144 59.2942L115.742 59.1184C115.836 59.095 115.894 59.1887 115.918 59.3997C115.941 59.6106 115.941 59.7629 115.918 59.8567L115.707 61.6145C116.129 60.9817 116.703 60.3958 117.43 59.8567C118.18 59.2942 118.918 59.0129 119.644 59.0129C121.004 59.0129 121.918 59.3528 122.387 60.0325C122.387 60.8528 122.258 61.4504 122 61.8254C121.742 62.2004 121.426 62.3879 121.051 62.3879C120.629 62.3879 120.242 62.1887 119.891 61.7903C119.539 61.3918 119.059 61.1926 118.449 61.1926C117.98 61.1926 117.535 61.3567 117.113 61.6848C116.691 61.9895 116.351 62.3879 116.094 62.8801C115.859 63.3489 115.742 63.8411 115.742 64.3567V69.6301C115.742 70.3098 115.766 70.9075 115.812 71.4231C115.859 71.9387 115.93 72.384 116.023 72.759C116.07 72.8528 116.234 72.9583 116.516 73.0754C116.797 73.1926 117.101 73.2864 117.43 73.3567C117.781 73.427 118.027 73.4622 118.168 73.4622C118.238 73.4622 118.285 73.6028 118.309 73.884C118.332 74.1653 118.32 74.3645 118.273 74.4817L114.476 74.3059L110.644 74.4817ZM131.703 74.6223C130.297 74.6223 129.008 74.2708 127.836 73.5676C126.664 72.8645 125.726 71.9153 125.023 70.72C124.344 69.5247 124.004 68.2122 124.004 66.7825C124.004 65.3293 124.332 64.0168 124.988 62.845C125.668 61.6731 126.582 60.7473 127.73 60.0676C128.879 59.3645 130.18 59.0129 131.633 59.0129C133.039 59.0129 134.316 59.3645 135.465 60.0676C136.637 60.7708 137.562 61.7083 138.242 62.8801C138.945 64.052 139.297 65.3528 139.297 66.7825C139.297 68.2122 138.957 69.5247 138.277 70.72C137.598 71.9153 136.684 72.8645 135.535 73.5676C134.41 74.2708 133.133 74.6223 131.703 74.6223ZM132.019 73.2512C132.863 73.2512 133.601 72.9817 134.234 72.4426C134.867 71.9036 135.359 71.177 135.711 70.2629C136.086 69.3489 136.273 68.3528 136.273 67.2747C136.273 66.009 136.039 64.8606 135.57 63.8293C135.101 62.7747 134.48 61.9426 133.707 61.3333C132.957 60.7004 132.137 60.384 131.246 60.384C130.426 60.384 129.687 60.6536 129.031 61.1926C128.398 61.7083 127.906 62.4114 127.555 63.302C127.203 64.1692 127.027 65.1536 127.027 66.2551C127.027 67.5208 127.25 68.6926 127.695 69.7708C128.164 70.8254 128.773 71.6692 129.523 72.302C130.297 72.9348 131.129 73.2512 132.019 73.2512ZM141.16 82.4973C140.996 82.3801 140.855 82.2043 140.738 81.97C140.668 81.8528 140.656 81.7708 140.703 81.7239L141.125 81.5129C141.406 81.3723 141.723 81.1262 142.074 80.7747C142.449 80.4231 142.824 79.9543 143.199 79.3684C143.574 78.7825 143.891 77.9153 144.148 76.7668C144.406 75.6184 144.535 74.2942 144.535 72.7942V63.6536C144.535 62.7629 144.371 62.1301 144.043 61.7551C143.809 61.4739 143.527 61.2864 143.199 61.1926C142.894 61.0989 142.613 61.0403 142.355 61.0168C142.121 60.9934 142.004 60.97 142.004 60.9465C142.004 60.384 142.074 60.0911 142.215 60.0676C143.457 59.8801 144.476 59.7161 145.273 59.5754C146.07 59.4114 146.551 59.3059 146.715 59.259L147.137 59.1184H147.242C147.336 59.1184 147.394 59.2239 147.418 59.4348C147.441 59.6223 147.441 59.7629 147.418 59.8567C147.371 60.3254 147.324 60.7708 147.277 61.1926C147.254 61.6145 147.242 62.0129 147.242 62.3879V71.9856C147.242 74.9387 146.785 77.1418 145.871 78.595C145.285 79.509 144.535 80.3176 143.621 81.0208C142.73 81.7239 141.91 82.2161 141.16 82.4973ZM145.625 55.2864C145.156 55.2864 144.746 55.1106 144.394 54.759C144.043 54.4075 143.867 53.9973 143.867 53.5286C143.867 53.0364 144.043 52.6262 144.394 52.2981C144.746 51.9465 145.156 51.7708 145.625 51.7708C146.117 51.7708 146.527 51.9465 146.855 52.2981C147.207 52.6262 147.383 53.0364 147.383 53.5286C147.383 53.9973 147.207 54.4075 146.855 54.759C146.527 55.1106 146.117 55.2864 145.625 55.2864ZM158.316 74.5872C157.027 74.5872 155.844 74.2473 154.766 73.5676C153.687 72.8879 152.82 71.9856 152.164 70.8606C151.531 69.7122 151.215 68.4348 151.215 67.0286C151.215 65.3879 151.519 63.97 152.129 62.7747C152.738 61.5793 153.57 60.6653 154.625 60.0325C155.68 59.3762 156.863 59.0481 158.176 59.0481C159.254 59.0481 160.203 59.259 161.023 59.6809C161.844 60.0793 162.476 60.595 162.922 61.2278C163.344 61.884 163.648 62.552 163.836 63.2317C164.047 63.8879 164.152 64.5442 164.152 65.2004C164.152 65.6692 164.082 65.9622 163.941 66.0793C163.801 66.1731 163.531 66.22 163.133 66.22H154.273C154.086 66.22 153.992 66.2786 153.992 66.3958C153.992 67.3801 154.191 68.3293 154.59 69.2434C154.988 70.134 155.574 70.8723 156.348 71.4583C157.121 72.0442 158.07 72.3372 159.195 72.3372C160.18 72.3372 161 72.1965 161.656 71.9153C162.336 71.6106 162.828 71.3411 163.133 71.1067L163.379 70.9309C163.519 70.9309 163.59 71.0833 163.59 71.3879C163.59 71.552 163.519 71.7629 163.379 72.0208C162.91 72.677 162.219 73.2747 161.305 73.8137C160.391 74.3293 159.394 74.5872 158.316 74.5872ZM154.273 64.7434H161.129C161.246 64.7434 161.305 64.6262 161.305 64.3918C161.305 63.8762 161.164 63.3137 160.883 62.7043C160.625 62.0715 160.226 61.5208 159.687 61.052C159.148 60.5833 158.469 60.3489 157.648 60.3489C156.898 60.3489 156.254 60.6067 155.715 61.1223C155.176 61.6145 154.766 62.1887 154.484 62.845C154.203 63.4778 154.062 64.0286 154.062 64.4973C154.062 64.6614 154.133 64.7434 154.273 64.7434ZM173.434 74.5872C172.144 74.5872 170.961 74.2473 169.883 73.5676C168.805 72.8879 167.937 71.9856 167.281 70.8606C166.648 69.7122 166.332 68.4348 166.332 67.0286C166.332 65.5754 166.59 64.2512 167.105 63.0559C167.644 61.8372 168.418 60.8645 169.426 60.1379C170.457 59.4114 171.699 59.0481 173.152 59.0481C175.73 59.0481 177.512 59.6458 178.496 60.8411C178.496 62.4114 178.062 63.1965 177.195 63.1965C176.797 63.1965 176.492 63.1145 176.281 62.9504C176.07 62.7629 175.801 62.4348 175.473 61.9661C174.746 60.8879 173.879 60.3489 172.871 60.3489C171.91 60.3489 171.031 60.8059 170.234 61.72C169.461 62.634 169.074 63.9934 169.074 65.7981C169.074 67.6731 169.531 69.2317 170.445 70.4739C171.383 71.7161 172.672 72.3372 174.312 72.3372C175.297 72.3372 176.117 72.1965 176.773 71.9153C177.453 71.6106 177.945 71.3411 178.25 71.1067L178.496 70.9309C178.637 70.9309 178.707 71.0833 178.707 71.3879C178.707 71.552 178.637 71.7629 178.496 72.0208C178.027 72.677 177.336 73.2747 176.422 73.8137C175.508 74.3293 174.512 74.5872 173.434 74.5872ZM186.195 74.6223C185.023 74.6223 184.039 74.2356 183.242 73.4622C182.469 72.6887 182.082 71.5872 182.082 70.1575V61.2278H180.043C179.926 61.2278 179.867 60.9817 179.867 60.4895C179.867 60.3489 179.879 60.2668 179.902 60.2434C180.605 59.9153 181.344 59.2942 182.117 58.3801C182.656 57.7473 183.055 57.1965 183.312 56.7278C183.594 56.259 183.734 55.9778 183.734 55.884C184.437 55.884 184.789 55.9426 184.789 56.0598V59.5403L187.566 59.5754H189.535C189.723 59.5754 189.816 59.6809 189.816 59.8918C189.816 60.3372 189.699 60.7825 189.465 61.2278H184.789V69.8411C184.789 70.7786 185.023 71.5286 185.492 72.0911C185.984 72.6536 186.617 72.9348 187.391 72.9348C188.117 72.9348 188.844 72.7122 189.57 72.2668C189.641 72.22 189.746 72.3254 189.887 72.5833C190.027 72.8176 190.086 72.9465 190.062 72.97C189.711 73.345 189.172 73.72 188.445 74.095C187.719 74.4465 186.969 74.6223 186.195 74.6223ZM205.988 74.4817C205.894 74.3879 205.848 74.2122 205.848 73.9543C205.848 73.6262 205.894 73.4622 205.988 73.4622C206.199 73.4622 206.48 73.4387 206.832 73.3918C207.184 73.3215 207.512 73.2278 207.816 73.1106C208.121 72.9934 208.297 72.8762 208.344 72.759C208.437 72.4309 208.496 72.009 208.519 71.4934C208.566 70.9778 208.59 70.3567 208.59 69.6301V56.9036C208.59 54.8645 208.484 53.6575 208.273 53.2825C208.109 52.9309 206.844 52.7551 204.476 52.7551C203.586 52.7551 202.894 52.8372 202.402 53.0012C201.91 53.1418 201.535 53.4348 201.277 53.8801C201.019 54.3254 200.773 54.9934 200.539 55.884C200.492 56.0012 200.375 56.0598 200.187 56.0598C199.789 56.0598 199.508 55.9778 199.344 55.8137L200.012 50.7864C200.527 50.9036 200.984 50.9973 201.383 51.0676C201.781 51.1379 202.133 51.1731 202.437 51.1731C204.125 51.1731 205.613 51.1965 206.902 51.2434C208.191 51.2903 209.269 51.3137 210.137 51.3137C211.941 51.3137 213.488 51.2903 214.777 51.2434C216.09 51.1965 217.121 51.1731 217.871 51.1731C218.176 51.1731 218.527 51.1379 218.926 51.0676C219.324 50.9973 219.781 50.9036 220.297 50.7864L220.965 55.8137C220.801 55.9778 220.519 56.0598 220.121 56.0598C219.934 56.0598 219.816 56.0012 219.769 55.884C219.559 54.9934 219.312 54.3254 219.031 53.8801C218.773 53.4348 218.398 53.1418 217.906 53.0012C217.414 52.8372 216.723 52.7551 215.832 52.7551C213.371 52.7551 212.082 52.9309 211.965 53.2825C211.754 54.009 211.648 55.1809 211.648 56.7981V69.4895C211.648 70.8489 211.754 71.9387 211.965 72.759C212.012 72.8528 212.187 72.9583 212.492 73.0754C212.797 73.1926 213.125 73.2864 213.476 73.3567C213.828 73.427 214.074 73.4622 214.215 73.4622C214.309 73.4622 214.355 73.6379 214.355 73.9895C214.355 74.1301 214.332 74.2942 214.285 74.4817C213.113 74.4348 212.187 74.3997 211.508 74.3762C210.828 74.3293 210.394 74.3059 210.207 74.3059L205.988 74.4817ZM224.34 82.3567C223.848 82.3567 223.484 82.2043 223.25 81.8997C223.016 81.595 222.898 81.2903 222.898 80.9856C222.898 80.4934 223.062 80.1184 223.391 79.8606C225.336 79.8606 226.625 78.8528 227.258 76.8372C227.375 76.4856 227.516 76.0637 227.68 75.5715C227.844 75.0793 227.973 74.6809 228.066 74.3762L223.039 62.0715C222.922 61.7903 222.805 61.5559 222.687 61.3684C222.57 61.1575 222.453 60.9934 222.336 60.8762C222.125 60.6653 221.797 60.4895 221.351 60.3489C220.93 60.2083 220.59 60.1379 220.332 60.1379C220.238 60.1379 220.191 59.9856 220.191 59.6809C220.191 59.3997 220.238 59.2122 220.332 59.1184C220.965 59.1418 221.586 59.177 222.195 59.2239C222.828 59.2473 223.473 59.259 224.129 59.259C224.879 59.259 225.523 59.2473 226.062 59.2239C226.601 59.177 227.094 59.1418 227.539 59.1184C227.586 59.3059 227.609 59.4817 227.609 59.6458C227.609 59.9739 227.562 60.1379 227.469 60.1379C227.375 60.1379 227.199 60.1731 226.941 60.2434C226.707 60.3137 226.473 60.4075 226.238 60.5247C226.004 60.6184 225.863 60.7356 225.816 60.8762V60.9465C225.816 61.345 227.07 64.4036 229.578 70.1223L232.25 62.4231C232.414 61.9543 232.496 61.5911 232.496 61.3333C232.496 60.9817 232.309 60.7004 231.934 60.4895C231.582 60.2551 231.101 60.1379 230.492 60.1379C230.398 60.1379 230.351 59.9856 230.351 59.6809C230.351 59.3997 230.398 59.2122 230.492 59.1184C230.797 59.1418 231.254 59.177 231.863 59.2239C232.473 59.2708 233.059 59.2942 233.621 59.2942C234.137 59.2942 234.699 59.2708 235.309 59.2239C235.918 59.177 236.375 59.1418 236.68 59.1184C236.726 59.3059 236.75 59.4817 236.75 59.6458C236.75 59.9739 236.703 60.1379 236.609 60.1379C236.305 60.1379 235.894 60.2434 235.379 60.4543C234.863 60.6653 234.512 61.0051 234.324 61.4739L228.031 78.4543C227.492 79.9075 226.883 80.9153 226.203 81.4778C225.523 82.0637 224.902 82.3567 224.34 82.3567ZM236.82 82.3215C236.726 82.2278 236.68 82.0403 236.68 81.759C236.68 81.4543 236.726 81.302 236.82 81.302C237.008 81.302 237.266 81.2668 237.594 81.1965C237.922 81.1262 238.226 81.0325 238.508 80.9153C238.789 80.7981 238.941 80.6926 238.965 80.5989C239.059 80.2708 239.117 79.8958 239.141 79.4739C239.187 79.052 239.211 78.6067 239.211 78.1379V63.6184C239.211 62.7278 239.047 62.095 238.719 61.72C238.484 61.4387 238.203 61.2512 237.875 61.1575C237.57 61.0637 237.289 61.0168 237.031 61.0168C236.797 60.9934 236.68 60.9583 236.68 60.9114C236.68 60.3489 236.75 60.0559 236.891 60.0325C239.375 59.6575 240.969 59.3645 241.672 59.1536L241.918 59.0833C242.035 59.0833 242.082 59.2122 242.059 59.47C242.035 59.7043 242.012 59.9036 241.988 60.0676L241.953 60.2786C242.187 60.1145 242.516 59.9387 242.937 59.7512C243.359 59.5637 243.805 59.3997 244.273 59.259C244.766 59.1184 245.187 59.0481 245.539 59.0481C247.133 59.0481 248.457 59.4114 249.512 60.1379C250.59 60.8411 251.387 61.7434 251.902 62.845C252.441 63.9231 252.711 65.0247 252.711 66.1497C252.711 67.2747 252.5 68.3528 252.078 69.384C251.656 70.3918 251.082 71.2942 250.355 72.0911C249.629 72.8879 248.797 73.5208 247.859 73.9895C246.945 74.4348 245.996 74.6575 245.012 74.6575C244.285 74.6575 243.734 74.5989 243.359 74.4817C242.984 74.3879 242.551 74.2239 242.059 73.9895C241.965 74.0833 241.918 74.2356 241.918 74.4465V77.47C241.918 78.1497 241.941 78.7473 241.988 79.2629C242.035 79.7786 242.105 80.2239 242.199 80.5989C242.246 80.6926 242.41 80.7981 242.691 80.9153C242.973 81.0325 243.277 81.1262 243.605 81.1965C243.934 81.2668 244.168 81.302 244.309 81.302C244.379 81.302 244.426 81.4426 244.449 81.7239C244.473 82.0286 244.461 82.2278 244.414 82.3215L240.652 82.1458L236.82 82.3215ZM245.152 73.1809C246.09 73.1809 246.887 72.8997 247.543 72.3372C248.223 71.7512 248.75 71.0012 249.125 70.0872C249.5 69.1497 249.687 68.1653 249.687 67.134C249.687 65.8215 249.441 64.6965 248.949 63.759C248.48 62.7981 247.848 62.0598 247.051 61.5442C246.254 61.0286 245.375 60.7708 244.414 60.7708C243.687 60.7708 243.09 60.97 242.621 61.3684C242.152 61.7434 241.918 62.2942 241.918 63.0208V70.9309C241.918 71.5637 242.258 72.1028 242.937 72.5481C243.617 72.97 244.355 73.1809 245.152 73.1809ZM262.449 74.5872C261.16 74.5872 259.976 74.2473 258.898 73.5676C257.82 72.8879 256.953 71.9856 256.297 70.8606C255.664 69.7122 255.348 68.4348 255.348 67.0286C255.348 65.3879 255.652 63.97 256.262 62.7747C256.871 61.5793 257.703 60.6653 258.758 60.0325C259.812 59.3762 260.996 59.0481 262.309 59.0481C263.387 59.0481 264.336 59.259 265.156 59.6809C265.976 60.0793 266.609 60.595 267.055 61.2278C267.476 61.884 267.781 62.552 267.969 63.2317C268.18 63.8879 268.285 64.5442 268.285 65.2004C268.285 65.6692 268.215 65.9622 268.074 66.0793C267.934 66.1731 267.664 66.22 267.266 66.22H258.406C258.219 66.22 258.125 66.2786 258.125 66.3958C258.125 67.3801 258.324 68.3293 258.723 69.2434C259.121 70.134 259.707 70.8723 260.48 71.4583C261.254 72.0442 262.203 72.3372 263.328 72.3372C264.312 72.3372 265.133 72.1965 265.789 71.9153C266.469 71.6106 266.961 71.3411 267.266 71.1067L267.512 70.9309C267.652 70.9309 267.723 71.0833 267.723 71.3879C267.723 71.552 267.652 71.7629 267.512 72.0208C267.043 72.677 266.351 73.2747 265.437 73.8137C264.523 74.3293 263.527 74.5872 262.449 74.5872ZM258.406 64.7434H265.262C265.379 64.7434 265.437 64.6262 265.437 64.3918C265.437 63.8762 265.297 63.3137 265.016 62.7043C264.758 62.0715 264.359 61.5208 263.82 61.052C263.281 60.5833 262.601 60.3489 261.781 60.3489C261.031 60.3489 260.387 60.6067 259.848 61.1223C259.309 61.6145 258.898 62.1887 258.617 62.845C258.336 63.4778 258.195 64.0286 258.195 64.4973C258.195 64.6614 258.266 64.7434 258.406 64.7434Z" fill="#FAF6F6"/>
<path d="M15.3902 64.0724C15.2702 64.0724 15.1236 64.0057 14.9502 63.8724C14.7902 63.7257 14.6502 63.5524 14.5302 63.3524C14.4102 63.1391 14.3502 62.9257 14.3502 62.7124C14.3502 62.4591 14.4302 62.0391 14.5902 61.4524C14.7502 60.8524 14.9502 60.1524 15.1902 59.3524C15.4302 58.5524 15.6702 57.7124 15.9102 56.8324C16.1636 55.9524 16.3702 55.0924 16.5302 54.2524C16.7036 53.4124 16.7969 52.6591 16.8102 51.9924C16.4902 51.6991 16.3302 51.4324 16.3302 51.1924C16.3302 51.0324 16.4569 50.8724 16.7102 50.7124C16.9636 50.5391 17.2902 50.3857 17.6902 50.2524C18.0902 50.1057 18.5169 49.9924 18.9702 49.9124C19.4369 49.8191 19.8769 49.7724 20.2902 49.7724C21.1436 49.7724 21.8969 49.9257 22.5502 50.2324C23.2169 50.5257 23.7369 50.9391 24.1102 51.4724C24.4836 51.9924 24.6702 52.6057 24.6702 53.3124C24.6702 54.2724 24.3569 55.1391 23.7302 55.9124C23.1036 56.6724 22.2236 57.3257 21.0902 57.8724C19.9569 58.4191 18.6369 58.8391 17.1302 59.1324C16.1569 62.4257 15.5769 64.0724 15.3902 64.0724ZM17.5702 57.5724C18.6369 57.2924 19.5702 56.9324 20.3702 56.4924C21.1702 56.0524 21.7902 55.5724 22.2302 55.0524C22.6836 54.5191 22.9102 53.9791 22.9102 53.4324C22.9102 52.8457 22.6902 52.3657 22.2502 51.9924C21.8102 51.6057 21.3036 51.4124 20.7302 51.4124C20.2902 51.4124 19.8969 51.4591 19.5502 51.5524C19.2169 51.6457 18.8169 51.7991 18.3502 52.0124C18.4836 52.3057 18.5502 52.5791 18.5502 52.8324C18.5502 53.5791 18.2236 55.1591 17.5702 57.5724ZM25.7696 64.1124C25.5296 64.1124 25.3429 63.9791 25.2096 63.7124C25.0763 63.4457 25.0096 63.2124 25.0096 63.0124C25.0096 62.7057 25.0696 62.3657 25.1896 61.9924C25.3096 61.6057 25.4429 61.1657 25.5896 60.6724C25.7363 60.1657 25.8696 59.5791 25.9896 58.9124C26.1096 58.2457 26.1696 57.4724 26.1696 56.5924C26.1696 56.3391 26.1563 56.0591 26.1296 55.7524C26.1163 55.4324 26.1096 55.1457 26.1096 54.8924C26.1096 54.6924 26.1429 54.5191 26.2096 54.3724C26.2896 54.2257 26.4029 54.1524 26.5496 54.1524C26.8696 54.1524 27.1296 54.3391 27.3296 54.7124C27.5429 55.0857 27.6496 55.4857 27.6496 55.9124C27.6496 56.2457 27.6296 56.5457 27.5896 56.8124C28.7496 55.0524 29.8496 54.1724 30.8896 54.1724C31.5429 54.1724 31.8696 54.3324 31.8696 54.6524C31.8696 54.8124 31.7963 54.9657 31.6496 55.1124C31.5163 55.2591 31.2829 55.4057 30.9496 55.5524C30.4963 55.7657 30.0829 56.0391 29.7096 56.3724C29.3363 56.7057 28.9763 57.1591 28.6296 57.7324C28.2963 58.2924 27.9563 59.0257 27.6096 59.9324C27.2763 60.8391 26.9096 61.9657 26.5096 63.3124C26.4296 63.5791 26.3229 63.7791 26.1896 63.9124C26.0563 64.0457 25.9163 64.1124 25.7696 64.1124ZM34.4613 64.0724C34.008 64.0724 33.6013 63.9324 33.2413 63.6524C32.8813 63.3591 32.5947 62.9657 32.3813 62.4724C32.1813 61.9657 32.0813 61.3857 32.0813 60.7324C32.0813 60.2124 32.1613 59.6591 32.3213 59.0724C32.4813 58.4724 32.708 57.8857 33.0013 57.3124C33.2947 56.7257 33.6413 56.1991 34.0413 55.7324C34.4413 55.2524 34.8813 54.8724 35.3613 54.5924C35.8547 54.2991 36.3747 54.1524 36.9213 54.1524C37.4413 54.1524 37.908 54.3057 38.3213 54.6124C38.748 54.9191 39.0813 55.3391 39.3213 55.8724C39.5747 56.3924 39.7013 56.9724 39.7013 57.6124C39.7013 58.4657 39.5547 59.2791 39.2613 60.0524C38.968 60.8257 38.568 61.5191 38.0613 62.1324C37.568 62.7324 37.008 63.2057 36.3813 63.5524C35.768 63.8991 35.128 64.0724 34.4613 64.0724ZM34.5613 62.7124C34.9747 62.7124 35.3813 62.5457 35.7813 62.2124C36.1947 61.8657 36.568 61.4257 36.9013 60.8924C37.248 60.3457 37.5213 59.7791 37.7213 59.1924C37.9213 58.5924 38.0213 58.0457 38.0213 57.5524C38.0213 57.2457 37.9747 56.9324 37.8813 56.6124C37.8013 56.2791 37.6947 55.9991 37.5613 55.7724C37.428 55.5324 37.2947 55.4124 37.1613 55.4124C36.8413 55.4124 36.5213 55.5391 36.2013 55.7924C35.8813 56.0457 35.5747 56.3791 35.2813 56.7924C34.988 57.2057 34.728 57.6591 34.5013 58.1524C34.2747 58.6324 34.0947 59.1124 33.9613 59.5924C33.8413 60.0724 33.7813 60.5057 33.7813 60.8924C33.7813 61.3191 33.8547 61.7324 34.0013 62.1324C34.148 62.5191 34.3347 62.7124 34.5613 62.7124ZM45.5438 52.8724C45.3305 52.8724 45.0905 52.7857 44.8238 52.6124C44.5705 52.4257 44.3438 52.2124 44.1438 51.9724C43.9572 51.7191 43.8638 51.4991 43.8638 51.3124C43.8638 51.0324 43.9638 50.7791 44.1638 50.5524C44.3772 50.3124 44.6038 50.1924 44.8438 50.1924C45.0038 50.1924 45.1772 50.3257 45.3638 50.5924C45.5638 50.8457 45.7305 51.1457 45.8638 51.4924C46.0105 51.8257 46.0838 52.1124 46.0838 52.3524C46.0838 52.4857 46.0238 52.6057 45.9038 52.7124C45.7838 52.8191 45.6638 52.8724 45.5438 52.8724ZM38.9038 69.2724C38.5705 69.2724 38.2305 69.1924 37.8838 69.0324C37.5372 68.8724 37.2238 68.6724 36.9438 68.4324C36.6638 68.1924 36.4372 67.9391 36.2638 67.6724C36.0905 67.4191 36.0038 67.1924 36.0038 66.9924C36.0038 66.8057 36.0772 66.5991 36.2238 66.3724C36.3572 66.1457 36.4838 66.0324 36.6038 66.0324C36.7638 66.0324 36.9238 66.1257 37.0838 66.3124C37.2438 66.4991 37.4105 66.7124 37.5838 66.9524C37.7572 67.2057 37.9572 67.4257 38.1838 67.6124C38.3972 67.7991 38.6438 67.8924 38.9238 67.8924C39.2572 67.8924 39.5572 67.6724 39.8238 67.2324C40.0905 66.7924 40.3305 66.1791 40.5438 65.3924C40.8372 64.3257 41.1038 63.2657 41.3438 62.2124C41.5838 61.1591 41.8372 60.0591 42.1038 58.9124C42.3705 57.7524 42.6838 56.4924 43.0438 55.1324C43.2438 54.4791 43.4372 54.1524 43.6238 54.1524C43.8505 54.1524 44.0838 54.2991 44.3238 54.5924C44.5638 54.8724 44.6838 55.1791 44.6838 55.5124C44.6838 55.7257 44.6238 56.0991 44.5038 56.6324C44.3972 57.1657 44.2438 57.8057 44.0438 58.5524C43.8572 59.2991 43.6438 60.1057 43.4038 60.9724C43.1772 61.8257 42.9438 62.6991 42.7038 63.5924C42.4638 64.4857 42.2372 65.3324 42.0238 66.1324C41.4505 68.2257 40.4105 69.2724 38.9038 69.2724ZM49.402 64.0724C48.7086 64.0724 48.0953 63.9324 47.562 63.6524C47.042 63.3591 46.6286 62.9657 46.322 62.4724C46.0286 61.9791 45.882 61.4191 45.882 60.7924C45.882 60.2591 45.9686 59.6924 46.142 59.0924C46.3286 58.4924 46.582 57.9057 46.902 57.3324C47.2353 56.7457 47.6153 56.2124 48.042 55.7324C48.482 55.2524 48.9486 54.8724 49.442 54.5924C49.9353 54.2991 50.4486 54.1524 50.982 54.1524C51.382 54.1524 51.762 54.2591 52.122 54.4724C52.4953 54.6724 52.8286 54.9391 53.122 55.2724C53.4286 55.6057 53.6686 55.9657 53.842 56.3524C54.0153 56.7391 54.102 57.1057 54.102 57.4524C54.102 57.8924 53.9753 58.2657 53.722 58.5724C53.4686 58.8791 53.142 59.1324 52.742 59.3324C52.342 59.5191 51.9086 59.6591 51.442 59.7524C50.9886 59.8324 50.562 59.8724 50.162 59.8724C49.2953 59.8724 48.482 59.7657 47.722 59.5524C47.5353 60.1391 47.442 60.6591 47.442 61.1124C47.442 61.5791 47.582 61.9391 47.862 62.1924C48.1553 62.4457 48.6353 62.5724 49.302 62.5724C49.782 62.5724 50.2486 62.5124 50.702 62.3924C51.1553 62.2724 51.542 62.1591 51.862 62.0524C52.1953 61.9324 52.402 61.8724 52.482 61.8724C52.8286 61.8724 53.002 62.0057 53.002 62.2724C53.002 62.4457 52.8886 62.6391 52.662 62.8524C52.4353 63.0657 52.142 63.2657 51.782 63.4524C51.422 63.6257 51.0286 63.7724 50.602 63.8924C50.1886 64.0124 49.7886 64.0724 49.402 64.0724ZM50.002 58.5924C50.682 58.5924 51.2753 58.4857 51.782 58.2724C52.2886 58.0457 52.542 57.7524 52.542 57.3924C52.542 57.1524 52.462 56.9057 52.302 56.6524C52.1553 56.3857 51.9686 56.1657 51.742 55.9924C51.5153 55.8191 51.2953 55.7324 51.082 55.7324C50.5886 55.7324 50.0753 55.9924 49.542 56.5124C49.0086 57.0191 48.5553 57.6524 48.182 58.4124C48.7153 58.5324 49.322 58.5924 50.002 58.5924ZM58.3659 64.0724C57.8459 64.0724 57.3392 63.9324 56.8459 63.6524C56.3525 63.3724 55.9459 62.9991 55.6259 62.5324C55.3059 62.0657 55.1459 61.5524 55.1459 60.9924C55.1459 60.4857 55.2525 59.9257 55.4659 59.3124C55.6792 58.6991 55.9725 58.0924 56.3459 57.4924C56.7192 56.8791 57.1459 56.3191 57.6259 55.8124C58.1059 55.3057 58.6125 54.9057 59.1459 54.6124C59.6792 54.3057 60.2125 54.1524 60.7459 54.1524C61.1059 54.1524 61.4392 54.2724 61.7459 54.5124C62.0659 54.7391 62.3192 55.0124 62.5059 55.3324C62.7059 55.6524 62.8059 55.9391 62.8059 56.1924C62.8059 56.3257 62.7659 56.4257 62.6859 56.4924C62.6059 56.5457 62.5125 56.5724 62.4059 56.5724C62.2725 56.5724 62.1325 56.5124 61.9859 56.3924C61.8392 56.2724 61.6792 56.1524 61.5059 56.0324C61.3325 55.9124 61.1259 55.8524 60.8859 55.8524C60.5925 55.8524 60.2725 55.9724 59.9259 56.2124C59.5792 56.4391 59.2259 56.7524 58.8659 57.1524C58.5192 57.5391 58.1992 57.9657 57.9059 58.4324C57.6125 58.8857 57.3725 59.3457 57.1859 59.8124C57.0125 60.2791 56.9259 60.6991 56.9259 61.0724C56.9259 61.4857 57.0525 61.8124 57.3059 62.0524C57.5725 62.2924 57.9992 62.4124 58.5859 62.4124C59.2259 62.4124 59.7592 62.3457 60.1859 62.2124C60.6259 62.0657 60.9792 61.9257 61.2459 61.7924C61.5259 61.6457 61.7525 61.5724 61.9259 61.5724C62.1792 61.5724 62.3059 61.6991 62.3059 61.9524C62.3059 62.1524 62.1725 62.3724 61.9059 62.6124C61.6525 62.8524 61.3192 63.0857 60.9059 63.3124C60.5059 63.5257 60.0792 63.7057 59.6259 63.8524C59.1725 63.9991 58.7525 64.0724 58.3659 64.0724ZM66.7921 64.0724C66.3654 64.0724 65.9788 63.9924 65.6321 63.8324C65.2854 63.6591 65.0121 63.4457 64.8121 63.1924C64.6254 62.9391 64.5321 62.6924 64.5321 62.4524C64.5321 61.8657 64.6988 61.0724 65.0321 60.0724C65.3788 59.0724 65.7588 57.8324 66.1721 56.3524C65.8654 56.4191 65.6054 56.4724 65.3921 56.5124C65.1788 56.5524 65.0188 56.5724 64.9121 56.5724C64.6988 56.5724 64.4854 56.4657 64.2721 56.2524C64.0721 56.0257 63.9721 55.8124 63.9721 55.6124C63.9721 55.2924 64.8388 54.9857 66.5721 54.6924C66.8121 53.5857 66.9321 52.6057 66.9321 51.7524C66.9321 51.3524 67.0654 51.1524 67.3321 51.1524C67.4388 51.1524 67.5921 51.2057 67.7921 51.3124C68.0054 51.4191 68.2054 51.5791 68.3921 51.7924C68.5788 52.0057 68.6721 52.2791 68.6721 52.6124C68.6721 52.8257 68.6388 53.0857 68.5721 53.3924C68.5188 53.6857 68.4388 54.0391 68.3321 54.4524C68.7188 54.4257 69.0588 54.3991 69.3521 54.3724C69.6588 54.3457 69.9254 54.3324 70.1521 54.3324C70.9521 54.3324 71.3521 54.5124 71.3521 54.8724C71.3521 54.9391 71.2721 55.0324 71.1121 55.1524C70.9654 55.2591 70.6521 55.3857 70.1721 55.5324C69.6921 55.6657 68.9588 55.8191 67.9721 55.9924C67.9188 56.2057 67.8254 56.5391 67.6921 56.9924C67.5588 57.4457 67.4121 57.9524 67.2521 58.5124C67.0921 59.0591 66.9388 59.5924 66.7921 60.1124C66.6454 60.6324 66.5188 61.0724 66.4121 61.4324C66.3188 61.7924 66.2721 62.0057 66.2721 62.0724C66.2721 62.3257 66.4188 62.4524 66.7121 62.4524C66.9921 62.4524 67.2921 62.4124 67.6121 62.3324C67.9321 62.2391 68.2454 62.1391 68.5521 62.0324C68.8588 61.9124 69.1188 61.8124 69.3321 61.7324C69.5588 61.6391 69.7054 61.5924 69.7721 61.5924C70.0121 61.5924 70.1321 61.7191 70.1321 61.9724C70.1321 62.1724 70.0188 62.3924 69.7921 62.6324C69.5788 62.8724 69.2921 63.1057 68.9321 63.3324C68.5854 63.5457 68.2188 63.7257 67.8321 63.8724C67.4588 64.0057 67.1121 64.0724 66.7921 64.0724ZM79.0341 64.3324C78.8208 64.3324 78.6275 64.3124 78.4541 64.2724C78.2808 64.2457 78.1941 64.1124 78.1941 63.8724C78.1941 63.6991 78.2541 63.3924 78.3741 62.9524C78.4941 62.4991 78.6608 61.9724 78.8741 61.3724C79.0875 60.7591 79.3275 60.1057 79.5941 59.4124C79.8608 58.7057 80.1475 58.0057 80.4541 57.3124C80.7608 56.6191 81.0608 55.9791 81.3541 55.3924C80.9541 55.7257 80.5475 56.0391 80.1341 56.3324C79.7341 56.6257 79.3675 56.8657 79.0341 57.0524C78.7141 57.2391 78.4741 57.3324 78.3141 57.3324C78.0341 57.3324 77.8941 57.2057 77.8941 56.9524C77.8941 56.7791 78.0341 56.6057 78.3141 56.4324C78.7675 56.1524 79.2741 55.8191 79.8341 55.4324C80.4075 55.0324 81.0208 54.5191 81.6741 53.8924C82.3275 53.2524 82.9941 52.4391 83.6741 51.4524C83.8341 51.1991 83.9675 51.0191 84.0741 50.9124C84.1808 50.7924 84.3141 50.7324 84.4741 50.7324C84.5408 50.7324 84.6075 50.7591 84.6741 50.8124C84.7541 50.8657 84.7941 50.9457 84.7941 51.0524C84.7941 51.0924 84.6941 51.3791 84.4941 51.9124C84.2941 52.4324 84.0275 53.1257 83.6941 53.9924C83.3608 54.8591 82.9875 55.8391 82.5741 56.9324C82.1741 58.0124 81.7675 59.1457 81.3541 60.3324C80.9408 61.5057 80.5608 62.6591 80.2141 63.7924C80.1341 64.0457 79.9941 64.1991 79.7941 64.2524C79.5941 64.3057 79.3408 64.3324 79.0341 64.3324Z" fill="#FAF6F6"/>
<path d="M51.6251 137.063C51.5051 137.063 51.3584 136.997 51.1851 136.863C51.0251 136.717 50.8851 136.543 50.7651 136.343C50.6451 136.13 50.5851 135.917 50.5851 135.703C50.5851 135.45 50.6651 135.03 50.8251 134.443C50.9851 133.843 51.1851 133.143 51.4251 132.343C51.6651 131.543 51.9051 130.703 52.1451 129.823C52.3984 128.943 52.6051 128.083 52.7651 127.243C52.9384 126.403 53.0318 125.65 53.0451 124.983C52.7251 124.69 52.5651 124.423 52.5651 124.183C52.5651 124.023 52.6918 123.863 52.9451 123.703C53.1984 123.53 53.5251 123.377 53.9251 123.243C54.3251 123.097 54.7518 122.983 55.2051 122.903C55.6718 122.81 56.1118 122.763 56.5251 122.763C57.3784 122.763 58.1318 122.917 58.7851 123.223C59.4518 123.517 59.9718 123.93 60.3451 124.463C60.7184 124.983 60.9051 125.597 60.9051 126.303C60.9051 127.263 60.5918 128.13 59.9651 128.903C59.3384 129.663 58.4584 130.317 57.3251 130.863C56.1918 131.41 54.8718 131.83 53.3651 132.123C52.3918 135.417 51.8118 137.063 51.6251 137.063ZM53.8051 130.563C54.8718 130.283 55.8051 129.923 56.6051 129.483C57.4051 129.043 58.0251 128.563 58.4651 128.043C58.9184 127.51 59.1451 126.97 59.1451 126.423C59.1451 125.837 58.9251 125.357 58.4851 124.983C58.0451 124.597 57.5384 124.403 56.9651 124.403C56.5251 124.403 56.1318 124.45 55.7851 124.543C55.4518 124.637 55.0518 124.79 54.5851 125.003C54.7184 125.297 54.7851 125.57 54.7851 125.823C54.7851 126.57 54.4584 128.15 53.8051 130.563ZM62.0045 137.103C61.7645 137.103 61.5778 136.97 61.4445 136.703C61.3111 136.437 61.2445 136.203 61.2445 136.003C61.2445 135.697 61.3045 135.357 61.4245 134.983C61.5445 134.597 61.6778 134.157 61.8245 133.663C61.9711 133.157 62.1045 132.57 62.2245 131.903C62.3445 131.237 62.4045 130.463 62.4045 129.583C62.4045 129.33 62.3911 129.05 62.3645 128.743C62.3511 128.423 62.3445 128.137 62.3445 127.883C62.3445 127.683 62.3778 127.51 62.4445 127.363C62.5245 127.217 62.6378 127.143 62.7845 127.143C63.1045 127.143 63.3645 127.33 63.5645 127.703C63.7778 128.077 63.8845 128.477 63.8845 128.903C63.8845 129.237 63.8645 129.537 63.8245 129.803C64.9845 128.043 66.0845 127.163 67.1245 127.163C67.7778 127.163 68.1045 127.323 68.1045 127.643C68.1045 127.803 68.0311 127.957 67.8845 128.103C67.7511 128.25 67.5178 128.397 67.1845 128.543C66.7311 128.757 66.3178 129.03 65.9445 129.363C65.5711 129.697 65.2111 130.15 64.8645 130.723C64.5311 131.283 64.1911 132.017 63.8445 132.923C63.5111 133.83 63.1445 134.957 62.7445 136.303C62.6645 136.57 62.5578 136.77 62.4245 136.903C62.2911 137.037 62.1511 137.103 62.0045 137.103ZM70.6962 137.063C70.2429 137.063 69.8362 136.923 69.4762 136.643C69.1162 136.35 68.8295 135.957 68.6162 135.463C68.4162 134.957 68.3162 134.377 68.3162 133.723C68.3162 133.203 68.3962 132.65 68.5562 132.063C68.7162 131.463 68.9429 130.877 69.2362 130.303C69.5295 129.717 69.8762 129.19 70.2762 128.723C70.6762 128.243 71.1162 127.863 71.5962 127.583C72.0895 127.29 72.6095 127.143 73.1562 127.143C73.6762 127.143 74.1429 127.297 74.5562 127.603C74.9829 127.91 75.3162 128.33 75.5562 128.863C75.8095 129.383 75.9362 129.963 75.9362 130.603C75.9362 131.457 75.7895 132.27 75.4962 133.043C75.2029 133.817 74.8029 134.51 74.2962 135.123C73.8029 135.723 73.2429 136.197 72.6162 136.543C72.0029 136.89 71.3629 137.063 70.6962 137.063ZM70.7962 135.703C71.2095 135.703 71.6162 135.537 72.0162 135.203C72.4295 134.857 72.8029 134.417 73.1362 133.883C73.4829 133.337 73.7562 132.77 73.9562 132.183C74.1562 131.583 74.2562 131.037 74.2562 130.543C74.2562 130.237 74.2095 129.923 74.1162 129.603C74.0362 129.27 73.9295 128.99 73.7962 128.763C73.6629 128.523 73.5295 128.403 73.3962 128.403C73.0762 128.403 72.7562 128.53 72.4362 128.783C72.1162 129.037 71.8095 129.37 71.5162 129.783C71.2229 130.197 70.9629 130.65 70.7362 131.143C70.5095 131.623 70.3295 132.103 70.1962 132.583C70.0762 133.063 70.0162 133.497 70.0162 133.883C70.0162 134.31 70.0895 134.723 70.2362 135.123C70.3829 135.51 70.5695 135.703 70.7962 135.703ZM81.7787 125.863C81.5654 125.863 81.3254 125.777 81.0587 125.603C80.8054 125.417 80.5787 125.203 80.3787 124.963C80.192 124.71 80.0987 124.49 80.0987 124.303C80.0987 124.023 80.1987 123.77 80.3987 123.543C80.612 123.303 80.8387 123.183 81.0787 123.183C81.2387 123.183 81.412 123.317 81.5987 123.583C81.7987 123.837 81.9654 124.137 82.0987 124.483C82.2454 124.817 82.3187 125.103 82.3187 125.343C82.3187 125.477 82.2587 125.597 82.1387 125.703C82.0187 125.81 81.8987 125.863 81.7787 125.863ZM75.1387 142.263C74.8054 142.263 74.4654 142.183 74.1187 142.023C73.772 141.863 73.4587 141.663 73.1787 141.423C72.8987 141.183 72.672 140.93 72.4987 140.663C72.3254 140.41 72.2387 140.183 72.2387 139.983C72.2387 139.797 72.312 139.59 72.4587 139.363C72.592 139.137 72.7187 139.023 72.8387 139.023C72.9987 139.023 73.1587 139.117 73.3187 139.303C73.4787 139.49 73.6454 139.703 73.8187 139.943C73.992 140.197 74.192 140.417 74.4187 140.603C74.632 140.79 74.8787 140.883 75.1587 140.883C75.492 140.883 75.792 140.663 76.0587 140.223C76.3254 139.783 76.5654 139.17 76.7787 138.383C77.072 137.317 77.3387 136.257 77.5787 135.203C77.8187 134.15 78.072 133.05 78.3387 131.903C78.6054 130.743 78.9187 129.483 79.2787 128.123C79.4787 127.47 79.672 127.143 79.8587 127.143C80.0854 127.143 80.3187 127.29 80.5587 127.583C80.7987 127.863 80.9187 128.17 80.9187 128.503C80.9187 128.717 80.8587 129.09 80.7387 129.623C80.632 130.157 80.4787 130.797 80.2787 131.543C80.092 132.29 79.8787 133.097 79.6387 133.963C79.412 134.817 79.1787 135.69 78.9387 136.583C78.6987 137.477 78.472 138.323 78.2587 139.123C77.6854 141.217 76.6454 142.263 75.1387 142.263ZM85.6368 137.063C84.9435 137.063 84.3301 136.923 83.7968 136.643C83.2768 136.35 82.8635 135.957 82.5568 135.463C82.2635 134.97 82.1168 134.41 82.1168 133.783C82.1168 133.25 82.2035 132.683 82.3768 132.083C82.5635 131.483 82.8168 130.897 83.1368 130.323C83.4701 129.737 83.8501 129.203 84.2768 128.723C84.7168 128.243 85.1835 127.863 85.6768 127.583C86.1701 127.29 86.6835 127.143 87.2168 127.143C87.6168 127.143 87.9968 127.25 88.3568 127.463C88.7302 127.663 89.0635 127.93 89.3568 128.263C89.6635 128.597 89.9035 128.957 90.0768 129.343C90.2502 129.73 90.3368 130.097 90.3368 130.443C90.3368 130.883 90.2101 131.257 89.9568 131.563C89.7035 131.87 89.3768 132.123 88.9768 132.323C88.5768 132.51 88.1435 132.65 87.6768 132.743C87.2235 132.823 86.7968 132.863 86.3968 132.863C85.5301 132.863 84.7168 132.757 83.9568 132.543C83.7701 133.13 83.6768 133.65 83.6768 134.103C83.6768 134.57 83.8168 134.93 84.0968 135.183C84.3901 135.437 84.8701 135.563 85.5368 135.563C86.0168 135.563 86.4835 135.503 86.9368 135.383C87.3901 135.263 87.7768 135.15 88.0968 135.043C88.4302 134.923 88.6368 134.863 88.7168 134.863C89.0635 134.863 89.2368 134.997 89.2368 135.263C89.2368 135.437 89.1235 135.63 88.8968 135.843C88.6702 136.057 88.3768 136.257 88.0168 136.443C87.6568 136.617 87.2635 136.763 86.8368 136.883C86.4235 137.003 86.0235 137.063 85.6368 137.063ZM86.2368 131.583C86.9168 131.583 87.5102 131.477 88.0168 131.263C88.5235 131.037 88.7768 130.743 88.7768 130.383C88.7768 130.143 88.6968 129.897 88.5368 129.643C88.3902 129.377 88.2035 129.157 87.9768 128.983C87.7502 128.81 87.5302 128.723 87.3168 128.723C86.8235 128.723 86.3101 128.983 85.7768 129.503C85.2435 130.01 84.7901 130.643 84.4168 131.403C84.9501 131.523 85.5568 131.583 86.2368 131.583ZM94.6007 137.063C94.0807 137.063 93.5741 136.923 93.0807 136.643C92.5874 136.363 92.1807 135.99 91.8607 135.523C91.5407 135.057 91.3807 134.543 91.3807 133.983C91.3807 133.477 91.4874 132.917 91.7007 132.303C91.9141 131.69 92.2074 131.083 92.5807 130.483C92.9541 129.87 93.3807 129.31 93.8607 128.803C94.3407 128.297 94.8474 127.897 95.3807 127.603C95.9141 127.297 96.4474 127.143 96.9807 127.143C97.3407 127.143 97.6741 127.263 97.9807 127.503C98.3007 127.73 98.5541 128.003 98.7407 128.323C98.9407 128.643 99.0407 128.93 99.0407 129.183C99.0407 129.317 99.0007 129.417 98.9207 129.483C98.8407 129.537 98.7474 129.563 98.6407 129.563C98.5074 129.563 98.3674 129.503 98.2207 129.383C98.0741 129.263 97.9141 129.143 97.7407 129.023C97.5674 128.903 97.3607 128.843 97.1207 128.843C96.8274 128.843 96.5074 128.963 96.1607 129.203C95.8141 129.43 95.4607 129.743 95.1007 130.143C94.7541 130.53 94.4341 130.957 94.1407 131.423C93.8474 131.877 93.6074 132.337 93.4207 132.803C93.2474 133.27 93.1607 133.69 93.1607 134.063C93.1607 134.477 93.2874 134.803 93.5407 135.043C93.8074 135.283 94.2341 135.403 94.8207 135.403C95.4607 135.403 95.9941 135.337 96.4207 135.203C96.8607 135.057 97.2141 134.917 97.4807 134.783C97.7607 134.637 97.9874 134.563 98.1607 134.563C98.4141 134.563 98.5407 134.69 98.5407 134.943C98.5407 135.143 98.4074 135.363 98.1407 135.603C97.8874 135.843 97.5541 136.077 97.1407 136.303C96.7407 136.517 96.3141 136.697 95.8607 136.843C95.4074 136.99 94.9874 137.063 94.6007 137.063ZM103.027 137.063C102.6 137.063 102.214 136.983 101.867 136.823C101.52 136.65 101.247 136.437 101.047 136.183C100.86 135.93 100.767 135.683 100.767 135.443C100.767 134.857 100.934 134.063 101.267 133.063C101.614 132.063 101.994 130.823 102.407 129.343C102.1 129.41 101.84 129.463 101.627 129.503C101.414 129.543 101.254 129.563 101.147 129.563C100.934 129.563 100.72 129.457 100.507 129.243C100.307 129.017 100.207 128.803 100.207 128.603C100.207 128.283 101.074 127.977 102.807 127.683C103.047 126.577 103.167 125.597 103.167 124.743C103.167 124.343 103.3 124.143 103.567 124.143C103.674 124.143 103.827 124.197 104.027 124.303C104.24 124.41 104.44 124.57 104.627 124.783C104.814 124.997 104.907 125.27 104.907 125.603C104.907 125.817 104.874 126.077 104.807 126.383C104.754 126.677 104.674 127.03 104.567 127.443C104.954 127.417 105.294 127.39 105.587 127.363C105.894 127.337 106.16 127.323 106.387 127.323C107.187 127.323 107.587 127.503 107.587 127.863C107.587 127.93 107.507 128.023 107.347 128.143C107.2 128.25 106.887 128.377 106.407 128.523C105.927 128.657 105.194 128.81 104.207 128.983C104.154 129.197 104.06 129.53 103.927 129.983C103.794 130.437 103.647 130.943 103.487 131.503C103.327 132.05 103.174 132.583 103.027 133.103C102.88 133.623 102.754 134.063 102.647 134.423C102.554 134.783 102.507 134.997 102.507 135.063C102.507 135.317 102.654 135.443 102.947 135.443C103.227 135.443 103.527 135.403 103.847 135.323C104.167 135.23 104.48 135.13 104.787 135.023C105.094 134.903 105.354 134.803 105.567 134.723C105.794 134.63 105.94 134.583 106.007 134.583C106.247 134.583 106.367 134.71 106.367 134.963C106.367 135.163 106.254 135.383 106.027 135.623C105.814 135.863 105.527 136.097 105.167 136.323C104.82 136.537 104.454 136.717 104.067 136.863C103.694 136.997 103.347 137.063 103.027 137.063ZM120.549 137.043C120.122 137.043 119.689 136.983 119.249 136.863C118.809 136.73 118.369 136.59 117.929 136.443C117.489 136.297 117.042 136.197 116.589 136.143C116.269 136.437 115.996 136.643 115.769 136.763C115.542 136.883 115.316 136.943 115.089 136.943C114.676 136.943 114.349 136.83 114.109 136.603C113.882 136.363 113.769 135.997 113.769 135.503C113.769 135.037 113.922 134.677 114.229 134.423C114.549 134.157 114.936 134.023 115.389 134.023C115.536 134.023 115.682 134.037 115.829 134.063C115.989 134.077 116.149 134.11 116.309 134.163C116.776 133.75 117.269 133.263 117.789 132.703C118.309 132.143 118.796 131.557 119.249 130.943C119.702 130.317 120.069 129.697 120.349 129.083C120.642 128.457 120.789 127.87 120.789 127.323C120.789 126.937 120.662 126.65 120.409 126.463C120.156 126.277 119.849 126.183 119.489 126.183C119.102 126.183 118.709 126.29 118.309 126.503C117.909 126.717 117.576 126.997 117.309 127.343C117.042 127.677 116.909 128.03 116.909 128.403C116.909 128.617 116.976 128.79 117.109 128.923C117.256 129.057 117.416 129.123 117.589 129.123C117.816 129.123 118.009 129.05 118.169 128.903C118.329 128.757 118.529 128.683 118.769 128.683C118.916 128.683 119.029 128.73 119.109 128.823C119.189 128.903 119.229 129.003 119.229 129.123C119.229 129.363 119.109 129.57 118.869 129.743C118.629 129.903 118.342 130.03 118.009 130.123C117.689 130.203 117.396 130.243 117.129 130.243C116.676 130.243 116.269 130.137 115.909 129.923C115.549 129.697 115.369 129.337 115.369 128.843C115.369 128.297 115.516 127.777 115.809 127.283C116.102 126.777 116.489 126.323 116.969 125.923C117.449 125.523 117.976 125.21 118.549 124.983C119.136 124.757 119.716 124.643 120.289 124.643C121.156 124.643 121.816 124.883 122.269 125.363C122.722 125.83 122.949 126.397 122.949 127.063C122.949 127.663 122.816 128.27 122.549 128.883C122.282 129.483 121.942 130.077 121.529 130.663C121.116 131.25 120.669 131.803 120.189 132.323C119.709 132.843 119.249 133.317 118.809 133.743C118.382 134.17 118.022 134.537 117.729 134.843C118.289 135.217 118.802 135.47 119.269 135.603C119.736 135.723 120.156 135.783 120.529 135.783C120.969 135.783 121.349 135.73 121.669 135.623C121.989 135.517 122.302 135.463 122.609 135.463C122.756 135.463 122.829 135.563 122.829 135.763C122.829 135.99 122.702 136.203 122.449 136.403C122.209 136.59 121.909 136.743 121.549 136.863C121.202 136.983 120.869 137.043 120.549 137.043Z" fill="#FAF6F6"/>
<path d="M154.352 185.16C154.232 185.16 154.085 185.093 153.912 184.96C153.752 184.813 153.612 184.64 153.492 184.44C153.372 184.227 153.312 184.013 153.312 183.8C153.312 183.547 153.392 183.127 153.552 182.54C153.712 181.94 153.912 181.24 154.152 180.44C154.392 179.64 154.632 178.8 154.872 177.92C155.125 177.04 155.332 176.18 155.492 175.34C155.665 174.5 155.758 173.747 155.772 173.08C155.452 172.787 155.292 172.52 155.292 172.28C155.292 172.12 155.418 171.96 155.672 171.8C155.925 171.627 156.252 171.473 156.652 171.34C157.052 171.193 157.478 171.08 157.932 171C158.398 170.907 158.838 170.86 159.252 170.86C160.105 170.86 160.858 171.013 161.512 171.32C162.178 171.613 162.698 172.027 163.072 172.56C163.445 173.08 163.632 173.693 163.632 174.4C163.632 175.36 163.318 176.227 162.692 177C162.065 177.76 161.185 178.413 160.052 178.96C158.918 179.507 157.598 179.927 156.092 180.22C155.118 183.513 154.538 185.16 154.352 185.16ZM156.532 178.66C157.598 178.38 158.532 178.02 159.332 177.58C160.132 177.14 160.752 176.66 161.192 176.14C161.645 175.607 161.872 175.067 161.872 174.52C161.872 173.933 161.652 173.453 161.212 173.08C160.772 172.693 160.265 172.5 159.692 172.5C159.252 172.5 158.858 172.547 158.512 172.64C158.178 172.733 157.778 172.887 157.312 173.1C157.445 173.393 157.512 173.667 157.512 173.92C157.512 174.667 157.185 176.247 156.532 178.66ZM164.731 185.2C164.491 185.2 164.304 185.067 164.171 184.8C164.038 184.533 163.971 184.3 163.971 184.1C163.971 183.793 164.031 183.453 164.151 183.08C164.271 182.693 164.404 182.253 164.551 181.76C164.698 181.253 164.831 180.667 164.951 180C165.071 179.333 165.131 178.56 165.131 177.68C165.131 177.427 165.118 177.147 165.091 176.84C165.078 176.52 165.071 176.233 165.071 175.98C165.071 175.78 165.104 175.607 165.171 175.46C165.251 175.313 165.364 175.24 165.511 175.24C165.831 175.24 166.091 175.427 166.291 175.8C166.504 176.173 166.611 176.573 166.611 177C166.611 177.333 166.591 177.633 166.551 177.9C167.711 176.14 168.811 175.26 169.851 175.26C170.504 175.26 170.831 175.42 170.831 175.74C170.831 175.9 170.758 176.053 170.611 176.2C170.478 176.347 170.244 176.493 169.911 176.64C169.458 176.853 169.044 177.127 168.671 177.46C168.298 177.793 167.938 178.247 167.591 178.82C167.258 179.38 166.918 180.113 166.571 181.02C166.238 181.927 165.871 183.053 165.471 184.4C165.391 184.667 165.284 184.867 165.151 185C165.018 185.133 164.878 185.2 164.731 185.2ZM173.423 185.16C172.969 185.16 172.563 185.02 172.203 184.74C171.843 184.447 171.556 184.053 171.343 183.56C171.143 183.053 171.043 182.473 171.043 181.82C171.043 181.3 171.123 180.747 171.283 180.16C171.443 179.56 171.669 178.973 171.963 178.4C172.256 177.813 172.603 177.287 173.003 176.82C173.403 176.34 173.843 175.96 174.323 175.68C174.816 175.387 175.336 175.24 175.883 175.24C176.403 175.24 176.869 175.393 177.283 175.7C177.709 176.007 178.043 176.427 178.283 176.96C178.536 177.48 178.663 178.06 178.663 178.7C178.663 179.553 178.516 180.367 178.223 181.14C177.929 181.913 177.529 182.607 177.023 183.22C176.529 183.82 175.969 184.293 175.343 184.64C174.729 184.987 174.089 185.16 173.423 185.16ZM173.523 183.8C173.936 183.8 174.343 183.633 174.743 183.3C175.156 182.953 175.529 182.513 175.863 181.98C176.209 181.433 176.483 180.867 176.683 180.28C176.883 179.68 176.983 179.133 176.983 178.64C176.983 178.333 176.936 178.02 176.843 177.7C176.763 177.367 176.656 177.087 176.523 176.86C176.389 176.62 176.256 176.5 176.123 176.5C175.803 176.5 175.483 176.627 175.163 176.88C174.843 177.133 174.536 177.467 174.243 177.88C173.949 178.293 173.689 178.747 173.463 179.24C173.236 179.72 173.056 180.2 172.923 180.68C172.803 181.16 172.743 181.593 172.743 181.98C172.743 182.407 172.816 182.82 172.963 183.22C173.109 183.607 173.296 183.8 173.523 183.8ZM184.505 173.96C184.292 173.96 184.052 173.873 183.785 173.7C183.532 173.513 183.305 173.3 183.105 173.06C182.919 172.807 182.825 172.587 182.825 172.4C182.825 172.12 182.925 171.867 183.125 171.64C183.339 171.4 183.565 171.28 183.805 171.28C183.965 171.28 184.139 171.413 184.325 171.68C184.525 171.933 184.692 172.233 184.825 172.58C184.972 172.913 185.045 173.2 185.045 173.44C185.045 173.573 184.985 173.693 184.865 173.8C184.745 173.907 184.625 173.96 184.505 173.96ZM177.865 190.36C177.532 190.36 177.192 190.28 176.845 190.12C176.499 189.96 176.185 189.76 175.905 189.52C175.625 189.28 175.399 189.027 175.225 188.76C175.052 188.507 174.965 188.28 174.965 188.08C174.965 187.893 175.039 187.687 175.185 187.46C175.319 187.233 175.445 187.12 175.565 187.12C175.725 187.12 175.885 187.213 176.045 187.4C176.205 187.587 176.372 187.8 176.545 188.04C176.719 188.293 176.919 188.513 177.145 188.7C177.359 188.887 177.605 188.98 177.885 188.98C178.219 188.98 178.519 188.76 178.785 188.32C179.052 187.88 179.292 187.267 179.505 186.48C179.799 185.413 180.065 184.353 180.305 183.3C180.545 182.247 180.799 181.147 181.065 180C181.332 178.84 181.645 177.58 182.005 176.22C182.205 175.567 182.399 175.24 182.585 175.24C182.812 175.24 183.045 175.387 183.285 175.68C183.525 175.96 183.645 176.267 183.645 176.6C183.645 176.813 183.585 177.187 183.465 177.72C183.359 178.253 183.205 178.893 183.005 179.64C182.819 180.387 182.605 181.193 182.365 182.06C182.139 182.913 181.905 183.787 181.665 184.68C181.425 185.573 181.199 186.42 180.985 187.22C180.412 189.313 179.372 190.36 177.865 190.36ZM188.363 185.16C187.67 185.16 187.057 185.02 186.523 184.74C186.003 184.447 185.59 184.053 185.283 183.56C184.99 183.067 184.843 182.507 184.843 181.88C184.843 181.347 184.93 180.78 185.103 180.18C185.29 179.58 185.543 178.993 185.863 178.42C186.197 177.833 186.577 177.3 187.003 176.82C187.443 176.34 187.91 175.96 188.403 175.68C188.897 175.387 189.41 175.24 189.943 175.24C190.343 175.24 190.723 175.347 191.083 175.56C191.457 175.76 191.79 176.027 192.083 176.36C192.39 176.693 192.63 177.053 192.803 177.44C192.977 177.827 193.063 178.193 193.063 178.54C193.063 178.98 192.937 179.353 192.683 179.66C192.43 179.967 192.103 180.22 191.703 180.42C191.303 180.607 190.87 180.747 190.403 180.84C189.95 180.92 189.523 180.96 189.123 180.96C188.257 180.96 187.443 180.853 186.683 180.64C186.497 181.227 186.403 181.747 186.403 182.2C186.403 182.667 186.543 183.027 186.823 183.28C187.117 183.533 187.597 183.66 188.263 183.66C188.743 183.66 189.21 183.6 189.663 183.48C190.117 183.36 190.503 183.247 190.823 183.14C191.157 183.02 191.363 182.96 191.443 182.96C191.79 182.96 191.963 183.093 191.963 183.36C191.963 183.533 191.85 183.727 191.623 183.94C191.397 184.153 191.103 184.353 190.743 184.54C190.383 184.713 189.99 184.86 189.563 184.98C189.15 185.1 188.75 185.16 188.363 185.16ZM188.963 179.68C189.643 179.68 190.237 179.573 190.743 179.36C191.25 179.133 191.503 178.84 191.503 178.48C191.503 178.24 191.423 177.993 191.263 177.74C191.117 177.473 190.93 177.253 190.703 177.08C190.477 176.907 190.257 176.82 190.043 176.82C189.55 176.82 189.037 177.08 188.503 177.6C187.97 178.107 187.517 178.74 187.143 179.5C187.677 179.62 188.283 179.68 188.963 179.68ZM197.327 185.16C196.807 185.16 196.301 185.02 195.807 184.74C195.314 184.46 194.907 184.087 194.587 183.62C194.267 183.153 194.107 182.64 194.107 182.08C194.107 181.573 194.214 181.013 194.427 180.4C194.641 179.787 194.934 179.18 195.307 178.58C195.681 177.967 196.107 177.407 196.587 176.9C197.067 176.393 197.574 175.993 198.107 175.7C198.641 175.393 199.174 175.24 199.707 175.24C200.067 175.24 200.401 175.36 200.707 175.6C201.027 175.827 201.281 176.1 201.467 176.42C201.667 176.74 201.767 177.027 201.767 177.28C201.767 177.413 201.727 177.513 201.647 177.58C201.567 177.633 201.474 177.66 201.367 177.66C201.234 177.66 201.094 177.6 200.947 177.48C200.801 177.36 200.641 177.24 200.467 177.12C200.294 177 200.087 176.94 199.847 176.94C199.554 176.94 199.234 177.06 198.887 177.3C198.541 177.527 198.187 177.84 197.827 178.24C197.481 178.627 197.161 179.053 196.867 179.52C196.574 179.973 196.334 180.433 196.147 180.9C195.974 181.367 195.887 181.787 195.887 182.16C195.887 182.573 196.014 182.9 196.267 183.14C196.534 183.38 196.961 183.5 197.547 183.5C198.187 183.5 198.721 183.433 199.147 183.3C199.587 183.153 199.941 183.013 200.207 182.88C200.487 182.733 200.714 182.66 200.887 182.66C201.141 182.66 201.267 182.787 201.267 183.04C201.267 183.24 201.134 183.46 200.867 183.7C200.614 183.94 200.281 184.173 199.867 184.4C199.467 184.613 199.041 184.793 198.587 184.94C198.134 185.087 197.714 185.16 197.327 185.16ZM205.754 185.16C205.327 185.16 204.94 185.08 204.594 184.92C204.247 184.747 203.974 184.533 203.774 184.28C203.587 184.027 203.494 183.78 203.494 183.54C203.494 182.953 203.66 182.16 203.994 181.16C204.34 180.16 204.72 178.92 205.134 177.44C204.827 177.507 204.567 177.56 204.354 177.6C204.14 177.64 203.98 177.66 203.874 177.66C203.66 177.66 203.447 177.553 203.234 177.34C203.034 177.113 202.934 176.9 202.934 176.7C202.934 176.38 203.8 176.073 205.534 175.78C205.774 174.673 205.894 173.693 205.894 172.84C205.894 172.44 206.027 172.24 206.294 172.24C206.4 172.24 206.554 172.293 206.754 172.4C206.967 172.507 207.167 172.667 207.354 172.88C207.54 173.093 207.634 173.367 207.634 173.7C207.634 173.913 207.6 174.173 207.534 174.48C207.48 174.773 207.4 175.127 207.294 175.54C207.68 175.513 208.02 175.487 208.314 175.46C208.62 175.433 208.887 175.42 209.114 175.42C209.914 175.42 210.314 175.6 210.314 175.96C210.314 176.027 210.234 176.12 210.074 176.24C209.927 176.347 209.614 176.473 209.134 176.62C208.654 176.753 207.92 176.907 206.934 177.08C206.88 177.293 206.787 177.627 206.654 178.08C206.52 178.533 206.374 179.04 206.214 179.6C206.054 180.147 205.9 180.68 205.754 181.2C205.607 181.72 205.48 182.16 205.374 182.52C205.28 182.88 205.234 183.093 205.234 183.16C205.234 183.413 205.38 183.54 205.674 183.54C205.954 183.54 206.254 183.5 206.574 183.42C206.894 183.327 207.207 183.227 207.514 183.12C207.82 183 208.08 182.9 208.294 182.82C208.52 182.727 208.667 182.68 208.734 182.68C208.974 182.68 209.094 182.807 209.094 183.06C209.094 183.26 208.98 183.48 208.754 183.72C208.54 183.96 208.254 184.193 207.894 184.42C207.547 184.633 207.18 184.813 206.794 184.96C206.42 185.093 206.074 185.16 205.754 185.16ZM178.941 205.24C178.528 205.24 178.115 205.18 177.701 205.06C177.301 204.94 176.968 204.767 176.701 204.54C176.448 204.3 176.321 204.02 176.321 203.7C176.321 203.433 176.421 203.227 176.621 203.08C176.821 202.92 177.055 202.84 177.321 202.84C177.601 202.84 177.821 202.92 177.981 203.08C178.101 203.2 178.195 203.353 178.261 203.54C178.328 203.727 178.421 203.893 178.541 204.04C178.661 204.187 178.861 204.26 179.141 204.26C179.888 204.26 180.555 204.093 181.141 203.76C181.741 203.413 182.215 202.953 182.561 202.38C182.908 201.807 183.081 201.16 183.081 200.44C183.081 199.787 182.908 199.287 182.561 198.94C182.215 198.593 181.828 198.42 181.401 198.42C181.175 198.42 180.988 198.447 180.841 198.5C180.708 198.54 180.508 198.56 180.241 198.56C179.948 198.56 179.801 198.453 179.801 198.24C179.801 198.067 179.928 197.94 180.181 197.86C180.995 197.673 181.635 197.327 182.101 196.82C182.568 196.313 182.801 195.74 182.801 195.1C182.801 194.66 182.688 194.313 182.461 194.06C182.235 193.793 181.948 193.66 181.601 193.66C181.241 193.66 181.001 193.76 180.881 193.96C180.761 194.147 180.641 194.347 180.521 194.56C180.441 194.693 180.315 194.813 180.141 194.92C179.968 195.013 179.721 195.06 179.401 195.06C178.921 195.06 178.681 194.84 178.681 194.4C178.681 194.173 178.788 193.933 179.001 193.68C179.215 193.413 179.541 193.187 179.981 193C180.435 192.813 181.015 192.72 181.721 192.72C182.201 192.72 182.668 192.8 183.121 192.96C183.588 193.107 183.968 193.347 184.261 193.68C184.568 194 184.721 194.427 184.721 194.96C184.721 195.4 184.628 195.873 184.441 196.38C184.255 196.873 183.908 197.293 183.401 197.64C183.935 197.88 184.335 198.247 184.601 198.74C184.868 199.233 185.001 199.813 185.001 200.48C185.001 201.293 184.815 202 184.441 202.6C184.081 203.2 183.601 203.7 183.001 204.1C182.415 204.487 181.761 204.773 181.041 204.96C180.335 205.147 179.635 205.24 178.941 205.24Z" fill="#FAF6F6"/>
<path d="M217.293 144.16C217.173 144.16 217.026 144.093 216.853 143.96C216.693 143.813 216.553 143.64 216.433 143.44C216.313 143.227 216.253 143.013 216.253 142.8C216.253 142.547 216.333 142.127 216.493 141.54C216.653 140.94 216.853 140.24 217.093 139.44C217.333 138.64 217.573 137.8 217.813 136.92C218.066 136.04 218.273 135.18 218.433 134.34C218.606 133.5 218.7 132.747 218.713 132.08C218.393 131.787 218.233 131.52 218.233 131.28C218.233 131.12 218.36 130.96 218.613 130.8C218.866 130.627 219.193 130.473 219.593 130.34C219.993 130.193 220.42 130.08 220.873 130C221.34 129.907 221.78 129.86 222.193 129.86C223.046 129.86 223.8 130.013 224.453 130.32C225.12 130.613 225.64 131.027 226.013 131.56C226.386 132.08 226.573 132.693 226.573 133.4C226.573 134.36 226.26 135.227 225.633 136C225.006 136.76 224.126 137.413 222.993 137.96C221.86 138.507 220.54 138.927 219.033 139.22C218.06 142.513 217.48 144.16 217.293 144.16ZM219.473 137.66C220.54 137.38 221.473 137.02 222.273 136.58C223.073 136.14 223.693 135.66 224.133 135.14C224.586 134.607 224.813 134.067 224.813 133.52C224.813 132.933 224.593 132.453 224.153 132.08C223.713 131.693 223.206 131.5 222.633 131.5C222.193 131.5 221.8 131.547 221.453 131.64C221.12 131.733 220.72 131.887 220.253 132.1C220.386 132.393 220.453 132.667 220.453 132.92C220.453 133.667 220.126 135.247 219.473 137.66ZM227.672 144.2C227.432 144.2 227.246 144.067 227.112 143.8C226.979 143.533 226.912 143.3 226.912 143.1C226.912 142.793 226.972 142.453 227.092 142.08C227.212 141.693 227.346 141.253 227.492 140.76C227.639 140.253 227.772 139.667 227.892 139C228.012 138.333 228.072 137.56 228.072 136.68C228.072 136.427 228.059 136.147 228.032 135.84C228.019 135.52 228.012 135.233 228.012 134.98C228.012 134.78 228.046 134.607 228.112 134.46C228.192 134.313 228.306 134.24 228.452 134.24C228.772 134.24 229.032 134.427 229.232 134.8C229.446 135.173 229.552 135.573 229.552 136C229.552 136.333 229.532 136.633 229.492 136.9C230.652 135.14 231.752 134.26 232.792 134.26C233.446 134.26 233.772 134.42 233.772 134.74C233.772 134.9 233.699 135.053 233.552 135.2C233.419 135.347 233.186 135.493 232.852 135.64C232.399 135.853 231.986 136.127 231.612 136.46C231.239 136.793 230.879 137.247 230.532 137.82C230.199 138.38 229.859 139.113 229.512 140.02C229.179 140.927 228.812 142.053 228.412 143.4C228.332 143.667 228.226 143.867 228.092 144C227.959 144.133 227.819 144.2 227.672 144.2ZM236.364 144.16C235.911 144.16 235.504 144.02 235.144 143.74C234.784 143.447 234.497 143.053 234.284 142.56C234.084 142.053 233.984 141.473 233.984 140.82C233.984 140.3 234.064 139.747 234.224 139.16C234.384 138.56 234.611 137.973 234.904 137.4C235.197 136.813 235.544 136.287 235.944 135.82C236.344 135.34 236.784 134.96 237.264 134.68C237.757 134.387 238.277 134.24 238.824 134.24C239.344 134.24 239.811 134.393 240.224 134.7C240.651 135.007 240.984 135.427 241.224 135.96C241.477 136.48 241.604 137.06 241.604 137.7C241.604 138.553 241.457 139.367 241.164 140.14C240.871 140.913 240.471 141.607 239.964 142.22C239.471 142.82 238.911 143.293 238.284 143.64C237.671 143.987 237.031 144.16 236.364 144.16ZM236.464 142.8C236.877 142.8 237.284 142.633 237.684 142.3C238.097 141.953 238.471 141.513 238.804 140.98C239.151 140.433 239.424 139.867 239.624 139.28C239.824 138.68 239.924 138.133 239.924 137.64C239.924 137.333 239.877 137.02 239.784 136.7C239.704 136.367 239.597 136.087 239.464 135.86C239.331 135.62 239.197 135.5 239.064 135.5C238.744 135.5 238.424 135.627 238.104 135.88C237.784 136.133 237.477 136.467 237.184 136.88C236.891 137.293 236.631 137.747 236.404 138.24C236.177 138.72 235.997 139.2 235.864 139.68C235.744 140.16 235.684 140.593 235.684 140.98C235.684 141.407 235.757 141.82 235.904 142.22C236.051 142.607 236.237 142.8 236.464 142.8ZM247.447 132.96C247.233 132.96 246.993 132.873 246.727 132.7C246.473 132.513 246.247 132.3 246.047 132.06C245.86 131.807 245.767 131.587 245.767 131.4C245.767 131.12 245.867 130.867 246.067 130.64C246.28 130.4 246.507 130.28 246.747 130.28C246.907 130.28 247.08 130.413 247.267 130.68C247.467 130.933 247.633 131.233 247.767 131.58C247.913 131.913 247.987 132.2 247.987 132.44C247.987 132.573 247.927 132.693 247.807 132.8C247.687 132.907 247.567 132.96 247.447 132.96ZM240.807 149.36C240.473 149.36 240.133 149.28 239.787 149.12C239.44 148.96 239.127 148.76 238.847 148.52C238.567 148.28 238.34 148.027 238.167 147.76C237.993 147.507 237.907 147.28 237.907 147.08C237.907 146.893 237.98 146.687 238.127 146.46C238.26 146.233 238.387 146.12 238.507 146.12C238.667 146.12 238.827 146.213 238.987 146.4C239.147 146.587 239.313 146.8 239.487 147.04C239.66 147.293 239.86 147.513 240.087 147.7C240.3 147.887 240.547 147.98 240.827 147.98C241.16 147.98 241.46 147.76 241.727 147.32C241.993 146.88 242.233 146.267 242.447 145.48C242.74 144.413 243.007 143.353 243.247 142.3C243.487 141.247 243.74 140.147 244.007 139C244.273 137.84 244.587 136.58 244.947 135.22C245.147 134.567 245.34 134.24 245.527 134.24C245.753 134.24 245.987 134.387 246.227 134.68C246.467 134.96 246.587 135.267 246.587 135.6C246.587 135.813 246.527 136.187 246.407 136.72C246.3 137.253 246.147 137.893 245.947 138.64C245.76 139.387 245.547 140.193 245.307 141.06C245.08 141.913 244.847 142.787 244.607 143.68C244.367 144.573 244.14 145.42 243.927 146.22C243.353 148.313 242.313 149.36 240.807 149.36ZM251.305 144.16C250.611 144.16 249.998 144.02 249.465 143.74C248.945 143.447 248.531 143.053 248.225 142.56C247.931 142.067 247.785 141.507 247.785 140.88C247.785 140.347 247.871 139.78 248.045 139.18C248.231 138.58 248.485 137.993 248.805 137.42C249.138 136.833 249.518 136.3 249.945 135.82C250.385 135.34 250.851 134.96 251.345 134.68C251.838 134.387 252.351 134.24 252.885 134.24C253.285 134.24 253.665 134.347 254.025 134.56C254.398 134.76 254.731 135.027 255.025 135.36C255.331 135.693 255.571 136.053 255.745 136.44C255.918 136.827 256.005 137.193 256.005 137.54C256.005 137.98 255.878 138.353 255.625 138.66C255.371 138.967 255.045 139.22 254.645 139.42C254.245 139.607 253.811 139.747 253.345 139.84C252.891 139.92 252.465 139.96 252.065 139.96C251.198 139.96 250.385 139.853 249.625 139.64C249.438 140.227 249.345 140.747 249.345 141.2C249.345 141.667 249.485 142.027 249.765 142.28C250.058 142.533 250.538 142.66 251.205 142.66C251.685 142.66 252.151 142.6 252.605 142.48C253.058 142.36 253.445 142.247 253.765 142.14C254.098 142.02 254.305 141.96 254.385 141.96C254.731 141.96 254.905 142.093 254.905 142.36C254.905 142.533 254.791 142.727 254.565 142.94C254.338 143.153 254.045 143.353 253.685 143.54C253.325 143.713 252.931 143.86 252.505 143.98C252.091 144.1 251.691 144.16 251.305 144.16ZM251.905 138.68C252.585 138.68 253.178 138.573 253.685 138.36C254.191 138.133 254.445 137.84 254.445 137.48C254.445 137.24 254.365 136.993 254.205 136.74C254.058 136.473 253.871 136.253 253.645 136.08C253.418 135.907 253.198 135.82 252.985 135.82C252.491 135.82 251.978 136.08 251.445 136.6C250.911 137.107 250.458 137.74 250.085 138.5C250.618 138.62 251.225 138.68 251.905 138.68ZM260.269 144.16C259.749 144.16 259.242 144.02 258.749 143.74C258.255 143.46 257.849 143.087 257.529 142.62C257.209 142.153 257.049 141.64 257.049 141.08C257.049 140.573 257.155 140.013 257.369 139.4C257.582 138.787 257.875 138.18 258.249 137.58C258.622 136.967 259.049 136.407 259.529 135.9C260.009 135.393 260.515 134.993 261.049 134.7C261.582 134.393 262.115 134.24 262.649 134.24C263.009 134.24 263.342 134.36 263.649 134.6C263.969 134.827 264.222 135.1 264.409 135.42C264.609 135.74 264.709 136.027 264.709 136.28C264.709 136.413 264.669 136.513 264.589 136.58C264.509 136.633 264.415 136.66 264.309 136.66C264.175 136.66 264.035 136.6 263.889 136.48C263.742 136.36 263.582 136.24 263.409 136.12C263.235 136 263.029 135.94 262.789 135.94C262.495 135.94 262.175 136.06 261.829 136.3C261.482 136.527 261.129 136.84 260.769 137.24C260.422 137.627 260.102 138.053 259.809 138.52C259.515 138.973 259.275 139.433 259.089 139.9C258.915 140.367 258.829 140.787 258.829 141.16C258.829 141.573 258.955 141.9 259.209 142.14C259.475 142.38 259.902 142.5 260.489 142.5C261.129 142.5 261.662 142.433 262.089 142.3C262.529 142.153 262.882 142.013 263.149 141.88C263.429 141.733 263.655 141.66 263.829 141.66C264.082 141.66 264.209 141.787 264.209 142.04C264.209 142.24 264.075 142.46 263.809 142.7C263.555 142.94 263.222 143.173 262.809 143.4C262.409 143.613 261.982 143.793 261.529 143.94C261.075 144.087 260.655 144.16 260.269 144.16ZM268.695 144.16C268.268 144.16 267.882 144.08 267.535 143.92C267.188 143.747 266.915 143.533 266.715 143.28C266.528 143.027 266.435 142.78 266.435 142.54C266.435 141.953 266.602 141.16 266.935 140.16C267.282 139.16 267.662 137.92 268.075 136.44C267.768 136.507 267.508 136.56 267.295 136.6C267.082 136.64 266.922 136.66 266.815 136.66C266.602 136.66 266.388 136.553 266.175 136.34C265.975 136.113 265.875 135.9 265.875 135.7C265.875 135.38 266.742 135.073 268.475 134.78C268.715 133.673 268.835 132.693 268.835 131.84C268.835 131.44 268.968 131.24 269.235 131.24C269.342 131.24 269.495 131.293 269.695 131.4C269.908 131.507 270.108 131.667 270.295 131.88C270.482 132.093 270.575 132.367 270.575 132.7C270.575 132.913 270.542 133.173 270.475 133.48C270.422 133.773 270.342 134.127 270.235 134.54C270.622 134.513 270.962 134.487 271.255 134.46C271.562 134.433 271.828 134.42 272.055 134.42C272.855 134.42 273.255 134.6 273.255 134.96C273.255 135.027 273.175 135.12 273.015 135.24C272.868 135.347 272.555 135.473 272.075 135.62C271.595 135.753 270.862 135.907 269.875 136.08C269.822 136.293 269.728 136.627 269.595 137.08C269.462 137.533 269.315 138.04 269.155 138.6C268.995 139.147 268.842 139.68 268.695 140.2C268.548 140.72 268.422 141.16 268.315 141.52C268.222 141.88 268.175 142.093 268.175 142.16C268.175 142.413 268.322 142.54 268.615 142.54C268.895 142.54 269.195 142.5 269.515 142.42C269.835 142.327 270.148 142.227 270.455 142.12C270.762 142 271.022 141.9 271.235 141.82C271.462 141.727 271.608 141.68 271.675 141.68C271.915 141.68 272.035 141.807 272.035 142.06C272.035 142.26 271.922 142.48 271.695 142.72C271.482 142.96 271.195 143.193 270.835 143.42C270.488 143.633 270.122 143.813 269.735 143.96C269.362 144.093 269.015 144.16 268.695 144.16ZM282.477 147.62C282.237 147.62 282.097 147.58 282.057 147.5C282.017 147.433 281.997 147.333 281.997 147.2C281.997 147.147 282.057 146.953 282.177 146.62C282.31 146.287 282.484 145.853 282.697 145.32C282.924 144.8 283.164 144.227 283.417 143.6C282.804 143.547 282.17 143.507 281.517 143.48C280.864 143.44 280.197 143.42 279.517 143.42C279.024 143.42 278.67 143.327 278.457 143.14C278.244 142.953 278.137 142.747 278.137 142.52C278.137 142.173 278.297 141.873 278.617 141.62C279.204 141.14 279.81 140.587 280.437 139.96C281.064 139.32 281.684 138.653 282.297 137.96C282.924 137.267 283.517 136.587 284.077 135.92C284.637 135.24 285.144 134.62 285.597 134.06C286.05 133.487 286.424 133.02 286.717 132.66C287.01 132.287 287.19 132.067 287.257 132C287.337 131.92 287.41 131.853 287.477 131.8C287.544 131.747 287.624 131.72 287.717 131.72C287.89 131.72 287.977 131.827 287.977 132.04C287.977 132.28 287.85 132.653 287.597 133.16C287.357 133.667 287.024 134.253 286.597 134.92C286.184 135.573 285.71 136.26 285.177 136.98C284.657 137.7 284.11 138.407 283.537 139.1C282.977 139.78 282.424 140.407 281.877 140.98C281.344 141.54 280.857 141.987 280.417 142.32C280.964 142.307 281.544 142.287 282.157 142.26C282.784 142.22 283.39 142.187 283.977 142.16C284.257 141.453 284.524 140.76 284.777 140.08C285.03 139.4 285.224 138.813 285.357 138.32C285.437 138.053 285.59 137.9 285.817 137.86C286.057 137.807 286.297 137.78 286.537 137.78C286.804 137.78 287.01 137.8 287.157 137.84C287.304 137.88 287.377 138.033 287.377 138.3C287.377 138.393 287.31 138.633 287.177 139.02C287.044 139.393 286.864 139.86 286.637 140.42C286.424 140.967 286.177 141.547 285.897 142.16C286.11 142.16 286.33 142.173 286.557 142.2C286.797 142.213 286.997 142.267 287.157 142.36C287.33 142.44 287.417 142.587 287.417 142.8C287.417 142.92 287.364 143.08 287.257 143.28C287.164 143.48 287.037 143.66 286.877 143.82C286.717 143.98 286.544 144.06 286.357 144.06C286.224 144.06 286.024 144.033 285.757 143.98C285.504 143.913 285.284 143.867 285.097 143.84C284.764 144.52 284.43 145.147 284.097 145.72C283.764 146.293 283.457 146.753 283.177 147.1C282.897 147.447 282.664 147.62 282.477 147.62Z" fill="#FAF6F6"/>
<defs>
<filter id="filter0_d_77_523" x="30.4883" y="85.7893" width="122.277" height="77.1381" filterUnits="userSpaceOnUse" color-interpolation-filters="sRGB">
<feFlood flood-opacity="0" result="BackgroundImageFix"/>
<feColorMatrix in="SourceAlpha" type="matrix" values="0 0 0 0 0 0 0 0 0 0 0 0 0 0 0 0 0 0 127 0" result="hardAlpha"/>
<feOffset dy="4"/>
<feGaussianBlur stdDeviation="2"/>
<feComposite in2="hardAlpha" operator="out"/>
<feColorMatrix type="matrix" values="0 0 0 0 0.393333 0 0 0 0 0.0747333 0 0 0 0 0.303063 0 0 0 0.25 0"/>
<feBlend mode="normal" in2="BackgroundImageFix" result="effect1_dropShadow_77_523"/>
<feBlend mode="normal" in="SourceGraphic" in2="effect1_dropShadow_77_523" result="shape"/>
</filter>
<filter id="filter1_d_77_523" x="192.674" y="93.6027" width="106.184" height="84.1642" filterUnits="userSpaceOnUse" color-interpolation-filters="sRGB">
<feFlood flood-opacity="0" result="BackgroundImageFix"/>
<feColorMatrix in="SourceAlpha" type="matrix" values="0 0 0 0 0 0 0 0 0 0 0 0 0 0 0 0 0 0 127 0" result="hardAlpha"/>
<feOffset dy="4"/>
<feGaussianBlur stdDeviation="2"/>
<feComposite in2="hardAlpha" operator="out"/>
<feColorMatrix type="matrix" values="0 0 0 0 0.393333 0 0 0 0 0.0747333 0 0 0 0 0.303063 0 0 0 0.25 0"/>
<feBlend mode="normal" in2="BackgroundImageFix" result="effect1_dropShadow_77_523"/>
<feBlend mode="normal" in="SourceGraphic" in2="effect1_dropShadow_77_523" result="shape"/>
</filter>
<filter id="filter2_d_77_523" x="119.35" y="132.393" width="107.462" height="102.664" filterUnits="userSpaceOnUse" color-interpolation-filters="sRGB">
<feFlood flood-opacity="0" result="BackgroundImageFix"/>
<feColorMatrix in="SourceAlpha" type="matrix" values="0 0 0 0 0 0 0 0 0 0 0 0 0 0 0 0 0 0 127 0" result="hardAlpha"/>
<feOffset dy="4"/>
<feGaussianBlur stdDeviation="2"/>
<feComposite in2="hardAlpha" operator="out"/>
<feColorMatrix type="matrix" values="0 0 0 0 0.393333 0 0 0 0 0.0747333 0 0 0 0 0.303063 0 0 0 0.25 0"/>
<feBlend mode="normal" in2="BackgroundImageFix" result="effect1_dropShadow_77_523"/>
<feBlend mode="normal" in="SourceGraphic" in2="effect1_dropShadow_77_523" result="shape"/>
</filter>
<filter id="filter3_d_77_523" x="2.22119" y="11.0352" width="113.099" height="88.2678" filterUnits="userSpaceOnUse" color-interpolation-filters="sRGB">
<feFlood flood-opacity="0" result="BackgroundImageFix"/>
<feColorMatrix in="SourceAlpha" type="matrix" values="0 0 0 0 0 0 0 0 0 0 0 0 0 0 0 0 0 0 127 0" result="hardAlpha"/>
<feOffset dy="4"/>
<feGaussianBlur stdDeviation="2"/>
<feComposite in2="hardAlpha" operator="out"/>
<feColorMatrix type="matrix" values="0 0 0 0 0.393333 0 0 0 0 0.0747333 0 0 0 0 0.303063 0 0 0 0.25 0"/>
<feBlend mode="normal" in2="BackgroundImageFix" result="effect1_dropShadow_77_523"/>
<feBlend mode="normal" in="SourceGraphic" in2="effect1_dropShadow_77_523" result="shape"/>
</filter>
<filter id="filter4_d_77_523" x="83.4053" y="3.78455" width="190.797" height="123.464" filterUnits="userSpaceOnUse" color-interpolation-filters="sRGB">
<feFlood flood-opacity="0" result="BackgroundImageFix"/>
<feColorMatrix in="SourceAlpha" type="matrix" values="0 0 0 0 0 0 0 0 0 0 0 0 0 0 0 0 0 0 127 0" result="hardAlpha"/>
<feOffset dy="4"/>
<feGaussianBlur stdDeviation="2"/>
<feComposite in2="hardAlpha" operator="out"/>
<feColorMatrix type="matrix" values="0 0 0 0 0.393333 0 0 0 0 0.0747333 0 0 0 0 0.303063 0 0 0 0.25 0"/>
<feBlend mode="normal" in2="BackgroundImageFix" result="effect1_dropShadow_77_523"/>
<feBlend mode="normal" in="SourceGraphic" in2="effect1_dropShadow_77_523" result="shape"/>
</filter>
<filter id="filter5_d_77_523" x="134.229" y="86.4917" width="77.2627" height="81.7699" filterUnits="userSpaceOnUse" color-interpolation-filters="sRGB">
<feFlood flood-opacity="0" result="BackgroundImageFix"/>
<feColorMatrix in="SourceAlpha" type="matrix" values="0 0 0 0 0 0 0 0 0 0 0 0 0 0 0 0 0 0 127 0" result="hardAlpha"/>
<feOffset dy="4"/>
<feGaussianBlur stdDeviation="2"/>
<feComposite in2="hardAlpha" operator="out"/>
<feColorMatrix type="matrix" values="0 0 0 0 0.393333 0 0 0 0 0.0747333 0 0 0 0 0.303063 0 0 0 0.25 0"/>
<feBlend mode="normal" in2="BackgroundImageFix" result="effect1_dropShadow_77_523"/>
<feBlend mode="normal" in="SourceGraphic" in2="effect1_dropShadow_77_523" result="shape"/>
</filter>
<filter id="filter6_d_77_523" x="127.867" y="85.251" width="89.7891" height="84.859" filterUnits="userSpaceOnUse" color-interpolation-filters="sRGB">
<feFlood flood-opacity="0" result="BackgroundImageFix"/>
<feColorMatrix in="SourceAlpha" type="matrix" values="0 0 0 0 0 0 0 0 0 0 0 0 0 0 0 0 0 0 127 0" result="hardAlpha"/>
<feOffset dy="4"/>
<feGaussianBlur stdDeviation="2"/>
<feComposite in2="hardAlpha" operator="out"/>
<feColorMatrix type="matrix" values="0 0 0 0 0.393333 0 0 0 0 0.0747333 0 0 0 0 0.303063 0 0 0 0.25 0"/>
<feBlend mode="normal" in2="BackgroundImageFix" result="effect1_dropShadow_77_523"/>
<feBlend mode="normal" in="SourceGraphic" in2="effect1_dropShadow_77_523" result="shape"/>
</filter>
<filter id="filter7_d_77_523" x="144.748" y="99.8638" width="55.4458" height="55.48" filterUnits="userSpaceOnUse" color-interpolation-filters="sRGB">
<feFlood flood-opacity="0" result="BackgroundImageFix"/>
<feColorMatrix in="SourceAlpha" type="matrix" values="0 0 0 0 0 0 0 0 0 0 0 0 0 0 0 0 0 0 127 0" result="hardAlpha"/>
<feOffset dy="4"/>
<feGaussianBlur stdDeviation="2"/>
<feComposite in2="hardAlpha" operator="out"/>
<feColorMatrix type="matrix" values="0 0 0 0 0.393333 0 0 0 0 0.0747333 0 0 0 0 0.303063 0 0 0 0.25 0"/>
<feBlend mode="normal" in2="BackgroundImageFix" result="effect1_dropShadow_77_523"/>
<feBlend mode="normal" in="SourceGraphic" in2="effect1_dropShadow_77_523" result="shape"/>
</filter>
<filter id="filter8_d_77_523" x="150.054" y="104.487" width="44.9058" height="44.9323" filterUnits="userSpaceOnUse" color-interpolation-filters="sRGB">
<feFlood flood-opacity="0" result="BackgroundImageFix"/>
<feColorMatrix in="SourceAlpha" type="matrix" values="0 0 0 0 0 0 0 0 0 0 0 0 0 0 0 0 0 0 127 0" result="hardAlpha"/>
<feOffset dy="4"/>
<feGaussianBlur stdDeviation="2"/>
<feComposite in2="hardAlpha" operator="out"/>
<feColorMatrix type="matrix" values="0 0 0 0 0.393333 0 0 0 0 0.0747333 0 0 0 0 0.303063 0 0 0 0.25 0"/>
<feBlend mode="normal" in2="BackgroundImageFix" result="effect1_dropShadow_77_523"/>
<feBlend mode="normal" in="SourceGraphic" in2="effect1_dropShadow_77_523" result="shape"/>
</filter>
<filter id="filter9_i_77_523" x="165.871" y="116.22" width="13.5249" height="17.5347" filterUnits="userSpaceOnUse" color-interpolation-filters="sRGB">
<feFlood flood-opacity="0" result="BackgroundImageFix"/>
<feBlend mode="normal" in="SourceGraphic" in2="BackgroundImageFix" result="shape"/>
<feColorMatrix in="SourceAlpha" type="matrix" values="0 0 0 0 0 0 0 0 0 0 0 0 0 0 0 0 0 0 127 0" result="hardAlpha"/>
<feOffset dy="4"/>
<feGaussianBlur stdDeviation="2"/>
<feComposite in2="hardAlpha" operator="arithmetic" k2="-1" k3="1"/>
<feColorMatrix type="matrix" values="0 0 0 0 0.393333 0 0 0 0 0.0747333 0 0 0 0 0.303063 0 0 0 0.25 0"/>
<feBlend mode="normal" in2="shape" result="effect1_innerShadow_77_523"/>
</filter>
</defs>
</svg>
