<svg width="299" height="245" viewBox="0 0 299 245" fill="none" xmlns="http://www.w3.org/2000/svg">
<g filter="url(#filter0_d_77_521)">
<path d="M37.9983 110.747C33.3287 119.408 32.8604 132.291 39.4005 140.154C53.6308 151.284 57.3133 150.766 71.3792 153.402C85.4452 156.039 100.953 155.235 114.622 151.16C128.29 147.085 139.049 140.059 144.622 131.568C150.194 123.077 150.144 113.787 144.482 105.662C138.819 97.5375 127.989 91.2158 114.281 88.0339C100.572 84.8521 85.0618 85.0597 71.0293 88.6128C56.9968 92.1659 49.3549 95.1305 42.902 103.417L69.5004 114.002L37.9983 110.747Z" fill="#72923D"/>
</g>
<g filter="url(#filter1_d_77_521)">
<path d="M288.86 112.939C294.311 121.591 296.97 135.478 292.85 145.024C282.836 159.316 279.646 159.332 268.276 164.395C256.906 169.459 243.719 171.02 231.502 168.748C219.286 166.477 209 160.551 202.818 152.225C196.637 143.898 195.046 133.823 198.381 124.132C201.716 114.44 209.717 105.891 220.69 100.293C231.663 94.6948 244.748 92.4869 257.179 94.1359C269.609 95.785 276.559 97.7986 283.445 105.766L262.929 121.408L288.86 112.939Z" fill="#72923D"/>
</g>
<g filter="url(#filter2_d_77_521)">
<path d="M124.428 193.647C126.547 204.994 134.814 218.839 145.249 224.093C163.945 229.201 166.505 226.928 179.377 223.13C192.25 219.332 203.953 211.22 212.013 200.509C220.073 189.799 223.856 177.33 222.563 165.74C221.27 154.15 215.002 144.347 205.085 138.406C195.168 132.464 182.379 130.85 169.424 133.904C156.468 136.957 144.362 144.44 135.666 154.769C126.969 165.098 122.924 171.812 123.385 183.598L151.48 182.339L124.428 193.647Z" fill="#72923D"/>
</g>
<g filter="url(#filter3_d_77_521)">
<path d="M14.04 28.5026C7.66743 37.1399 3.95048 51.4424 7.75432 61.7033C17.5624 77.3433 20.9711 77.5901 32.8087 83.695C44.6464 89.7998 58.6477 92.3803 71.8514 90.8905C85.0552 89.4007 96.4258 83.9576 103.558 75.7123C110.691 67.467 113.026 57.0662 110.07 46.7097C107.114 36.3532 99.0988 26.8531 87.7191 20.2188C76.3395 13.5845 62.4881 10.3362 49.0945 11.161C35.701 11.9858 28.1434 13.5863 20.2801 21.4056L41.2304 39.2118L14.04 28.5026Z" fill="#72923D"/>
</g>
<g filter="url(#filter4_d_77_521)">
<path d="M262.175 33.304C270.912 47.0303 273.738 72.7881 264.438 86.8401C243.324 107.464 237.361 107.144 215.262 113.607C193.163 120.07 168.254 121.018 145.804 116.251C123.354 111.485 105.374 107.315 95.2178 94.0039C85.0619 80.6925 85.2813 59.2089 93.14 44.8508C100.999 30.4927 115.63 18.4476 137.076 11.1301C158.523 3.8126 183.349 1.87093 206.304 5.71575C229.259 9.56057 241.911 13.3681 253.444 26.2095L191.015 44.586L262.175 33.304Z" fill="#587637"/>
</g>
<g filter="url(#filter5_d_77_521)">
<path d="M150.127 89.4774C150.142 87.1958 152.596 85.7644 154.588 86.8755L177.537 99.6804C177.919 99.8937 178.344 100.021 178.78 100.052L204.707 101.933C206.81 102.086 208.103 104.305 207.199 106.212L196.058 129.715C195.871 130.111 195.772 130.543 195.769 130.982L195.594 157.275C195.579 159.557 193.125 160.988 191.133 159.877L168.184 147.072C167.802 146.859 167.377 146.732 166.941 146.7L141.013 144.819C138.91 144.667 137.618 142.448 138.521 140.541L149.663 117.037C149.85 116.641 149.949 116.209 149.952 115.771L150.127 89.4774Z" fill="#CCE66F"/>
</g>
<g filter="url(#filter6_d_77_521)">
<path d="M132.733 115.796C131.132 114.172 131.855 111.424 134.048 110.801L159.325 103.616C159.746 103.496 160.136 103.285 160.467 102.999L180.129 85.9831C181.724 84.6027 184.207 85.2574 184.915 87.2453L193.644 111.747C193.791 112.16 194.027 112.536 194.334 112.847L212.79 131.565C214.392 133.189 213.668 135.936 211.475 136.56L186.199 143.745C185.777 143.865 185.388 144.075 185.056 144.362L165.395 161.377C163.8 162.758 161.317 162.103 160.608 160.115L151.879 135.613C151.732 135.2 151.497 134.825 151.189 134.513L132.733 115.796Z" fill="#D7ECBE"/>
</g>
<path d="M146.608 106.027C146.116 104.662 147.195 103.243 148.641 103.353L159.855 104.207C160.683 104.27 161.463 103.815 161.816 103.063L166.6 92.8773C167.217 91.5639 168.982 91.3236 169.926 92.4244L177.254 100.964C177.794 101.594 178.667 101.825 179.448 101.543L190.029 97.7253C191.393 97.2332 192.81 98.312 192.7 99.7588L191.847 110.982C191.784 111.811 192.239 112.591 192.99 112.945L203.169 117.732C204.482 118.35 204.721 120.116 203.621 121.061L195.088 128.393C194.458 128.934 194.228 129.808 194.51 130.59L198.324 141.177C198.816 142.542 197.737 143.961 196.291 143.851L185.077 142.997C184.249 142.934 183.469 143.39 183.116 144.142L178.332 154.327C177.715 155.641 175.95 155.881 175.006 154.78L167.679 146.24C167.138 145.61 166.265 145.38 165.484 145.662L154.903 149.479C153.539 149.971 152.122 148.893 152.232 147.446L153.085 136.222C153.148 135.394 152.693 134.613 151.942 134.26L141.763 129.472C140.451 128.855 140.211 127.089 141.311 126.143L149.844 118.812C150.474 118.271 150.704 117.396 150.423 116.615L146.608 106.027Z" fill="#FBF3E6"/>
<g filter="url(#filter7_d_77_521)">
<path d="M159.161 104.089C159.229 102.64 160.768 101.742 162.062 102.397L168.918 105.87C169.658 106.245 170.554 106.124 171.168 105.564L176.849 100.386C177.921 99.4091 179.643 99.8628 180.095 101.241L182.489 108.55C182.747 109.339 183.466 109.887 184.295 109.925L191.973 110.284C193.421 110.352 194.318 111.891 193.663 113.185L190.191 120.048C189.817 120.789 189.938 121.684 190.497 122.298L195.672 127.985C196.648 129.058 196.194 130.781 194.816 131.233L187.514 133.628C186.725 133.887 186.178 134.607 186.139 135.437L185.781 143.118C185.713 144.567 184.174 145.465 182.88 144.81L176.025 141.337C175.284 140.962 174.389 141.084 173.775 141.643L168.094 146.821C167.021 147.798 165.299 147.344 164.847 145.966L162.453 138.657C162.195 137.868 161.476 137.321 160.647 137.282L152.969 136.923C151.521 136.855 150.624 135.316 151.279 134.022L154.751 127.159C155.126 126.418 155.004 125.523 154.446 124.909L149.27 119.222C148.294 118.15 148.748 116.426 150.126 115.974L157.428 113.579C158.217 113.32 158.764 112.6 158.803 111.77L159.161 104.089Z" fill="#FBFFFB"/>
</g>
<g filter="url(#filter8_d_77_521)">
<path d="M157.412 113.572C156.92 112.207 157.998 110.788 159.444 110.898L164.391 111.274C165.218 111.337 165.999 110.882 166.352 110.13L168.462 105.637C169.079 104.324 170.844 104.084 171.788 105.185L175.02 108.952C175.561 109.582 176.434 109.812 177.215 109.531L181.883 107.846C183.247 107.354 184.664 108.433 184.554 109.88L184.178 114.831C184.115 115.659 184.569 116.44 185.32 116.793L189.811 118.905C191.123 119.523 191.363 121.289 190.262 122.234L186.499 125.468C185.869 126.009 185.639 126.884 185.92 127.665L187.603 132.335C188.094 133.7 187.016 135.119 185.57 135.009L180.624 134.632C179.796 134.569 179.015 135.025 178.662 135.777L176.552 140.269C175.935 141.582 174.171 141.823 173.226 140.722L169.994 136.955C169.453 136.325 168.58 136.094 167.799 136.376L163.131 138.06C161.767 138.552 160.35 137.473 160.46 136.027L160.837 131.075C160.9 130.247 160.445 129.466 159.694 129.113L155.203 127.001C153.891 126.384 153.652 124.618 154.752 123.672L158.515 120.439C159.145 119.897 159.376 119.023 159.094 118.242L157.412 113.572Z" fill="#F2F38D"/>
</g>
<g filter="url(#filter9_i_77_521)">
<ellipse cx="6.76255" cy="6.76496" rx="6.76255" ry="6.76496" transform="matrix(0.863783 -0.503863 0.503318 0.864101 163.387 120.548)" fill="#FAB71C"/>
</g>
<path d="M178.043 119.831C179.785 122.821 178.774 126.658 175.787 128.4C172.799 130.143 168.966 129.132 167.224 126.142C165.482 123.152 166.493 119.316 169.48 117.573C172.468 115.83 176.301 116.841 178.043 119.831Z" stroke="#F2C03E"/>
<path d="M91.7304 74.4816C91.6601 74.4113 91.6249 74.2003 91.6249 73.8488C91.6249 73.5441 91.6601 73.3917 91.7304 73.3917C91.9648 73.3917 92.246 73.3566 92.5741 73.2863C92.9257 73.2159 93.2538 73.1339 93.5585 73.0402C93.8866 72.923 94.0859 72.7941 94.1562 72.6534C94.3202 72.3956 94.4023 71.2941 94.4023 69.3488V56.0597C94.4023 55.38 94.3788 54.7823 94.332 54.2667C94.3085 53.7511 94.2499 53.3409 94.1562 53.0363C94.1093 52.8956 93.9218 52.7667 93.5937 52.6495C93.289 52.5323 92.9491 52.4386 92.5741 52.3683C92.2226 52.298 91.9413 52.2628 91.7304 52.2628C91.6366 52.2628 91.5898 52.1222 91.5898 51.8409C91.5898 51.5363 91.6366 51.337 91.7304 51.2433L95.9491 51.3136C96.3007 51.3136 96.6874 51.3136 97.1093 51.3136C97.5312 51.2902 97.9765 51.2667 98.4452 51.2433C98.914 51.2198 99.3593 51.2081 99.7812 51.2081C100.203 51.1847 100.578 51.173 100.906 51.173C101.68 51.173 102.465 51.2902 103.262 51.5245C104.059 51.7589 104.82 52.1105 105.547 52.5792C106.297 53.048 106.894 53.7159 107.34 54.5831C107.809 55.4503 108.043 56.4581 108.043 57.6066C108.043 58.3331 107.891 59.1066 107.586 59.9269C107.281 60.7472 106.824 61.5206 106.215 62.2472C105.629 62.9503 104.879 63.5245 103.965 63.9698C103.074 64.4152 102.043 64.6378 100.871 64.6378C99.5585 64.6378 98.6562 64.3097 98.164 63.6534C98.0234 63.4894 97.9882 63.2198 98.0585 62.8448C98.1054 62.7277 98.1405 62.6925 98.164 62.7394C98.8905 62.9972 99.6757 63.1261 100.519 63.1261C101.316 63.1261 102.031 62.9034 102.664 62.4581C103.32 61.9894 103.836 61.38 104.211 60.63C104.609 59.8566 104.809 59.0245 104.809 58.1339C104.809 56.4698 104.445 55.1573 103.719 54.1964C102.992 53.212 101.867 52.7198 100.344 52.7198C99.2655 52.7198 98.4452 52.8019 97.8827 52.9659C97.6718 52.9894 97.5429 53.3527 97.496 54.0558C97.4726 54.7589 97.4609 55.6847 97.4609 56.8331V69.3839C97.4609 70.9308 97.5546 71.9503 97.7421 72.4425C97.8359 72.63 98.0585 72.8058 98.4101 72.9698C98.7851 73.1339 99.1835 73.2628 99.6054 73.3566C100.027 73.4269 100.332 73.462 100.519 73.462C100.613 73.462 100.66 73.6261 100.66 73.9542C100.66 74.1183 100.637 74.2941 100.59 74.4816C99.4179 74.4347 98.4452 74.3995 97.6718 74.3761C96.9218 74.3292 96.371 74.3058 96.0195 74.3058L91.7304 74.4816ZM110.644 74.4816C110.551 74.3878 110.504 74.1886 110.504 73.8839C110.504 73.6027 110.551 73.462 110.644 73.462C110.832 73.462 111.09 73.4269 111.418 73.3566C111.746 73.2863 112.051 73.1925 112.332 73.0753C112.613 72.9581 112.766 72.8527 112.789 72.7589C112.883 72.4308 112.941 72.0558 112.965 71.6339C113.012 71.212 113.035 70.7667 113.035 70.298V63.6534C113.035 62.7628 112.871 62.13 112.543 61.755C112.309 61.4738 112.027 61.2863 111.699 61.1925C111.394 61.0988 111.113 61.0519 110.855 61.0519C110.621 61.0284 110.504 60.9933 110.504 60.9464C110.504 60.3839 110.574 60.0909 110.715 60.0675C113.269 59.6691 114.746 59.4113 115.144 59.2941L115.742 59.1183C115.836 59.0948 115.894 59.1886 115.918 59.3995C115.941 59.6105 115.941 59.7628 115.918 59.8566L115.707 61.6144C116.129 60.9816 116.703 60.3956 117.43 59.8566C118.18 59.2941 118.918 59.0128 119.644 59.0128C121.004 59.0128 121.918 59.3527 122.387 60.0323C122.387 60.8527 122.258 61.4503 122 61.8253C121.742 62.2003 121.426 62.3878 121.051 62.3878C120.629 62.3878 120.242 62.1886 119.891 61.7902C119.539 61.3917 119.059 61.1925 118.449 61.1925C117.98 61.1925 117.535 61.3566 117.113 61.6847C116.691 61.9894 116.351 62.3878 116.094 62.88C115.859 63.3488 115.742 63.8409 115.742 64.3566V69.63C115.742 70.3097 115.766 70.9073 115.812 71.423C115.859 71.9386 115.93 72.3839 116.023 72.7589C116.07 72.8527 116.234 72.9581 116.516 73.0753C116.797 73.1925 117.101 73.2863 117.43 73.3566C117.781 73.4269 118.027 73.462 118.168 73.462C118.238 73.462 118.285 73.6027 118.309 73.8839C118.332 74.1652 118.32 74.3644 118.273 74.4816L114.476 74.3058L110.644 74.4816ZM131.703 74.6222C130.297 74.6222 129.008 74.2706 127.836 73.5675C126.664 72.8644 125.726 71.9152 125.023 70.7198C124.344 69.5245 124.004 68.212 124.004 66.7823C124.004 65.3292 124.332 64.0167 124.988 62.8448C125.668 61.673 126.582 60.7472 127.73 60.0675C128.879 59.3644 130.18 59.0128 131.633 59.0128C133.039 59.0128 134.316 59.3644 135.465 60.0675C136.637 60.7706 137.562 61.7081 138.242 62.88C138.945 64.0519 139.297 65.3527 139.297 66.7823C139.297 68.212 138.957 69.5245 138.277 70.7198C137.598 71.9152 136.684 72.8644 135.535 73.5675C134.41 74.2706 133.133 74.6222 131.703 74.6222ZM132.019 73.2511C132.863 73.2511 133.601 72.9816 134.234 72.4425C134.867 71.9034 135.359 71.1769 135.711 70.2628C136.086 69.3488 136.273 68.3527 136.273 67.2745C136.273 66.0089 136.039 64.8605 135.57 63.8292C135.101 62.7745 134.48 61.9425 133.707 61.3331C132.957 60.7003 132.137 60.3839 131.246 60.3839C130.426 60.3839 129.687 60.6534 129.031 61.1925C128.398 61.7081 127.906 62.4113 127.555 63.3019C127.203 64.1691 127.027 65.1534 127.027 66.255C127.027 67.5206 127.25 68.6925 127.695 69.7706C128.164 70.8253 128.773 71.6691 129.523 72.3019C130.297 72.9347 131.129 73.2511 132.019 73.2511ZM141.16 82.4972C140.996 82.38 140.855 82.2042 140.738 81.9698C140.668 81.8527 140.656 81.7706 140.703 81.7238L141.125 81.5128C141.406 81.3722 141.723 81.1261 142.074 80.7745C142.449 80.423 142.824 79.9542 143.199 79.3683C143.574 78.7823 143.891 77.9152 144.148 76.7667C144.406 75.6183 144.535 74.2941 144.535 72.7941V63.6534C144.535 62.7628 144.371 62.13 144.043 61.755C143.809 61.4738 143.527 61.2863 143.199 61.1925C142.894 61.0988 142.613 61.0402 142.355 61.0167C142.121 60.9933 142.004 60.9698 142.004 60.9464C142.004 60.3839 142.074 60.0909 142.215 60.0675C143.457 59.88 144.476 59.7159 145.273 59.5753C146.07 59.4113 146.551 59.3058 146.715 59.2589L147.137 59.1183H147.242C147.336 59.1183 147.394 59.2238 147.418 59.4347C147.441 59.6222 147.441 59.7628 147.418 59.8566C147.371 60.3253 147.324 60.7706 147.277 61.1925C147.254 61.6144 147.242 62.0128 147.242 62.3878V71.9855C147.242 74.9386 146.785 77.1417 145.871 78.5948C145.285 79.5089 144.535 80.3175 143.621 81.0206C142.73 81.7238 141.91 82.2159 141.16 82.4972ZM145.625 55.2863C145.156 55.2863 144.746 55.1105 144.394 54.7589C144.043 54.4073 143.867 53.9972 143.867 53.5284C143.867 53.0363 144.043 52.6261 144.394 52.298C144.746 51.9464 145.156 51.7706 145.625 51.7706C146.117 51.7706 146.527 51.9464 146.855 52.298C147.207 52.6261 147.383 53.0363 147.383 53.5284C147.383 53.9972 147.207 54.4073 146.855 54.7589C146.527 55.1105 146.117 55.2863 145.625 55.2863ZM158.316 74.587C157.027 74.587 155.844 74.2472 154.766 73.5675C153.687 72.8878 152.82 71.9855 152.164 70.8605C151.531 69.712 151.215 68.4347 151.215 67.0284C151.215 65.3878 151.519 63.9698 152.129 62.7745C152.738 61.5792 153.57 60.6652 154.625 60.0323C155.68 59.3761 156.863 59.048 158.176 59.048C159.254 59.048 160.203 59.2589 161.023 59.6808C161.844 60.0792 162.476 60.5948 162.922 61.2277C163.344 61.8839 163.648 62.5519 163.836 63.2316C164.047 63.8878 164.152 64.5441 164.152 65.2003C164.152 65.6691 164.082 65.962 163.941 66.0792C163.801 66.173 163.531 66.2198 163.133 66.2198H154.273C154.086 66.2198 153.992 66.2784 153.992 66.3956C153.992 67.38 154.191 68.3292 154.59 69.2433C154.988 70.1339 155.574 70.8722 156.348 71.4581C157.121 72.0441 158.07 72.337 159.195 72.337C160.18 72.337 161 72.1964 161.656 71.9152C162.336 71.6105 162.828 71.3409 163.133 71.1066L163.379 70.9308C163.519 70.9308 163.59 71.0831 163.59 71.3878C163.59 71.5519 163.519 71.7628 163.379 72.0206C162.91 72.6769 162.219 73.2745 161.305 73.8136C160.391 74.3292 159.394 74.587 158.316 74.587ZM154.273 64.7433H161.129C161.246 64.7433 161.305 64.6261 161.305 64.3917C161.305 63.8761 161.164 63.3136 160.883 62.7042C160.625 62.0714 160.226 61.5206 159.687 61.0519C159.148 60.5831 158.469 60.3488 157.648 60.3488C156.898 60.3488 156.254 60.6066 155.715 61.1222C155.176 61.6144 154.766 62.1886 154.484 62.8448C154.203 63.4777 154.062 64.0284 154.062 64.4972C154.062 64.6613 154.133 64.7433 154.273 64.7433ZM173.434 74.587C172.144 74.587 170.961 74.2472 169.883 73.5675C168.805 72.8878 167.937 71.9855 167.281 70.8605C166.648 69.712 166.332 68.4347 166.332 67.0284C166.332 65.5753 166.59 64.2511 167.105 63.0558C167.644 61.837 168.418 60.8644 169.426 60.1378C170.457 59.4113 171.699 59.048 173.152 59.048C175.73 59.048 177.512 59.6456 178.496 60.8409C178.496 62.4113 178.062 63.1964 177.195 63.1964C176.797 63.1964 176.492 63.1144 176.281 62.9503C176.07 62.7628 175.801 62.4347 175.473 61.9659C174.746 60.8878 173.879 60.3488 172.871 60.3488C171.91 60.3488 171.031 60.8058 170.234 61.7198C169.461 62.6339 169.074 63.9933 169.074 65.798C169.074 67.673 169.531 69.2316 170.445 70.4738C171.383 71.7159 172.672 72.337 174.312 72.337C175.297 72.337 176.117 72.1964 176.773 71.9152C177.453 71.6105 177.945 71.3409 178.25 71.1066L178.496 70.9308C178.637 70.9308 178.707 71.0831 178.707 71.3878C178.707 71.5519 178.637 71.7628 178.496 72.0206C178.027 72.6769 177.336 73.2745 176.422 73.8136C175.508 74.3292 174.512 74.587 173.434 74.587ZM186.195 74.6222C185.023 74.6222 184.039 74.2355 183.242 73.462C182.469 72.6886 182.082 71.587 182.082 70.1573V61.2277H180.043C179.926 61.2277 179.867 60.9816 179.867 60.4894C179.867 60.3488 179.879 60.2667 179.902 60.2433C180.605 59.9152 181.344 59.2941 182.117 58.38C182.656 57.7472 183.055 57.1964 183.312 56.7277C183.594 56.2589 183.734 55.9777 183.734 55.8839C184.437 55.8839 184.789 55.9425 184.789 56.0597V59.5402L187.566 59.5753H189.535C189.723 59.5753 189.816 59.6808 189.816 59.8917C189.816 60.337 189.699 60.7823 189.465 61.2277H184.789V69.8409C184.789 70.7784 185.023 71.5284 185.492 72.0909C185.984 72.6534 186.617 72.9347 187.391 72.9347C188.117 72.9347 188.844 72.712 189.57 72.2667C189.641 72.2198 189.746 72.3253 189.887 72.5831C190.027 72.8175 190.086 72.9464 190.062 72.9698C189.711 73.3448 189.172 73.7198 188.445 74.0948C187.719 74.4464 186.969 74.6222 186.195 74.6222ZM205.988 74.4816C205.894 74.3878 205.848 74.212 205.848 73.9542C205.848 73.6261 205.894 73.462 205.988 73.462C206.199 73.462 206.48 73.4386 206.832 73.3917C207.184 73.3214 207.512 73.2277 207.816 73.1105C208.121 72.9933 208.297 72.8761 208.344 72.7589C208.437 72.4308 208.496 72.0089 208.519 71.4933C208.566 70.9777 208.59 70.3566 208.59 69.63V56.9034C208.59 54.8644 208.484 53.6573 208.273 53.2823C208.109 52.9308 206.844 52.755 204.476 52.755C203.586 52.755 202.894 52.837 202.402 53.0011C201.91 53.1417 201.535 53.4347 201.277 53.88C201.019 54.3253 200.773 54.9933 200.539 55.8839C200.492 56.0011 200.375 56.0597 200.187 56.0597C199.789 56.0597 199.508 55.9777 199.344 55.8136L200.012 50.7863C200.527 50.9034 200.984 50.9972 201.383 51.0675C201.781 51.1378 202.133 51.173 202.437 51.173C204.125 51.173 205.613 51.1964 206.902 51.2433C208.191 51.2902 209.269 51.3136 210.137 51.3136C211.941 51.3136 213.488 51.2902 214.777 51.2433C216.09 51.1964 217.121 51.173 217.871 51.173C218.176 51.173 218.527 51.1378 218.926 51.0675C219.324 50.9972 219.781 50.9034 220.297 50.7863L220.965 55.8136C220.801 55.9777 220.519 56.0597 220.121 56.0597C219.934 56.0597 219.816 56.0011 219.769 55.8839C219.559 54.9933 219.312 54.3253 219.031 53.88C218.773 53.4347 218.398 53.1417 217.906 53.0011C217.414 52.837 216.723 52.755 215.832 52.755C213.371 52.755 212.082 52.9308 211.965 53.2823C211.754 54.0089 211.648 55.1808 211.648 56.798V69.4894C211.648 70.8488 211.754 71.9386 211.965 72.7589C212.012 72.8527 212.187 72.9581 212.492 73.0753C212.797 73.1925 213.125 73.2863 213.476 73.3566C213.828 73.4269 214.074 73.462 214.215 73.462C214.309 73.462 214.355 73.6378 214.355 73.9894C214.355 74.13 214.332 74.2941 214.285 74.4816C213.113 74.4347 212.187 74.3995 211.508 74.3761C210.828 74.3292 210.394 74.3058 210.207 74.3058L205.988 74.4816ZM224.34 82.3566C223.848 82.3566 223.484 82.2042 223.25 81.8995C223.016 81.5948 222.898 81.2902 222.898 80.9855C222.898 80.4933 223.062 80.1183 223.391 79.8605C225.336 79.8605 226.625 78.8527 227.258 76.837C227.375 76.4855 227.516 76.0636 227.68 75.5714C227.844 75.0792 227.973 74.6808 228.066 74.3761L223.039 62.0714C222.922 61.7902 222.805 61.5558 222.687 61.3683C222.57 61.1573 222.453 60.9933 222.336 60.8761C222.125 60.6652 221.797 60.4894 221.351 60.3488C220.93 60.2081 220.59 60.1378 220.332 60.1378C220.238 60.1378 220.191 59.9855 220.191 59.6808C220.191 59.3995 220.238 59.212 220.332 59.1183C220.965 59.1417 221.586 59.1769 222.195 59.2238C222.828 59.2472 223.473 59.2589 224.129 59.2589C224.879 59.2589 225.523 59.2472 226.062 59.2238C226.601 59.1769 227.094 59.1417 227.539 59.1183C227.586 59.3058 227.609 59.4816 227.609 59.6456C227.609 59.9738 227.562 60.1378 227.469 60.1378C227.375 60.1378 227.199 60.173 226.941 60.2433C226.707 60.3136 226.473 60.4073 226.238 60.5245C226.004 60.6183 225.863 60.7355 225.816 60.8761V60.9464C225.816 61.3448 227.07 64.4034 229.578 70.1222L232.25 62.423C232.414 61.9542 232.496 61.5909 232.496 61.3331C232.496 60.9816 232.309 60.7003 231.934 60.4894C231.582 60.255 231.101 60.1378 230.492 60.1378C230.398 60.1378 230.351 59.9855 230.351 59.6808C230.351 59.3995 230.398 59.212 230.492 59.1183C230.797 59.1417 231.254 59.1769 231.863 59.2238C232.473 59.2706 233.059 59.2941 233.621 59.2941C234.137 59.2941 234.699 59.2706 235.309 59.2238C235.918 59.1769 236.375 59.1417 236.68 59.1183C236.726 59.3058 236.75 59.4816 236.75 59.6456C236.75 59.9738 236.703 60.1378 236.609 60.1378C236.305 60.1378 235.894 60.2433 235.379 60.4542C234.863 60.6652 234.512 61.005 234.324 61.4738L228.031 78.4542C227.492 79.9073 226.883 80.9152 226.203 81.4777C225.523 82.0636 224.902 82.3566 224.34 82.3566ZM236.82 82.3214C236.726 82.2277 236.68 82.0402 236.68 81.7589C236.68 81.4542 236.726 81.3019 236.82 81.3019C237.008 81.3019 237.266 81.2667 237.594 81.1964C237.922 81.1261 238.226 81.0323 238.508 80.9152C238.789 80.798 238.941 80.6925 238.965 80.5988C239.059 80.2706 239.117 79.8956 239.141 79.4738C239.187 79.0519 239.211 78.6066 239.211 78.1378V63.6183C239.211 62.7277 239.047 62.0948 238.719 61.7198C238.484 61.4386 238.203 61.2511 237.875 61.1573C237.57 61.0636 237.289 61.0167 237.031 61.0167C236.797 60.9933 236.68 60.9581 236.68 60.9113C236.68 60.3488 236.75 60.0558 236.891 60.0323C239.375 59.6573 240.969 59.3644 241.672 59.1534L241.918 59.0831C242.035 59.0831 242.082 59.212 242.059 59.4698C242.035 59.7042 242.012 59.9034 241.988 60.0675L241.953 60.2784C242.187 60.1144 242.516 59.9386 242.937 59.7511C243.359 59.5636 243.805 59.3995 244.273 59.2589C244.766 59.1183 245.187 59.048 245.539 59.048C247.133 59.048 248.457 59.4113 249.512 60.1378C250.59 60.8409 251.387 61.7433 251.902 62.8448C252.441 63.923 252.711 65.0245 252.711 66.1495C252.711 67.2745 252.5 68.3527 252.078 69.3839C251.656 70.3917 251.082 71.2941 250.355 72.0909C249.629 72.8878 248.797 73.5206 247.859 73.9894C246.945 74.4347 245.996 74.6573 245.012 74.6573C244.285 74.6573 243.734 74.5988 243.359 74.4816C242.984 74.3878 242.551 74.2238 242.059 73.9894C241.965 74.0831 241.918 74.2355 241.918 74.4464V77.4698C241.918 78.1495 241.941 78.7472 241.988 79.2628C242.035 79.7784 242.105 80.2238 242.199 80.5988C242.246 80.6925 242.41 80.798 242.691 80.9152C242.973 81.0323 243.277 81.1261 243.605 81.1964C243.934 81.2667 244.168 81.3019 244.309 81.3019C244.379 81.3019 244.426 81.4425 244.449 81.7238C244.473 82.0284 244.461 82.2277 244.414 82.3214L240.652 82.1456L236.82 82.3214ZM245.152 73.1808C246.09 73.1808 246.887 72.8995 247.543 72.337C248.223 71.7511 248.75 71.0011 249.125 70.087C249.5 69.1495 249.687 68.1652 249.687 67.1339C249.687 65.8214 249.441 64.6964 248.949 63.7589C248.48 62.798 247.848 62.0597 247.051 61.5441C246.254 61.0284 245.375 60.7706 244.414 60.7706C243.687 60.7706 243.09 60.9698 242.621 61.3683C242.152 61.7433 241.918 62.2941 241.918 63.0206V70.9308C241.918 71.5636 242.258 72.1027 242.937 72.548C243.617 72.9698 244.355 73.1808 245.152 73.1808ZM262.449 74.587C261.16 74.587 259.976 74.2472 258.898 73.5675C257.82 72.8878 256.953 71.9855 256.297 70.8605C255.664 69.712 255.348 68.4347 255.348 67.0284C255.348 65.3878 255.652 63.9698 256.262 62.7745C256.871 61.5792 257.703 60.6652 258.758 60.0323C259.812 59.3761 260.996 59.048 262.309 59.048C263.387 59.048 264.336 59.2589 265.156 59.6808C265.976 60.0792 266.609 60.5948 267.055 61.2277C267.476 61.8839 267.781 62.5519 267.969 63.2316C268.18 63.8878 268.285 64.5441 268.285 65.2003C268.285 65.6691 268.215 65.962 268.074 66.0792C267.934 66.173 267.664 66.2198 267.266 66.2198H258.406C258.219 66.2198 258.125 66.2784 258.125 66.3956C258.125 67.38 258.324 68.3292 258.723 69.2433C259.121 70.1339 259.707 70.8722 260.48 71.4581C261.254 72.0441 262.203 72.337 263.328 72.337C264.312 72.337 265.133 72.1964 265.789 71.9152C266.469 71.6105 266.961 71.3409 267.266 71.1066L267.512 70.9308C267.652 70.9308 267.723 71.0831 267.723 71.3878C267.723 71.5519 267.652 71.7628 267.512 72.0206C267.043 72.6769 266.351 73.2745 265.437 73.8136C264.523 74.3292 263.527 74.587 262.449 74.587ZM258.406 64.7433H265.262C265.379 64.7433 265.437 64.6261 265.437 64.3917C265.437 63.8761 265.297 63.3136 265.016 62.7042C264.758 62.0714 264.359 61.5206 263.82 61.0519C263.281 60.5831 262.601 60.3488 261.781 60.3488C261.031 60.3488 260.387 60.6066 259.848 61.1222C259.309 61.6144 258.898 62.1886 258.617 62.8448C258.336 63.4777 258.195 64.0284 258.195 64.4972C258.195 64.6613 258.266 64.7433 258.406 64.7433Z" fill="#E7EEDA"/>
<path d="M15.3902 64.0723C15.2702 64.0723 15.1236 64.0056 14.9502 63.8723C14.7902 63.7256 14.6502 63.5523 14.5302 63.3523C14.4102 63.139 14.3502 62.9256 14.3502 62.7123C14.3502 62.459 14.4302 62.039 14.5902 61.4523C14.7502 60.8523 14.9502 60.1523 15.1902 59.3523C15.4302 58.5523 15.6702 57.7123 15.9102 56.8323C16.1636 55.9523 16.3702 55.0923 16.5302 54.2523C16.7036 53.4123 16.7969 52.659 16.8102 51.9923C16.4902 51.699 16.3302 51.4323 16.3302 51.1923C16.3302 51.0323 16.4569 50.8723 16.7102 50.7123C16.9636 50.539 17.2902 50.3856 17.6902 50.2523C18.0902 50.1056 18.5169 49.9923 18.9702 49.9123C19.4369 49.819 19.8769 49.7723 20.2902 49.7723C21.1436 49.7723 21.8969 49.9256 22.5502 50.2323C23.2169 50.5256 23.7369 50.939 24.1102 51.4723C24.4836 51.9923 24.6702 52.6056 24.6702 53.3123C24.6702 54.2723 24.3569 55.139 23.7302 55.9123C23.1036 56.6723 22.2236 57.3256 21.0902 57.8723C19.9569 58.419 18.6369 58.839 17.1302 59.1323C16.1569 62.4256 15.5769 64.0723 15.3902 64.0723ZM17.5702 57.5723C18.6369 57.2923 19.5702 56.9323 20.3702 56.4923C21.1702 56.0523 21.7902 55.5723 22.2302 55.0523C22.6836 54.519 22.9102 53.979 22.9102 53.4323C22.9102 52.8456 22.6902 52.3656 22.2502 51.9923C21.8102 51.6056 21.3036 51.4123 20.7302 51.4123C20.2902 51.4123 19.8969 51.459 19.5502 51.5523C19.2169 51.6456 18.8169 51.799 18.3502 52.0123C18.4836 52.3056 18.5502 52.579 18.5502 52.8323C18.5502 53.579 18.2236 55.159 17.5702 57.5723ZM25.7696 64.1123C25.5296 64.1123 25.3429 63.979 25.2096 63.7123C25.0763 63.4456 25.0096 63.2123 25.0096 63.0123C25.0096 62.7056 25.0696 62.3656 25.1896 61.9923C25.3096 61.6056 25.4429 61.1656 25.5896 60.6723C25.7363 60.1656 25.8696 59.579 25.9896 58.9123C26.1096 58.2456 26.1696 57.4723 26.1696 56.5923C26.1696 56.339 26.1563 56.059 26.1296 55.7523C26.1163 55.4323 26.1096 55.1456 26.1096 54.8923C26.1096 54.6923 26.1429 54.519 26.2096 54.3723C26.2896 54.2256 26.4029 54.1523 26.5496 54.1523C26.8696 54.1523 27.1296 54.339 27.3296 54.7123C27.5429 55.0856 27.6496 55.4856 27.6496 55.9123C27.6496 56.2456 27.6296 56.5456 27.5896 56.8123C28.7496 55.0523 29.8496 54.1723 30.8896 54.1723C31.5429 54.1723 31.8696 54.3323 31.8696 54.6523C31.8696 54.8123 31.7963 54.9656 31.6496 55.1123C31.5163 55.259 31.2829 55.4056 30.9496 55.5523C30.4963 55.7656 30.0829 56.039 29.7096 56.3723C29.3363 56.7056 28.9763 57.159 28.6296 57.7323C28.2963 58.2923 27.9563 59.0256 27.6096 59.9323C27.2763 60.839 26.9096 61.9656 26.5096 63.3123C26.4296 63.579 26.3229 63.779 26.1896 63.9123C26.0563 64.0456 25.9163 64.1123 25.7696 64.1123ZM34.4613 64.0723C34.008 64.0723 33.6013 63.9323 33.2413 63.6523C32.8813 63.359 32.5947 62.9656 32.3813 62.4723C32.1813 61.9656 32.0813 61.3856 32.0813 60.7323C32.0813 60.2123 32.1613 59.659 32.3213 59.0723C32.4813 58.4723 32.708 57.8856 33.0013 57.3123C33.2947 56.7256 33.6413 56.199 34.0413 55.7323C34.4413 55.2523 34.8813 54.8723 35.3613 54.5923C35.8547 54.299 36.3747 54.1523 36.9213 54.1523C37.4413 54.1523 37.908 54.3056 38.3213 54.6123C38.748 54.919 39.0813 55.339 39.3213 55.8723C39.5747 56.3923 39.7013 56.9723 39.7013 57.6123C39.7013 58.4656 39.5547 59.279 39.2613 60.0523C38.968 60.8256 38.568 61.519 38.0613 62.1323C37.568 62.7323 37.008 63.2056 36.3813 63.5523C35.768 63.899 35.128 64.0723 34.4613 64.0723ZM34.5613 62.7123C34.9747 62.7123 35.3813 62.5456 35.7813 62.2123C36.1947 61.8656 36.568 61.4256 36.9013 60.8923C37.248 60.3456 37.5213 59.779 37.7213 59.1923C37.9213 58.5923 38.0213 58.0456 38.0213 57.5523C38.0213 57.2456 37.9747 56.9323 37.8813 56.6123C37.8013 56.279 37.6947 55.999 37.5613 55.7723C37.428 55.5323 37.2947 55.4123 37.1613 55.4123C36.8413 55.4123 36.5213 55.539 36.2013 55.7923C35.8813 56.0456 35.5747 56.379 35.2813 56.7923C34.988 57.2056 34.728 57.659 34.5013 58.1523C34.2747 58.6323 34.0947 59.1123 33.9613 59.5923C33.8413 60.0723 33.7813 60.5056 33.7813 60.8923C33.7813 61.319 33.8547 61.7323 34.0013 62.1323C34.148 62.519 34.3347 62.7123 34.5613 62.7123ZM45.5438 52.8723C45.3305 52.8723 45.0905 52.7856 44.8238 52.6123C44.5705 52.4256 44.3438 52.2123 44.1438 51.9723C43.9572 51.719 43.8638 51.499 43.8638 51.3123C43.8638 51.0323 43.9638 50.779 44.1638 50.5523C44.3772 50.3123 44.6038 50.1923 44.8438 50.1923C45.0038 50.1923 45.1772 50.3256 45.3638 50.5923C45.5638 50.8456 45.7305 51.1456 45.8638 51.4923C46.0105 51.8256 46.0838 52.1123 46.0838 52.3523C46.0838 52.4856 46.0238 52.6056 45.9038 52.7123C45.7838 52.819 45.6638 52.8723 45.5438 52.8723ZM38.9038 69.2723C38.5705 69.2723 38.2305 69.1923 37.8838 69.0323C37.5372 68.8723 37.2238 68.6723 36.9438 68.4323C36.6638 68.1923 36.4372 67.939 36.2638 67.6723C36.0905 67.419 36.0038 67.1923 36.0038 66.9923C36.0038 66.8056 36.0772 66.599 36.2238 66.3723C36.3572 66.1456 36.4838 66.0323 36.6038 66.0323C36.7638 66.0323 36.9238 66.1256 37.0838 66.3123C37.2438 66.499 37.4105 66.7123 37.5838 66.9523C37.7572 67.2056 37.9572 67.4256 38.1838 67.6123C38.3972 67.799 38.6438 67.8923 38.9238 67.8923C39.2572 67.8923 39.5572 67.6723 39.8238 67.2323C40.0905 66.7923 40.3305 66.179 40.5438 65.3923C40.8372 64.3256 41.1038 63.2656 41.3438 62.2123C41.5838 61.159 41.8372 60.059 42.1038 58.9123C42.3705 57.7523 42.6838 56.4923 43.0438 55.1323C43.2438 54.479 43.4372 54.1523 43.6238 54.1523C43.8505 54.1523 44.0838 54.299 44.3238 54.5923C44.5638 54.8723 44.6838 55.179 44.6838 55.5123C44.6838 55.7256 44.6238 56.099 44.5038 56.6323C44.3972 57.1656 44.2438 57.8056 44.0438 58.5523C43.8572 59.299 43.6438 60.1056 43.4038 60.9723C43.1772 61.8256 42.9438 62.699 42.7038 63.5923C42.4638 64.4856 42.2372 65.3323 42.0238 66.1323C41.4505 68.2256 40.4105 69.2723 38.9038 69.2723ZM49.402 64.0723C48.7086 64.0723 48.0953 63.9323 47.562 63.6523C47.042 63.359 46.6286 62.9656 46.322 62.4723C46.0286 61.979 45.882 61.419 45.882 60.7923C45.882 60.259 45.9686 59.6923 46.142 59.0923C46.3286 58.4923 46.582 57.9056 46.902 57.3323C47.2353 56.7456 47.6153 56.2123 48.042 55.7323C48.482 55.2523 48.9486 54.8723 49.442 54.5923C49.9353 54.299 50.4486 54.1523 50.982 54.1523C51.382 54.1523 51.762 54.259 52.122 54.4723C52.4953 54.6723 52.8286 54.939 53.122 55.2723C53.4286 55.6056 53.6686 55.9656 53.842 56.3523C54.0153 56.739 54.102 57.1056 54.102 57.4523C54.102 57.8923 53.9753 58.2656 53.722 58.5723C53.4686 58.879 53.142 59.1323 52.742 59.3323C52.342 59.519 51.9086 59.659 51.442 59.7523C50.9886 59.8323 50.562 59.8723 50.162 59.8723C49.2953 59.8723 48.482 59.7656 47.722 59.5523C47.5353 60.139 47.442 60.659 47.442 61.1123C47.442 61.579 47.582 61.939 47.862 62.1923C48.1553 62.4456 48.6353 62.5723 49.302 62.5723C49.782 62.5723 50.2486 62.5123 50.702 62.3923C51.1553 62.2723 51.542 62.159 51.862 62.0523C52.1953 61.9323 52.402 61.8723 52.482 61.8723C52.8286 61.8723 53.002 62.0056 53.002 62.2723C53.002 62.4456 52.8886 62.639 52.662 62.8523C52.4353 63.0656 52.142 63.2656 51.782 63.4523C51.422 63.6256 51.0286 63.7723 50.602 63.8923C50.1886 64.0123 49.7886 64.0723 49.402 64.0723ZM50.002 58.5923C50.682 58.5923 51.2753 58.4856 51.782 58.2723C52.2886 58.0456 52.542 57.7523 52.542 57.3923C52.542 57.1523 52.462 56.9056 52.302 56.6523C52.1553 56.3856 51.9686 56.1656 51.742 55.9923C51.5153 55.819 51.2953 55.7323 51.082 55.7323C50.5886 55.7323 50.0753 55.9923 49.542 56.5123C49.0086 57.019 48.5553 57.6523 48.182 58.4123C48.7153 58.5323 49.322 58.5923 50.002 58.5923ZM58.3659 64.0723C57.8459 64.0723 57.3392 63.9323 56.8459 63.6523C56.3525 63.3723 55.9459 62.999 55.6259 62.5323C55.3059 62.0656 55.1459 61.5523 55.1459 60.9923C55.1459 60.4856 55.2525 59.9256 55.4659 59.3123C55.6792 58.699 55.9725 58.0923 56.3459 57.4923C56.7192 56.879 57.1459 56.319 57.6259 55.8123C58.1059 55.3056 58.6125 54.9056 59.1459 54.6123C59.6792 54.3056 60.2125 54.1523 60.7459 54.1523C61.1059 54.1523 61.4392 54.2723 61.7459 54.5123C62.0659 54.739 62.3192 55.0123 62.5059 55.3323C62.7059 55.6523 62.8059 55.939 62.8059 56.1923C62.8059 56.3256 62.7659 56.4256 62.6859 56.4923C62.6059 56.5456 62.5125 56.5723 62.4059 56.5723C62.2725 56.5723 62.1325 56.5123 61.9859 56.3923C61.8392 56.2723 61.6792 56.1523 61.5059 56.0323C61.3325 55.9123 61.1259 55.8523 60.8859 55.8523C60.5925 55.8523 60.2725 55.9723 59.9259 56.2123C59.5792 56.439 59.2259 56.7523 58.8659 57.1523C58.5192 57.539 58.1992 57.9656 57.9059 58.4323C57.6125 58.8856 57.3725 59.3456 57.1859 59.8123C57.0125 60.279 56.9259 60.699 56.9259 61.0723C56.9259 61.4856 57.0525 61.8123 57.3059 62.0523C57.5725 62.2923 57.9992 62.4123 58.5859 62.4123C59.2259 62.4123 59.7592 62.3456 60.1859 62.2123C60.6259 62.0656 60.9792 61.9256 61.2459 61.7923C61.5259 61.6456 61.7525 61.5723 61.9259 61.5723C62.1792 61.5723 62.3059 61.699 62.3059 61.9523C62.3059 62.1523 62.1725 62.3723 61.9059 62.6123C61.6525 62.8523 61.3192 63.0856 60.9059 63.3123C60.5059 63.5256 60.0792 63.7056 59.6259 63.8523C59.1725 63.999 58.7525 64.0723 58.3659 64.0723ZM66.7921 64.0723C66.3654 64.0723 65.9788 63.9923 65.6321 63.8323C65.2854 63.659 65.0121 63.4456 64.8121 63.1923C64.6254 62.939 64.5321 62.6923 64.5321 62.4523C64.5321 61.8656 64.6988 61.0723 65.0321 60.0723C65.3788 59.0723 65.7588 57.8323 66.1721 56.3523C65.8654 56.419 65.6054 56.4723 65.3921 56.5123C65.1788 56.5523 65.0188 56.5723 64.9121 56.5723C64.6988 56.5723 64.4854 56.4656 64.2721 56.2523C64.0721 56.0256 63.9721 55.8123 63.9721 55.6123C63.9721 55.2923 64.8388 54.9856 66.5721 54.6923C66.8121 53.5856 66.9321 52.6056 66.9321 51.7523C66.9321 51.3523 67.0654 51.1523 67.3321 51.1523C67.4388 51.1523 67.5921 51.2056 67.7921 51.3123C68.0054 51.419 68.2054 51.579 68.3921 51.7923C68.5788 52.0056 68.6721 52.279 68.6721 52.6123C68.6721 52.8256 68.6388 53.0856 68.5721 53.3923C68.5188 53.6856 68.4388 54.039 68.3321 54.4523C68.7188 54.4256 69.0588 54.399 69.3521 54.3723C69.6588 54.3456 69.9254 54.3323 70.1521 54.3323C70.9521 54.3323 71.3521 54.5123 71.3521 54.8723C71.3521 54.939 71.2721 55.0323 71.1121 55.1523C70.9654 55.259 70.6521 55.3856 70.1721 55.5323C69.6921 55.6656 68.9588 55.819 67.9721 55.9923C67.9188 56.2056 67.8254 56.539 67.6921 56.9923C67.5588 57.4456 67.4121 57.9523 67.2521 58.5123C67.0921 59.059 66.9388 59.5923 66.7921 60.1123C66.6454 60.6323 66.5188 61.0723 66.4121 61.4323C66.3188 61.7923 66.2721 62.0056 66.2721 62.0723C66.2721 62.3256 66.4188 62.4523 66.7121 62.4523C66.9921 62.4523 67.2921 62.4123 67.6121 62.3323C67.9321 62.239 68.2454 62.139 68.5521 62.0323C68.8588 61.9123 69.1188 61.8123 69.3321 61.7323C69.5588 61.639 69.7054 61.5923 69.7721 61.5923C70.0121 61.5923 70.1321 61.719 70.1321 61.9723C70.1321 62.1723 70.0188 62.3923 69.7921 62.6323C69.5788 62.8723 69.2921 63.1056 68.9321 63.3323C68.5854 63.5456 68.2188 63.7256 67.8321 63.8723C67.4588 64.0056 67.1121 64.0723 66.7921 64.0723ZM79.0341 64.3323C78.8208 64.3323 78.6275 64.3123 78.4541 64.2723C78.2808 64.2456 78.1941 64.1123 78.1941 63.8723C78.1941 63.699 78.2541 63.3923 78.3741 62.9523C78.4941 62.499 78.6608 61.9723 78.8741 61.3723C79.0875 60.759 79.3275 60.1056 79.5941 59.4123C79.8608 58.7056 80.1475 58.0056 80.4541 57.3123C80.7608 56.619 81.0608 55.979 81.3541 55.3923C80.9541 55.7256 80.5475 56.039 80.1341 56.3323C79.7341 56.6256 79.3675 56.8656 79.0341 57.0523C78.7141 57.239 78.4741 57.3323 78.3141 57.3323C78.0341 57.3323 77.8941 57.2056 77.8941 56.9523C77.8941 56.779 78.0341 56.6056 78.3141 56.4323C78.7675 56.1523 79.2741 55.819 79.8341 55.4323C80.4075 55.0323 81.0208 54.519 81.6741 53.8923C82.3275 53.2523 82.9941 52.439 83.6741 51.4523C83.8341 51.199 83.9675 51.019 84.0741 50.9123C84.1808 50.7923 84.3141 50.7323 84.4741 50.7323C84.5408 50.7323 84.6075 50.759 84.6741 50.8123C84.7541 50.8656 84.7941 50.9456 84.7941 51.0523C84.7941 51.0923 84.6941 51.379 84.4941 51.9123C84.2941 52.4323 84.0275 53.1256 83.6941 53.9923C83.3608 54.859 82.9875 55.839 82.5741 56.9323C82.1741 58.0123 81.7675 59.1456 81.3541 60.3323C80.9408 61.5056 80.5608 62.659 80.2141 63.7923C80.1341 64.0456 79.9941 64.199 79.7941 64.2523C79.5941 64.3056 79.3408 64.3323 79.0341 64.3323Z" fill="#E7EEDA"/>
<path d="M51.6251 137.063C51.5051 137.063 51.3584 136.997 51.1851 136.863C51.0251 136.717 50.8851 136.543 50.7651 136.343C50.6451 136.13 50.5851 135.917 50.5851 135.703C50.5851 135.45 50.6651 135.03 50.8251 134.443C50.9851 133.843 51.1851 133.143 51.4251 132.343C51.6651 131.543 51.9051 130.703 52.1451 129.823C52.3984 128.943 52.6051 128.083 52.7651 127.243C52.9384 126.403 53.0318 125.65 53.0451 124.983C52.7251 124.69 52.5651 124.423 52.5651 124.183C52.5651 124.023 52.6918 123.863 52.9451 123.703C53.1984 123.53 53.5251 123.377 53.9251 123.243C54.3251 123.097 54.7518 122.983 55.2051 122.903C55.6718 122.81 56.1118 122.763 56.5251 122.763C57.3784 122.763 58.1318 122.917 58.7851 123.223C59.4518 123.517 59.9718 123.93 60.3451 124.463C60.7184 124.983 60.9051 125.597 60.9051 126.303C60.9051 127.263 60.5918 128.13 59.9651 128.903C59.3384 129.663 58.4584 130.317 57.3251 130.863C56.1918 131.41 54.8718 131.83 53.3651 132.123C52.3918 135.417 51.8118 137.063 51.6251 137.063ZM53.8051 130.563C54.8718 130.283 55.8051 129.923 56.6051 129.483C57.4051 129.043 58.0251 128.563 58.4651 128.043C58.9184 127.51 59.1451 126.97 59.1451 126.423C59.1451 125.837 58.9251 125.357 58.4851 124.983C58.0451 124.597 57.5384 124.403 56.9651 124.403C56.5251 124.403 56.1318 124.45 55.7851 124.543C55.4518 124.637 55.0518 124.79 54.5851 125.003C54.7184 125.297 54.7851 125.57 54.7851 125.823C54.7851 126.57 54.4584 128.15 53.8051 130.563ZM62.0045 137.103C61.7645 137.103 61.5778 136.97 61.4445 136.703C61.3111 136.437 61.2445 136.203 61.2445 136.003C61.2445 135.697 61.3045 135.357 61.4245 134.983C61.5445 134.597 61.6778 134.157 61.8245 133.663C61.9711 133.157 62.1045 132.57 62.2245 131.903C62.3445 131.237 62.4045 130.463 62.4045 129.583C62.4045 129.33 62.3911 129.05 62.3645 128.743C62.3511 128.423 62.3445 128.137 62.3445 127.883C62.3445 127.683 62.3778 127.51 62.4445 127.363C62.5245 127.217 62.6378 127.143 62.7845 127.143C63.1045 127.143 63.3645 127.33 63.5645 127.703C63.7778 128.077 63.8845 128.477 63.8845 128.903C63.8845 129.237 63.8645 129.537 63.8245 129.803C64.9845 128.043 66.0845 127.163 67.1245 127.163C67.7778 127.163 68.1045 127.323 68.1045 127.643C68.1045 127.803 68.0311 127.957 67.8845 128.103C67.7511 128.25 67.5178 128.397 67.1845 128.543C66.7311 128.757 66.3178 129.03 65.9445 129.363C65.5711 129.697 65.2111 130.15 64.8645 130.723C64.5311 131.283 64.1911 132.017 63.8445 132.923C63.5111 133.83 63.1445 134.957 62.7445 136.303C62.6645 136.57 62.5578 136.77 62.4245 136.903C62.2911 137.037 62.1511 137.103 62.0045 137.103ZM70.6962 137.063C70.2429 137.063 69.8362 136.923 69.4762 136.643C69.1162 136.35 68.8295 135.957 68.6162 135.463C68.4162 134.957 68.3162 134.377 68.3162 133.723C68.3162 133.203 68.3962 132.65 68.5562 132.063C68.7162 131.463 68.9429 130.877 69.2362 130.303C69.5295 129.717 69.8762 129.19 70.2762 128.723C70.6762 128.243 71.1162 127.863 71.5962 127.583C72.0895 127.29 72.6095 127.143 73.1562 127.143C73.6762 127.143 74.1429 127.297 74.5562 127.603C74.9829 127.91 75.3162 128.33 75.5562 128.863C75.8095 129.383 75.9362 129.963 75.9362 130.603C75.9362 131.457 75.7895 132.27 75.4962 133.043C75.2029 133.817 74.8029 134.51 74.2962 135.123C73.8029 135.723 73.2429 136.197 72.6162 136.543C72.0029 136.89 71.3629 137.063 70.6962 137.063ZM70.7962 135.703C71.2095 135.703 71.6162 135.537 72.0162 135.203C72.4295 134.857 72.8029 134.417 73.1362 133.883C73.4829 133.337 73.7562 132.77 73.9562 132.183C74.1562 131.583 74.2562 131.037 74.2562 130.543C74.2562 130.237 74.2095 129.923 74.1162 129.603C74.0362 129.27 73.9295 128.99 73.7962 128.763C73.6629 128.523 73.5295 128.403 73.3962 128.403C73.0762 128.403 72.7562 128.53 72.4362 128.783C72.1162 129.037 71.8095 129.37 71.5162 129.783C71.2229 130.197 70.9629 130.65 70.7362 131.143C70.5095 131.623 70.3295 132.103 70.1962 132.583C70.0762 133.063 70.0162 133.497 70.0162 133.883C70.0162 134.31 70.0895 134.723 70.2362 135.123C70.3829 135.51 70.5695 135.703 70.7962 135.703ZM81.7787 125.863C81.5654 125.863 81.3254 125.777 81.0587 125.603C80.8054 125.417 80.5787 125.203 80.3787 124.963C80.192 124.71 80.0987 124.49 80.0987 124.303C80.0987 124.023 80.1987 123.77 80.3987 123.543C80.612 123.303 80.8387 123.183 81.0787 123.183C81.2387 123.183 81.412 123.317 81.5987 123.583C81.7987 123.837 81.9654 124.137 82.0987 124.483C82.2454 124.817 82.3187 125.103 82.3187 125.343C82.3187 125.477 82.2587 125.597 82.1387 125.703C82.0187 125.81 81.8987 125.863 81.7787 125.863ZM75.1387 142.263C74.8054 142.263 74.4654 142.183 74.1187 142.023C73.772 141.863 73.4587 141.663 73.1787 141.423C72.8987 141.183 72.672 140.93 72.4987 140.663C72.3254 140.41 72.2387 140.183 72.2387 139.983C72.2387 139.797 72.312 139.59 72.4587 139.363C72.592 139.137 72.7187 139.023 72.8387 139.023C72.9987 139.023 73.1587 139.117 73.3187 139.303C73.4787 139.49 73.6454 139.703 73.8187 139.943C73.992 140.197 74.192 140.417 74.4187 140.603C74.632 140.79 74.8787 140.883 75.1587 140.883C75.492 140.883 75.792 140.663 76.0587 140.223C76.3254 139.783 76.5654 139.17 76.7787 138.383C77.072 137.317 77.3387 136.257 77.5787 135.203C77.8187 134.15 78.072 133.05 78.3387 131.903C78.6054 130.743 78.9187 129.483 79.2787 128.123C79.4787 127.47 79.672 127.143 79.8587 127.143C80.0854 127.143 80.3187 127.29 80.5587 127.583C80.7987 127.863 80.9187 128.17 80.9187 128.503C80.9187 128.717 80.8587 129.09 80.7387 129.623C80.632 130.157 80.4787 130.797 80.2787 131.543C80.092 132.29 79.8787 133.097 79.6387 133.963C79.412 134.817 79.1787 135.69 78.9387 136.583C78.6987 137.477 78.472 138.323 78.2587 139.123C77.6854 141.217 76.6454 142.263 75.1387 142.263ZM85.6368 137.063C84.9435 137.063 84.3301 136.923 83.7968 136.643C83.2768 136.35 82.8635 135.957 82.5568 135.463C82.2635 134.97 82.1168 134.41 82.1168 133.783C82.1168 133.25 82.2035 132.683 82.3768 132.083C82.5635 131.483 82.8168 130.897 83.1368 130.323C83.4701 129.737 83.8501 129.203 84.2768 128.723C84.7168 128.243 85.1835 127.863 85.6768 127.583C86.1701 127.29 86.6835 127.143 87.2168 127.143C87.6168 127.143 87.9968 127.25 88.3568 127.463C88.7302 127.663 89.0635 127.93 89.3568 128.263C89.6635 128.597 89.9035 128.957 90.0768 129.343C90.2502 129.73 90.3368 130.097 90.3368 130.443C90.3368 130.883 90.2101 131.257 89.9568 131.563C89.7035 131.87 89.3768 132.123 88.9768 132.323C88.5768 132.51 88.1435 132.65 87.6768 132.743C87.2235 132.823 86.7968 132.863 86.3968 132.863C85.5301 132.863 84.7168 132.757 83.9568 132.543C83.7701 133.13 83.6768 133.65 83.6768 134.103C83.6768 134.57 83.8168 134.93 84.0968 135.183C84.3901 135.437 84.8701 135.563 85.5368 135.563C86.0168 135.563 86.4835 135.503 86.9368 135.383C87.3901 135.263 87.7768 135.15 88.0968 135.043C88.4302 134.923 88.6368 134.863 88.7168 134.863C89.0635 134.863 89.2368 134.997 89.2368 135.263C89.2368 135.437 89.1235 135.63 88.8968 135.843C88.6702 136.057 88.3768 136.257 88.0168 136.443C87.6568 136.617 87.2635 136.763 86.8368 136.883C86.4235 137.003 86.0235 137.063 85.6368 137.063ZM86.2368 131.583C86.9168 131.583 87.5102 131.477 88.0168 131.263C88.5235 131.037 88.7768 130.743 88.7768 130.383C88.7768 130.143 88.6968 129.897 88.5368 129.643C88.3902 129.377 88.2035 129.157 87.9768 128.983C87.7502 128.81 87.5302 128.723 87.3168 128.723C86.8235 128.723 86.3101 128.983 85.7768 129.503C85.2435 130.01 84.7901 130.643 84.4168 131.403C84.9501 131.523 85.5568 131.583 86.2368 131.583ZM94.6007 137.063C94.0807 137.063 93.5741 136.923 93.0807 136.643C92.5874 136.363 92.1807 135.99 91.8607 135.523C91.5407 135.057 91.3807 134.543 91.3807 133.983C91.3807 133.477 91.4874 132.917 91.7007 132.303C91.9141 131.69 92.2074 131.083 92.5807 130.483C92.9541 129.87 93.3807 129.31 93.8607 128.803C94.3407 128.297 94.8474 127.897 95.3807 127.603C95.9141 127.297 96.4474 127.143 96.9807 127.143C97.3407 127.143 97.6741 127.263 97.9807 127.503C98.3007 127.73 98.5541 128.003 98.7407 128.323C98.9407 128.643 99.0407 128.93 99.0407 129.183C99.0407 129.317 99.0007 129.417 98.9207 129.483C98.8407 129.537 98.7474 129.563 98.6407 129.563C98.5074 129.563 98.3674 129.503 98.2207 129.383C98.0741 129.263 97.9141 129.143 97.7407 129.023C97.5674 128.903 97.3607 128.843 97.1207 128.843C96.8274 128.843 96.5074 128.963 96.1607 129.203C95.8141 129.43 95.4607 129.743 95.1007 130.143C94.7541 130.53 94.4341 130.957 94.1407 131.423C93.8474 131.877 93.6074 132.337 93.4207 132.803C93.2474 133.27 93.1607 133.69 93.1607 134.063C93.1607 134.477 93.2874 134.803 93.5407 135.043C93.8074 135.283 94.2341 135.403 94.8207 135.403C95.4607 135.403 95.9941 135.337 96.4207 135.203C96.8607 135.057 97.2141 134.917 97.4807 134.783C97.7607 134.637 97.9874 134.563 98.1607 134.563C98.4141 134.563 98.5407 134.69 98.5407 134.943C98.5407 135.143 98.4074 135.363 98.1407 135.603C97.8874 135.843 97.5541 136.077 97.1407 136.303C96.7407 136.517 96.3141 136.697 95.8607 136.843C95.4074 136.99 94.9874 137.063 94.6007 137.063ZM103.027 137.063C102.6 137.063 102.214 136.983 101.867 136.823C101.52 136.65 101.247 136.437 101.047 136.183C100.86 135.93 100.767 135.683 100.767 135.443C100.767 134.857 100.934 134.063 101.267 133.063C101.614 132.063 101.994 130.823 102.407 129.343C102.1 129.41 101.84 129.463 101.627 129.503C101.414 129.543 101.254 129.563 101.147 129.563C100.934 129.563 100.72 129.457 100.507 129.243C100.307 129.017 100.207 128.803 100.207 128.603C100.207 128.283 101.074 127.977 102.807 127.683C103.047 126.577 103.167 125.597 103.167 124.743C103.167 124.343 103.3 124.143 103.567 124.143C103.674 124.143 103.827 124.197 104.027 124.303C104.24 124.41 104.44 124.57 104.627 124.783C104.814 124.997 104.907 125.27 104.907 125.603C104.907 125.817 104.874 126.077 104.807 126.383C104.754 126.677 104.674 127.03 104.567 127.443C104.954 127.417 105.294 127.39 105.587 127.363C105.894 127.337 106.16 127.323 106.387 127.323C107.187 127.323 107.587 127.503 107.587 127.863C107.587 127.93 107.507 128.023 107.347 128.143C107.2 128.25 106.887 128.377 106.407 128.523C105.927 128.657 105.194 128.81 104.207 128.983C104.154 129.197 104.06 129.53 103.927 129.983C103.794 130.437 103.647 130.943 103.487 131.503C103.327 132.05 103.174 132.583 103.027 133.103C102.88 133.623 102.754 134.063 102.647 134.423C102.554 134.783 102.507 134.997 102.507 135.063C102.507 135.317 102.654 135.443 102.947 135.443C103.227 135.443 103.527 135.403 103.847 135.323C104.167 135.23 104.48 135.13 104.787 135.023C105.094 134.903 105.354 134.803 105.567 134.723C105.794 134.63 105.94 134.583 106.007 134.583C106.247 134.583 106.367 134.71 106.367 134.963C106.367 135.163 106.254 135.383 106.027 135.623C105.814 135.863 105.527 136.097 105.167 136.323C104.82 136.537 104.454 136.717 104.067 136.863C103.694 136.997 103.347 137.063 103.027 137.063ZM120.549 137.043C120.122 137.043 119.689 136.983 119.249 136.863C118.809 136.73 118.369 136.59 117.929 136.443C117.489 136.297 117.042 136.197 116.589 136.143C116.269 136.437 115.996 136.643 115.769 136.763C115.542 136.883 115.316 136.943 115.089 136.943C114.676 136.943 114.349 136.83 114.109 136.603C113.882 136.363 113.769 135.997 113.769 135.503C113.769 135.037 113.922 134.677 114.229 134.423C114.549 134.157 114.936 134.023 115.389 134.023C115.536 134.023 115.682 134.037 115.829 134.063C115.989 134.077 116.149 134.11 116.309 134.163C116.776 133.75 117.269 133.263 117.789 132.703C118.309 132.143 118.796 131.557 119.249 130.943C119.702 130.317 120.069 129.697 120.349 129.083C120.642 128.457 120.789 127.87 120.789 127.323C120.789 126.937 120.662 126.65 120.409 126.463C120.156 126.277 119.849 126.183 119.489 126.183C119.102 126.183 118.709 126.29 118.309 126.503C117.909 126.717 117.576 126.997 117.309 127.343C117.042 127.677 116.909 128.03 116.909 128.403C116.909 128.617 116.976 128.79 117.109 128.923C117.256 129.057 117.416 129.123 117.589 129.123C117.816 129.123 118.009 129.05 118.169 128.903C118.329 128.757 118.529 128.683 118.769 128.683C118.916 128.683 119.029 128.73 119.109 128.823C119.189 128.903 119.229 129.003 119.229 129.123C119.229 129.363 119.109 129.57 118.869 129.743C118.629 129.903 118.342 130.03 118.009 130.123C117.689 130.203 117.396 130.243 117.129 130.243C116.676 130.243 116.269 130.137 115.909 129.923C115.549 129.697 115.369 129.337 115.369 128.843C115.369 128.297 115.516 127.777 115.809 127.283C116.102 126.777 116.489 126.323 116.969 125.923C117.449 125.523 117.976 125.21 118.549 124.983C119.136 124.757 119.716 124.643 120.289 124.643C121.156 124.643 121.816 124.883 122.269 125.363C122.722 125.83 122.949 126.397 122.949 127.063C122.949 127.663 122.816 128.27 122.549 128.883C122.282 129.483 121.942 130.077 121.529 130.663C121.116 131.25 120.669 131.803 120.189 132.323C119.709 132.843 119.249 133.317 118.809 133.743C118.382 134.17 118.022 134.537 117.729 134.843C118.289 135.217 118.802 135.47 119.269 135.603C119.736 135.723 120.156 135.783 120.529 135.783C120.969 135.783 121.349 135.73 121.669 135.623C121.989 135.517 122.302 135.463 122.609 135.463C122.756 135.463 122.829 135.563 122.829 135.763C122.829 135.99 122.702 136.203 122.449 136.403C122.209 136.59 121.909 136.743 121.549 136.863C121.202 136.983 120.869 137.043 120.549 137.043Z" fill="#E7EEDA"/>
<path d="M154.352 185.16C154.232 185.16 154.085 185.093 153.912 184.96C153.752 184.813 153.612 184.64 153.492 184.44C153.372 184.226 153.312 184.013 153.312 183.8C153.312 183.546 153.392 183.126 153.552 182.54C153.712 181.94 153.912 181.24 154.152 180.44C154.392 179.64 154.632 178.8 154.872 177.92C155.125 177.04 155.332 176.18 155.492 175.34C155.665 174.5 155.758 173.746 155.772 173.08C155.452 172.786 155.292 172.52 155.292 172.28C155.292 172.12 155.418 171.96 155.672 171.8C155.925 171.626 156.252 171.473 156.652 171.34C157.052 171.193 157.478 171.08 157.932 171C158.398 170.906 158.838 170.86 159.252 170.86C160.105 170.86 160.858 171.013 161.512 171.32C162.178 171.613 162.698 172.026 163.072 172.56C163.445 173.08 163.632 173.693 163.632 174.4C163.632 175.36 163.318 176.226 162.692 177C162.065 177.76 161.185 178.413 160.052 178.96C158.918 179.506 157.598 179.926 156.092 180.22C155.118 183.513 154.538 185.16 154.352 185.16ZM156.532 178.66C157.598 178.38 158.532 178.02 159.332 177.58C160.132 177.14 160.752 176.66 161.192 176.14C161.645 175.606 161.872 175.066 161.872 174.52C161.872 173.933 161.652 173.453 161.212 173.08C160.772 172.693 160.265 172.5 159.692 172.5C159.252 172.5 158.858 172.546 158.512 172.64C158.178 172.733 157.778 172.886 157.312 173.1C157.445 173.393 157.512 173.666 157.512 173.92C157.512 174.666 157.185 176.246 156.532 178.66ZM164.731 185.2C164.491 185.2 164.304 185.066 164.171 184.8C164.038 184.533 163.971 184.3 163.971 184.1C163.971 183.793 164.031 183.453 164.151 183.08C164.271 182.693 164.404 182.253 164.551 181.76C164.698 181.253 164.831 180.666 164.951 180C165.071 179.333 165.131 178.56 165.131 177.68C165.131 177.426 165.118 177.146 165.091 176.84C165.078 176.52 165.071 176.233 165.071 175.98C165.071 175.78 165.104 175.606 165.171 175.46C165.251 175.313 165.364 175.24 165.511 175.24C165.831 175.24 166.091 175.426 166.291 175.8C166.504 176.173 166.611 176.573 166.611 177C166.611 177.333 166.591 177.633 166.551 177.9C167.711 176.14 168.811 175.26 169.851 175.26C170.504 175.26 170.831 175.42 170.831 175.74C170.831 175.9 170.758 176.053 170.611 176.2C170.478 176.346 170.244 176.493 169.911 176.64C169.458 176.853 169.044 177.126 168.671 177.46C168.298 177.793 167.938 178.246 167.591 178.82C167.258 179.38 166.918 180.113 166.571 181.02C166.238 181.926 165.871 183.053 165.471 184.4C165.391 184.666 165.284 184.866 165.151 185C165.018 185.133 164.878 185.2 164.731 185.2ZM173.423 185.16C172.969 185.16 172.563 185.02 172.203 184.74C171.843 184.446 171.556 184.053 171.343 183.56C171.143 183.053 171.043 182.473 171.043 181.82C171.043 181.3 171.123 180.746 171.283 180.16C171.443 179.56 171.669 178.973 171.963 178.4C172.256 177.813 172.603 177.286 173.003 176.82C173.403 176.34 173.843 175.96 174.323 175.68C174.816 175.386 175.336 175.24 175.883 175.24C176.403 175.24 176.869 175.393 177.283 175.7C177.709 176.006 178.043 176.426 178.283 176.96C178.536 177.48 178.663 178.06 178.663 178.7C178.663 179.553 178.516 180.366 178.223 181.14C177.929 181.913 177.529 182.606 177.023 183.22C176.529 183.82 175.969 184.293 175.343 184.64C174.729 184.986 174.089 185.16 173.423 185.16ZM173.523 183.8C173.936 183.8 174.343 183.633 174.743 183.3C175.156 182.953 175.529 182.513 175.863 181.98C176.209 181.433 176.483 180.866 176.683 180.28C176.883 179.68 176.983 179.133 176.983 178.64C176.983 178.333 176.936 178.02 176.843 177.7C176.763 177.366 176.656 177.086 176.523 176.86C176.389 176.62 176.256 176.5 176.123 176.5C175.803 176.5 175.483 176.626 175.163 176.88C174.843 177.133 174.536 177.466 174.243 177.88C173.949 178.293 173.689 178.746 173.463 179.24C173.236 179.72 173.056 180.2 172.923 180.68C172.803 181.16 172.743 181.593 172.743 181.98C172.743 182.406 172.816 182.82 172.963 183.22C173.109 183.606 173.296 183.8 173.523 183.8ZM184.505 173.96C184.292 173.96 184.052 173.873 183.785 173.7C183.532 173.513 183.305 173.3 183.105 173.06C182.919 172.806 182.825 172.586 182.825 172.4C182.825 172.12 182.925 171.866 183.125 171.64C183.339 171.4 183.565 171.28 183.805 171.28C183.965 171.28 184.139 171.413 184.325 171.68C184.525 171.933 184.692 172.233 184.825 172.58C184.972 172.913 185.045 173.2 185.045 173.44C185.045 173.573 184.985 173.693 184.865 173.8C184.745 173.906 184.625 173.96 184.505 173.96ZM177.865 190.36C177.532 190.36 177.192 190.28 176.845 190.12C176.499 189.96 176.185 189.76 175.905 189.52C175.625 189.28 175.399 189.026 175.225 188.76C175.052 188.506 174.965 188.28 174.965 188.08C174.965 187.893 175.039 187.686 175.185 187.46C175.319 187.233 175.445 187.12 175.565 187.12C175.725 187.12 175.885 187.213 176.045 187.4C176.205 187.586 176.372 187.8 176.545 188.04C176.719 188.293 176.919 188.513 177.145 188.7C177.359 188.886 177.605 188.98 177.885 188.98C178.219 188.98 178.519 188.76 178.785 188.32C179.052 187.88 179.292 187.266 179.505 186.48C179.799 185.413 180.065 184.353 180.305 183.3C180.545 182.246 180.799 181.146 181.065 180C181.332 178.84 181.645 177.58 182.005 176.22C182.205 175.566 182.399 175.24 182.585 175.24C182.812 175.24 183.045 175.386 183.285 175.68C183.525 175.96 183.645 176.266 183.645 176.6C183.645 176.813 183.585 177.186 183.465 177.72C183.359 178.253 183.205 178.893 183.005 179.64C182.819 180.386 182.605 181.193 182.365 182.06C182.139 182.913 181.905 183.786 181.665 184.68C181.425 185.573 181.199 186.42 180.985 187.22C180.412 189.313 179.372 190.36 177.865 190.36ZM188.363 185.16C187.67 185.16 187.057 185.02 186.523 184.74C186.003 184.446 185.59 184.053 185.283 183.56C184.99 183.066 184.843 182.506 184.843 181.88C184.843 181.346 184.93 180.78 185.103 180.18C185.29 179.58 185.543 178.993 185.863 178.42C186.197 177.833 186.577 177.3 187.003 176.82C187.443 176.34 187.91 175.96 188.403 175.68C188.897 175.386 189.41 175.24 189.943 175.24C190.343 175.24 190.723 175.346 191.083 175.56C191.457 175.76 191.79 176.026 192.083 176.36C192.39 176.693 192.63 177.053 192.803 177.44C192.977 177.826 193.063 178.193 193.063 178.54C193.063 178.98 192.937 179.353 192.683 179.66C192.43 179.966 192.103 180.22 191.703 180.42C191.303 180.606 190.87 180.746 190.403 180.84C189.95 180.92 189.523 180.96 189.123 180.96C188.257 180.96 187.443 180.853 186.683 180.64C186.497 181.226 186.403 181.746 186.403 182.2C186.403 182.666 186.543 183.026 186.823 183.28C187.117 183.533 187.597 183.66 188.263 183.66C188.743 183.66 189.21 183.6 189.663 183.48C190.117 183.36 190.503 183.246 190.823 183.14C191.157 183.02 191.363 182.96 191.443 182.96C191.79 182.96 191.963 183.093 191.963 183.36C191.963 183.533 191.85 183.726 191.623 183.94C191.397 184.153 191.103 184.353 190.743 184.54C190.383 184.713 189.99 184.86 189.563 184.98C189.15 185.1 188.75 185.16 188.363 185.16ZM188.963 179.68C189.643 179.68 190.237 179.573 190.743 179.36C191.25 179.133 191.503 178.84 191.503 178.48C191.503 178.24 191.423 177.993 191.263 177.74C191.117 177.473 190.93 177.253 190.703 177.08C190.477 176.906 190.257 176.82 190.043 176.82C189.55 176.82 189.037 177.08 188.503 177.6C187.97 178.106 187.517 178.74 187.143 179.5C187.677 179.62 188.283 179.68 188.963 179.68ZM197.327 185.16C196.807 185.16 196.301 185.02 195.807 184.74C195.314 184.46 194.907 184.086 194.587 183.62C194.267 183.153 194.107 182.64 194.107 182.08C194.107 181.573 194.214 181.013 194.427 180.4C194.641 179.786 194.934 179.18 195.307 178.58C195.681 177.966 196.107 177.406 196.587 176.9C197.067 176.393 197.574 175.993 198.107 175.7C198.641 175.393 199.174 175.24 199.707 175.24C200.067 175.24 200.401 175.36 200.707 175.6C201.027 175.826 201.281 176.1 201.467 176.42C201.667 176.74 201.767 177.026 201.767 177.28C201.767 177.413 201.727 177.513 201.647 177.58C201.567 177.633 201.474 177.66 201.367 177.66C201.234 177.66 201.094 177.6 200.947 177.48C200.801 177.36 200.641 177.24 200.467 177.12C200.294 177 200.087 176.94 199.847 176.94C199.554 176.94 199.234 177.06 198.887 177.3C198.541 177.526 198.187 177.84 197.827 178.24C197.481 178.626 197.161 179.053 196.867 179.52C196.574 179.973 196.334 180.433 196.147 180.9C195.974 181.366 195.887 181.786 195.887 182.16C195.887 182.573 196.014 182.9 196.267 183.14C196.534 183.38 196.961 183.5 197.547 183.5C198.187 183.5 198.721 183.433 199.147 183.3C199.587 183.153 199.941 183.013 200.207 182.88C200.487 182.733 200.714 182.66 200.887 182.66C201.141 182.66 201.267 182.786 201.267 183.04C201.267 183.24 201.134 183.46 200.867 183.7C200.614 183.94 200.281 184.173 199.867 184.4C199.467 184.613 199.041 184.793 198.587 184.94C198.134 185.086 197.714 185.16 197.327 185.16ZM205.754 185.16C205.327 185.16 204.94 185.08 204.594 184.92C204.247 184.746 203.974 184.533 203.774 184.28C203.587 184.026 203.494 183.78 203.494 183.54C203.494 182.953 203.66 182.16 203.994 181.16C204.34 180.16 204.72 178.92 205.134 177.44C204.827 177.506 204.567 177.56 204.354 177.6C204.14 177.64 203.98 177.66 203.874 177.66C203.66 177.66 203.447 177.553 203.234 177.34C203.034 177.113 202.934 176.9 202.934 176.7C202.934 176.38 203.8 176.073 205.534 175.78C205.774 174.673 205.894 173.693 205.894 172.84C205.894 172.44 206.027 172.24 206.294 172.24C206.4 172.24 206.554 172.293 206.754 172.4C206.967 172.506 207.167 172.666 207.354 172.88C207.54 173.093 207.634 173.366 207.634 173.7C207.634 173.913 207.6 174.173 207.534 174.48C207.48 174.773 207.4 175.126 207.294 175.54C207.68 175.513 208.02 175.486 208.314 175.46C208.62 175.433 208.887 175.42 209.114 175.42C209.914 175.42 210.314 175.6 210.314 175.96C210.314 176.026 210.234 176.12 210.074 176.24C209.927 176.346 209.614 176.473 209.134 176.62C208.654 176.753 207.92 176.906 206.934 177.08C206.88 177.293 206.787 177.626 206.654 178.08C206.52 178.533 206.374 179.04 206.214 179.6C206.054 180.146 205.9 180.68 205.754 181.2C205.607 181.72 205.48 182.16 205.374 182.52C205.28 182.88 205.234 183.093 205.234 183.16C205.234 183.413 205.38 183.54 205.674 183.54C205.954 183.54 206.254 183.5 206.574 183.42C206.894 183.326 207.207 183.226 207.514 183.12C207.82 183 208.08 182.9 208.294 182.82C208.52 182.726 208.667 182.68 208.734 182.68C208.974 182.68 209.094 182.806 209.094 183.06C209.094 183.26 208.98 183.48 208.754 183.72C208.54 183.96 208.254 184.193 207.894 184.42C207.547 184.633 207.18 184.813 206.794 184.96C206.42 185.093 206.074 185.16 205.754 185.16ZM178.941 205.24C178.528 205.24 178.115 205.18 177.701 205.06C177.301 204.94 176.968 204.766 176.701 204.54C176.448 204.3 176.321 204.02 176.321 203.7C176.321 203.433 176.421 203.226 176.621 203.08C176.821 202.92 177.055 202.84 177.321 202.84C177.601 202.84 177.821 202.92 177.981 203.08C178.101 203.2 178.195 203.353 178.261 203.54C178.328 203.726 178.421 203.893 178.541 204.04C178.661 204.186 178.861 204.26 179.141 204.26C179.888 204.26 180.555 204.093 181.141 203.76C181.741 203.413 182.215 202.953 182.561 202.38C182.908 201.806 183.081 201.16 183.081 200.44C183.081 199.786 182.908 199.286 182.561 198.94C182.215 198.593 181.828 198.42 181.401 198.42C181.175 198.42 180.988 198.446 180.841 198.5C180.708 198.54 180.508 198.56 180.241 198.56C179.948 198.56 179.801 198.453 179.801 198.24C179.801 198.066 179.928 197.94 180.181 197.86C180.995 197.673 181.635 197.326 182.101 196.82C182.568 196.313 182.801 195.74 182.801 195.1C182.801 194.66 182.688 194.313 182.461 194.06C182.235 193.793 181.948 193.66 181.601 193.66C181.241 193.66 181.001 193.76 180.881 193.96C180.761 194.146 180.641 194.346 180.521 194.56C180.441 194.693 180.315 194.813 180.141 194.92C179.968 195.013 179.721 195.06 179.401 195.06C178.921 195.06 178.681 194.84 178.681 194.4C178.681 194.173 178.788 193.933 179.001 193.68C179.215 193.413 179.541 193.186 179.981 193C180.435 192.813 181.015 192.72 181.721 192.72C182.201 192.72 182.668 192.8 183.121 192.96C183.588 193.106 183.968 193.346 184.261 193.68C184.568 194 184.721 194.426 184.721 194.96C184.721 195.4 184.628 195.873 184.441 196.38C184.255 196.873 183.908 197.293 183.401 197.64C183.935 197.88 184.335 198.246 184.601 198.74C184.868 199.233 185.001 199.813 185.001 200.48C185.001 201.293 184.815 202 184.441 202.6C184.081 203.2 183.601 203.7 183.001 204.1C182.415 204.486 181.761 204.773 181.041 204.96C180.335 205.146 179.635 205.24 178.941 205.24Z" fill="#E7EEDA"/>
<path d="M217.293 144.16C217.173 144.16 217.026 144.093 216.853 143.96C216.693 143.813 216.553 143.64 216.433 143.44C216.313 143.226 216.253 143.013 216.253 142.8C216.253 142.546 216.333 142.126 216.493 141.54C216.653 140.94 216.853 140.24 217.093 139.44C217.333 138.64 217.573 137.8 217.813 136.92C218.066 136.04 218.273 135.18 218.433 134.34C218.606 133.5 218.7 132.746 218.713 132.08C218.393 131.786 218.233 131.52 218.233 131.28C218.233 131.12 218.36 130.96 218.613 130.8C218.866 130.626 219.193 130.473 219.593 130.34C219.993 130.193 220.42 130.08 220.873 130C221.34 129.906 221.78 129.86 222.193 129.86C223.046 129.86 223.8 130.013 224.453 130.32C225.12 130.613 225.64 131.026 226.013 131.56C226.386 132.08 226.573 132.693 226.573 133.4C226.573 134.36 226.26 135.226 225.633 136C225.006 136.76 224.126 137.413 222.993 137.96C221.86 138.506 220.54 138.926 219.033 139.22C218.06 142.513 217.48 144.16 217.293 144.16ZM219.473 137.66C220.54 137.38 221.473 137.02 222.273 136.58C223.073 136.14 223.693 135.66 224.133 135.14C224.586 134.606 224.813 134.066 224.813 133.52C224.813 132.933 224.593 132.453 224.153 132.08C223.713 131.693 223.206 131.5 222.633 131.5C222.193 131.5 221.8 131.546 221.453 131.64C221.12 131.733 220.72 131.886 220.253 132.1C220.386 132.393 220.453 132.666 220.453 132.92C220.453 133.666 220.126 135.246 219.473 137.66ZM227.672 144.2C227.432 144.2 227.246 144.066 227.112 143.8C226.979 143.533 226.912 143.3 226.912 143.1C226.912 142.793 226.972 142.453 227.092 142.08C227.212 141.693 227.346 141.253 227.492 140.76C227.639 140.253 227.772 139.666 227.892 139C228.012 138.333 228.072 137.56 228.072 136.68C228.072 136.426 228.059 136.146 228.032 135.84C228.019 135.52 228.012 135.233 228.012 134.98C228.012 134.78 228.046 134.606 228.112 134.46C228.192 134.313 228.306 134.24 228.452 134.24C228.772 134.24 229.032 134.426 229.232 134.8C229.446 135.173 229.552 135.573 229.552 136C229.552 136.333 229.532 136.633 229.492 136.9C230.652 135.14 231.752 134.26 232.792 134.26C233.446 134.26 233.772 134.42 233.772 134.74C233.772 134.9 233.699 135.053 233.552 135.2C233.419 135.346 233.186 135.493 232.852 135.64C232.399 135.853 231.986 136.126 231.612 136.46C231.239 136.793 230.879 137.246 230.532 137.82C230.199 138.38 229.859 139.113 229.512 140.02C229.179 140.926 228.812 142.053 228.412 143.4C228.332 143.666 228.226 143.866 228.092 144C227.959 144.133 227.819 144.2 227.672 144.2ZM236.364 144.16C235.911 144.16 235.504 144.02 235.144 143.74C234.784 143.446 234.497 143.053 234.284 142.56C234.084 142.053 233.984 141.473 233.984 140.82C233.984 140.3 234.064 139.746 234.224 139.16C234.384 138.56 234.611 137.973 234.904 137.4C235.197 136.813 235.544 136.286 235.944 135.82C236.344 135.34 236.784 134.96 237.264 134.68C237.757 134.386 238.277 134.24 238.824 134.24C239.344 134.24 239.811 134.393 240.224 134.7C240.651 135.006 240.984 135.426 241.224 135.96C241.477 136.48 241.604 137.06 241.604 137.7C241.604 138.553 241.457 139.366 241.164 140.14C240.871 140.913 240.471 141.606 239.964 142.22C239.471 142.82 238.911 143.293 238.284 143.64C237.671 143.986 237.031 144.16 236.364 144.16ZM236.464 142.8C236.877 142.8 237.284 142.633 237.684 142.3C238.097 141.953 238.471 141.513 238.804 140.98C239.151 140.433 239.424 139.866 239.624 139.28C239.824 138.68 239.924 138.133 239.924 137.64C239.924 137.333 239.877 137.02 239.784 136.7C239.704 136.366 239.597 136.086 239.464 135.86C239.331 135.62 239.197 135.5 239.064 135.5C238.744 135.5 238.424 135.626 238.104 135.88C237.784 136.133 237.477 136.466 237.184 136.88C236.891 137.293 236.631 137.746 236.404 138.24C236.177 138.72 235.997 139.2 235.864 139.68C235.744 140.16 235.684 140.593 235.684 140.98C235.684 141.406 235.757 141.82 235.904 142.22C236.051 142.606 236.237 142.8 236.464 142.8ZM247.447 132.96C247.233 132.96 246.993 132.873 246.727 132.7C246.473 132.513 246.247 132.3 246.047 132.06C245.86 131.806 245.767 131.586 245.767 131.4C245.767 131.12 245.867 130.866 246.067 130.64C246.28 130.4 246.507 130.28 246.747 130.28C246.907 130.28 247.08 130.413 247.267 130.68C247.467 130.933 247.633 131.233 247.767 131.58C247.913 131.913 247.987 132.2 247.987 132.44C247.987 132.573 247.927 132.693 247.807 132.8C247.687 132.906 247.567 132.96 247.447 132.96ZM240.807 149.36C240.473 149.36 240.133 149.28 239.787 149.12C239.44 148.96 239.127 148.76 238.847 148.52C238.567 148.28 238.34 148.026 238.167 147.76C237.993 147.506 237.907 147.28 237.907 147.08C237.907 146.893 237.98 146.686 238.127 146.46C238.26 146.233 238.387 146.12 238.507 146.12C238.667 146.12 238.827 146.213 238.987 146.4C239.147 146.586 239.313 146.8 239.487 147.04C239.66 147.293 239.86 147.513 240.087 147.7C240.3 147.886 240.547 147.98 240.827 147.98C241.16 147.98 241.46 147.76 241.727 147.32C241.993 146.88 242.233 146.266 242.447 145.48C242.74 144.413 243.007 143.353 243.247 142.3C243.487 141.246 243.74 140.146 244.007 139C244.273 137.84 244.587 136.58 244.947 135.22C245.147 134.566 245.34 134.24 245.527 134.24C245.753 134.24 245.987 134.386 246.227 134.68C246.467 134.96 246.587 135.266 246.587 135.6C246.587 135.813 246.527 136.186 246.407 136.72C246.3 137.253 246.147 137.893 245.947 138.64C245.76 139.386 245.547 140.193 245.307 141.06C245.08 141.913 244.847 142.786 244.607 143.68C244.367 144.573 244.14 145.42 243.927 146.22C243.353 148.313 242.313 149.36 240.807 149.36ZM251.305 144.16C250.611 144.16 249.998 144.02 249.465 143.74C248.945 143.446 248.531 143.053 248.225 142.56C247.931 142.066 247.785 141.506 247.785 140.88C247.785 140.346 247.871 139.78 248.045 139.18C248.231 138.58 248.485 137.993 248.805 137.42C249.138 136.833 249.518 136.3 249.945 135.82C250.385 135.34 250.851 134.96 251.345 134.68C251.838 134.386 252.351 134.24 252.885 134.24C253.285 134.24 253.665 134.346 254.025 134.56C254.398 134.76 254.731 135.026 255.025 135.36C255.331 135.693 255.571 136.053 255.745 136.44C255.918 136.826 256.005 137.193 256.005 137.54C256.005 137.98 255.878 138.353 255.625 138.66C255.371 138.966 255.045 139.22 254.645 139.42C254.245 139.606 253.811 139.746 253.345 139.84C252.891 139.92 252.465 139.96 252.065 139.96C251.198 139.96 250.385 139.853 249.625 139.64C249.438 140.226 249.345 140.746 249.345 141.2C249.345 141.666 249.485 142.026 249.765 142.28C250.058 142.533 250.538 142.66 251.205 142.66C251.685 142.66 252.151 142.6 252.605 142.48C253.058 142.36 253.445 142.246 253.765 142.14C254.098 142.02 254.305 141.96 254.385 141.96C254.731 141.96 254.905 142.093 254.905 142.36C254.905 142.533 254.791 142.726 254.565 142.94C254.338 143.153 254.045 143.353 253.685 143.54C253.325 143.713 252.931 143.86 252.505 143.98C252.091 144.1 251.691 144.16 251.305 144.16ZM251.905 138.68C252.585 138.68 253.178 138.573 253.685 138.36C254.191 138.133 254.445 137.84 254.445 137.48C254.445 137.24 254.365 136.993 254.205 136.74C254.058 136.473 253.871 136.253 253.645 136.08C253.418 135.906 253.198 135.82 252.985 135.82C252.491 135.82 251.978 136.08 251.445 136.6C250.911 137.106 250.458 137.74 250.085 138.5C250.618 138.62 251.225 138.68 251.905 138.68ZM260.269 144.16C259.749 144.16 259.242 144.02 258.749 143.74C258.255 143.46 257.849 143.086 257.529 142.62C257.209 142.153 257.049 141.64 257.049 141.08C257.049 140.573 257.155 140.013 257.369 139.4C257.582 138.786 257.875 138.18 258.249 137.58C258.622 136.966 259.049 136.406 259.529 135.9C260.009 135.393 260.515 134.993 261.049 134.7C261.582 134.393 262.115 134.24 262.649 134.24C263.009 134.24 263.342 134.36 263.649 134.6C263.969 134.826 264.222 135.1 264.409 135.42C264.609 135.74 264.709 136.026 264.709 136.28C264.709 136.413 264.669 136.513 264.589 136.58C264.509 136.633 264.415 136.66 264.309 136.66C264.175 136.66 264.035 136.6 263.889 136.48C263.742 136.36 263.582 136.24 263.409 136.12C263.235 136 263.029 135.94 262.789 135.94C262.495 135.94 262.175 136.06 261.829 136.3C261.482 136.526 261.129 136.84 260.769 137.24C260.422 137.626 260.102 138.053 259.809 138.52C259.515 138.973 259.275 139.433 259.089 139.9C258.915 140.366 258.829 140.786 258.829 141.16C258.829 141.573 258.955 141.9 259.209 142.14C259.475 142.38 259.902 142.5 260.489 142.5C261.129 142.5 261.662 142.433 262.089 142.3C262.529 142.153 262.882 142.013 263.149 141.88C263.429 141.733 263.655 141.66 263.829 141.66C264.082 141.66 264.209 141.786 264.209 142.04C264.209 142.24 264.075 142.46 263.809 142.7C263.555 142.94 263.222 143.173 262.809 143.4C262.409 143.613 261.982 143.793 261.529 143.94C261.075 144.086 260.655 144.16 260.269 144.16ZM268.695 144.16C268.268 144.16 267.882 144.08 267.535 143.92C267.188 143.746 266.915 143.533 266.715 143.28C266.528 143.026 266.435 142.78 266.435 142.54C266.435 141.953 266.602 141.16 266.935 140.16C267.282 139.16 267.662 137.92 268.075 136.44C267.768 136.506 267.508 136.56 267.295 136.6C267.082 136.64 266.922 136.66 266.815 136.66C266.602 136.66 266.388 136.553 266.175 136.34C265.975 136.113 265.875 135.9 265.875 135.7C265.875 135.38 266.742 135.073 268.475 134.78C268.715 133.673 268.835 132.693 268.835 131.84C268.835 131.44 268.968 131.24 269.235 131.24C269.342 131.24 269.495 131.293 269.695 131.4C269.908 131.506 270.108 131.666 270.295 131.88C270.482 132.093 270.575 132.366 270.575 132.7C270.575 132.913 270.542 133.173 270.475 133.48C270.422 133.773 270.342 134.126 270.235 134.54C270.622 134.513 270.962 134.486 271.255 134.46C271.562 134.433 271.828 134.42 272.055 134.42C272.855 134.42 273.255 134.6 273.255 134.96C273.255 135.026 273.175 135.12 273.015 135.24C272.868 135.346 272.555 135.473 272.075 135.62C271.595 135.753 270.862 135.906 269.875 136.08C269.822 136.293 269.728 136.626 269.595 137.08C269.462 137.533 269.315 138.04 269.155 138.6C268.995 139.146 268.842 139.68 268.695 140.2C268.548 140.72 268.422 141.16 268.315 141.52C268.222 141.88 268.175 142.093 268.175 142.16C268.175 142.413 268.322 142.54 268.615 142.54C268.895 142.54 269.195 142.5 269.515 142.42C269.835 142.326 270.148 142.226 270.455 142.12C270.762 142 271.022 141.9 271.235 141.82C271.462 141.726 271.608 141.68 271.675 141.68C271.915 141.68 272.035 141.806 272.035 142.06C272.035 142.26 271.922 142.48 271.695 142.72C271.482 142.96 271.195 143.193 270.835 143.42C270.488 143.633 270.122 143.813 269.735 143.96C269.362 144.093 269.015 144.16 268.695 144.16ZM282.477 147.62C282.237 147.62 282.097 147.58 282.057 147.5C282.017 147.433 281.997 147.333 281.997 147.2C281.997 147.146 282.057 146.953 282.177 146.62C282.31 146.286 282.484 145.853 282.697 145.32C282.924 144.8 283.164 144.226 283.417 143.6C282.804 143.546 282.17 143.506 281.517 143.48C280.864 143.44 280.197 143.42 279.517 143.42C279.024 143.42 278.67 143.326 278.457 143.14C278.244 142.953 278.137 142.746 278.137 142.52C278.137 142.173 278.297 141.873 278.617 141.62C279.204 141.14 279.81 140.586 280.437 139.96C281.064 139.32 281.684 138.653 282.297 137.96C282.924 137.266 283.517 136.586 284.077 135.92C284.637 135.24 285.144 134.62 285.597 134.06C286.05 133.486 286.424 133.02 286.717 132.66C287.01 132.286 287.19 132.066 287.257 132C287.337 131.92 287.41 131.853 287.477 131.8C287.544 131.746 287.624 131.72 287.717 131.72C287.89 131.72 287.977 131.826 287.977 132.04C287.977 132.28 287.85 132.653 287.597 133.16C287.357 133.666 287.024 134.253 286.597 134.92C286.184 135.573 285.71 136.26 285.177 136.98C284.657 137.7 284.11 138.406 283.537 139.1C282.977 139.78 282.424 140.406 281.877 140.98C281.344 141.54 280.857 141.986 280.417 142.32C280.964 142.306 281.544 142.286 282.157 142.26C282.784 142.22 283.39 142.186 283.977 142.16C284.257 141.453 284.524 140.76 284.777 140.08C285.03 139.4 285.224 138.813 285.357 138.32C285.437 138.053 285.59 137.9 285.817 137.86C286.057 137.806 286.297 137.78 286.537 137.78C286.804 137.78 287.01 137.8 287.157 137.84C287.304 137.88 287.377 138.033 287.377 138.3C287.377 138.393 287.31 138.633 287.177 139.02C287.044 139.393 286.864 139.86 286.637 140.42C286.424 140.966 286.177 141.546 285.897 142.16C286.11 142.16 286.33 142.173 286.557 142.2C286.797 142.213 286.997 142.266 287.157 142.36C287.33 142.44 287.417 142.586 287.417 142.8C287.417 142.92 287.364 143.08 287.257 143.28C287.164 143.48 287.037 143.66 286.877 143.82C286.717 143.98 286.544 144.06 286.357 144.06C286.224 144.06 286.024 144.033 285.757 143.98C285.504 143.913 285.284 143.866 285.097 143.84C284.764 144.52 284.43 145.146 284.097 145.72C283.764 146.293 283.457 146.753 283.177 147.1C282.897 147.446 282.664 147.62 282.477 147.62Z" fill="#E7EEDA"/>
<defs>
<filter id="filter0_d_77_521" x="30.4883" y="85.7892" width="122.277" height="77.1381" filterUnits="userSpaceOnUse" color-interpolation-filters="sRGB">
<feFlood flood-opacity="0" result="BackgroundImageFix"/>
<feColorMatrix in="SourceAlpha" type="matrix" values="0 0 0 0 0 0 0 0 0 0 0 0 0 0 0 0 0 0 127 0" result="hardAlpha"/>
<feOffset dy="4"/>
<feGaussianBlur stdDeviation="2"/>
<feComposite in2="hardAlpha" operator="out"/>
<feColorMatrix type="matrix" values="0 0 0 0 0.393333 0 0 0 0 0.0747333 0 0 0 0 0.303063 0 0 0 0.25 0"/>
<feBlend mode="normal" in2="BackgroundImageFix" result="effect1_dropShadow_77_521"/>
<feBlend mode="normal" in="SourceGraphic" in2="effect1_dropShadow_77_521" result="shape"/>
</filter>
<filter id="filter1_d_77_521" x="192.674" y="93.6025" width="106.184" height="84.1642" filterUnits="userSpaceOnUse" color-interpolation-filters="sRGB">
<feFlood flood-opacity="0" result="BackgroundImageFix"/>
<feColorMatrix in="SourceAlpha" type="matrix" values="0 0 0 0 0 0 0 0 0 0 0 0 0 0 0 0 0 0 127 0" result="hardAlpha"/>
<feOffset dy="4"/>
<feGaussianBlur stdDeviation="2"/>
<feComposite in2="hardAlpha" operator="out"/>
<feColorMatrix type="matrix" values="0 0 0 0 0.393333 0 0 0 0 0.0747333 0 0 0 0 0.303063 0 0 0 0.25 0"/>
<feBlend mode="normal" in2="BackgroundImageFix" result="effect1_dropShadow_77_521"/>
<feBlend mode="normal" in="SourceGraphic" in2="effect1_dropShadow_77_521" result="shape"/>
</filter>
<filter id="filter2_d_77_521" x="119.35" y="132.393" width="107.462" height="102.664" filterUnits="userSpaceOnUse" color-interpolation-filters="sRGB">
<feFlood flood-opacity="0" result="BackgroundImageFix"/>
<feColorMatrix in="SourceAlpha" type="matrix" values="0 0 0 0 0 0 0 0 0 0 0 0 0 0 0 0 0 0 127 0" result="hardAlpha"/>
<feOffset dy="4"/>
<feGaussianBlur stdDeviation="2"/>
<feComposite in2="hardAlpha" operator="out"/>
<feColorMatrix type="matrix" values="0 0 0 0 0.393333 0 0 0 0 0.0747333 0 0 0 0 0.303063 0 0 0 0.25 0"/>
<feBlend mode="normal" in2="BackgroundImageFix" result="effect1_dropShadow_77_521"/>
<feBlend mode="normal" in="SourceGraphic" in2="effect1_dropShadow_77_521" result="shape"/>
</filter>
<filter id="filter3_d_77_521" x="2.22119" y="11.035" width="113.099" height="88.2678" filterUnits="userSpaceOnUse" color-interpolation-filters="sRGB">
<feFlood flood-opacity="0" result="BackgroundImageFix"/>
<feColorMatrix in="SourceAlpha" type="matrix" values="0 0 0 0 0 0 0 0 0 0 0 0 0 0 0 0 0 0 127 0" result="hardAlpha"/>
<feOffset dy="4"/>
<feGaussianBlur stdDeviation="2"/>
<feComposite in2="hardAlpha" operator="out"/>
<feColorMatrix type="matrix" values="0 0 0 0 0.393333 0 0 0 0 0.0747333 0 0 0 0 0.303063 0 0 0 0.25 0"/>
<feBlend mode="normal" in2="BackgroundImageFix" result="effect1_dropShadow_77_521"/>
<feBlend mode="normal" in="SourceGraphic" in2="effect1_dropShadow_77_521" result="shape"/>
</filter>
<filter id="filter4_d_77_521" x="83.4053" y="3.78442" width="190.797" height="123.464" filterUnits="userSpaceOnUse" color-interpolation-filters="sRGB">
<feFlood flood-opacity="0" result="BackgroundImageFix"/>
<feColorMatrix in="SourceAlpha" type="matrix" values="0 0 0 0 0 0 0 0 0 0 0 0 0 0 0 0 0 0 127 0" result="hardAlpha"/>
<feOffset dy="4"/>
<feGaussianBlur stdDeviation="2"/>
<feComposite in2="hardAlpha" operator="out"/>
<feColorMatrix type="matrix" values="0 0 0 0 0.393333 0 0 0 0 0.0747333 0 0 0 0 0.303063 0 0 0 0.25 0"/>
<feBlend mode="normal" in2="BackgroundImageFix" result="effect1_dropShadow_77_521"/>
<feBlend mode="normal" in="SourceGraphic" in2="effect1_dropShadow_77_521" result="shape"/>
</filter>
<filter id="filter5_d_77_521" x="134.229" y="86.4915" width="77.2627" height="81.7699" filterUnits="userSpaceOnUse" color-interpolation-filters="sRGB">
<feFlood flood-opacity="0" result="BackgroundImageFix"/>
<feColorMatrix in="SourceAlpha" type="matrix" values="0 0 0 0 0 0 0 0 0 0 0 0 0 0 0 0 0 0 127 0" result="hardAlpha"/>
<feOffset dy="4"/>
<feGaussianBlur stdDeviation="2"/>
<feComposite in2="hardAlpha" operator="out"/>
<feColorMatrix type="matrix" values="0 0 0 0 0.393333 0 0 0 0 0.0747333 0 0 0 0 0.303063 0 0 0 0.25 0"/>
<feBlend mode="normal" in2="BackgroundImageFix" result="effect1_dropShadow_77_521"/>
<feBlend mode="normal" in="SourceGraphic" in2="effect1_dropShadow_77_521" result="shape"/>
</filter>
<filter id="filter6_d_77_521" x="127.867" y="85.2507" width="89.7891" height="84.859" filterUnits="userSpaceOnUse" color-interpolation-filters="sRGB">
<feFlood flood-opacity="0" result="BackgroundImageFix"/>
<feColorMatrix in="SourceAlpha" type="matrix" values="0 0 0 0 0 0 0 0 0 0 0 0 0 0 0 0 0 0 127 0" result="hardAlpha"/>
<feOffset dy="4"/>
<feGaussianBlur stdDeviation="2"/>
<feComposite in2="hardAlpha" operator="out"/>
<feColorMatrix type="matrix" values="0 0 0 0 0.393333 0 0 0 0 0.0747333 0 0 0 0 0.303063 0 0 0 0.25 0"/>
<feBlend mode="normal" in2="BackgroundImageFix" result="effect1_dropShadow_77_521"/>
<feBlend mode="normal" in="SourceGraphic" in2="effect1_dropShadow_77_521" result="shape"/>
</filter>
<filter id="filter7_d_77_521" x="144.748" y="99.8635" width="55.4458" height="55.48" filterUnits="userSpaceOnUse" color-interpolation-filters="sRGB">
<feFlood flood-opacity="0" result="BackgroundImageFix"/>
<feColorMatrix in="SourceAlpha" type="matrix" values="0 0 0 0 0 0 0 0 0 0 0 0 0 0 0 0 0 0 127 0" result="hardAlpha"/>
<feOffset dy="4"/>
<feGaussianBlur stdDeviation="2"/>
<feComposite in2="hardAlpha" operator="out"/>
<feColorMatrix type="matrix" values="0 0 0 0 0.393333 0 0 0 0 0.0747333 0 0 0 0 0.303063 0 0 0 0.25 0"/>
<feBlend mode="normal" in2="BackgroundImageFix" result="effect1_dropShadow_77_521"/>
<feBlend mode="normal" in="SourceGraphic" in2="effect1_dropShadow_77_521" result="shape"/>
</filter>
<filter id="filter8_d_77_521" x="150.054" y="104.487" width="44.9058" height="44.9323" filterUnits="userSpaceOnUse" color-interpolation-filters="sRGB">
<feFlood flood-opacity="0" result="BackgroundImageFix"/>
<feColorMatrix in="SourceAlpha" type="matrix" values="0 0 0 0 0 0 0 0 0 0 0 0 0 0 0 0 0 0 127 0" result="hardAlpha"/>
<feOffset dy="4"/>
<feGaussianBlur stdDeviation="2"/>
<feComposite in2="hardAlpha" operator="out"/>
<feColorMatrix type="matrix" values="0 0 0 0 0.393333 0 0 0 0 0.0747333 0 0 0 0 0.303063 0 0 0 0.25 0"/>
<feBlend mode="normal" in2="BackgroundImageFix" result="effect1_dropShadow_77_521"/>
<feBlend mode="normal" in="SourceGraphic" in2="effect1_dropShadow_77_521" result="shape"/>
</filter>
<filter id="filter9_i_77_521" x="165.871" y="116.219" width="13.5249" height="17.5347" filterUnits="userSpaceOnUse" color-interpolation-filters="sRGB">
<feFlood flood-opacity="0" result="BackgroundImageFix"/>
<feBlend mode="normal" in="SourceGraphic" in2="BackgroundImageFix" result="shape"/>
<feColorMatrix in="SourceAlpha" type="matrix" values="0 0 0 0 0 0 0 0 0 0 0 0 0 0 0 0 0 0 127 0" result="hardAlpha"/>
<feOffset dy="4"/>
<feGaussianBlur stdDeviation="2"/>
<feComposite in2="hardAlpha" operator="arithmetic" k2="-1" k3="1"/>
<feColorMatrix type="matrix" values="0 0 0 0 0.393333 0 0 0 0 0.0747333 0 0 0 0 0.303063 0 0 0 0.25 0"/>
<feBlend mode="normal" in2="shape" result="effect1_innerShadow_77_521"/>
</filter>
</defs>
</svg>
