<svg width="683" height="640" viewBox="0 0 683 640" fill="none" xmlns="http://www.w3.org/2000/svg">
<g filter="url(#filter0_d_142_2037)">
<g filter="url(#filter1_d_142_2037)">
<path d="M629.239 365.985C630.143 366.62 631.391 366.402 632.026 365.498L634.179 362.432C634.551 361.902 634.644 361.226 634.428 360.616L632.177 354.246C631.744 353.021 632.577 351.714 633.871 351.589L636.99 351.288C638.838 351.109 639.467 348.728 637.947 347.661L575.929 304.099L504.473 253.907L417.345 192.709L290.694 105.156L212.766 49.0409C211.862 48.3901 210.601 48.603 209.961 49.5144L205.376 56.0415L200.778 62.5879C200.143 63.4918 200.361 64.7392 201.265 65.3741L295.531 131.587L330.58 154.984L412.745 213.918L528.705 295.369L629.239 365.985Z" fill="#412920"/>
</g>
<path d="M254.863 98.8622L620.795 356.166" stroke="#362018" stroke-width="2"/>
<path d="M232.37 74.9159L518.197 275.682" stroke="#362018" stroke-width="2"/>
<path d="M216.143 55.3718L501.97 256.138" stroke="#57372A" stroke-width="2"/>
</g>
<g filter="url(#filter2_d_142_2037)">
<g filter="url(#filter3_d_142_2037)">
<path d="M42.0502 292.045C41.1463 291.41 40.9283 290.163 41.5631 289.259L43.7167 286.193C44.0885 285.664 44.6935 285.347 45.3404 285.343L52.0957 285.299C53.3955 285.291 54.3421 284.064 54.0207 282.805L53.2459 279.768C52.7868 277.969 54.8139 276.57 56.3334 277.637L118.351 321.199L189.808 371.39L276.935 432.588L402.263 522.027L481.488 576.296C482.406 576.925 482.634 578.184 481.994 579.095L477.409 585.622L472.811 592.169C472.176 593.073 470.929 593.291 470.025 592.656L375.759 526.443L341.859 501.41L258.545 444.112L142.584 362.661L42.0502 292.045Z" fill="#412920"/>
</g>
<path d="M473.717 586.881L318.267 477.692" stroke="#362018" stroke-width="2"/>
<path d="M211.645 402.936L56.1953 293.748" stroke="#57372A" stroke-width="2"/>
<path d="M243.567 416.126L88.1177 306.937" stroke="#362018" stroke-width="2"/>
</g>
<g filter="url(#filter4_d_142_2037)">
<path d="M240.331 51.5105C241.01 50.545 242.372 50.3733 243.268 51.1403L285.287 87.0885C285.42 87.2026 285.568 87.2987 285.726 87.3742L312.887 100.317C314.075 100.883 314.402 102.423 313.546 103.423L280.086 142.506C280.005 142.601 279.932 142.704 279.87 142.813L252.018 191.454L212.071 248.326L164.795 315.632L118.669 381.301C118.034 382.205 116.786 382.423 115.882 381.788L80.6952 357.073L45.508 332.357C44.6042 331.722 44.3861 330.475 45.021 329.571L92.7278 261.651L141.584 192.095L194.752 116.402L240.331 51.5105Z" fill="#412920"/>
</g>
<path d="M69.9508 347.693L141.224 246.223" stroke="#362018" stroke-width="2"/>
<path d="M189.671 176.379L260.944 74.9091" stroke="#57372A" stroke-width="2"/>
<path d="M204.848 213.924L276.121 112.454" stroke="#362018" stroke-width="2"/>
<path d="M117.258 324.708L188.531 223.237" stroke="#543529" stroke-width="2"/>
<path d="M80.8332 305.233L247.851 65.7125" stroke="#362018" stroke-width="2"/>
<path d="M93.3122 339.661L224.362 153.087" stroke="#362018" stroke-width="2"/>
<path d="M108.665 369.997L239.715 183.423" stroke="#57372A" stroke-width="2"/>
<g filter="url(#filter5_d_142_2037)">
<path d="M399.047 159.589C399.768 158.563 401.245 158.446 402.118 159.345L420.734 178.503C420.913 178.687 421.126 178.836 421.362 178.939L446.489 190.008C446.609 190.061 446.724 190.126 446.832 190.202L472.447 208.194C473.35 208.829 473.569 210.076 472.934 210.98L441.895 255.168L410.857 299.357L370.91 356.229L313.788 428.534L277.465 488.999C276.867 489.994 275.55 490.273 274.601 489.606L239.535 464.976L204.562 440.411C203.578 439.72 203.422 438.324 204.227 437.433L227.228 411.989C227.324 411.883 227.409 411.766 227.48 411.641L251.567 369.554L300.424 299.998L353.591 224.305L399.047 159.589Z" fill="#412920"/>
</g>
<path d="M228.79 455.596L300.063 354.126" stroke="#362018" stroke-width="2"/>
<path d="M348.51 284.282L419.783 182.812" stroke="#57372A" stroke-width="2"/>
<path d="M363.688 321.828L434.96 220.357" stroke="#362018" stroke-width="2"/>
<path d="M276.097 432.611L347.37 331.141" stroke="#543529" stroke-width="2"/>
<path d="M239.673 413.136L406.69 173.616" stroke="#362018" stroke-width="2"/>
<path d="M252.152 447.564L383.202 260.99" stroke="#362018" stroke-width="2"/>
<path d="M267.504 477.9L398.554 291.326" stroke="#57372A" stroke-width="2"/>
<g filter="url(#filter6_d_142_2037)">
<path d="M207.81 421.411C207.09 422.437 205.613 422.555 204.739 421.655L186.124 402.497C185.945 402.313 185.732 402.165 185.496 402.061L160.369 390.992C160.249 390.939 160.134 390.874 160.026 390.798L134.411 372.806C133.507 372.172 133.289 370.924 133.924 370.02L164.962 325.832L196.001 281.643L235.948 224.771L293.07 152.466L329.393 92.0006C329.991 91.0056 331.307 90.7268 332.257 91.3939L367.323 116.024L402.296 140.59C403.28 141.28 403.436 142.676 402.63 143.567L379.63 169.011C379.534 169.118 379.449 169.234 379.378 169.359L355.291 211.446L306.434 281.002L253.267 356.695L207.81 421.411Z" fill="#412920"/>
</g>
<path d="M378.068 125.404L306.795 226.874" stroke="#362018" stroke-width="2"/>
<path d="M258.348 296.718L187.075 398.188" stroke="#57372A" stroke-width="2"/>
<path d="M243.17 259.172L171.897 360.643" stroke="#362018" stroke-width="2"/>
<path d="M330.761 148.39L259.488 249.86" stroke="#543529" stroke-width="2"/>
<path d="M367.185 167.864L200.167 407.385" stroke="#362018" stroke-width="2"/>
<path d="M354.706 133.436L223.656 320.01" stroke="#362018" stroke-width="2"/>
<path d="M339.354 103.1L208.304 289.674" stroke="#57372A" stroke-width="2"/>
<g filter="url(#filter7_d_142_2037)">
<path d="M363.652 533.581C362.974 534.547 361.612 534.718 360.716 533.951L318.697 498.003C318.564 497.889 318.416 497.793 318.258 497.717L291.097 484.775C289.908 484.208 289.582 482.668 290.438 481.668L323.897 442.586C323.979 442.49 324.051 442.388 324.114 442.279L351.966 393.638L391.913 336.765L439.189 269.46L485.315 203.79C485.95 202.887 487.198 202.669 488.101 203.303L523.289 228.019L558.476 252.735C559.38 253.37 559.598 254.617 558.963 255.521L516.807 315.538C516.395 316.124 515.702 316.445 514.989 316.38L505.962 315.561C505.168 315.489 504.407 315.896 504.025 316.596L462.4 392.996L409.232 468.69L363.652 533.581Z" fill="#412920"/>
</g>
<path d="M534.033 237.399L462.76 338.869" stroke="#362018" stroke-width="2"/>
<path d="M414.313 408.713L343.04 510.183" stroke="#57372A" stroke-width="2"/>
<path d="M399.136 371.167L327.863 472.637" stroke="#362018" stroke-width="2"/>
<path d="M486.726 260.384L415.453 361.854" stroke="#543529" stroke-width="2"/>
<path d="M523.151 279.859L356.133 519.379" stroke="#362018" stroke-width="2"/>
<path d="M510.672 245.431L379.622 432.005" stroke="#362018" stroke-width="2"/>
<path d="M495.319 215.094L364.269 401.668" stroke="#57372A" stroke-width="2"/>
<g filter="url(#filter8_d_142_2037)">
<path d="M556.975 268.789C557.61 267.885 558.858 267.667 559.762 268.302L582.918 284.568C583.028 284.645 583.13 284.732 583.222 284.83L601.76 304.432C601.93 304.611 602.13 304.758 602.353 304.864L629.636 317.865C630.753 318.397 631.124 319.807 630.412 320.82L601.309 362.253L568.547 408.897L528.599 465.769L466.592 545.029L435.147 598.511C434.555 599.518 433.229 599.806 432.273 599.134L397.224 574.515L362.037 549.8C361.133 549.165 360.915 547.917 361.55 547.014L404.278 486.183C404.34 486.094 404.409 486.011 404.485 485.934L423.698 466.298C423.806 466.188 423.9 466.066 423.98 465.935L458.113 409.538L511.281 333.845L556.975 268.789Z" fill="#412920"/>
</g>
<path d="M386.48 565.135L457.752 463.665" stroke="#362018" stroke-width="2"/>
<path d="M506.2 393.822L577.473 292.352" stroke="#57372A" stroke-width="2"/>
<path d="M521.377 431.367L592.65 329.897" stroke="#362018" stroke-width="2"/>
<path d="M433.787 542.15L505.06 440.68" stroke="#543529" stroke-width="2"/>
<path d="M397.362 522.676L564.38 283.155" stroke="#362018" stroke-width="2"/>
<path d="M409.841 557.104L540.891 370.53" stroke="#362018" stroke-width="2"/>
<path d="M425.194 587.44L556.244 400.866" stroke="#57372A" stroke-width="2"/>
<g filter="url(#filter9_d_142_2037)">
<circle cx="72.9557" cy="304.588" r="4" transform="rotate(35.0843 72.9557 304.588)" fill="#362018" stroke="#57372A"/>
<circle cx="132.692" cy="346.547" r="4" transform="rotate(35.0843 132.692 346.547)" fill="#362018" stroke="#57372A"/>
<circle cx="233.895" cy="75.4623" r="4" transform="rotate(35.0843 233.895 75.4623)" fill="#362018" stroke="#57372A"/>
<circle cx="293.631" cy="117.421" r="4" transform="rotate(35.0843 293.631 117.421)" fill="#362018" stroke="#57372A"/>
<circle cx="151.513" cy="359.767" r="4" transform="rotate(35.0843 151.513 359.767)" fill="#362018" stroke="#57372A"/>
<circle cx="211.25" cy="401.726" r="4" transform="rotate(35.0843 211.25 401.726)" fill="#362018" stroke="#57372A"/>
<circle cx="312.452" cy="130.641" r="4" transform="rotate(35.0843 312.452 130.641)" fill="#362018" stroke="#57372A"/>
<circle cx="372.189" cy="172.6" r="4" transform="rotate(35.0843 372.189 172.6)" fill="#362018" stroke="#57372A"/>
<circle cx="230.071" cy="414.946" r="4" transform="rotate(35.0843 230.071 414.946)" fill="#362018" stroke="#57372A"/>
<circle cx="289.807" cy="456.905" r="4" transform="rotate(35.0843 289.807 456.905)" fill="#362018" stroke="#57372A"/>
<circle cx="391.009" cy="185.82" r="4" transform="rotate(35.0843 391.009 185.82)" fill="#362018" stroke="#57372A"/>
<circle cx="450.746" cy="227.779" r="4" transform="rotate(35.0843 450.746 227.779)" fill="#362018" stroke="#57372A"/>
<circle cx="305.511" cy="472.824" r="4" transform="rotate(35.0843 305.511 472.824)" fill="#362018" stroke="#57372A"/>
<circle cx="365.247" cy="514.783" r="4" transform="rotate(35.0843 365.247 514.783)" fill="#362018" stroke="#57372A"/>
<circle cx="466.449" cy="243.698" r="4" transform="rotate(35.0843 466.449 243.698)" fill="#362018" stroke="#57372A"/>
<circle cx="526.186" cy="285.657" r="4" transform="rotate(35.0843 526.186 285.657)" fill="#362018" stroke="#57372A"/>
<circle cx="388.335" cy="523.668" r="4" transform="rotate(35.0843 388.335 523.668)" fill="#362018" stroke="#57372A"/>
<circle cx="448.071" cy="565.627" r="4" transform="rotate(35.0843 448.071 565.627)" fill="#362018" stroke="#57372A"/>
<circle cx="549.274" cy="294.542" r="4" transform="rotate(35.0843 549.274 294.542)" fill="#362018" stroke="#57372A"/>
<circle cx="609.01" cy="336.501" r="4" transform="rotate(35.0843 609.01 336.501)" fill="#362018" stroke="#57372A"/>
</g>
<defs>
<filter id="filter0_d_142_2037" x="196.414" y="48.6637" width="446.386" height="325.685" filterUnits="userSpaceOnUse" color-interpolation-filters="sRGB">
<feFlood flood-opacity="0" result="BackgroundImageFix"/>
<feColorMatrix in="SourceAlpha" type="matrix" values="0 0 0 0 0 0 0 0 0 0 0 0 0 0 0 0 0 0 127 0" result="hardAlpha"/>
<feOffset dy="4"/>
<feGaussianBlur stdDeviation="2"/>
<feComposite in2="hardAlpha" operator="out"/>
<feColorMatrix type="matrix" values="0 0 0 0 0 0 0 0 0 0 0 0 0 0 0 0 0 0 0.25 0"/>
<feBlend mode="normal" in2="BackgroundImageFix" result="effect1_dropShadow_142_2037"/>
<feBlend mode="normal" in="SourceGraphic" in2="effect1_dropShadow_142_2037" result="shape"/>
</filter>
<filter id="filter3_d_142_2037" x="37.1997" y="277.266" width="449.158" height="323.753" filterUnits="userSpaceOnUse" color-interpolation-filters="sRGB">
<feFlood flood-opacity="0" result="BackgroundImageFix"/>
<feColorMatrix in="SourceAlpha" type="matrix" values="0 0 0 0 0 0 0 0 0 0 0 0 0 0 0 0 0 0 127 0" result="hardAlpha"/>
<feOffset dy="4"/>
<feGaussianBlur stdDeviation="2"/>
<feComposite in2="hardAlpha" operator="out"/>
<feColorMatrix type="matrix" values="0 0 0 0 0.0941176 0 0 0 0 0.0980392 0 0 0 0 0.0862745 0 0 0 0.7 0"/>
<feBlend mode="normal" in2="BackgroundImageFix" result="effect1_dropShadow_142_2037"/>
<feBlend mode="normal" in="SourceGraphic" in2="effect1_dropShadow_142_2037" result="shape"/>
</filter>
<filter id="filter4_d_142_2037" x="40.6572" y="50.6599" width="277.37" height="339.492" filterUnits="userSpaceOnUse" color-interpolation-filters="sRGB">
<feFlood flood-opacity="0" result="BackgroundImageFix"/>
<feColorMatrix in="SourceAlpha" type="matrix" values="0 0 0 0 0 0 0 0 0 0 0 0 0 0 0 0 0 0 127 0" result="hardAlpha"/>
<feOffset dy="4"/>
<feGaussianBlur stdDeviation="2"/>
<feComposite in2="hardAlpha" operator="out"/>
<feColorMatrix type="matrix" values="0 0 0 0 0.0941176 0 0 0 0 0.0980392 0 0 0 0 0.0862745 0 0 0 0.7 0"/>
<feBlend mode="normal" in2="BackgroundImageFix" result="effect1_dropShadow_142_2037"/>
<feBlend mode="normal" in="SourceGraphic" in2="effect1_dropShadow_142_2037" result="shape"/>
</filter>
<filter id="filter5_d_142_2037" x="199.711" y="158.739" width="277.586" height="339.231" filterUnits="userSpaceOnUse" color-interpolation-filters="sRGB">
<feFlood flood-opacity="0" result="BackgroundImageFix"/>
<feColorMatrix in="SourceAlpha" type="matrix" values="0 0 0 0 0 0 0 0 0 0 0 0 0 0 0 0 0 0 127 0" result="hardAlpha"/>
<feOffset dy="4"/>
<feGaussianBlur stdDeviation="2"/>
<feComposite in2="hardAlpha" operator="out"/>
<feColorMatrix type="matrix" values="0 0 0 0 0.0941176 0 0 0 0 0.0980392 0 0 0 0 0.0862745 0 0 0 0.7 0"/>
<feBlend mode="normal" in2="BackgroundImageFix" result="effect1_dropShadow_142_2037"/>
<feBlend mode="normal" in="SourceGraphic" in2="effect1_dropShadow_142_2037" result="shape"/>
</filter>
<filter id="filter6_d_142_2037" x="129.561" y="91.0303" width="277.586" height="339.231" filterUnits="userSpaceOnUse" color-interpolation-filters="sRGB">
<feFlood flood-opacity="0" result="BackgroundImageFix"/>
<feColorMatrix in="SourceAlpha" type="matrix" values="0 0 0 0 0 0 0 0 0 0 0 0 0 0 0 0 0 0 127 0" result="hardAlpha"/>
<feOffset dy="4"/>
<feGaussianBlur stdDeviation="2"/>
<feComposite in2="hardAlpha" operator="out"/>
<feColorMatrix type="matrix" values="0 0 0 0 0.0941176 0 0 0 0 0.0980392 0 0 0 0 0.0862745 0 0 0 0.7 0"/>
<feBlend mode="normal" in2="BackgroundImageFix" result="effect1_dropShadow_142_2037"/>
<feBlend mode="normal" in="SourceGraphic" in2="effect1_dropShadow_142_2037" result="shape"/>
</filter>
<filter id="filter7_d_142_2037" x="285.957" y="202.94" width="277.37" height="339.492" filterUnits="userSpaceOnUse" color-interpolation-filters="sRGB">
<feFlood flood-opacity="0" result="BackgroundImageFix"/>
<feColorMatrix in="SourceAlpha" type="matrix" values="0 0 0 0 0 0 0 0 0 0 0 0 0 0 0 0 0 0 127 0" result="hardAlpha"/>
<feOffset dy="4"/>
<feGaussianBlur stdDeviation="2"/>
<feComposite in2="hardAlpha" operator="out"/>
<feColorMatrix type="matrix" values="0 0 0 0 0.0941176 0 0 0 0 0.0980392 0 0 0 0 0.0862745 0 0 0 0.7 0"/>
<feBlend mode="normal" in2="BackgroundImageFix" result="effect1_dropShadow_142_2037"/>
<feBlend mode="normal" in="SourceGraphic" in2="effect1_dropShadow_142_2037" result="shape"/>
</filter>
<filter id="filter8_d_142_2037" x="357.186" y="267.939" width="277.59" height="339.559" filterUnits="userSpaceOnUse" color-interpolation-filters="sRGB">
<feFlood flood-opacity="0" result="BackgroundImageFix"/>
<feColorMatrix in="SourceAlpha" type="matrix" values="0 0 0 0 0 0 0 0 0 0 0 0 0 0 0 0 0 0 127 0" result="hardAlpha"/>
<feOffset dy="4"/>
<feGaussianBlur stdDeviation="2"/>
<feComposite in2="hardAlpha" operator="out"/>
<feColorMatrix type="matrix" values="0 0 0 0 0.0941176 0 0 0 0 0.0980392 0 0 0 0 0.0862745 0 0 0 0.7 0"/>
<feBlend mode="normal" in2="BackgroundImageFix" result="effect1_dropShadow_142_2037"/>
<feBlend mode="normal" in="SourceGraphic" in2="effect1_dropShadow_142_2037" result="shape"/>
</filter>
<filter id="filter9_d_142_2037" x="64.4556" y="70.9619" width="553.055" height="507.165" filterUnits="userSpaceOnUse" color-interpolation-filters="sRGB">
<feFlood flood-opacity="0" result="BackgroundImageFix"/>
<feColorMatrix in="SourceAlpha" type="matrix" values="0 0 0 0 0 0 0 0 0 0 0 0 0 0 0 0 0 0 127 0" result="hardAlpha"/>
<feOffset dy="4"/>
<feGaussianBlur stdDeviation="2"/>
<feComposite in2="hardAlpha" operator="out"/>
<feColorMatrix type="matrix" values="0 0 0 0 0 0 0 0 0 0 0 0 0 0 0 0 0 0 0.25 0"/>
<feBlend mode="normal" in2="BackgroundImageFix" result="effect1_dropShadow_142_2037"/>
<feBlend mode="normal" in="SourceGraphic" in2="effect1_dropShadow_142_2037" result="shape"/>
</filter>
</defs>
</svg>
